<svg width="24" height="24" viewBox="0 0 24 24" fill="none" xmlns="http://www.w3.org/2000/svg">
<path fill-rule="evenodd" clip-rule="evenodd" d="M3.56231 1.54297H2.80605H2.7998L2.79981 1.54298C2.76879 1.54305 2.73776 1.5437 2.70652 1.54434L2.70651 1.54434C2.63916 1.54574 2.57088 1.54715 2.4998 1.54297C2.1623 1.54922 2.0248 1.68672 2.01855 2.02422V2.58047C2.01855 2.94922 2.1498 3.08047 2.51855 3.08672C2.56543 3.08672 2.6123 3.08828 2.65918 3.08984C2.70605 3.09141 2.75293 3.09297 2.7998 3.09297H4.3498C4.49671 3.09297 4.6446 3.09099 4.7931 3.08899H4.79311C5.01735 3.08599 5.24295 3.08296 5.46855 3.08672C5.7248 3.09297 5.86855 3.23672 5.8873 3.49297V3.68047V13.3117C5.8873 13.7992 5.7873 13.8992 5.2998 13.8992C5.14043 13.8961 4.98105 13.8945 4.82168 13.893L4.82139 13.893C4.66211 13.8914 4.50283 13.8898 4.34355 13.8867H3.55605H2.79355C2.69355 13.893 2.59355 13.8992 2.49355 13.8992C2.16855 13.9117 2.0248 14.0492 2.01855 14.3742V14.9805C2.0248 15.3055 2.1623 15.4367 2.49355 15.443H2.7998C2.80617 15.3973 2.81385 15.3539 2.8229 15.3127C2.81362 15.3558 2.80594 15.4013 2.7998 15.4492V15.468C3.26092 15.4342 3.7271 15.446 4.19379 15.4578H4.1938L4.34981 15.4617L4.34985 15.4617C4.44984 15.4555 4.54982 15.4492 4.64981 15.4492H19.8561C19.91 15.4492 19.9623 15.4476 20.0138 15.446C20.0638 15.4445 20.1131 15.443 20.1623 15.443C19.7873 14.468 19.4123 13.4992 19.0373 12.5305C18.8582 12.0665 18.6782 11.6034 18.4983 11.1405L18.498 11.1398C18.1884 10.3433 17.8791 9.54751 17.5748 8.74922C17.5406 8.66361 17.529 8.578 17.5325 8.49264C17.5304 8.57527 17.5423 8.65878 17.5752 8.74298C17.8795 9.54134 18.1888 10.3372 18.4984 11.1337C18.6784 11.5968 18.8584 12.0601 19.0377 12.5242C19.4126 13.4992 19.7876 14.468 20.1626 15.4367C20.6189 15.443 21.0814 15.443 21.5564 15.4367C21.7814 15.4367 21.9001 15.3055 21.9439 15.0992C21.9648 14.9947 21.9245 14.9033 21.8852 14.814C21.8775 14.7965 21.8698 14.7791 21.8626 14.7617C21.4689 13.7524 21.0751 12.7414 20.6814 11.7305C20.2876 10.7195 19.8939 9.7086 19.5001 8.69923C19.4439 8.55548 19.4439 8.43048 19.5001 8.28048C19.6941 7.78773 19.8857 7.29499 20.0779 6.80075C20.1953 6.49883 20.3129 6.19635 20.4314 5.89297C20.6328 5.37246 20.8353 4.85194 21.038 4.33097C21.3196 3.6071 21.6016 2.88234 21.8814 2.15547C22.0251 1.78047 21.8626 1.54297 21.4564 1.54297C21.2408 1.54297 21.0267 1.54453 20.8126 1.54609C20.5986 1.54766 20.3845 1.54922 20.1689 1.54922C20.1681 1.5513 20.1674 1.55339 20.1667 1.55547C20.1134 1.55543 20.0617 1.55384 20.0108 1.55227C19.9608 1.55073 19.9116 1.54922 19.8623 1.54922H4.65606C4.60213 1.54922 4.54981 1.54761 4.49828 1.54602L4.49827 1.54602C4.44829 1.54448 4.39905 1.54297 4.34981 1.54297H3.56231ZM3.67481 14.6867C3.25707 14.6867 3.00533 14.8195 2.87991 15.1248C3.00565 14.8151 3.25423 14.6805 3.6748 14.6805C3.87943 14.6805 4.08337 14.6798 4.28684 14.6791C4.69239 14.6777 5.0961 14.6763 5.4998 14.6805C5.8833 14.6841 6.2177 14.4743 6.42818 14.1921C6.21838 14.4767 5.88492 14.6904 5.49981 14.6867C5.09124 14.6826 4.68545 14.6839 4.28059 14.6853L4.2799 14.6853C4.07805 14.686 3.87643 14.6867 3.67481 14.6867ZM6.64931 5.4822C6.64831 8.15983 6.64731 10.8375 6.66219 13.5151C6.64356 11.003 6.6459 8.49099 6.64824 5.97893C6.64902 5.14048 6.6498 4.30203 6.6498 3.46358L6.64981 3.46797C6.64981 4.13922 6.64956 4.81047 6.64931 5.48172V5.4822ZM2.9525 1.99986C2.87294 1.88766 2.82302 1.7475 2.80866 1.58561C2.82189 1.74787 2.87184 1.88806 2.9525 1.99986Z" fill="url(#paint0_linear_11497_39485)"/>
<path fill-rule="evenodd" clip-rule="evenodd" d="M2.79382 1.54336H3.55566H3.55632H4.34316C4.34316 1.45609 4.34215 1.36831 4.34113 1.28031L4.34113 1.28028C4.33857 1.05949 4.336 0.837326 4.34941 0.618359C4.36191 0.368359 4.31191 0.168359 4.11816 0.00585938H3.55632H3.55566H3.03757C2.83757 0.130859 2.78132 0.305859 2.78757 0.537109C2.79694 0.790039 2.79577 1.03946 2.7946 1.29063L2.7946 1.29066C2.79421 1.37463 2.79382 1.4588 2.79382 1.54336ZM3.5623 13.8935H2.7998V3.10596H4.3498C4.3498 3.23797 4.34822 3.36999 4.34665 3.50121V3.50122V3.50122L4.34665 3.50128C4.3451 3.63096 4.34355 3.75985 4.34355 3.88721C4.34147 3.88697 4.3394 3.88674 4.33732 3.88653C4.33751 3.91256 4.33897 3.93732 4.34043 3.96209C4.34199 3.98865 4.34355 4.01521 4.34355 4.04334V13.8871H3.56229C3.5623 13.8892 3.5623 13.8913 3.5623 13.8935ZM4.34395 15.4619C3.8252 15.4431 3.3127 15.4306 2.79395 15.4681C2.79395 16.3283 2.79464 17.1885 2.79533 18.0489V18.0489V18.0489V18.049V18.049C2.79672 19.7705 2.79811 21.4929 2.79395 23.2181C2.79395 23.9179 2.8564 23.9806 3.55566 23.9432V23.9435C3.60566 23.9435 3.64941 23.9497 3.69316 23.956C4.25566 23.956 4.34316 23.8747 4.34316 23.3122V19.2685C4.34316 18.7623 4.3416 18.2561 4.34004 17.7499L4.34004 17.7497L4.34004 17.7495C4.33848 17.2433 4.33691 16.7371 4.33691 16.231C4.21654 16.2371 4.10842 16.2602 4.01373 16.2993C4.1086 16.26 4.21699 16.2367 4.3377 16.2306C4.3377 16.1025 4.33926 15.9744 4.34082 15.8463C4.34238 15.7181 4.34395 15.59 4.34395 15.4619Z" fill="#635563"/>
<defs>
<linearGradient id="paint0_linear_11497_39485" x1="20.5" y1="8.49902" x2="1.5" y2="8.49902" gradientUnits="userSpaceOnUse">
<stop stop-color="#FAA95E"/>
<stop offset="0.401698" stop-color="#F68B5A"/>
</linearGradient>
</defs>
</svg>
