<svg width="45" height="45" viewBox="0 0 45 45" fill="none" xmlns="http://www.w3.org/2000/svg">
<path d="M22.498 0C9.826 0 0 9.28605 0 21.8231C0 28.3812 2.68851 34.0507 7.06437 37.9654C7.42997 38.2916 7.65495 38.7528 7.6662 39.2478L7.78993 43.2524C7.82931 44.5292 9.14544 45.3616 10.3153 44.8441L14.7812 42.8756C15.158 42.7068 15.5855 42.6787 15.9848 42.7856C18.0378 43.348 20.2201 43.6518 22.498 43.6518C35.17 43.6518 44.996 34.3657 44.996 21.8287C44.996 9.29168 35.17 0 22.498 0Z" fill="url(#paint0_radial_11478_46808)"/>
<path d="M8.98776 28.2074L15.5965 17.7233C16.6483 16.0529 18.8981 15.6423 20.4786 16.8234L25.7375 20.7662C26.2212 21.1262 26.8849 21.1262 27.363 20.7606L34.4611 15.3723C35.406 14.6524 36.6433 15.7885 36.0134 16.7953L29.399 27.2737C28.3472 28.9442 26.0974 29.3548 24.517 28.1737L19.2581 24.2309C18.7744 23.8709 18.1107 23.8709 17.6326 24.2365L10.5345 29.6248C9.58958 30.3447 8.3522 29.2142 8.98776 28.2074Z" fill="white"/>
<defs>
<radialGradient id="paint0_radial_11478_46808" cx="0" cy="0" r="1" gradientUnits="userSpaceOnUse" gradientTransform="translate(8.66173 44.751) scale(49.0277)">
<stop stop-color="#0099FF"/>
<stop offset="0.317708" stop-color="#5364FF"/>
<stop offset="0.6098" stop-color="#A033FF"/>
<stop offset="0.9348" stop-color="#FF91AE"/>
<stop offset="1" stop-color="#FFA399"/>
</radialGradient>
</defs>
</svg>
