<svg width="20" height="20" viewBox="0 0 20 20" fill="none" xmlns="http://www.w3.org/2000/svg">
<path d="M5.78125 6.0415C5.63621 6.0415 5.49711 6.09912 5.39455 6.20168C5.29199 6.30424 5.23438 6.44334 5.23438 6.58838C5.23438 6.73342 5.29199 6.87252 5.39455 6.97508C5.49711 7.07764 5.63621 7.13525 5.78125 7.13525H13.4375C13.5825 7.13525 13.7216 7.07764 13.8242 6.97508C13.9268 6.87252 13.9844 6.73342 13.9844 6.58838C13.9844 6.44334 13.9268 6.30424 13.8242 6.20168C13.7216 6.09912 13.5825 6.0415 13.4375 6.0415H5.78125ZM5.23438 8.77588C5.23438 8.63084 5.29199 8.49174 5.39455 8.38918C5.49711 8.28662 5.63621 8.229 5.78125 8.229H13.4375C13.5825 8.229 13.7216 8.28662 13.8242 8.38918C13.9268 8.49174 13.9844 8.63084 13.9844 8.77588C13.9844 8.92092 13.9268 9.06002 13.8242 9.16258C13.7216 9.26514 13.5825 9.32275 13.4375 9.32275H5.78125C5.63621 9.32275 5.49711 9.26514 5.39455 9.16258C5.29199 9.06002 5.23438 8.92092 5.23438 8.77588ZM5.78125 10.4165C5.63621 10.4165 5.49711 10.4741 5.39455 10.5767C5.29199 10.6792 5.23438 10.8183 5.23438 10.9634C5.23438 11.1084 5.29199 11.2475 5.39455 11.3501C5.49711 11.4526 5.63621 11.5103 5.78125 11.5103H10.1562C10.3013 11.5103 10.4404 11.4526 10.5429 11.3501C10.6455 11.2475 10.7031 11.1084 10.7031 10.9634C10.7031 10.8183 10.6455 10.6792 10.5429 10.5767C10.4404 10.4741 10.3013 10.4165 10.1562 10.4165H5.78125Z" fill="#929DAA"/>
<path d="M2.5 3.85413C2.5 3.27396 2.73047 2.71757 3.1407 2.30733C3.55094 1.89709 4.10734 1.66663 4.6875 1.66663L14.5312 1.66663C15.1114 1.66663 15.6678 1.89709 16.078 2.30733C16.4883 2.71757 16.7188 3.27396 16.7188 3.85413V16.9791C16.7188 17.5593 16.4883 18.1157 16.078 18.5259C15.6678 18.9362 15.1114 19.1666 14.5312 19.1666H4.6875C4.10734 19.1666 3.55094 18.9362 3.1407 18.5259C2.73047 18.1157 2.5 17.5593 2.5 16.9791V3.85413ZM14.5312 2.76038H4.6875C4.39742 2.76038 4.11922 2.87561 3.9141 3.08073C3.70898 3.28585 3.59375 3.56405 3.59375 3.85413V16.9791C3.59375 17.2692 3.70898 17.5474 3.9141 17.7525C4.11922 17.9576 4.39742 18.0729 4.6875 18.0729H14.5312C14.8213 18.0729 15.0995 17.9576 15.3046 17.7525C15.5098 17.5474 15.625 17.2692 15.625 16.9791V3.85413C15.625 3.56405 15.5098 3.28585 15.3046 3.08073C15.0995 2.87561 14.8213 2.76038 14.5312 2.76038Z" fill="#929DAA"/>
</svg>
