<svg width="90" height="79" viewBox="0 0 90 79" fill="none" xmlns="http://www.w3.org/2000/svg">
<path d="M44.6033 78.6567C69.237 78.6567 89.2066 74.9253 89.2066 70.3225C89.2066 65.7196 69.237 61.9883 44.6033 61.9883C19.9696 61.9883 0 65.7196 0 70.3225C0 74.9253 19.9696 78.6567 44.6033 78.6567Z" fill="#F0F1F3"/>
<path fill-rule="evenodd" clip-rule="evenodd" d="M80.2854 45.8385L64.5452 26.4667C63.79 25.5549 62.686 25.0029 61.5235 25.0029H27.6814C26.5196 25.0029 25.4156 25.5549 24.6604 26.4667L8.9209 45.8385V55.9588H80.286V45.8385H80.2854Z" fill="#A1ACB8"/>
<path fill-rule="evenodd" clip-rule="evenodd" d="M22.2566 0H66.9493C67.6473 0 68.3166 0.277255 68.8102 0.770772C69.3037 1.26429 69.5809 1.93364 69.5809 2.63158V64.0421C69.5809 64.74 69.3037 65.4094 68.8102 65.9029C68.3166 66.3964 67.6473 66.6737 66.9493 66.6737H22.2566C21.5586 66.6737 20.8893 66.3964 20.3958 65.9029C19.9023 65.4094 19.625 64.74 19.625 64.0421V2.63158C19.625 1.93364 19.9023 1.26429 20.3958 0.770772C20.8893 0.277255 21.5586 0 22.2566 0V0Z" fill="#F2F4F7"/>
<path d="M61.1283 6.54785H28.0777C27.7287 6.54785 27.394 6.68648 27.1472 6.93324C26.9005 7.18 26.7619 7.51467 26.7619 7.86364V24.2827C26.7619 24.6317 26.9005 24.9664 27.1472 25.2131C27.394 25.4599 27.7287 25.5985 28.0777 25.5985H61.1283C61.4773 25.5985 61.812 25.4599 62.0587 25.2131C62.3055 24.9664 62.4441 24.6317 62.4441 24.2827V7.86364C62.4441 7.51467 62.3055 7.18 62.0587 6.93324C61.812 6.68648 61.4773 6.54785 61.1283 6.54785Z" fill="#CDD3DB"/>
<path d="M60.9559 32.7413H28.25C27.8553 32.7413 27.4768 32.8981 27.1977 33.1771C26.9186 33.4562 26.7619 33.8347 26.7619 34.2294C26.7619 34.6241 26.9186 35.0026 27.1977 35.2817C27.4768 35.5608 27.8553 35.7176 28.25 35.7176H60.9559C61.3506 35.7176 61.7291 35.5608 62.0082 35.2817C62.2873 35.0026 62.4441 34.6241 62.4441 34.2294C62.4441 33.8347 62.2873 33.4562 62.0082 33.1771C61.7291 32.8981 61.3506 32.7413 60.9559 32.7413Z" fill="#CDD3DB"/>
<path d="M60.9559 40.4801H28.25C27.8552 40.4801 27.4766 40.6369 27.1975 40.9161C26.9184 41.1952 26.7615 41.5738 26.7615 41.9686C26.7615 42.3633 26.9184 42.7419 27.1975 43.0211C27.4766 43.3002 27.8552 43.4571 28.25 43.4571H60.9559C61.3507 43.4571 61.7293 43.3002 62.0085 43.0211C62.2876 42.7419 62.4444 42.3633 62.4444 41.9686C62.4444 41.5738 62.2876 41.1952 62.0085 40.9161C61.7293 40.6369 61.3507 40.4801 60.9559 40.4801Z" fill="#CDD3DB"/>
<path d="M75.7092 72.6261C77.8395 72.6261 79.6303 71.1202 80.1402 69.0998C80.2349 68.7229 80.2855 68.3288 80.2855 67.9228V45.838H62.9711C61.0586 45.838 59.5171 47.4525 59.5171 49.4077V49.4156C59.5171 51.3709 57.9579 52.9636 56.0454 52.9636H33.1605C31.248 52.9636 29.6888 51.3853 29.6888 49.4307V49.4044C29.6888 47.4492 28.1474 45.8386 26.2349 45.8386H8.92041V67.9222C8.92029 68.3193 8.96934 68.7148 9.06646 69.0998C9.57567 71.1196 11.3665 72.6261 13.4967 72.6261H75.7092Z" fill="#CDD3DB"/>
</svg>
