<svg width="12" height="12" viewBox="0 0 12 12" fill="none" xmlns="http://www.w3.org/2000/svg">
<path d="M5.99996 1.51175C4.8542 1.46938 3.73839 1.88302 2.89711 2.662C2.05583 3.44097 1.55771 4.52172 1.51196 5.66735C1.5179 6.29996 1.67231 6.92234 1.96276 7.48437C2.2532 8.0464 2.67157 8.53237 3.18416 8.90315V10.4878L4.71236 9.64775C5.13176 9.76352 5.56488 9.82205 5.99996 9.82175C7.14572 9.86412 8.26153 9.45048 9.10282 8.6715C9.9441 7.89253 10.4422 6.81178 10.488 5.66615C10.4417 4.52079 9.94345 3.44044 9.10224 2.66175C8.26103 1.88307 7.14548 1.46954 5.99996 1.51175ZM6.44576 7.10795L5.30576 5.88875L3.07196 7.10795L5.52536 4.50395L6.69716 5.72255L8.89916 4.50335L6.44576 7.10795Z" fill="#1A6DE3"/>
</svg>
