<svg width="20" height="20" viewBox="0 0 20 20" fill="none" xmlns="http://www.w3.org/2000/svg">
<path d="M10.0006 7.65625C9.53698 7.65625 9.08378 7.79373 8.69829 8.0513C8.31281 8.30888 8.01234 8.67498 7.83492 9.10331C7.6575 9.53164 7.61109 10.003 7.70154 10.4577C7.79199 10.9124 8.01524 11.3301 8.34307 11.6579C8.6709 11.9857 9.08858 12.209 9.54329 12.2994C9.99801 12.3899 10.4693 12.3435 10.8977 12.166C11.326 11.9886 11.6921 11.6882 11.9497 11.3027C12.2073 10.9172 12.3447 10.464 12.3447 10.0004C12.3442 9.37883 12.0971 8.78291 11.6576 8.34342C11.2181 7.90393 10.6221 7.65678 10.0006 7.65625V7.65625Z" fill="#858F9B"/>
<path d="M18.0008 11.0655V8.93535C18.0008 8.86292 17.9757 8.79273 17.9297 8.73675C17.8838 8.68076 17.8198 8.64245 17.7488 8.62833L15.8317 8.25131C15.7135 7.85751 15.5554 7.47684 15.3597 7.11526L16.4277 5.51518C16.4678 5.45513 16.4858 5.38304 16.4787 5.31119C16.4716 5.23934 16.4398 5.17218 16.3887 5.12116L14.8816 3.61208C14.8306 3.561 14.7635 3.52919 14.6916 3.52207C14.6198 3.51496 14.5477 3.53299 14.4876 3.57308L12.8875 4.64113C12.526 4.44543 12.1453 4.28727 11.7515 4.16911L11.3725 2.25201C11.3585 2.18089 11.3203 2.11683 11.2642 2.07084C11.2082 2.02486 11.1379 1.99981 11.0655 2H8.93535C8.86292 2 8.79273 2.02512 8.73675 2.07107C8.68076 2.11703 8.64245 2.18097 8.62833 2.25201L8.25131 4.16911C7.85751 4.28727 7.47684 4.44544 7.11526 4.64113L5.51518 3.57308C5.45513 3.53299 5.38304 3.51496 5.31119 3.52207C5.23934 3.52919 5.17218 3.561 5.12116 3.61208L3.61208 5.11916C3.561 5.17018 3.52919 5.23734 3.52207 5.30919C3.51496 5.38104 3.53299 5.45313 3.57308 5.51318L4.64113 7.11326C4.44543 7.47484 4.28726 7.85551 4.16911 8.24931L2.25201 8.62833C2.18097 8.64245 2.11703 8.68076 2.07107 8.73675C2.02512 8.79273 2 8.86292 2 8.93535V11.0655C2 11.1379 2.02512 11.2081 2.07107 11.2641C2.11703 11.32 2.18097 11.3584 2.25201 11.3725L4.16911 11.7495C4.28727 12.1433 4.44544 12.524 4.64113 12.8855L3.57308 14.4856C3.53299 14.5457 3.51496 14.6178 3.52207 14.6896C3.52919 14.7615 3.561 14.8286 3.61208 14.8796L5.11916 16.3867C5.17018 16.4378 5.23734 16.4696 5.30919 16.4767C5.38104 16.4838 5.45313 16.4658 5.51318 16.4257L7.11326 15.3577C7.47484 15.5534 7.85551 15.7115 8.24931 15.8297L8.62633 17.7468C8.6401 17.8185 8.67853 17.8832 8.73497 17.9296C8.79141 17.976 8.86229 18.0012 8.93535 18.0008H11.0655C11.1379 18.0008 11.2081 17.9757 11.2641 17.9297C11.32 17.8838 11.3584 17.8198 11.3725 17.7488L11.7495 15.8317C12.1433 15.7135 12.524 15.5554 12.8855 15.3597L14.4856 16.4277C14.5457 16.4678 14.6178 16.4858 14.6896 16.4787C14.7615 16.4716 14.8286 16.4398 14.8796 16.3887L16.3867 14.8816C16.4378 14.8306 16.4696 14.7635 16.4767 14.6916C16.4838 14.6198 16.4658 14.5477 16.4257 14.4876L15.3577 12.8875C15.5534 12.526 15.7115 12.1453 15.8297 11.7515L17.7468 11.3745C17.8186 11.3609 17.8834 11.3225 17.9298 11.266C17.9763 11.2095 18.0014 11.1386 18.0008 11.0655V11.0655ZM10.1094 13.2796C9.45159 13.3013 8.80245 13.1246 8.24632 12.7726C7.69019 12.4206 7.25277 11.9095 6.99091 11.3057C6.72904 10.7018 6.65482 10.0332 6.7779 9.38662C6.90097 8.74006 7.21565 8.14545 7.68105 7.68005C8.14645 7.21465 8.74106 6.89997 9.38762 6.7769C10.0342 6.65382 10.7028 6.72804 11.3067 6.98991C11.9105 7.25177 12.4216 7.68919 12.7736 8.24532C13.1256 8.80145 13.3023 9.45059 13.2806 10.1084C13.2522 10.9404 12.9089 11.7306 12.3203 12.3193C11.7316 12.9079 10.9414 13.2512 10.1094 13.2796V13.2796Z" fill="#858F9B"/>
</svg>
