<svg width="156" height="48" viewBox="0 0 156 48" fill="none" xmlns="http://www.w3.org/2000/svg">
<path d="M142.267 14.7457C142.991 14.9284 143.659 15.0604 144.303 15.273C144.792 15.4323 145.26 15.6498 145.699 15.921C145.931 16.0368 146.136 16.2039 146.298 16.4104C146.46 16.6169 146.576 16.8576 146.636 17.1153C146.697 17.3729 146.702 17.6412 146.649 17.9009C146.597 18.1605 146.49 18.4051 146.334 18.6171C146.21 18.8628 146.038 19.0799 145.829 19.2553C145.62 19.4306 145.378 19.5606 145.119 19.6372C144.86 19.7138 144.588 19.7356 144.32 19.701C144.052 19.6665 143.794 19.5765 143.561 19.4364C141.991 18.4805 140.137 18.1372 138.34 18.4696C137.722 18.5961 137.142 18.8696 136.646 19.2682C136.452 19.3962 136.297 19.5783 136.201 19.7931C136.104 20.0079 136.069 20.2465 136.1 20.4809C136.131 20.7154 136.226 20.936 136.375 21.1168C136.523 21.2977 136.719 21.4313 136.939 21.5021C137.936 21.9674 138.995 22.2924 140.023 22.6959C140.757 22.9634 141.476 23.2716 142.177 23.6193C142.915 23.9479 143.515 24.5375 143.865 25.2809C144.216 26.0243 144.295 26.8722 144.088 27.6702C143.516 30.744 141.519 32.4166 138.704 33.1254C138.342 33.1722 138.006 33.3451 137.753 33.6151C137.5 33.8852 137.345 34.236 137.314 34.6092C137.166 35.4512 136.93 36.2663 136.71 37.0855C136.668 37.3162 136.58 37.5355 136.452 37.7299C136.324 37.9244 136.159 38.0899 135.966 38.2161C135.773 38.3423 135.557 38.4266 135.332 38.4638C135.106 38.501 134.875 38.4903 134.653 38.4323C134.432 38.3743 134.224 38.2703 134.043 38.1266C133.862 37.983 133.712 37.8029 133.602 37.5973C133.491 37.3918 133.423 37.1652 133.402 36.9317C133.38 36.6981 133.406 36.4625 133.477 36.2395C133.678 35.3944 133.879 34.5524 134.097 33.6599C133.322 33.5423 132.588 33.4897 131.895 33.3122C131.018 33.1029 130.158 32.8199 129.326 32.4661C129.079 32.3685 128.856 32.2162 128.673 32.0199C128.49 31.8237 128.351 31.5883 128.267 31.3308C128.183 31.0732 128.155 30.7998 128.186 30.53C128.216 30.2602 128.305 30.0007 128.445 29.77C128.543 29.5109 128.695 29.2767 128.89 29.0835C129.085 28.8904 129.319 28.7428 129.575 28.6508C129.831 28.5589 130.103 28.5248 130.373 28.5509C130.643 28.577 130.904 28.6627 131.139 28.8021C132.835 29.7192 134.754 30.1134 136.664 29.9371C137.268 29.8765 137.862 29.7278 138.425 29.4955C138.716 29.4183 138.968 29.2344 139.135 28.9787C139.302 28.7231 139.372 28.4135 139.331 28.1088C139.262 27.8678 139.146 27.6436 138.991 27.4497C138.835 27.2559 138.643 27.0964 138.425 26.981C137.319 26.4651 136.147 26.0957 135.005 25.6665C134.775 25.5808 134.551 25.4807 134.322 25.3951C130.92 24.1342 130.651 21.3968 132.142 18.7058C132.764 17.6643 133.614 16.7853 134.625 16.138C135.635 15.4908 136.778 15.0929 137.964 14.9758C138.239 14.9691 138.502 14.8571 138.701 14.6619C138.901 14.4667 139.022 14.2022 139.041 13.9203C139.201 13.0639 139.443 12.2219 139.662 11.3769C139.963 10.1717 140.793 9.60008 141.786 9.8797C142.779 10.1593 143.195 11.0456 142.888 12.2745C142.671 13.0814 142.473 13.8976 142.267 14.7457Z" fill="white"/>
<path d="M78.4097 18.7776H75.3837C74.9689 18.7909 74.5538 18.7747 74.1413 18.7291C73.9748 18.7252 73.8112 18.684 73.6619 18.6082C73.5127 18.5325 73.3815 18.4241 73.2775 18.2907C73.1735 18.1573 73.0993 18.0021 73.0602 17.8361C73.021 17.6701 73.0178 17.4974 73.0508 17.33C73.051 16.7462 73.2643 16.1837 73.6485 15.7531C74.0328 15.3225 74.5603 15.055 75.1271 15.0032C75.4677 14.9543 75.8114 14.9311 76.1553 14.9341H87.7313C88.9485 14.9465 89.4927 15.2354 89.6155 15.9442C89.6884 16.4664 89.5969 16.9988 89.3543 17.4639C89.1116 17.9291 88.7305 18.3025 88.2664 18.53C87.9232 18.6577 87.5636 18.7332 87.1991 18.7539C86.5663 18.7941 85.9204 18.7539 85.2877 18.7611C84.6025 18.6753 83.9074 18.74 83.2485 18.9509C82.9154 19.5437 82.6853 20.1913 82.5685 20.865C81.5625 24.2823 80.6068 27.7131 79.6109 31.1408C79.4415 31.8414 79.0387 32.4593 78.4722 32.8875C77.9056 33.3158 77.211 33.5275 76.5084 33.4861C76.2378 33.5268 75.9615 33.4921 75.7084 33.3858C75.4553 33.2795 75.2347 33.1055 75.0696 32.8819C74.9045 32.6582 74.8011 32.3932 74.7699 32.1146C74.7388 31.8359 74.7812 31.5537 74.8927 31.2976C75.3957 29.4197 75.947 27.5552 76.4802 25.6866C77.0529 23.6787 77.6277 21.6663 78.2045 19.6495C78.2739 19.4122 78.3202 19.1707 78.4097 18.7776Z" fill="white"/>
<path d="M122.812 15.1507C121.904 14.859 120.963 14.6948 120.013 14.6626C119.275 14.6533 118.539 14.7103 117.811 14.8329C114.967 15.4348 112.431 17.071 110.671 19.4397C108.911 21.8085 108.045 24.7502 108.233 27.7223C108.265 28.9471 108.676 30.1296 109.407 31.0991C110.137 32.0685 111.149 32.7747 112.297 33.1156C114.645 33.897 117.185 33.8138 119.48 32.8803C121.752 31.9 123.685 30.2413 125.027 28.1197C126.368 25.9981 127.057 23.5117 127.003 20.9835C127.053 19.6678 126.665 18.3737 125.904 17.3137C125.142 16.2538 124.052 15.491 122.812 15.1507ZM119.98 28.1897C119.547 28.7208 119.009 29.1523 118.402 29.4559C117.796 29.7596 117.133 29.9287 116.459 29.952C114.145 30.0366 112.889 28.7789 112.913 26.0497C113.033 23.8782 113.835 21.805 115.2 20.1405C116.001 19.1772 117.118 18.5478 118.341 18.3709C120.655 18.0212 122.306 19.3254 122.287 21.7099C122.326 24.0883 121.504 26.3971 119.98 28.1897Z" fill="white"/>
<path d="M102.604 15.0325C101.272 14.9118 99.9226 14.9293 98.5796 14.9293H95.4963C94.7453 14.8168 93.9815 15.0143 93.3724 15.4785C92.7633 15.9427 92.3585 16.6358 92.2469 17.4057C91.5658 19.7789 90.8988 22.152 90.2268 24.5252C89.6011 26.7312 88.9592 28.9321 88.3546 31.1443C87.914 32.7395 88.581 33.567 90.1856 33.4968C90.814 33.4838 91.4219 33.2646 91.92 32.8712C92.418 32.4779 92.7801 31.9313 92.9531 31.3115C93.3776 29.9835 93.7478 28.6349 94.0979 27.2874C94.1068 27.1902 94.1351 27.096 94.1812 27.0106C94.2273 26.9252 94.2901 26.8505 94.3657 26.7912C94.4413 26.7319 94.528 26.6893 94.6204 26.666C94.7128 26.6427 94.8089 26.6393 94.9027 26.6559C96.2199 26.6869 97.5384 26.6869 98.8583 26.6559C100.637 26.7473 102.386 26.1647 103.773 25.0192C105.16 23.8737 106.088 22.2451 106.38 20.4434C107.042 17.4594 105.578 15.3039 102.604 15.0325ZM102 20.6043C101.951 21.2253 101.687 21.8078 101.256 22.2473C100.826 22.6868 100.257 22.9545 99.651 23.0023C98.2516 23.1333 96.8342 23.0312 95.3252 23.0312C95.7276 21.6062 96.1068 20.2391 96.5203 18.8833C96.5633 18.791 96.6274 18.7108 96.7071 18.6493C96.7868 18.5879 96.8797 18.5471 96.978 18.5304C98.1752 18.517 99.3754 18.4943 100.568 18.582C101.762 18.6697 102.225 19.4064 102.002 20.6043H102Z" fill="white"/>
<path d="M15.0958 26.8157H8.10308C7.93364 26.824 7.76472 26.7907 7.61032 26.7186C7.45592 26.6465 7.3205 26.5377 7.21527 26.4013C7.11004 26.2648 7.03805 26.1046 7.00525 25.9338C6.97245 25.7631 6.97979 25.5869 7.02667 25.4197L8.83746 19.7694C8.91664 19.5403 9.06472 19.3429 9.26035 19.2057C9.45598 19.0684 9.68905 18.9985 9.92595 19.0059L16.8271 19.0823C16.9948 19.0755 17.1616 19.1096 17.3141 19.1816C17.4665 19.2536 17.6001 19.3616 17.7041 19.4967C17.8081 19.6319 17.8794 19.7903 17.9123 19.9591C17.9452 20.1279 17.9388 20.3023 17.8934 20.468L16.1832 26.0398C16.1063 26.2711 15.9593 26.4712 15.7637 26.6108C15.568 26.7504 15.334 26.8222 15.0958 26.8157Z" fill="white"/>
<path d="M56.0573 7.19995H29.9718C28.9046 7.20954 27.8647 7.54679 26.9861 8.16821C26.1075 8.78964 25.4305 9.66674 25.0424 10.6865L24.4067 12.9967H35.8901C36.0854 12.9966 36.278 13.0436 36.4524 13.1339C36.6268 13.2242 36.778 13.3552 36.894 13.5165C37.0099 13.6777 37.0872 13.8647 37.1197 14.0622C37.1522 14.2598 37.139 14.4624 37.0812 14.6538L32.1589 30.6933C32.11 30.8536 32.0309 31.0025 31.926 31.1314C31.8211 31.2604 31.6925 31.3668 31.5474 31.4448C31.4024 31.5227 31.2438 31.5706 31.0808 31.5857C30.9177 31.6008 30.7533 31.5828 30.597 31.5327C30.4408 31.4826 30.2956 31.4015 30.1699 31.2939C30.0442 31.1863 29.9404 31.0544 29.8644 30.9056C29.7884 30.7569 29.7417 30.5942 29.727 30.427C29.7123 30.2597 29.7299 30.0911 29.7787 29.9308L34.1839 15.5669H23.6954L19.4089 31.1308C18.4532 35.6636 21.3877 38.3752 24.3383 38.3752L46.2619 38.4908C46.8178 37.98 47.2864 37.3773 47.6482 36.7078C48.2357 35.4242 48.4831 32.9726 47.5013 32.2018C46.9459 31.7803 46.2685 31.5622 45.5778 31.5828H35.8901C35.695 31.5817 35.5028 31.5339 35.3289 31.4431C35.155 31.3523 35.0043 31.221 34.8886 31.0598C34.773 30.8986 34.6957 30.7119 34.663 30.5147C34.6302 30.3174 34.6429 30.115 34.7 29.9236L39.5288 13.8985C39.6074 13.637 39.7655 13.4083 39.98 13.2456C40.1945 13.083 40.4541 12.995 40.7209 12.9946H48.8423C49.659 13.0049 50.4692 13.1441 51.2446 13.4073C53.8431 14.3711 55.9547 17.484 54.9668 21.568C54.3431 24.1413 52.3462 25.8118 49.1924 26.3958C47.7858 26.6426 46.3525 26.6867 44.934 26.5269C44.6156 26.4713 44.3305 26.2913 44.1388 26.0247C43.947 25.7581 43.8634 25.4257 43.9056 25.0973C43.9478 24.7688 44.1125 24.4699 44.365 24.2634C44.6176 24.0568 44.9383 23.9587 45.2599 23.9896C45.3233 23.9896 51.6178 24.7852 52.5484 20.9509C53.3119 17.8018 51.478 16.2149 50.4016 15.8156C49.8988 15.6519 49.3757 15.5636 48.8483 15.5535H41.6414L37.5872 29.0218H45.5879C46.8269 29.0036 48.0368 29.4071 49.0284 30.1692C51.2607 31.9233 50.8905 35.6873 49.9096 37.8046C49.7951 38.0489 49.6647 38.285 49.5193 38.5114C49.2882 38.926 48.9995 39.3038 48.6622 39.633C48.2997 40.044 47.9148 40.4336 47.5093 40.8C53.1127 39.7681 54.3682 36.6995 54.8873 34.9991L60.5913 13.6271C61.4212 10.9227 58.9726 7.23297 56.0573 7.19995Z" fill="white"/>
<path d="M20.5962 15.7993H17.4524C17.3758 15.8036 17.2993 15.7891 17.2293 15.757C17.1592 15.7248 17.0977 15.676 17.0497 15.6145C17.0018 15.553 16.9689 15.4807 16.9537 15.4036C16.9386 15.3264 16.9416 15.2467 16.9625 15.171L17.7743 12.6306C17.8106 12.5278 17.8776 12.4392 17.9657 12.3775C18.0538 12.3159 18.1586 12.2842 18.2653 12.287L21.3678 12.3201C21.4427 12.3174 21.5171 12.3328 21.5852 12.365C21.6532 12.3973 21.7129 12.4454 21.7595 12.5057C21.8061 12.5659 21.8382 12.6365 21.8534 12.7118C21.8685 12.7871 21.8662 12.8649 21.8466 12.9391L21.0821 15.4465C21.0482 15.5507 20.9829 15.6411 20.8955 15.7046C20.8081 15.768 20.7032 15.8012 20.5962 15.7993Z" fill="white"/>
</svg>
