<svg width="100" height="30" viewBox="0 0 100 30" fill="none" xmlns="http://www.w3.org/2000/svg">
<path d="M91.1982 9.21581C91.6625 9.32996 92.0908 9.4125 92.5035 9.54535C92.8164 9.64494 93.1166 9.78086 93.3979 9.95033C93.5469 10.0227 93.6781 10.1272 93.782 10.2562C93.886 10.3853 93.9601 10.5357 93.999 10.6968C94.038 10.8578 94.0408 11.0255 94.0074 11.1878C93.9739 11.35 93.9049 11.5029 93.8055 11.6354C93.7256 11.789 93.6154 11.9247 93.4814 12.0343C93.3475 12.1439 93.1927 12.2251 93.0264 12.273C92.8601 12.3209 92.6858 12.3345 92.5141 12.3129C92.3424 12.2913 92.1768 12.235 92.0275 12.1475C91.0209 11.55 89.8327 11.3355 88.6807 11.5432C88.2846 11.6223 87.9127 11.7932 87.5947 12.0423C87.4704 12.1223 87.3714 12.2362 87.3095 12.3704C87.2475 12.5046 87.2251 12.6538 87.2448 12.8003C87.2646 12.9469 87.3257 13.0847 87.421 13.1977C87.5164 13.3108 87.6419 13.3943 87.783 13.4385C88.4221 13.7294 89.1005 13.9325 89.7596 14.1846C90.2299 14.3518 90.6908 14.5445 91.1402 14.7618C91.6138 14.9672 91.9979 15.3357 92.2228 15.8003C92.4476 16.2649 92.4982 16.7948 92.3654 17.2936C91.9985 19.2147 90.7185 20.2601 88.9141 20.7031C88.6819 20.7324 88.4667 20.8404 88.3045 21.0092C88.1423 21.178 88.0429 21.3973 88.0229 21.6305C87.9281 22.1567 87.7772 22.6662 87.636 23.1782C87.6091 23.3223 87.5528 23.4594 87.4708 23.5809C87.3888 23.7025 87.2827 23.8059 87.1591 23.8848C87.0356 23.9637 86.8971 24.0164 86.7523 24.0396C86.6075 24.0629 86.4595 24.0561 86.3175 24.0199C86.1754 23.9837 86.0423 23.9186 85.9264 23.8289C85.8104 23.7391 85.7141 23.6265 85.6434 23.4981C85.5728 23.3696 85.5292 23.228 85.5154 23.082C85.5016 22.9361 85.518 22.7888 85.5634 22.6494C85.6924 22.1212 85.8213 21.595 85.9613 21.0372C85.4641 20.9637 84.9939 20.9308 84.5496 20.8199C83.9871 20.6891 83.4362 20.5122 82.9027 20.291C82.7442 20.2301 82.6012 20.1348 82.4838 20.0122C82.3664 19.8895 82.2776 19.7424 82.2236 19.5815C82.1696 19.4205 82.1519 19.2496 82.1716 19.081C82.1914 18.9123 82.2481 18.7501 82.3377 18.606C82.4009 18.444 82.4984 18.2977 82.6234 18.1769C82.7484 18.0562 82.8981 17.9639 83.0621 17.9065C83.2262 17.849 83.4007 17.8277 83.5738 17.8441C83.7468 17.8604 83.9143 17.9139 84.0647 18.0011C85.1521 18.5742 86.3821 18.8206 87.6063 18.7104C87.9939 18.6726 88.3741 18.5796 88.7355 18.4344C88.9216 18.3861 89.0835 18.2712 89.1905 18.1114C89.2975 17.9517 89.3421 17.7582 89.3159 17.5677C89.2718 17.4171 89.1976 17.277 89.0979 17.1558C88.9981 17.0347 88.8749 16.935 88.7355 16.8628C88.0261 16.5404 87.2748 16.3095 86.5429 16.0413C86.3959 15.9877 86.2521 15.9252 86.1051 15.8717C83.9241 15.0836 83.7519 13.3727 84.7076 11.6909C85.1068 11.0399 85.6516 10.4905 86.2992 10.086C86.9468 9.68145 87.6795 9.4328 88.4395 9.35962C88.6161 9.35539 88.7848 9.28543 88.9125 9.16342C89.0402 9.0414 89.1178 8.87612 89.1302 8.6999C89.2327 8.16465 89.3881 7.63842 89.528 7.11026C89.7215 6.35704 90.2535 5.99977 90.89 6.17454C91.5265 6.3493 91.7928 6.90326 91.5961 7.67131C91.4568 8.17561 91.3304 8.68572 91.1982 9.21581Z" fill="#05563F"/>
<path d="M50.2644 11.7354H48.3246C48.0588 11.7437 47.7927 11.7335 47.5282 11.705C47.4215 11.7026 47.3166 11.6769 47.2209 11.6295C47.1253 11.5822 47.0412 11.5144 46.9745 11.431C46.9079 11.3477 46.8603 11.2507 46.8352 11.1469C46.8101 11.0432 46.808 10.9352 46.8292 10.8306C46.8293 10.4657 46.966 10.1142 47.2124 9.84506C47.4587 9.57594 47.7968 9.40875 48.1602 9.37637C48.3785 9.34577 48.5988 9.33133 48.8192 9.33316H56.2397C57.02 9.3409 57.3689 9.52147 57.4476 9.9645C57.4943 10.2909 57.4357 10.6236 57.2801 10.9143C57.1246 11.205 56.8803 11.4384 56.5828 11.5806C56.3628 11.6604 56.1323 11.7076 55.8986 11.7205C55.493 11.7457 55.079 11.7205 54.6733 11.725C54.2341 11.6714 53.7886 11.7119 53.3662 11.8437C53.1526 12.2142 53.0051 12.6189 52.9303 13.04C52.2854 15.1758 51.6728 17.32 51.0343 19.4624C50.9258 19.9002 50.6676 20.2864 50.3044 20.5541C49.9413 20.8217 49.496 20.9541 49.0456 20.9282C48.8721 20.9536 48.695 20.9319 48.5328 20.8655C48.3706 20.7991 48.2291 20.6903 48.1233 20.5505C48.0175 20.4107 47.9511 20.2451 47.9312 20.071C47.9112 19.8968 47.9384 19.7204 48.0099 19.5604C48.3323 18.3867 48.6857 17.2214 49.0275 16.0535C49.3947 14.7986 49.7631 13.5408 50.1328 12.2803C50.1773 12.132 50.207 11.9811 50.2644 11.7354Z" fill="#05563F"/>
<path d="M78.7274 9.46873C78.1459 9.28646 77.5424 9.18385 76.9333 9.1637C76.4606 9.15787 75.9883 9.19348 75.5217 9.27011C73.6987 9.6463 72.0731 10.6689 70.9448 12.1494C69.8164 13.6299 69.2614 15.4684 69.3819 17.326C69.4027 18.0915 69.6663 18.8306 70.1346 19.4365C70.6029 20.0424 71.2516 20.4838 71.9872 20.6968C73.4923 21.1852 75.1207 21.1332 76.5916 20.5498C78.0484 19.9371 79.2873 18.9004 80.1473 17.5744C81.0073 16.2484 81.4486 14.6944 81.4139 13.1143C81.4461 12.292 81.1977 11.4831 80.7095 10.8207C80.2213 10.1582 79.5223 9.68144 78.7274 9.46873ZM76.9121 17.6181C76.6344 17.9501 76.2899 18.2197 75.901 18.4095C75.5121 18.5993 75.0875 18.705 74.655 18.7196C73.1718 18.7725 72.367 17.9864 72.3818 16.2806C72.4587 14.9234 72.9732 13.6277 73.8483 12.5874C74.3618 11.9853 75.078 11.5919 75.8616 11.4814C77.3448 11.2628 78.403 12.0779 78.3914 13.5683C78.4164 15.0548 77.8893 16.4978 76.9121 17.6181Z" fill="#05563F"/>
<path d="M65.7733 9.39533C64.9195 9.31988 64.0547 9.33084 63.1938 9.33084H61.2173C60.736 9.26049 60.2463 9.38393 59.8559 9.67407C59.4654 9.96421 59.2059 10.3974 59.1344 10.8786C58.6978 12.3618 58.2702 13.845 57.8395 15.3283C57.4384 16.707 57.0269 18.0826 56.6394 19.4652C56.3569 20.4622 56.7845 20.9794 57.813 20.9355C58.2159 20.9274 58.6055 20.7903 58.9248 20.5445C59.2441 20.2987 59.4762 19.9571 59.5871 19.5697C59.8592 18.7397 60.0965 17.8968 60.3209 17.0546C60.3266 16.9939 60.3448 16.935 60.3743 16.8816C60.4039 16.8282 60.4441 16.7816 60.4926 16.7445C60.541 16.7074 60.5966 16.6808 60.6559 16.6662C60.7151 16.6517 60.7767 16.6495 60.8368 16.6599C61.6812 16.6793 62.5264 16.6793 63.3724 16.6599C64.5125 16.717 65.6338 16.353 66.5229 15.637C67.4119 14.921 68.0068 13.9032 68.1941 12.7771C68.6184 10.9121 67.6801 9.56494 65.7733 9.39533ZM65.3864 12.8777C65.3547 13.2658 65.1857 13.6299 64.9097 13.9046C64.6337 14.1793 64.2688 14.3466 63.8806 14.3764C62.9836 14.4583 62.075 14.3945 61.1076 14.3945C61.3656 13.5039 61.6087 12.6494 61.8737 11.802C61.9013 11.7444 61.9424 11.6942 61.9935 11.6558C62.0446 11.6174 62.1041 11.5919 62.1672 11.5815C62.9346 11.5731 63.7039 11.5589 64.4687 11.6137C65.2335 11.6685 65.5308 12.129 65.3877 12.8777H65.3864Z" fill="#05563F"/>
<path d="M9.67741 16.7604H5.19492C5.0863 16.7655 4.97802 16.7447 4.87905 16.6997C4.78007 16.6546 4.69326 16.5866 4.62581 16.5013C4.55836 16.416 4.51221 16.3159 4.49118 16.2092C4.47016 16.1025 4.47486 15.9923 4.50491 15.8878L5.66568 12.3565C5.71643 12.2132 5.81136 12.0899 5.93676 12.0041C6.06216 11.9183 6.21157 11.8746 6.36343 11.8792L10.7872 11.927C10.8947 11.9228 11.0017 11.944 11.0994 11.9891C11.1971 12.0341 11.2828 12.1016 11.3494 12.186C11.4161 12.2705 11.4618 12.3695 11.4829 12.475C11.504 12.5805 11.4998 12.6895 11.4708 12.793L10.3745 16.2754C10.3252 16.42 10.231 16.5451 10.1055 16.6323C9.98014 16.7195 9.83012 16.7644 9.67741 16.7604Z" fill="#1A6647"/>
<path d="M35.934 4.5H19.2126C18.5285 4.50599 17.8618 4.71677 17.2986 5.10516C16.7354 5.49355 16.3015 6.04174 16.0527 6.67906L15.6452 8.12296H23.0063C23.1315 8.1229 23.255 8.15227 23.3668 8.2087C23.4786 8.26513 23.5755 8.34704 23.6498 8.44783C23.7241 8.54862 23.7737 8.66546 23.7946 8.78893C23.8154 8.9124 23.8069 9.03904 23.7699 9.15864L20.6145 19.1834C20.5832 19.2835 20.5325 19.3766 20.4653 19.4572C20.398 19.5378 20.3155 19.6043 20.2226 19.653C20.1296 19.7017 20.028 19.7317 19.9234 19.7411C19.8189 19.7505 19.7135 19.7393 19.6134 19.708C19.5132 19.6767 19.4201 19.626 19.3396 19.5587C19.259 19.4915 19.1924 19.409 19.1437 19.316C19.095 19.2231 19.0651 19.1214 19.0556 19.0169C19.0462 18.9123 19.0575 18.807 19.0888 18.7068L21.9126 9.72936H15.1892L12.4414 19.4568C11.8288 22.2898 13.7099 23.9845 15.6013 23.9845L29.6549 24.0567C30.0113 23.7375 30.3117 23.3609 30.5436 22.9424C30.9202 22.1402 31.0788 20.6079 30.4494 20.1262C30.0934 19.8627 29.6592 19.7264 29.2164 19.7393H23.0063C22.8813 19.7386 22.7581 19.7087 22.6466 19.652C22.5351 19.5952 22.4385 19.5132 22.3644 19.4124C22.2903 19.3117 22.2407 19.195 22.2197 19.0717C22.1987 18.9484 22.2069 18.8219 22.2435 18.7023L25.3388 8.68659C25.3892 8.52318 25.4906 8.38019 25.6281 8.27855C25.7656 8.1769 25.932 8.12192 26.103 8.12167H31.309C31.8325 8.12809 32.3519 8.2151 32.849 8.37962C34.5147 8.98194 35.8682 10.9276 35.235 13.48C34.8352 15.0883 33.5551 16.1324 31.5334 16.4974C30.6318 16.6517 29.713 16.6792 28.8037 16.5793C28.5996 16.5446 28.4169 16.4321 28.2939 16.2655C28.171 16.0989 28.1175 15.8911 28.1445 15.6858C28.1716 15.4805 28.2771 15.2937 28.439 15.1646C28.6009 15.0355 28.8065 14.9742 29.0126 14.9936C29.0533 14.9936 33.0882 15.4908 33.6847 13.0944C34.1742 11.1262 32.9986 10.1344 32.3086 9.88478C31.9863 9.78246 31.6509 9.72728 31.3129 9.72098H26.693L24.0942 18.1386H29.2229C30.0171 18.1273 30.7927 18.3794 31.4283 18.8558C32.8593 19.9521 32.622 22.3046 31.9932 23.6279C31.9198 23.7806 31.8362 23.9282 31.743 24.0696C31.5949 24.3288 31.4098 24.5649 31.1936 24.7706C30.9612 25.0275 30.7145 25.2711 30.4546 25.5C34.0465 24.8551 34.8513 22.9372 35.184 21.8745L38.8404 8.51698C39.3725 6.82674 37.8028 4.52064 35.934 4.5Z" fill="url(#paint0_linear_6035_107855)"/>
<path d="M13.2035 9.87498H11.1883C11.1392 9.87767 11.0902 9.86859 11.0453 9.8485C11.0004 9.82841 10.9609 9.79788 10.9302 9.75947C10.8995 9.72105 10.8784 9.67585 10.8686 9.62763C10.8589 9.57941 10.8608 9.52957 10.8743 9.48225L11.3947 7.89454C11.4179 7.83024 11.4609 7.77489 11.5174 7.73635C11.5738 7.6978 11.641 7.67802 11.7094 7.6798L13.6982 7.70043C13.7462 7.69877 13.7939 7.7084 13.8375 7.72854C13.8811 7.74869 13.9194 7.77879 13.9493 7.81643C13.9791 7.85407 13.9997 7.8982 14.0094 7.94525C14.0191 7.99231 14.0177 8.04099 14.0051 8.08736L13.515 9.65443C13.4933 9.71956 13.4514 9.77607 13.3954 9.81574C13.3394 9.85541 13.2722 9.87616 13.2035 9.87498Z" fill="#2F724D"/>
<defs>
<linearGradient id="paint0_linear_6035_107855" x1="13.7167" y1="19.4186" x2="38.4432" y2="9.55145" gradientUnits="userSpaceOnUse">
<stop stop-color="#135A42"/>
<stop offset="0.19" stop-color="#266A44"/>
<stop offset="0.58" stop-color="#56944A"/>
<stop offset="1" stop-color="#90C751"/>
</linearGradient>
</defs>
</svg>
