<svg width="156" height="48" viewBox="0 0 156 48" fill="none" xmlns="http://www.w3.org/2000/svg">
<path d="M142.267 14.7465C142.991 14.9291 143.659 15.0612 144.303 15.2737C144.792 15.4331 145.26 15.6506 145.699 15.9217C145.931 16.0375 146.136 16.2047 146.298 16.4111C146.46 16.6176 146.576 16.8583 146.636 17.116C146.697 17.3737 146.702 17.642 146.649 17.9016C146.597 18.1612 146.49 18.4058 146.334 18.6178C146.21 18.8635 146.038 19.0806 145.829 19.256C145.62 19.4314 145.378 19.5613 145.119 19.6379C144.86 19.7146 144.588 19.7363 144.32 19.7018C144.052 19.6672 143.794 19.5772 143.561 19.4371C141.991 18.4812 140.137 18.138 138.34 18.4703C137.722 18.5968 137.142 18.8703 136.646 19.2689C136.452 19.3969 136.297 19.579 136.201 19.7938C136.104 20.0086 136.069 20.2472 136.1 20.4817C136.131 20.7161 136.226 20.9367 136.375 21.1176C136.523 21.2984 136.719 21.432 136.939 21.5028C137.936 21.9681 138.995 22.2932 140.023 22.6966C140.757 22.9641 141.476 23.2724 142.177 23.6201C142.915 23.9486 143.515 24.5382 143.865 25.2816C144.216 26.025 144.295 26.8729 144.088 27.671C143.516 30.7447 141.519 32.4173 138.704 33.1262C138.342 33.173 138.006 33.3458 137.753 33.6159C137.5 33.8859 137.345 34.2368 137.314 34.6099C137.166 35.4519 136.93 36.267 136.71 37.0863C136.668 37.3169 136.58 37.5362 136.452 37.7307C136.324 37.9251 136.159 38.0906 135.966 38.2168C135.773 38.3431 135.557 38.4274 135.332 38.4646C135.106 38.5017 134.875 38.491 134.653 38.433C134.432 38.375 134.224 38.271 134.043 38.1274C133.862 37.9838 133.712 37.8036 133.602 37.5981C133.491 37.3925 133.423 37.166 133.402 36.9324C133.38 36.6989 133.406 36.4633 133.477 36.2402C133.678 35.3951 133.879 34.5532 134.097 33.6607C133.322 33.543 132.588 33.4904 131.895 33.3129C131.018 33.1037 130.158 32.8207 129.326 32.4668C129.079 32.3693 128.856 32.2169 128.673 32.0206C128.49 31.8244 128.351 31.5891 128.267 31.3315C128.183 31.074 128.155 30.8005 128.186 30.5307C128.216 30.2609 128.305 30.0014 128.445 29.7707C128.543 29.5116 128.695 29.2775 128.89 29.0843C129.085 28.8911 129.319 28.7435 129.575 28.6515C129.831 28.5596 130.103 28.5255 130.373 28.5517C130.643 28.5778 130.904 28.6635 131.139 28.8029C132.835 29.7199 134.754 30.1141 136.664 29.9379C137.268 29.8773 137.862 29.7286 138.425 29.4963C138.716 29.419 138.968 29.2351 139.135 28.9795C139.302 28.7238 139.372 28.4143 139.331 28.1095C139.262 27.8685 139.146 27.6443 138.991 27.4505C138.835 27.2566 138.643 27.0972 138.425 26.9817C137.319 26.4658 136.147 26.0964 135.005 25.6672C134.775 25.5815 134.551 25.4815 134.322 25.3958C130.92 24.1349 130.651 21.3975 132.142 18.7066C132.764 17.665 133.614 16.786 134.625 16.1388C135.635 15.4915 136.778 15.0936 137.964 14.9766C138.239 14.9698 138.502 14.8579 138.701 14.6626C138.901 14.4674 139.022 14.203 139.041 13.921C139.201 13.0646 139.443 12.2226 139.662 11.3776C139.963 10.1724 140.793 9.60081 141.786 9.88043C142.779 10.1601 143.195 11.0464 142.888 12.2753C142.671 13.0822 142.473 13.8983 142.267 14.7465Z" fill="white"/>
<path d="M78.4097 18.7773H75.3837C74.9689 18.7907 74.5538 18.7745 74.1413 18.7289C73.9748 18.725 73.8112 18.6837 73.6619 18.608C73.5127 18.5323 73.3815 18.4239 73.2775 18.2905C73.1735 18.1571 73.0993 18.0019 73.0602 17.8359C73.021 17.6699 73.0178 17.4971 73.0508 17.3297C73.051 16.746 73.2643 16.1835 73.6485 15.7529C74.0328 15.3223 74.5603 15.0548 75.1271 15.003C75.4677 14.954 75.8114 14.9309 76.1553 14.9338H87.7313C88.9485 14.9462 89.4927 15.2351 89.6155 15.944C89.6884 16.4662 89.5969 16.9986 89.3543 17.4637C89.1116 17.9288 88.7305 18.3023 88.2664 18.5297C87.9232 18.6575 87.5636 18.7329 87.1991 18.7536C86.5663 18.7939 85.9204 18.7536 85.2877 18.7608C84.6025 18.6751 83.9074 18.7398 83.2485 18.9507C82.9154 19.5435 82.6853 20.1911 82.5685 20.8647C81.5625 24.2821 80.6068 27.7129 79.6109 31.1406C79.4415 31.8412 79.0387 32.459 78.4722 32.8873C77.9056 33.3156 77.211 33.5273 76.5084 33.4859C76.2378 33.5265 75.9615 33.4919 75.7084 33.3856C75.4553 33.2793 75.2347 33.1052 75.0696 32.8816C74.9045 32.658 74.8011 32.393 74.7699 32.1143C74.7388 31.8356 74.7812 31.5535 74.8927 31.2974C75.3957 29.4195 75.947 27.555 76.4802 25.6864C77.0529 23.6785 77.6277 21.6661 78.2045 19.6492C78.2739 19.4119 78.3202 19.1705 78.4097 18.7773Z" fill="white"/>
<path d="M122.812 15.1511C121.904 14.8595 120.963 14.6953 120.013 14.6631C119.275 14.6538 118.539 14.7107 117.811 14.8333C114.967 15.4353 112.431 17.0714 110.671 19.4402C108.911 21.809 108.045 24.7507 108.233 27.7228C108.265 28.9476 108.676 30.1301 109.407 31.0996C110.137 32.069 111.149 32.7752 112.297 33.1161C114.645 33.8975 117.185 33.8143 119.48 32.8808C121.752 31.9005 123.685 30.2418 125.027 28.1202C126.368 25.9986 127.057 23.5121 127.003 20.984C127.053 19.6683 126.665 18.3742 125.904 17.3142C125.142 16.2543 124.052 15.4915 122.812 15.1511ZM119.98 28.1902C119.547 28.7213 119.009 29.1528 118.402 29.4564C117.796 29.7601 117.133 29.9291 116.459 29.9525C114.145 30.0371 112.889 28.7793 112.913 26.0502C113.033 23.8787 113.835 21.8054 115.2 20.141C116.001 19.1777 117.118 18.5482 118.341 18.3714C120.655 18.0216 122.306 19.3259 122.287 21.7104C122.326 24.0888 121.504 26.3976 119.98 28.1902Z" fill="white"/>
<path d="M102.604 15.0325C101.272 14.9118 99.9226 14.9293 98.5796 14.9293H95.4963C94.7453 14.8168 93.9815 15.0143 93.3724 15.4785C92.7633 15.9427 92.3585 16.6358 92.2469 17.4057C91.5658 19.7789 90.8988 22.152 90.2268 24.5252C89.6011 26.7312 88.9592 28.9321 88.3546 31.1443C87.914 32.7395 88.581 33.567 90.1856 33.4968C90.814 33.4838 91.4219 33.2646 91.92 32.8712C92.418 32.4779 92.7801 31.9313 92.9531 31.3115C93.3776 29.9835 93.7478 28.6349 94.0979 27.2874C94.1068 27.1902 94.1351 27.096 94.1812 27.0106C94.2273 26.9252 94.2901 26.8505 94.3657 26.7912C94.4413 26.7319 94.528 26.6893 94.6204 26.666C94.7128 26.6427 94.8089 26.6393 94.9027 26.6559C96.2199 26.6869 97.5384 26.6869 98.8583 26.6559C100.637 26.7473 102.386 26.1647 103.773 25.0192C105.16 23.8737 106.088 22.2451 106.38 20.4434C107.042 17.4594 105.578 15.3039 102.604 15.0325ZM102 20.6043C101.951 21.2253 101.687 21.8078 101.256 22.2473C100.826 22.6868 100.257 22.9545 99.651 23.0023C98.2516 23.1333 96.8342 23.0312 95.3252 23.0312C95.7276 21.6062 96.1068 20.2391 96.5203 18.8833C96.5633 18.791 96.6274 18.7108 96.7071 18.6493C96.7868 18.5879 96.8797 18.5471 96.978 18.5304C98.1752 18.517 99.3754 18.4943 100.568 18.582C101.762 18.6697 102.225 19.4064 102.002 20.6043H102Z" fill="white"/>
<path d="M15.0958 26.8162H8.10308C7.93364 26.8244 7.76472 26.7911 7.61032 26.7191C7.45592 26.647 7.3205 26.5382 7.21527 26.4017C7.11004 26.2653 7.03805 26.105 7.00525 25.9343C6.97245 25.7636 6.97979 25.5874 7.02667 25.4201L8.83746 19.7699C8.91664 19.5408 9.06472 19.3434 9.26035 19.2062C9.45598 19.0689 9.68905 18.999 9.92595 19.0064L16.8271 19.0827C16.9948 19.076 17.1616 19.1101 17.3141 19.1821C17.4665 19.2541 17.6001 19.3621 17.7041 19.4972C17.8081 19.6324 17.8794 19.7908 17.9123 19.9596C17.9452 20.1284 17.9388 20.3027 17.8934 20.4685L16.1832 26.0403C16.1063 26.2716 15.9593 26.4717 15.7637 26.6113C15.568 26.7509 15.334 26.8227 15.0958 26.8162Z" fill="white"/>
<path d="M56.0573 7.2002H29.9718C28.9046 7.20979 27.8647 7.54703 26.9861 8.16846C26.1075 8.78988 25.4305 9.66699 25.0424 10.6867L24.4067 12.9969H35.8901C36.0854 12.9968 36.278 13.0438 36.4524 13.1341C36.6268 13.2244 36.778 13.3555 36.894 13.5167C37.0099 13.678 37.0872 13.8649 37.1197 14.0625C37.1522 14.26 37.139 14.4627 37.0812 14.654L32.1589 30.6936C32.11 30.8539 32.0309 31.0027 31.926 31.1317C31.8211 31.2606 31.6925 31.3671 31.5474 31.445C31.4024 31.523 31.2438 31.5709 31.0808 31.5859C30.9177 31.601 30.7533 31.583 30.597 31.533C30.4408 31.4829 30.2956 31.4017 30.1699 31.2941C30.0442 31.1865 29.9404 31.0546 29.8644 30.9059C29.7884 30.7571 29.7417 30.5945 29.727 30.4272C29.7123 30.26 29.7299 30.0914 29.7787 29.9311L34.1839 15.5672H23.6954L19.4089 31.1311C18.4532 35.6638 21.3877 38.3754 24.3383 38.3754L46.2619 38.491C46.8178 37.9803 47.2864 37.3776 47.6482 36.708C48.2357 35.4244 48.4831 32.9729 47.5013 32.2021C46.9459 31.7805 46.2685 31.5625 45.5778 31.583H35.8901C35.695 31.5819 35.5028 31.5341 35.3289 31.4433C35.155 31.3525 35.0043 31.2213 34.8886 31.0601C34.773 30.8989 34.6957 30.7122 34.663 30.5149C34.6302 30.3176 34.6429 30.1152 34.7 29.9238L39.5288 13.8987C39.6074 13.6373 39.7655 13.4085 39.98 13.2459C40.1945 13.0832 40.4541 12.9953 40.7209 12.9949H48.8423C49.659 13.0051 50.4692 13.1443 51.2446 13.4076C53.8431 14.3713 55.9547 17.4843 54.9668 21.5682C54.3431 24.1416 52.3462 25.8121 49.1924 26.3961C47.7858 26.6429 46.3525 26.687 44.934 26.5271C44.6156 26.4715 44.3305 26.2916 44.1388 26.025C43.947 25.7584 43.8634 25.4259 43.9056 25.0975C43.9478 24.769 44.1125 24.4702 44.365 24.2636C44.6176 24.0571 44.9383 23.959 45.2599 23.9899C45.3233 23.9899 51.6178 24.7854 52.5484 20.9512C53.3119 17.8021 51.478 16.2152 50.4016 15.8158C49.8988 15.6521 49.3757 15.5639 48.8483 15.5538H41.6414L37.5872 29.022H45.5879C46.8269 29.0038 48.0368 29.4073 49.0284 30.1694C51.2607 31.9235 50.8905 35.6876 49.9096 37.8048C49.7951 38.0492 49.6647 38.2853 49.5193 38.5116C49.2882 38.9262 48.9995 39.304 48.6622 39.6332C48.2997 40.0443 47.9148 40.4339 47.5093 40.8002C53.1127 39.7684 54.3682 36.6998 54.8873 34.9993L60.5913 13.6274C61.4212 10.923 58.9726 7.23321 56.0573 7.2002Z" fill="white"/>
<path d="M20.5962 15.7996H17.4524C17.3758 15.8039 17.2993 15.7894 17.2293 15.7572C17.1592 15.7251 17.0977 15.6762 17.0497 15.6148C17.0018 15.5533 16.9689 15.481 16.9537 15.4038C16.9386 15.3267 16.9416 15.2469 16.9625 15.1712L17.7743 12.6309C17.8106 12.528 17.8776 12.4394 17.9657 12.3778C18.0538 12.3161 18.1586 12.2844 18.2653 12.2873L21.3678 12.3203C21.4427 12.3176 21.5171 12.333 21.5852 12.3653C21.6532 12.3975 21.7129 12.4457 21.7595 12.5059C21.8061 12.5661 21.8382 12.6367 21.8534 12.712C21.8685 12.7873 21.8662 12.8652 21.8466 12.9394L21.0821 15.4467C21.0482 15.5509 20.9829 15.6413 20.8955 15.7048C20.8081 15.7683 20.7032 15.8015 20.5962 15.7996Z" fill="white"/>
</svg>
