<svg width="80" height="82" viewBox="0 0 80 82" fill="none" xmlns="http://www.w3.org/2000/svg">
<rect width="80" height="81.1111" rx="15.5556" fill="#E8F9FF"/>
<path d="M12.2222 29.6573C12.2222 25.9036 15.2652 22.8606 19.0189 22.8606H46.2057C49.9594 22.8606 53.0024 25.9036 53.0024 29.6573V61.7871C53.0024 65.5408 49.9594 68.5838 46.2057 68.5838H28.2871C19.4147 68.5838 12.2222 61.3913 12.2222 52.5189V29.6573Z" fill="url(#paint0_linear_15717_199325)"/>
<path fill-rule="evenodd" clip-rule="evenodd" d="M67.0537 20.1284C69.1111 16.6145 66.5393 12.2222 62.4244 12.2222L50.6374 12.4533C50.0769 12.4533 49.6468 12.4533 49.0864 12.4533H26.6644C22.6052 12.4533 19.3145 15.6981 19.3145 19.7007V54.6201C19.3145 58.6228 22.6052 61.8676 26.6644 61.8676H56.0644C60.1237 61.8676 63.4144 58.6228 63.4144 54.6201V28.373C63.4144 27.0442 63.7685 25.7392 64.4403 24.5917L67.0537 20.1284Z" fill="url(#paint1_linear_15717_199325)"/>
<path d="M46.6289 35.9329C46.4314 35.4356 46.1511 34.9776 45.8007 34.5795C45.4581 34.1949 45.0645 33.8621 44.6313 33.591C44.1967 33.3187 43.7471 33.0727 43.2847 32.8542C42.8358 32.6371 42.3869 32.4316 41.938 32.2376C41.5319 32.0601 41.1388 31.8524 40.7619 31.6163C40.4415 31.4195 40.1604 31.1616 39.9338 30.8564C39.725 30.5653 39.616 30.2111 39.624 29.8494C39.6224 29.5947 39.6688 29.3422 39.7609 29.1057C39.8518 28.8724 39.9966 28.6655 40.1829 28.5029C40.3896 28.3257 40.6284 28.1923 40.8854 28.1103C41.2052 28.0094 41.5385 27.9611 41.8729 27.9671C42.3221 27.9628 42.7696 28.0251 43.2016 28.1519C43.5659 28.258 43.9216 28.3931 44.2655 28.5561C44.573 28.7062 44.8311 28.8424 45.0421 28.9695C45.1793 29.0681 45.3367 29.1329 45.5022 29.1589C45.5841 29.1611 45.6639 29.1324 45.7266 29.078C45.792 29.0065 45.837 28.9178 45.8568 28.8217C45.8926 28.6748 45.9152 28.5248 45.9241 28.3736C45.9241 28.1934 45.9421 27.9717 45.9421 27.7107C45.9421 27.4498 45.9421 27.2812 45.9286 27.1218C45.9246 26.9898 45.9095 26.8585 45.8837 26.7292C45.8729 26.6384 45.8518 26.5493 45.8209 26.4636C45.773 26.3781 45.7133 26.3003 45.6436 26.2326C45.4806 26.0931 45.2983 25.9795 45.1027 25.8954C44.8038 25.7505 44.4938 25.6315 44.1757 25.5397C43.8078 25.4273 43.4328 25.3409 43.0535 25.2811C42.9301 25.2626 42.8066 25.2672 42.6832 25.2533V23.2555C42.6826 23.151 42.6419 23.0509 42.5701 22.9769C42.4983 22.903 42.401 22.8612 42.2994 22.8606H40.5038C40.4534 22.8606 40.4035 22.8708 40.357 22.8907C40.3104 22.9105 40.2681 22.9396 40.2325 22.9763C40.1968 23.0129 40.1685 23.0565 40.1493 23.1044C40.13 23.1523 40.12 23.2037 40.12 23.2555V25.3896C39.954 25.4242 39.7834 25.4473 39.624 25.4958C38.9657 25.6842 38.3496 26.0036 37.8105 26.4358C37.2914 26.8617 36.8731 27.4035 36.5873 28.0202C36.2743 28.7124 36.1206 29.4696 36.1385 30.2328C36.123 30.8748 36.2305 31.5136 36.4549 32.1128C36.6506 32.6116 36.9285 33.0718 37.2764 33.4732C37.614 33.8558 38.0014 34.1885 38.4278 34.4617C38.8555 34.7352 39.2992 34.9813 39.7564 35.1985C40.2053 35.4156 40.6482 35.6211 41.0851 35.8151C41.4827 35.9924 41.8668 36.2001 42.2343 36.4364C42.5502 36.6369 42.829 36.8933 43.058 37.1939C43.2706 37.4894 43.3812 37.8495 43.3722 38.2171C43.3755 38.535 43.3128 38.85 43.1882 39.1409C43.0682 39.4162 42.8858 39.6577 42.6562 39.8454C42.4026 40.0449 42.1148 40.1938 41.8078 40.2842C41.4432 40.3923 41.0651 40.4452 40.6856 40.4412C40.1145 40.4476 39.5454 40.3698 38.9956 40.2103C38.5639 40.0822 38.1434 39.9168 37.7387 39.716C37.4433 39.5681 37.1563 39.4031 36.8791 39.2218C36.7281 39.0993 36.5486 39.0196 36.3584 38.9908C36.2777 38.9893 36.1988 39.0153 36.134 39.0647C36.057 39.1289 36.0013 39.216 35.9746 39.3141C35.9298 39.4644 35.9012 39.6193 35.8893 39.7761C35.8714 39.9655 35.8646 40.201 35.8646 40.4805C35.856 40.8002 35.8801 41.1199 35.9365 41.4344C35.9681 41.6242 36.0523 41.8006 36.1788 41.9425C36.3486 42.1005 36.5363 42.237 36.7377 42.349C37.0465 42.5252 37.3703 42.6721 37.7051 42.7878C38.1445 42.942 38.5947 43.0617 39.0517 43.1458C39.4159 43.2032 39.7832 43.2372 40.1515 43.2474V44.7094C40.1512 44.7613 40.1609 44.8128 40.1801 44.8609C40.1993 44.9089 40.2275 44.9526 40.2632 44.9893C40.2989 45.026 40.3413 45.0551 40.388 45.0749C40.4347 45.0946 40.4848 45.1046 40.5353 45.1043H42.3308C42.4326 45.1043 42.5302 45.0627 42.6022 44.9886C42.6741 44.9146 42.7146 44.8141 42.7146 44.7094V43.058C42.8537 43.0234 42.9996 43.0072 43.1365 42.9633C43.8627 42.7499 44.5418 42.3938 45.1363 41.9148C45.7059 41.4459 46.166 40.8516 46.483 40.1756C46.8303 39.4198 47.0016 38.591 46.9835 37.7552C46.9837 37.1296 46.8632 36.5102 46.6289 35.9329Z" fill="url(#paint2_linear_15717_199325)"/>
<path opacity="0.6" d="M31.1348 53.6471C31.1348 52.9646 31.8066 52.4114 32.6353 52.4114H50.6422C51.4709 52.4114 52.1427 52.9646 52.1427 53.6471C52.1427 54.3296 51.4709 54.8829 50.6422 54.8829H32.6353C31.8066 54.8829 31.1348 54.3296 31.1348 53.6471Z" fill="url(#paint3_linear_15717_199325)"/>
<defs>
<linearGradient id="paint0_linear_15717_199325" x1="17.7832" y1="28.7305" x2="41.2626" y2="68.5838" gradientUnits="userSpaceOnUse">
<stop stop-color="#FE8A5D"/>
<stop offset="1" stop-color="#F94B61"/>
</linearGradient>
<linearGradient id="paint1_linear_15717_199325" x1="39.3599" y1="16.0771" x2="51.0742" y2="61.9475" gradientUnits="userSpaceOnUse">
<stop stop-color="#69DEFD"/>
<stop offset="1" stop-color="#17AFFE"/>
</linearGradient>
<linearGradient id="paint2_linear_15717_199325" x1="33.6385" y1="33.9825" x2="55.8823" y2="52.8896" gradientUnits="userSpaceOnUse">
<stop stop-color="white"/>
<stop offset="1" stop-color="white" stop-opacity="0"/>
</linearGradient>
<linearGradient id="paint3_linear_15717_199325" x1="37.4372" y1="60.8146" x2="58.4431" y2="61.1789" gradientUnits="userSpaceOnUse">
<stop stop-color="white"/>
<stop offset="1" stop-color="white" stop-opacity="0"/>
</linearGradient>
</defs>
</svg>
