<svg width="138" height="102" viewBox="0 0 138 102" fill="none" xmlns="http://www.w3.org/2000/svg">
<g clip-path="url(#clip0_15779_200365)">
<g opacity="0.7">
<path opacity="0.7" d="M85.7612 86.2547L3.29443 71.523L18.2333 35.4813L78.6932 40.9067L85.7612 86.2547Z" fill="url(#paint0_linear_15779_200365)"/>
<path opacity="0.7" d="M85.5232 8.85583L104.428 18.5527L123.412 28.1731L104.427 37.8782L85.5225 47.5751L66.6177 37.8782L47.6348 28.1759L66.6184 18.5527L85.5232 8.85583Z" fill="#E7EDF4"/>
<path opacity="0.7" d="M68.2799 17.6882L106.168 37.0083L102.766 38.7435L64.8784 19.4234L68.2799 17.6882Z" fill="white"/>
<path opacity="0.7" d="M123.412 66.9744V28.1759L104.428 37.8728L85.5234 47.5697V86.2889L123.412 66.9744Z" fill="#D3DBE3"/>
<path opacity="0.7" d="M100.868 44.8156L109.727 40.4787C110.02 40.316 110.344 40.2154 110.679 40.1832C111.013 40.151 111.35 40.1879 111.669 40.2915C111.988 40.3952 112.283 40.5633 112.534 40.7855C112.785 41.0077 112.987 41.2792 113.129 41.5829C113.326 42.2658 113.276 42.9962 112.986 43.6457C112.697 44.2952 112.187 44.8221 111.546 45.1339L102.767 49.4708C102.473 49.6335 102.149 49.7341 101.815 49.7663C101.481 49.7985 101.144 49.7616 100.824 49.658C100.505 49.5543 100.211 49.3862 99.9596 49.164C99.7085 48.9418 99.5061 48.6703 99.365 48.3666C99.126 47.6945 99.1476 46.9576 99.4257 46.3006C99.7037 45.6435 100.218 45.1139 100.868 44.8156Z" fill="#A3ADBC"/>
<path opacity="0.7" d="M85.5232 86.2944V47.5751L66.6184 37.8782L47.6348 28.1758V66.9743L85.5232 86.2944Z" fill="#BBC3CE"/>
</g>
<path opacity="0.7" d="M49.6681 98.1857L-7 88.0625L3.26547 63.296L44.8112 67.0242L49.6681 98.1857Z" fill="url(#paint1_linear_15779_200365)"/>
<path d="M49.5043 45L62.495 51.6633L75.5398 58.2741L62.4945 64.9431L49.5038 71.6065L36.5131 64.9431L23.4688 58.276L36.5136 51.6633L49.5043 45Z" fill="#F0F4F8"/>
<path opacity="0.7" d="M37.6553 51.0693L63.6903 64.3453L61.3529 65.5377L35.3179 52.2616L37.6553 51.0693Z" fill="white"/>
<path d="M75.5399 84.9369V58.2761L62.4951 64.9394L49.5044 71.6027V98.2092L75.5399 84.9369Z" fill="#E7ECF1"/>
<path opacity="0.7" d="M60.0483 69.7103L66.136 66.7301C66.3376 66.6183 66.5602 66.5492 66.7899 66.527C67.0195 66.5049 67.2512 66.5303 67.4706 66.6015C67.69 66.6727 67.8923 66.7882 68.0648 66.9409C68.2373 67.0936 68.3764 67.2801 68.4734 67.4888C68.6091 67.9581 68.5744 68.46 68.3756 68.9063C68.1767 69.3526 67.8264 69.7147 67.3861 69.9289L61.353 72.9091C61.1514 73.0209 60.9288 73.09 60.6991 73.1122C60.4695 73.1343 60.2377 73.1089 60.0184 73.0377C59.799 72.9665 59.5967 72.851 59.4242 72.6983C59.2517 72.5456 59.1126 72.3591 59.0156 72.1504C58.8513 71.6885 58.8662 71.1821 59.0573 70.7307C59.2483 70.2792 59.6018 69.9152 60.0483 69.7103Z" fill="#A3ADBC"/>
<path d="M49.5043 98.2129V71.6064L36.5136 64.9431L23.4688 58.276V84.9369L49.5043 98.2129Z" fill="#D8DDE3"/>
</g>
<defs>
<linearGradient id="paint0_linear_15779_200365" x1="26.4676" y1="52.3888" x2="63.2278" y2="98.5595" gradientUnits="userSpaceOnUse">
<stop stop-color="#B3B6B9" stop-opacity="0"/>
<stop offset="1" stop-color="#96AEC6" stop-opacity="0.212"/>
</linearGradient>
<linearGradient id="paint1_linear_15779_200365" x1="8.92375" y1="74.9143" x2="34.184" y2="106.641" gradientUnits="userSpaceOnUse">
<stop stop-color="#B3B6B9" stop-opacity="0"/>
<stop offset="1" stop-color="#96AEC6" stop-opacity="0.212"/>
</linearGradient>
<clipPath id="clip0_15779_200365">
<rect width="138" height="102" rx="8" fill="white"/>
</clipPath>
</defs>
</svg>
