<svg width="60" height="60" viewBox="0 0 60 60" fill="none" xmlns="http://www.w3.org/2000/svg">
<rect width="60" height="60" rx="16" fill="#FFF6DC"/>
<path d="M29.7103 50.8604H29.3925L21.4659 47.0363C18.0022 45.3644 14.5381 43.6929 11.0738 42.0216C10.9344 41.978 10.8096 41.8973 10.7126 41.7881C10.6157 41.6789 10.5503 41.5454 10.5234 41.4019C10.5281 41.2697 10.5375 41.1376 10.5375 41.0054C10.5375 34.0016 10.5375 26.9982 10.5375 19.995C10.5375 19.8629 10.5281 19.7307 10.5234 19.5985L10.6172 19.3604C10.7493 19.3686 10.8777 19.4075 10.9922 19.4738C13.2828 20.5794 15.5735 21.685 17.8641 22.7907C21.8122 24.6982 25.76 26.6066 29.7075 28.516C29.7088 35.9641 29.7097 43.4122 29.7103 50.8604ZM19.2206 37.8291C19.2206 37.5254 19.0941 37.3416 18.7416 37.1682C18.2306 36.9169 17.7169 36.6722 17.205 36.4257C15.9888 35.84 14.7728 35.2541 13.5572 34.6679C13.4388 34.5931 13.3004 34.556 13.1605 34.5615C13.0206 34.5671 12.8856 34.6149 12.7734 34.6988C12.6721 34.7754 12.5957 34.8803 12.5538 35.0002C12.512 35.1202 12.5065 35.2498 12.5381 35.3729C12.5678 35.4888 12.6263 35.5954 12.7083 35.6826C12.7903 35.7698 12.893 35.8348 13.0069 35.8716C14.4013 36.5441 15.795 37.2179 17.1881 37.8929C17.5575 38.071 17.9203 38.2679 18.3 38.4197C18.3986 38.4687 18.5082 38.4912 18.6181 38.4852C18.7281 38.4792 18.8345 38.4449 18.9272 38.3855C19.0199 38.3261 19.0957 38.2438 19.1471 38.1464C19.1985 38.0491 19.2239 37.9401 19.2206 37.8301V37.8291ZM16.6528 39.4632C16.6299 39.331 16.5727 39.207 16.487 39.1037C16.4013 39.0004 16.2901 38.9214 16.1644 38.8744C15.2831 38.4479 14.4038 38.0176 13.5197 37.5957C13.4466 37.5493 13.365 37.518 13.2797 37.5037C13.1943 37.4893 13.107 37.4922 13.0228 37.5121C12.9386 37.532 12.8592 37.5686 12.7893 37.6197C12.7194 37.6707 12.6605 37.7352 12.6159 37.8094C12.5666 37.8853 12.5341 37.9709 12.5207 38.0604C12.5072 38.1499 12.513 38.2412 12.5378 38.3283C12.5626 38.4153 12.6057 38.496 12.6643 38.565C12.7229 38.634 12.7956 38.6896 12.8775 38.7282C13.8319 39.2147 14.7966 39.6816 15.7744 40.1204C15.8767 40.1594 15.9871 40.1719 16.0955 40.1568C16.2039 40.1417 16.3068 40.0995 16.3945 40.034C16.4822 39.9686 16.552 39.882 16.5973 39.7824C16.6426 39.6827 16.662 39.5732 16.6538 39.4641L16.6528 39.4632Z" fill="url(#paint0_linear_11952_143416)"/>
<path d="M29.709 50.8613C29.709 43.4132 29.709 35.9647 29.709 28.516L31.4996 27.6572C32.7887 27.0385 34.0834 26.43 35.3659 25.7972C35.9965 25.522 36.6073 25.2034 37.194 24.8438L37.3271 24.8616C37.3271 27.1779 37.3299 29.4941 37.3356 31.8104C37.3356 32.4057 37.4846 32.4938 38.0293 32.2332C39.248 31.6491 40.4546 31.0482 41.6856 30.4876C41.9017 30.406 42.0845 30.2548 42.2054 30.058C42.3262 29.8611 42.3781 29.6297 42.353 29.4001C42.3362 27.2438 42.3465 25.0875 42.3446 22.9313C42.3714 22.7727 42.3511 22.6098 42.2865 22.4625C42.2884 22.4382 42.2884 22.4138 42.2865 22.3894C42.4451 22.3779 42.5984 22.3274 42.7328 22.2422L48.3868 19.4869C48.5117 19.412 48.6529 19.3685 48.7984 19.3604C48.8752 19.4204 48.8696 19.5132 48.8921 19.5947C48.8875 19.7269 48.8771 19.8591 48.8771 19.9913C48.8771 26.995 48.8771 33.9991 48.8771 41.0035C48.8771 41.1357 48.8865 41.2679 48.8921 41.4C48.8443 41.791 48.5359 41.9288 48.2359 42.0741C43.3759 44.4197 38.5162 46.766 33.6568 49.1128C32.469 49.6866 31.2887 50.2763 30.1046 50.8585L29.709 50.8613Z" fill="url(#paint1_linear_11952_143416)"/>
<path d="M48.803 19.3628C48.6572 19.3708 48.5156 19.4142 48.3904 19.4893L42.7261 22.2418C42.5917 22.3269 42.4384 22.3775 42.2798 22.389C41.0386 21.7934 39.7976 21.1975 38.557 20.6012C34.1951 18.4925 29.8342 16.3818 25.4742 14.2693C24.7103 13.9368 23.9639 13.565 23.2383 13.1556C23.3761 13.0787 23.5101 12.9943 23.6517 12.925C25.5648 11.995 27.4786 11.0665 29.393 10.1396H30.0295C30.0474 10.1589 30.0675 10.1759 30.0895 10.1903L48.3577 18.9915C48.5462 19.0572 48.7045 19.1891 48.803 19.3628Z" fill="url(#paint2_linear_11952_143416)"/>
<path d="M10.5229 41.4021H10.492L10.4629 41.3946V19.6043C10.4819 19.5967 10.5028 19.5947 10.5229 19.5987C10.5276 19.7309 10.537 19.8631 10.537 19.9953C10.537 26.999 10.537 34.0024 10.537 41.0056C10.537 41.1377 10.5276 41.2699 10.5229 41.4021Z" fill="#FEF4D5"/>
<path d="M48.9568 41.3958L48.9268 41.4023H48.8959C48.8912 41.2701 48.8809 41.1379 48.8809 41.0058C48.8809 34.002 48.8809 26.998 48.8809 19.9936C48.8809 19.8614 48.8902 19.7292 48.8959 19.597C48.9164 19.594 48.9374 19.5962 48.9568 19.6036V41.3958Z" fill="#FEF4D5"/>
<path d="M10.6152 19.3599C10.6986 19.2079 10.8331 19.0903 10.9949 19.0281C13.3199 17.9031 15.6449 16.7812 17.9699 15.6624C18.031 15.6376 18.0936 15.617 18.1574 15.6006C18.3083 15.6821 18.4565 15.7703 18.6112 15.8453C21.698 17.3365 24.7852 18.8271 27.8727 20.3171C29.864 21.2771 31.858 22.2315 33.8465 23.1953C34.9649 23.7371 36.0768 24.294 37.1924 24.8443C36.6058 25.2039 35.9949 25.5225 35.3643 25.7978C34.0818 26.4296 32.7871 27.039 31.498 27.6578L29.7074 28.5165L17.864 22.7912C15.574 21.6849 13.2834 20.5793 10.9921 19.4743C10.8771 19.4074 10.7481 19.3682 10.6152 19.3599Z" fill="url(#paint3_linear_11952_143416)"/>
<path d="M19.2212 37.8296C19.2246 37.9399 19.1995 38.0492 19.1481 38.1468C19.0967 38.2444 19.0208 38.3269 18.928 38.3865C18.8351 38.446 18.7284 38.4804 18.6183 38.4863C18.5081 38.4922 18.3983 38.4695 18.2996 38.4203C17.9246 38.2656 17.5571 38.0715 17.1877 37.8934C15.794 37.2196 14.4002 36.5459 13.0065 35.8721C12.8926 35.8353 12.7899 35.7703 12.7079 35.6831C12.626 35.5959 12.5674 35.4893 12.5377 35.3734C12.5062 35.2504 12.5118 35.1207 12.5536 35.0008C12.5955 34.8809 12.6718 34.776 12.773 34.6993C12.8852 34.6155 13.0202 34.5676 13.1601 34.5621C13.3001 34.5565 13.4384 34.5936 13.5568 34.6684C14.7712 35.2565 15.9871 35.8424 17.2046 36.4262C17.7174 36.6728 18.2312 36.9174 18.7412 37.1687C19.0927 37.3421 19.223 37.5259 19.2212 37.8296Z" fill="#FEF4D5"/>
<path d="M16.6529 39.4645C16.6611 39.5736 16.6417 39.6829 16.5964 39.7824C16.5511 39.882 16.4815 39.9684 16.3939 40.0339C16.3063 40.0993 16.2036 40.1416 16.0953 40.1568C15.987 40.172 15.8767 40.1596 15.7745 40.1208C14.7976 39.683 13.832 39.2152 12.8776 38.7286C12.7957 38.6901 12.723 38.6345 12.6644 38.5655C12.6058 38.4965 12.5627 38.4157 12.5379 38.3287C12.5131 38.2416 12.5073 38.1503 12.5207 38.0608C12.5342 37.9713 12.5667 37.8858 12.616 37.8099C12.6606 37.7357 12.7195 37.6711 12.7894 37.6201C12.8593 37.569 12.9386 37.5325 13.0228 37.5126C13.1071 37.4926 13.1944 37.4897 13.2798 37.5041C13.3651 37.5184 13.4467 37.5497 13.5198 37.5961C14.4038 38.018 15.2832 38.4483 16.1644 38.8749C16.2903 38.9219 16.4016 39.0011 16.4873 39.1045C16.573 39.208 16.6301 39.3321 16.6529 39.4645Z" fill="#FEE07D"/>
<path d="M37.1932 24.843C36.0785 24.2927 34.9667 23.7358 33.8473 23.194C31.8579 22.2302 29.8639 21.2768 27.8735 20.3159C24.786 18.8265 21.6988 17.3358 18.612 15.844C18.4573 15.769 18.3091 15.6818 18.1582 15.5993C19.841 14.7621 21.5229 13.924 23.2376 13.1543C23.9632 13.5639 24.7095 13.9356 25.4736 14.268C29.8323 16.3824 34.1932 18.493 38.5563 20.5999C39.7957 21.1993 41.0366 21.7952 42.2791 22.3877C42.281 22.4121 42.281 22.4365 42.2791 22.4609C42.0035 22.5874 41.7251 22.7093 41.4523 22.8415C40.0732 23.5081 38.726 24.2402 37.3273 24.8599L37.1932 24.843Z" fill="#FB4E59"/>
<path d="M37.3262 24.8629C38.7324 24.2432 40.0749 23.5101 41.4512 22.8445C41.724 22.7123 42.0025 22.5904 42.2781 22.4639C42.3427 22.6111 42.3629 22.774 42.3362 22.9326C42.3362 25.0889 42.3278 27.2451 42.3446 29.4014C42.3699 29.631 42.318 29.8625 42.1971 30.0594C42.0763 30.2563 41.8934 30.4074 41.6772 30.4889C40.45 31.0514 39.2396 31.6504 38.0209 32.2345C37.4771 32.496 37.329 32.407 37.3281 31.8117C37.3281 29.4917 37.3274 27.1754 37.3262 24.8629Z" fill="#FB4E59"/>
<defs>
<linearGradient id="paint0_linear_11952_143416" x1="13.1896" y1="23.8036" x2="22.7996" y2="43.6061" gradientUnits="userSpaceOnUse">
<stop stop-color="#F9C02B"/>
<stop offset="1" stop-color="#FC9B24"/>
</linearGradient>
<linearGradient id="paint1_linear_11952_143416" x1="48.1651" y1="29.6852" x2="25.7264" y2="36.4092" gradientUnits="userSpaceOnUse">
<stop stop-color="#F9AD1F"/>
<stop offset="1" stop-color="#F9CC2E"/>
</linearGradient>
<linearGradient id="paint2_linear_11952_143416" x1="36.0206" y1="10.1396" x2="36.0206" y2="22.389" gradientUnits="userSpaceOnUse">
<stop stop-color="#F9CC2E"/>
<stop offset="1" stop-color="#FDC536"/>
</linearGradient>
<linearGradient id="paint3_linear_11952_143416" x1="23.9038" y1="15.6006" x2="23.9038" y2="28.5165" gradientUnits="userSpaceOnUse">
<stop stop-color="#F9CC2E"/>
<stop offset="1" stop-color="#FDC536"/>
</linearGradient>
</defs>
</svg>
