<svg width="60" height="60" viewBox="0 0 60 60" fill="none" xmlns="http://www.w3.org/2000/svg">
<rect width="60" height="60" rx="16" fill="#FFF6DC"/>
<g clip-path="url(#clip0_11952_143403)">
<path d="M51.7416 21.4914C51.4981 21.1673 51.1163 20.9766 50.7109 20.9766H41.4935C40.878 17.3233 37.6928 14.5312 33.8672 14.5312C30.0416 14.5312 26.8564 17.3233 26.2408 20.9766H18.2285L16.5441 9.10799C16.4539 8.4724 15.9099 8 15.2678 8H9.28906C8.57716 8 8 8.57716 8 9.28906C8 10.001 8.57716 10.5781 9.28906 10.5781H14.1488L15.8331 22.4464V22.4465V22.4468L17.779 36.1537C17.9901 37.6316 18.7088 38.9878 19.807 39.9938C18.9472 40.7036 18.3984 41.7772 18.3984 42.9766C18.3984 44.7574 19.6089 46.2601 21.2499 46.7075C21.0742 47.1489 20.9766 47.6296 20.9766 48.1328C20.9766 50.2652 22.7114 52 24.8438 52C26.9761 52 28.7109 50.2652 28.7109 48.1328C28.7109 47.681 28.6323 47.2472 28.4892 46.8438H39.2452C39.1021 47.2472 39.0234 47.681 39.0234 48.1328C39.0234 50.2652 40.7583 52 42.8906 52C45.023 52 46.7578 50.2652 46.7578 48.1328C46.7578 46.0004 45.023 44.2656 42.8906 44.2656H22.2656C21.5548 44.2656 20.9766 43.6874 20.9766 42.9766C20.9766 42.2658 21.5548 41.6875 22.2656 41.6875H41.5794C44.4419 41.6875 46.9903 39.7653 47.7753 37.0177L51.949 22.6247C52.0619 22.2353 51.985 21.8155 51.7416 21.4914Z" fill="url(#paint0_linear_11952_143403)"/>
<path d="M33.8672 13.2422C28.8917 13.2422 24.8438 17.2901 24.8438 22.2656C24.8438 27.2411 28.8917 31.2891 33.8672 31.2891C38.8427 31.2891 42.8906 27.2411 42.8906 22.2656C42.8906 17.2901 38.8427 13.2422 33.8672 13.2422Z" fill="white"/>
<path d="M33.8672 13.2422C28.8917 13.2422 24.8438 17.2901 24.8438 22.2656C24.8438 27.2411 28.8917 31.2891 33.8672 31.2891C38.8427 31.2891 42.8906 27.2411 42.8906 22.2656C42.8906 17.2901 38.8427 13.2422 33.8672 13.2422ZM37.3568 21.8881L33.4896 25.7553C33.238 26.007 32.908 26.1328 32.5781 26.1328C32.2482 26.1328 31.9183 26.007 31.6667 25.7552L30.3776 24.4661C29.8742 23.9627 29.8742 23.1466 30.3776 22.6431C30.8809 22.1397 31.6972 22.1397 32.2006 22.6431L32.5782 23.0207L35.5339 20.065C36.0373 19.5616 36.8535 19.5616 37.3569 20.065C37.8603 20.5685 37.8603 21.3847 37.3568 21.8881Z" fill="url(#paint1_linear_11952_143403)"/>
</g>
<defs>
<linearGradient id="paint0_linear_11952_143403" x1="30" y1="52" x2="30" y2="8" gradientUnits="userSpaceOnUse">
<stop stop-color="#FD9C25"/>
<stop offset="1" stop-color="#FACB30"/>
</linearGradient>
<linearGradient id="paint1_linear_11952_143403" x1="33.8672" y1="31.2891" x2="33.8672" y2="13.2422" gradientUnits="userSpaceOnUse">
<stop stop-color="#28A745"/>
<stop offset="0.9973" stop-color="#94E678"/>
</linearGradient>
<clipPath id="clip0_11952_143403">
<rect width="44" height="44" fill="white" transform="translate(8 8)"/>
</clipPath>
</defs>
</svg>
