<svg width="60" height="60" viewBox="0 0 60 60" fill="none" xmlns="http://www.w3.org/2000/svg">
<rect width="60" height="60" rx="16" fill="#E7FBFC"/>
<path d="M41.235 51.4881C40.4967 51.6053 39.7467 51.5818 39.0084 51.5818C33.1373 51.5818 27.2779 51.5818 21.4069 51.5818C20.6803 51.5818 19.9537 51.617 19.2272 51.4881C17.7623 50.8904 17.1061 49.9295 17.1295 48.324C17.1529 46.9061 17.4459 45.5115 17.5983 44.117C17.7975 42.3123 18.067 40.5076 18.2662 38.6912C18.4303 37.1912 18.9459 35.8787 20.0709 34.824C20.8795 34.0623 21.7936 33.4412 22.6959 32.785C24.6061 31.4022 25.9772 29.6561 26.4576 27.3006C26.6451 27.1834 26.7506 27.3475 26.8678 27.4295C28.0397 28.1795 29.3053 28.6483 30.7233 28.6131C31.8834 28.5779 32.9381 28.1912 33.9342 27.617C34.0514 27.5467 34.1451 27.4529 34.2858 27.4764C34.6725 29.1639 35.4811 30.617 36.7467 31.8006C37.6725 32.6678 38.7389 33.3709 39.7115 34.1678C40.8483 35.0936 41.7623 36.1834 42.0084 37.66C42.2662 39.2186 42.4303 40.8006 42.6295 42.3709C42.8522 44.1404 43.0397 45.9217 43.2975 47.6912C43.567 49.449 42.8405 50.8201 41.235 51.4881ZM30.149 51.5115C31.2154 51.5115 32.2819 51.4881 33.3483 51.5233C33.7819 51.535 33.8404 51.3709 33.8053 51.0194C33.735 50.4686 33.6764 49.9178 33.5944 49.367C33.0787 45.699 32.5631 42.0311 32.0475 38.3631C31.9889 37.9412 32.0006 37.5545 32.1998 37.1444C32.5631 36.3944 32.774 35.5858 32.985 34.7889C33.0787 34.4373 33.0084 34.1795 32.7154 33.9451C32.0358 33.3943 31.3326 32.8787 30.5826 32.41C30.3248 32.2459 30.0904 32.2342 29.8092 32.41C29.0709 32.8787 28.3678 33.3943 27.6764 33.9451C27.36 34.1912 27.3014 34.4725 27.4069 34.824C27.6647 35.7381 27.9108 36.6522 28.3444 37.4959C28.4264 37.66 28.4029 37.7889 28.3795 37.9529C28.0748 40.1561 27.7701 42.3709 27.4654 44.5858C27.1725 46.7186 26.8912 48.8631 26.5631 50.9959C26.5045 51.4178 26.61 51.4998 26.985 51.4998C28.0514 51.4998 29.0944 51.5115 30.149 51.5115Z" fill="url(#paint0_linear_11952_143388)"/>
<path d="M41.2344 51.4885C42.8516 50.8205 43.5664 49.4612 43.3086 47.7151C43.0508 45.9455 42.8633 44.1643 42.6406 42.3948C42.4414 40.8244 42.2773 39.2424 42.0195 37.6838C41.7734 36.1955 40.8594 35.1174 39.7227 34.1916C38.7383 33.383 37.6836 32.6916 36.7578 31.8244C35.4922 30.6291 34.6719 29.1877 34.2969 27.5002C34.4258 27.2541 34.6836 27.1604 34.8828 26.9963C37.3555 24.8752 38.7031 22.1799 39.1484 18.9924C40.9883 18.6526 42.7227 18.8987 44.3047 19.9534C46.8594 21.6526 47.8906 24.676 46.9883 27.7815C46.5195 29.3752 45.7227 30.7932 44.5273 31.9534C44.3164 32.1526 44.2813 32.3518 44.3398 32.6096C44.7148 34.4729 45.7813 35.8674 47.293 36.9455C47.7969 37.2971 48.2773 37.6721 48.7695 38.0471C49.9414 38.9377 50.5625 40.0979 50.7266 41.5744C50.9727 43.8596 51.2891 46.1448 51.5703 48.4299C51.6406 48.9573 51.6172 49.4729 51.4414 49.9885C51.125 50.8908 50.3984 51.4768 49.4375 51.4885C46.6953 51.5002 43.9648 51.4885 41.2344 51.4885Z" fill="url(#paint1_linear_11952_143388)"/>
<path d="M39.1482 18.9922C38.7029 22.1797 37.3435 24.875 34.8708 26.9727C34.6716 27.1367 34.4138 27.2305 34.2849 27.4766C34.1443 27.4531 34.0388 27.5469 33.9333 27.6172C32.9372 28.1914 31.8825 28.5781 30.7224 28.6133C29.3044 28.6484 28.0388 28.1914 26.8669 27.4297C26.738 27.3477 26.6443 27.1836 26.4568 27.3008C26.4685 27.125 26.3161 27.0547 26.2107 26.9609C23.738 24.875 22.3786 22.1797 21.945 18.9922C21.9216 17.8438 21.9333 16.6953 22.2732 15.5703C23.2458 12.3125 26.1169 9.91017 29.4802 9.47657C33.699 8.93751 37.8005 11.6328 38.9138 15.9102C39.1833 16.9297 39.1599 17.9609 39.1482 18.9922Z" fill="#4FECD0"/>
<path d="M21.9342 18.992C22.3795 22.1678 23.7271 24.8631 26.1998 26.9608C26.3052 27.0545 26.4576 27.1248 26.4459 27.3006C25.9654 29.6561 24.5943 31.4022 22.6842 32.785C21.7935 33.4295 20.8677 34.0623 20.0592 34.824C18.9342 35.8787 18.4185 37.1912 18.2545 38.6912C18.0552 40.4959 17.7974 42.3006 17.5865 44.117C17.4342 45.5233 17.1412 46.9178 17.1177 48.324C17.0826 49.9295 17.7506 50.9022 19.2154 51.4881C16.6842 51.4881 14.1646 51.5233 11.6334 51.4881C10.3912 51.4764 9.51228 50.4686 9.50056 49.1209C9.48884 48.2772 9.66462 47.4334 9.77009 46.6014C9.98103 44.8201 10.2388 43.0389 10.4381 41.2576C10.5904 39.8983 11.2818 38.8904 12.3248 38.0819C13.0513 37.5194 13.8013 36.9803 14.5162 36.3944C15.7232 35.4217 16.4381 34.1444 16.7662 32.6326C16.8248 32.3514 16.7662 32.1522 16.5552 31.9412C14.7037 30.0311 13.7076 27.7693 13.8013 25.074C13.9185 21.8983 16.7545 19.0506 19.9302 18.8865C20.6099 18.8397 21.2779 18.8631 21.9342 18.992Z" fill="url(#paint2_linear_11952_143388)"/>
<path d="M30.1482 51.5118C29.0936 51.5118 28.0506 51.5001 26.9959 51.5118C26.6209 51.5118 26.5037 51.4297 26.574 51.0079C26.9021 48.8751 27.1834 46.7305 27.4764 44.5977C27.7811 42.3829 28.0857 40.1797 28.3904 37.9649C28.4139 37.8008 28.4256 37.6602 28.3553 37.5079C27.9334 36.6524 27.6756 35.7383 27.4178 34.836C27.3123 34.4844 27.3709 34.2032 27.6873 33.9571C28.367 33.4063 29.0701 32.8907 29.8201 32.4219C30.0896 32.2461 30.324 32.2579 30.5936 32.4219C31.3318 32.8907 32.0467 33.4063 32.7264 33.9571C33.0193 34.1914 33.0896 34.4493 32.9959 34.8008C32.785 35.5977 32.574 36.418 32.2107 37.1563C32.0115 37.5664 31.9998 37.9532 32.0584 38.375C32.574 42.043 33.0896 45.711 33.6053 49.379C33.6873 49.9297 33.7459 50.4805 33.8162 51.0313C33.8631 51.3711 33.7928 51.5469 33.3592 51.5352C32.2811 51.4883 31.2146 51.5118 30.1482 51.5118Z" fill="#FDFEFF"/>
<defs>
<linearGradient id="paint0_linear_11952_143388" x1="30.2407" y1="30.2614" x2="30.2407" y2="51.5862" gradientUnits="userSpaceOnUse">
<stop stop-color="#41E7BC"/>
<stop offset="1" stop-color="#47D4DB"/>
</linearGradient>
<linearGradient id="paint1_linear_11952_143388" x1="42.952" y1="22.8776" x2="42.952" y2="51.4937" gradientUnits="userSpaceOnUse">
<stop stop-color="#0AC594"/>
<stop offset="1" stop-color="#47D4DB"/>
</linearGradient>
<linearGradient id="paint2_linear_11952_143388" x1="17.9733" y1="22.8917" x2="17.9733" y2="51.5037" gradientUnits="userSpaceOnUse">
<stop stop-color="#0AC594"/>
<stop offset="1" stop-color="#47D4DB"/>
</linearGradient>
</defs>
</svg>
