<svg width="60" height="60" viewBox="0 0 60 60" fill="none" xmlns="http://www.w3.org/2000/svg">
<rect width="60" height="60" rx="16" fill="#DCEAFF"/>
<path d="M50.6005 10.9567L46.3411 48.6037C46.208 49.7802 44.9531 50.4725 43.8872 49.9573C37.8876 47.0568 34.0726 45.2126 31.5639 44.0007C31.5232 44.0834 27.1199 49.4914 27.0479 49.5816C26.1344 50.7055 24.3257 50.2643 24.0326 48.8463L22.0821 39.4181C23.5426 40.1201 10.4737 33.8068 7.96949 32.5964C6.66847 31.9673 6.6792 30.1092 7.98774 29.4952L49.3832 10.0829C49.9908 9.79733 50.6757 10.289 50.6005 10.9567Z" fill="url(#paint0_linear_11952_143449)"/>
<path d="M31.5638 44.0005C31.5237 44.0841 26.989 49.6531 27.0475 49.5812C26.1344 50.705 24.326 50.264 24.0326 48.8461L22.082 39.418L31.5638 44.0005Z" fill="#87B9FA"/>
<path d="M46.341 48.6034C46.2078 49.7799 44.953 50.4723 43.887 49.957C30.1689 43.3262 34.5098 45.4243 22.082 39.4179C22.0788 39.3985 49.7175 10.5323 49.7019 10.5486C50.0396 10.1958 50.6499 10.4589 50.6017 10.9449C50.6005 10.955 46.342 48.5933 46.341 48.6034Z" fill="url(#paint1_linear_11952_143449)"/>
<defs>
<linearGradient id="paint0_linear_11952_143449" x1="28.8031" y1="10" x2="28.8031" y2="50.2173" gradientUnits="userSpaceOnUse">
<stop stop-color="#2684FF"/>
<stop offset="1" stop-color="#9DC8FF"/>
</linearGradient>
<linearGradient id="paint1_linear_11952_143449" x1="53.9238" y1="25.1523" x2="25.574" y2="33.9506" gradientUnits="userSpaceOnUse">
<stop stop-color="#0C6BE9"/>
<stop offset="1" stop-color="#4F98F8"/>
</linearGradient>
</defs>
</svg>
