<svg width="38" height="38" viewBox="0 0 38 38" fill="none" xmlns="http://www.w3.org/2000/svg">
<g clip-path="url(#clip0_24643_360175)">
<rect x="1" y="1" width="36" height="36" fill="url(#paint0_linear_24643_360175)"/>
<g opacity="0.4">
<path d="M31.8614 18.9961C31.8614 19.4124 31.8198 19.8287 31.7365 20.245C31.6949 20.4532 31.6533 20.6613 31.57 20.8279C31.4868 21.0776 31.4035 21.3274 31.2786 21.5772C30.7791 22.6596 29.9464 23.6587 28.7392 24.3248L23.4105 27.4054L18.0819 30.5277C15.9587 31.7766 13.5025 31.5684 11.6708 30.4028C10.0056 29.3204 8.79834 27.447 8.79834 25.1574V12.8349C8.79834 10.4619 10.0472 8.54696 11.8373 7.50621C13.6691 6.42382 16.0004 6.2573 18.0819 7.46458L23.4105 10.5452L28.7392 13.6258C30.8207 14.7915 31.8614 16.9146 31.8614 18.9961Z" fill="white"/>
</g>
<g opacity="0.5">
<path d="M31.4035 19.1209C31.6949 19.8287 31.6533 20.6196 31.4035 21.3273C31.3619 21.4106 31.3202 21.4939 31.3202 21.5771C30.8207 22.6595 29.9881 23.6586 28.7808 24.3247L23.4521 27.4053L18.0819 30.5276C15.9587 31.7765 13.5025 31.5684 11.6708 30.4027C10.0056 29.3203 8.79834 27.447 8.79834 25.1573V15.291C8.79834 12.9181 10.0472 11.0031 11.8373 9.96232C13.6691 8.87994 16.0004 8.71342 18.0819 9.92069L23.4105 13.0013L28.7392 16.0819C30.0297 16.8313 30.9039 17.9137 31.4035 19.1209Z" fill="white"/>
</g>
<path d="M8.79834 25.1157V18.0386C8.79834 15.6657 10.0472 13.7507 11.8373 12.7099C13.6691 11.6276 16.0004 11.461 18.0819 12.6683L23.4105 15.7489L28.7392 18.8296C30.8623 20.0368 30.8623 23.1175 28.7392 24.3664L23.4105 27.447L18.0819 30.5276C15.9587 31.7765 13.5025 31.5684 11.6708 30.4027C9.96398 29.3204 8.79834 27.4054 8.79834 25.1157Z" fill="white"/>
</g>
<rect x="0.5" y="0.5" width="37" height="37" rx="18.5" stroke="white" stroke-opacity="0.33"/>
<defs>
<linearGradient id="paint0_linear_24643_360175" x1="4.05625" y1="3.68125" x2="34.2668" y2="36.1589" gradientUnits="userSpaceOnUse">
<stop stop-color="#EF592E"/>
<stop offset="0.166378" stop-color="#EF592E"/>
<stop offset="0.755856" stop-color="#F1672B"/>
<stop offset="1" stop-color="#F99F1D"/>
</linearGradient>
<clipPath id="clip0_24643_360175">
<rect x="1" y="1" width="36" height="36" rx="18" fill="white"/>
</clipPath>
</defs>
</svg>
