<svg width="20" height="20" viewBox="0 0 20 20" fill="none" xmlns="http://www.w3.org/2000/svg">
<g clip-path="url(#clip0_22916_291417)">
<rect x="2" y="1.84644" width="16" height="16" fill="url(#paint0_linear_22916_291417)"/>
<g opacity="0.4">
<path d="M15.7161 9.84471C15.7161 10.0297 15.6976 10.2148 15.6606 10.3998C15.6421 10.4923 15.6236 10.5848 15.5866 10.6588C15.5496 10.7698 15.5126 10.8808 15.4571 10.9919C15.235 11.4729 14.865 11.917 14.3284 12.213L11.9601 13.5822L9.59183 14.9698C8.64821 15.5249 7.55658 15.4324 6.74248 14.9143C6.00239 14.4333 5.46582 13.6007 5.46582 12.5831V7.10637C5.46582 6.05174 6.02089 5.20064 6.81649 4.73808C7.63059 4.25702 8.66672 4.18301 9.59183 4.71958L11.9601 6.08875L14.3284 7.45792C15.2535 7.97598 15.7161 8.9196 15.7161 9.84471Z" fill="white"/>
</g>
<g opacity="0.5">
<path d="M15.5126 9.90014C15.6421 10.2147 15.6236 10.5662 15.5126 10.8808C15.4941 10.9178 15.4756 10.9548 15.4756 10.9918C15.2535 11.4728 14.8835 11.9169 14.3469 12.2129L11.9786 13.5821L9.59183 14.9698C8.64821 15.5248 7.55658 15.4323 6.74248 14.9143C6.00239 14.4332 5.46582 13.6006 5.46582 12.583V8.19793C5.46582 7.1433 6.02089 6.29219 6.81649 5.82963C7.63059 5.34858 8.66672 5.27457 9.59183 5.81113L11.9601 7.1803L14.3284 8.54947C14.902 8.88251 15.2905 9.36357 15.5126 9.90014Z" fill="white"/>
</g>
<path d="M5.46582 12.5648V9.41936C5.46582 8.36473 6.02089 7.51363 6.81649 7.05107C7.63059 6.57001 8.66672 6.496 9.59183 7.03257L11.9601 8.40174L14.3284 9.77091C15.272 10.3075 15.272 11.6766 14.3284 12.2317L11.9601 13.6009L9.59183 14.97C8.64821 15.5251 7.55658 15.4326 6.74248 14.9145C5.98388 14.4335 5.46582 13.5824 5.46582 12.5648Z" fill="white"/>
</g>
<rect x="1.25" y="1.09644" width="17.5" height="17.5" rx="8.75" stroke="white" stroke-width="1.5"/>
<defs>
<linearGradient id="paint0_linear_22916_291417" x1="3.35833" y1="3.0381" x2="16.7852" y2="17.4726" gradientUnits="userSpaceOnUse">
<stop stop-color="#EF592E"/>
<stop offset="0.166378" stop-color="#EF592E"/>
<stop offset="0.755856" stop-color="#F1672B"/>
<stop offset="1" stop-color="#F99F1D"/>
</linearGradient>
<clipPath id="clip0_22916_291417">
<rect x="2" y="1.84644" width="16" height="16" rx="8" fill="white"/>
</clipPath>
</defs>
</svg>
