<svg width="24" height="24" viewBox="0 0 24 24" fill="none" xmlns="http://www.w3.org/2000/svg">
<rect width="24" height="24" fill="url(#paint0_linear_22829_276151)"/>
<g opacity="0.4">
<path d="M20.5741 11.9974C20.5741 12.2749 20.5464 12.5525 20.4909 12.83C20.4631 12.9688 20.4354 13.1076 20.3799 13.2186C20.3243 13.3851 20.2688 13.5516 20.1856 13.7181C19.8525 14.4397 19.2975 15.1058 18.4926 15.5499L14.9402 17.6036L11.3877 19.6851C9.97232 20.5177 8.33487 20.379 7.11372 19.6019C6.00358 18.8803 5.19873 17.6314 5.19873 16.1049V7.88991C5.19873 6.30796 6.03133 5.03131 7.22473 4.33747C8.44588 3.61588 10.0001 3.50487 11.3877 4.30972L14.9402 6.36347L18.4926 8.41722C19.8803 9.19432 20.5741 10.6097 20.5741 11.9974Z" fill="white"/>
</g>
<g opacity="0.5">
<path d="M20.2688 12.0807C20.4631 12.5525 20.4354 13.0798 20.2688 13.5516C20.2411 13.6071 20.2133 13.6626 20.2133 13.7181C19.8803 14.4397 19.3252 15.1058 18.5204 15.5499L14.9679 17.6036L11.3877 19.6851C9.97232 20.5177 8.33487 20.3789 7.11372 19.6019C6.00358 18.8803 5.19873 17.6314 5.19873 16.1049V9.52736C5.19873 7.94542 6.03133 6.66876 7.22473 5.97492C8.44588 5.25333 10.0001 5.14232 11.3877 5.94717L14.9402 8.00092L18.4926 10.0547C19.353 10.5542 19.9358 11.2758 20.2688 12.0807Z" fill="white"/>
</g>
<path d="M5.19873 16.0772V11.3591C5.19873 9.7772 6.03133 8.50054 7.22473 7.80671C8.44588 7.08512 10.0001 6.97411 11.3877 7.77896L14.9402 9.83271L18.4926 11.8865C19.908 12.6913 19.908 14.7451 18.4926 15.5777L14.9402 17.6314L11.3877 19.6852C9.97232 20.5178 8.33487 20.379 7.11372 19.6019C5.97583 18.8803 5.19873 17.6037 5.19873 16.0772Z" fill="white"/>
<defs>
<linearGradient id="paint0_linear_22829_276151" x1="2.0375" y1="1.7875" x2="22.1778" y2="23.4392" gradientUnits="userSpaceOnUse">
<stop stop-color="#EF592E"/>
<stop offset="0.166378" stop-color="#EF592E"/>
<stop offset="0.755856" stop-color="#F1672B"/>
<stop offset="1" stop-color="#F99F1D"/>
</linearGradient>
</defs>
</svg>
