<svg width="45" height="45" viewBox="0 0 45 45" fill="none" xmlns="http://www.w3.org/2000/svg">
<path d="M14.1331 34.0309C14.1331 33.0348 14.1331 32.0387 14.1331 31.0426C14.5667 30.8785 15.012 30.7379 15.4339 30.5621C17.6605 29.5895 19.1956 27.9254 20.1566 25.7106C20.3206 25.7106 20.473 25.7223 20.637 25.7223C25.7933 25.7223 30.9496 25.7223 36.1058 25.7223C36.8675 25.7223 37.1956 25.5113 37.1839 25.0192C37.1722 24.5387 36.8558 24.3512 36.1175 24.3512C30.9496 24.3512 25.7816 24.3512 20.6019 24.3512C20.6253 24.1402 20.6839 23.9176 20.6722 23.7067C20.6722 23.2613 20.848 22.8277 20.7074 22.3707C20.7191 21.984 20.7074 21.5856 20.6488 21.1988C20.5316 20.2965 20.2152 19.4645 19.8988 18.6207C25.2894 18.6207 30.68 18.6207 36.0706 18.609C36.2347 18.609 36.3871 18.609 36.5511 18.5973C36.8441 18.5738 37.0316 18.4098 37.1253 18.1285C37.3011 17.5895 36.9378 17.2027 36.2113 17.2027C30.5042 17.2027 24.7855 17.2027 19.0785 17.2027C18.598 16.6871 18.1527 16.1246 17.6019 15.6676C16.5706 14.8004 15.3988 14.2262 14.1214 13.8395C14.1214 10.9215 14.1097 8.00353 14.1214 5.08556C14.1214 3.49181 14.8245 2.33165 16.3011 1.66368C16.6761 1.49962 17.0745 1.40587 17.4847 1.40587C21.762 1.40587 26.0394 1.40587 30.305 1.40587C30.4339 1.40587 30.5745 1.37072 30.68 1.46447C30.68 4.38243 30.7035 7.31212 30.6566 10.2301C30.6331 12.0817 32.2738 13.7692 34.137 13.6871C34.4769 13.6754 34.805 13.6988 35.1449 13.7106C35.1331 13.7809 35.1449 13.8629 35.1097 13.9215C34.6527 14.941 35.2972 15.9957 36.4808 15.9606C38.262 15.9254 40.0316 15.9488 41.8128 15.9488C41.8128 24.0348 41.8128 32.1207 41.8128 40.2067C41.8128 41.6246 40.641 43.0074 39.141 43.3824C38.8714 43.4528 38.6019 43.4879 38.3206 43.4762C37.3128 43.4645 36.305 43.4645 35.2972 43.4645C34.7347 43.2418 34.1253 43.1246 33.5746 42.8551C32.098 42.1403 30.8792 41.1676 30.2581 39.5738C29.9066 38.6598 29.6605 37.734 29.7191 36.7496C29.7425 36.3512 29.6019 36.2457 29.2269 36.2692C28.805 36.3043 28.3831 36.2692 27.9613 36.2692C27.973 36.2223 27.973 36.1754 27.9847 36.1403C28.6058 34.9918 27.7386 33.9723 26.5433 33.984C22.4183 34.0543 18.2816 34.0309 14.1331 34.0309ZM34.5706 30.7262C34.7699 31.4762 34.9456 32.1324 35.1214 32.7887C35.2269 33.1754 35.4613 33.3981 35.8831 33.3512C36.3753 33.3043 36.6097 32.9176 36.4574 32.3434C36.1644 31.2184 35.848 30.0934 35.555 28.9684C35.4613 28.5934 35.3441 28.2535 34.8988 28.2067C34.4535 28.1481 34.2542 28.4645 34.0667 28.7926C33.6917 29.4488 33.3167 30.0934 32.9417 30.7379C32.7777 30.6676 32.7542 30.5387 32.6956 30.4449C32.3324 29.8707 31.8988 29.8121 31.4066 30.2809C31.1605 30.5152 30.9144 30.7496 30.7035 30.9957C30.516 31.2067 30.305 31.2887 30.012 31.2887C29.0628 31.277 28.1136 31.277 27.1644 31.2887C26.7074 31.2887 26.4378 31.5699 26.4495 31.9918C26.4613 32.4137 26.7425 32.6715 27.2464 32.6715C28.3128 32.6832 29.3792 32.6598 30.4456 32.6832C30.8206 32.6832 31.1136 32.566 31.3714 32.2965C31.8402 31.8043 31.8519 31.816 32.18 32.3902C32.6136 33.1168 33.1761 33.1168 33.6097 32.3785C33.9144 31.8512 34.2191 31.3356 34.5706 30.7262ZM23.0042 12.1988C24.1292 12.1988 25.2542 12.1988 26.3675 12.1988C26.93 12.1988 27.2347 11.9527 27.2464 11.5074C27.2581 11.0621 26.9535 10.7926 26.391 10.7926C24.1292 10.7926 21.8675 10.7926 19.6175 10.7926C19.0433 10.7926 18.762 11.0387 18.7738 11.5074C18.7855 11.9645 19.0667 12.1988 19.641 12.1988C20.7542 12.1988 21.8792 12.1988 23.0042 12.1988Z" fill="url(#paint0_linear_11478_46821)"/>
<path d="M19.9097 18.6209C20.2262 19.4647 20.5426 20.2967 20.6597 21.199C20.7066 21.5858 20.7183 21.9842 20.7183 22.3709C19.4996 22.0428 18.7965 22.4061 18.4683 23.6365C18.0113 25.324 17.1441 26.7069 15.7613 27.8084C13.5113 29.6131 10.6637 29.6834 8.28475 27.9725C7.9449 27.7264 7.55819 27.6326 7.12459 27.7733C6.5035 27.9725 6.22225 28.4529 6.04647 29.0272C4.30037 27.5154 3.30428 25.5819 3.09334 23.2967C2.73006 19.3709 4.76912 15.9256 8.34334 14.3201C10.2066 13.4881 12.1402 13.3826 14.1207 13.8397C15.398 14.2264 16.5699 14.8006 17.6012 15.6678C18.1519 16.1248 18.5855 16.6873 19.0777 17.2029C19.359 17.6834 19.6285 18.1522 19.9097 18.6209ZM12.9371 24.3162C12.9254 25.0662 12.4097 25.5467 11.6949 25.4295C11.2144 25.3475 10.9449 25.0428 10.7926 24.5858C10.6402 24.1522 10.3004 23.9998 9.89022 24.1287C9.51522 24.2459 9.33944 24.6092 9.48006 25.0545C9.70272 25.7928 10.1949 26.3201 10.898 26.6248C11.0972 26.7069 11.2027 26.8123 11.2262 27.0233C11.273 27.41 11.5426 27.5623 11.9058 27.5623C12.2574 27.5623 12.5152 27.3983 12.5621 27.0467C12.5972 26.7772 12.7379 26.66 12.9605 26.5428C13.898 26.0389 14.3785 25.0545 14.2613 24.0701C14.0855 22.6873 12.9957 21.8084 11.8707 21.8319C11.2379 21.8436 10.8746 21.4217 10.8394 20.8123C10.8043 20.1912 11.1441 19.7108 11.6949 19.6053C12.2691 19.4998 12.7379 19.7928 12.9957 20.449C13.1715 20.9061 13.5113 21.0819 13.9215 20.9412C14.3199 20.8006 14.4722 20.4373 14.3199 19.9803C14.109 19.324 13.6988 18.8201 13.066 18.5272C12.7613 18.3865 12.5738 18.2342 12.5621 17.8709C12.5504 17.5194 12.2808 17.3201 11.941 17.3084C11.5894 17.2967 11.273 17.4842 11.2496 17.8475C11.2144 18.2459 11.0269 18.3983 10.6988 18.5623C9.72615 19.0428 9.26912 20.1678 9.51522 21.2811C9.77303 22.4178 10.6519 23.1678 11.8004 23.2381C12.5621 23.2733 12.9371 23.6483 12.9371 24.3162Z" fill="url(#paint1_linear_11478_46821)"/>
<path d="M27.9844 36.3051C28.4063 36.3051 28.8282 36.3403 29.25 36.3051C29.625 36.2817 29.7657 36.3754 29.7422 36.7856C29.6836 37.7699 29.9297 38.7074 30.2813 39.6098C30.9024 41.2035 32.1211 42.1645 33.5977 42.891C34.1485 43.1606 34.7461 43.2778 35.3204 43.5004C34.9805 43.5004 34.6524 43.5121 34.3125 43.5121C27.1172 43.5121 19.9102 43.5004 12.7149 43.5356C9.96098 43.5356 7.26567 41.6137 6.56254 38.8246C6.38676 38.1098 6.32817 37.3949 6.3516 36.6684C6.36332 36.3403 6.48051 36.2934 6.77348 36.3051C7.48832 36.3285 8.20317 36.3168 8.91801 36.3168C10.6524 36.3168 12.3985 36.3051 14.1329 36.3051C18.7383 36.3051 23.3672 36.3051 27.9844 36.3051Z" fill="#3A55F8"/>
<path d="M35.1682 13.7227C34.8284 13.7109 34.5002 13.6875 34.1604 13.6992C32.2971 13.7812 30.6565 12.082 30.6799 10.2422C30.7268 7.32422 30.6917 4.39453 30.7034 1.47656C31.6643 2.49609 32.637 3.50391 33.5862 4.53516C35.262 6.36328 36.926 8.20312 38.5901 10.043C39.6096 11.168 40.6174 12.3047 41.6252 13.4414C41.6956 13.5117 41.7307 13.6055 41.7893 13.6992C40.4182 13.6992 39.0471 13.6875 37.676 13.6992C36.8206 13.6992 36.0002 13.7109 35.1682 13.7227Z" fill="#3A55F8"/>
<path d="M6.04688 29.0393C6.21094 28.4651 6.50391 27.9846 7.125 27.7854C7.55859 27.6447 7.94531 27.7385 8.28516 27.9846C10.6523 29.6955 13.5117 29.6135 15.7617 27.8205C17.1328 26.719 18.0117 25.3361 18.4688 23.6486C18.8086 22.4182 19.5 22.0432 20.7188 22.383C20.8594 22.8283 20.6719 23.2736 20.6836 23.719C20.6836 23.9299 20.6367 24.1526 20.6133 24.3635C20.4609 24.8205 20.3203 25.2658 20.168 25.7229C19.207 27.9377 17.6719 29.5901 15.4453 30.5744C15.0234 30.7619 14.5781 30.9026 14.1445 31.0549C13.3242 31.1838 12.5156 31.3596 11.6836 31.3127C9.65625 31.219 7.85156 30.5627 6.28125 29.2736C6.17578 29.2033 6.11719 29.1213 6.04688 29.0393Z" fill="#FB8E1B"/>
<path d="M27.9844 36.3048C23.3672 36.3048 18.7383 36.3048 14.1211 36.3048C14.1211 35.5548 14.1328 34.7931 14.1328 34.0431C18.2812 34.0431 22.418 34.0665 26.5664 34.0314C27.7617 34.0196 28.6289 35.0392 28.0078 36.1876C27.9844 36.211 27.9961 36.2579 27.9844 36.3048Z" fill="#60A0FB"/>
<path d="M35.1682 13.7227C36.0002 13.7109 36.8323 13.6992 37.6643 13.6875C39.0354 13.6875 40.4065 13.6875 41.7776 13.6875C41.9182 14.4375 41.8127 15.1992 41.8362 15.9609C40.0549 15.9609 38.2854 15.9375 36.5041 15.9727C35.3205 15.9961 34.676 14.9531 35.133 13.9336C35.1565 13.875 35.1565 13.793 35.1682 13.7227Z" fill="#60A0FB"/>
<g filter="url(#filter0_bi_11478_46821)">
<path d="M19.9102 18.6211C19.6406 18.1523 19.3594 17.6836 19.0898 17.2148C24.7969 17.2148 30.5156 17.2148 36.2227 17.2148C36.9492 17.2148 37.3125 17.5898 37.1367 18.1406C37.043 18.4219 36.8672 18.5859 36.5625 18.6094C36.3984 18.6211 36.2461 18.6211 36.082 18.6211C30.6914 18.6211 25.3008 18.6211 19.9102 18.6211Z" fill="url(#paint2_linear_11478_46821)"/>
</g>
<g filter="url(#filter1_bi_11478_46821)">
<path d="M20.1445 25.7109C20.2969 25.2539 20.4375 24.8086 20.5898 24.3516C25.7578 24.3516 30.9258 24.3516 36.1055 24.3516C36.8437 24.3516 37.1602 24.5508 37.1719 25.0195C37.1836 25.5117 36.8555 25.7227 36.0937 25.7227C30.9375 25.7227 25.7812 25.7227 20.625 25.7227C20.4727 25.7227 20.3086 25.7227 20.1445 25.7109Z" fill="url(#paint3_linear_11478_46821)"/>
</g>
<g filter="url(#filter2_bi_11478_46821)">
<path d="M34.5707 30.7268C34.2191 31.3362 33.9144 31.8635 33.6097 32.3791C33.1761 33.1174 32.6136 33.1174 32.1801 32.3908C31.8402 31.8166 31.8285 31.8166 31.3715 32.2971C31.1136 32.5783 30.8207 32.6955 30.4457 32.6838C29.3793 32.6721 28.3129 32.6838 27.2465 32.6721C26.7426 32.6721 26.4613 32.4143 26.4496 31.9924C26.4379 31.5822 26.7074 31.301 27.1644 31.2893C28.1136 31.2776 29.0629 31.2776 30.0121 31.2893C30.3051 31.2893 30.5043 31.2072 30.7035 30.9963C30.9261 30.7385 31.1722 30.5158 31.4066 30.2815C31.8871 29.8127 32.3324 29.8713 32.6957 30.4455C32.7543 30.5393 32.7777 30.6682 32.9418 30.7385C33.3168 30.094 33.6918 29.4377 34.0668 28.7932C34.2543 28.4651 34.4418 28.1487 34.8988 28.2072C35.3441 28.2658 35.4613 28.594 35.5551 28.969C35.848 30.094 36.1644 31.219 36.4574 32.344C36.6097 32.9182 36.3871 33.3049 35.8832 33.3518C35.4613 33.3987 35.2269 33.176 35.1215 32.7893C34.9457 32.133 34.7699 31.4768 34.5707 30.7268Z" fill="url(#paint4_linear_11478_46821)"/>
</g>
<g filter="url(#filter3_bi_11478_46821)">
<path d="M23.0042 12.1992C21.8792 12.1992 20.7542 12.1992 19.641 12.1992C19.0667 12.1992 18.7855 11.9648 18.7738 11.5078C18.7621 11.0391 19.055 10.8047 19.6175 10.793C21.8792 10.793 24.141 10.793 26.391 10.793C26.9417 10.793 27.2464 11.0508 27.2464 11.5078C27.2347 11.9531 26.93 12.1992 26.3675 12.1992C25.2425 12.1992 24.1292 12.1992 23.0042 12.1992Z" fill="url(#paint5_linear_11478_46821)"/>
</g>
<path d="M12.938 24.3164C12.938 23.6367 12.563 23.2734 11.8013 23.2266C10.6528 23.1562 9.77392 22.4062 9.51611 21.2695C9.2583 20.1445 9.72705 19.0312 10.6997 18.5508C11.0278 18.3867 11.227 18.2344 11.2505 17.8359C11.2739 17.4727 11.5903 17.2969 11.9419 17.2969C12.2817 17.3086 12.5513 17.4961 12.563 17.8594C12.5747 18.2227 12.7622 18.375 13.0669 18.5156C13.688 18.8086 14.0981 19.3125 14.3208 19.9687C14.4731 20.4375 14.3208 20.7891 13.9224 20.9297C13.5122 21.0703 13.1724 20.8945 12.9966 20.4375C12.7388 19.7812 12.2817 19.4766 11.6958 19.5937C11.1567 19.6992 10.8052 20.1797 10.8403 20.8008C10.8755 21.4102 11.2388 21.832 11.8716 21.8203C12.9966 21.7969 14.0747 22.6758 14.2622 24.0586C14.3911 25.043 13.8989 26.0273 12.9614 26.5312C12.7388 26.6484 12.5981 26.7656 12.563 27.0352C12.5161 27.3867 12.2583 27.5508 11.9067 27.5508C11.5435 27.5508 11.2739 27.3984 11.227 27.0117C11.1919 26.7891 11.0864 26.6953 10.8989 26.6133C10.1841 26.3086 9.70361 25.793 9.48096 25.043C9.35205 24.6094 9.51611 24.2461 9.89111 24.1172C10.3013 23.9883 10.6411 24.1406 10.7935 24.5742C10.9458 25.0312 11.2153 25.3359 11.6958 25.418C12.4106 25.5469 12.9263 25.0781 12.938 24.3164Z" fill="white"/>
<defs>
<filter id="filter0_bi_11478_46821" x="-20.9102" y="-22.7852" width="98.0908" height="81.4062" filterUnits="userSpaceOnUse" color-interpolation-filters="sRGB">
<feFlood flood-opacity="0" result="BackgroundImageFix"/>
<feGaussianBlur in="BackgroundImage" stdDeviation="20"/>
<feComposite in2="SourceAlpha" operator="in" result="effect1_backgroundBlur_11478_46821"/>
<feBlend mode="normal" in="SourceGraphic" in2="effect1_backgroundBlur_11478_46821" result="shape"/>
<feColorMatrix in="SourceAlpha" type="matrix" values="0 0 0 0 0 0 0 0 0 0 0 0 0 0 0 0 0 0 127 0" result="hardAlpha"/>
<feOffset dx="1" dy="1"/>
<feGaussianBlur stdDeviation="1"/>
<feComposite in2="hardAlpha" operator="arithmetic" k2="-1" k3="1"/>
<feColorMatrix type="matrix" values="0 0 0 0 1 0 0 0 0 1 0 0 0 0 1 0 0 0 0.3 0"/>
<feBlend mode="normal" in2="shape" result="effect2_innerShadow_11478_46821"/>
</filter>
<filter id="filter1_bi_11478_46821" x="-19.8555" y="-15.6484" width="97.0273" height="81.3711" filterUnits="userSpaceOnUse" color-interpolation-filters="sRGB">
<feFlood flood-opacity="0" result="BackgroundImageFix"/>
<feGaussianBlur in="BackgroundImage" stdDeviation="20"/>
<feComposite in2="SourceAlpha" operator="in" result="effect1_backgroundBlur_11478_46821"/>
<feBlend mode="normal" in="SourceGraphic" in2="effect1_backgroundBlur_11478_46821" result="shape"/>
<feColorMatrix in="SourceAlpha" type="matrix" values="0 0 0 0 0 0 0 0 0 0 0 0 0 0 0 0 0 0 127 0" result="hardAlpha"/>
<feOffset dx="1" dy="1"/>
<feGaussianBlur stdDeviation="1"/>
<feComposite in2="hardAlpha" operator="arithmetic" k2="-1" k3="1"/>
<feColorMatrix type="matrix" values="0 0 0 0 1 0 0 0 0 1 0 0 0 0 1 0 0 0 0.3 0"/>
<feBlend mode="normal" in2="shape" result="effect2_innerShadow_11478_46821"/>
</filter>
<filter id="filter2_bi_11478_46821" x="-13.5508" y="-11.7998" width="90.0557" height="85.1582" filterUnits="userSpaceOnUse" color-interpolation-filters="sRGB">
<feFlood flood-opacity="0" result="BackgroundImageFix"/>
<feGaussianBlur in="BackgroundImage" stdDeviation="20"/>
<feComposite in2="SourceAlpha" operator="in" result="effect1_backgroundBlur_11478_46821"/>
<feBlend mode="normal" in="SourceGraphic" in2="effect1_backgroundBlur_11478_46821" result="shape"/>
<feColorMatrix in="SourceAlpha" type="matrix" values="0 0 0 0 0 0 0 0 0 0 0 0 0 0 0 0 0 0 127 0" result="hardAlpha"/>
<feOffset dx="1" dy="1"/>
<feGaussianBlur stdDeviation="1"/>
<feComposite in2="hardAlpha" operator="arithmetic" k2="-1" k3="1"/>
<feColorMatrix type="matrix" values="0 0 0 0 1 0 0 0 0 1 0 0 0 0 1 0 0 0 0.3 0"/>
<feBlend mode="normal" in2="shape" result="effect2_innerShadow_11478_46821"/>
</filter>
<filter id="filter3_bi_11478_46821" x="-21.2266" y="-29.207" width="88.4727" height="81.4062" filterUnits="userSpaceOnUse" color-interpolation-filters="sRGB">
<feFlood flood-opacity="0" result="BackgroundImageFix"/>
<feGaussianBlur in="BackgroundImage" stdDeviation="20"/>
<feComposite in2="SourceAlpha" operator="in" result="effect1_backgroundBlur_11478_46821"/>
<feBlend mode="normal" in="SourceGraphic" in2="effect1_backgroundBlur_11478_46821" result="shape"/>
<feColorMatrix in="SourceAlpha" type="matrix" values="0 0 0 0 0 0 0 0 0 0 0 0 0 0 0 0 0 0 127 0" result="hardAlpha"/>
<feOffset dx="1" dy="1"/>
<feGaussianBlur stdDeviation="1"/>
<feComposite in2="hardAlpha" operator="arithmetic" k2="-1" k3="1"/>
<feColorMatrix type="matrix" values="0 0 0 0 1 0 0 0 0 1 0 0 0 0 1 0 0 0 0.3 0"/>
<feBlend mode="normal" in2="shape" result="effect2_innerShadow_11478_46821"/>
</filter>
<linearGradient id="paint0_linear_11478_46821" x1="27.9645" y1="1.39941" x2="27.9645" y2="43.4784" gradientUnits="userSpaceOnUse">
<stop stop-color="#60A0FB"/>
<stop offset="0.0001" stop-color="#74ADFF"/>
<stop offset="0.843325" stop-color="#3A55F8"/>
</linearGradient>
<linearGradient id="paint1_linear_11478_46821" x1="11.8851" y1="13.5713" x2="11.8851" y2="29.2103" gradientUnits="userSpaceOnUse">
<stop stop-color="#FFBB3E"/>
<stop offset="1" stop-color="#FB8E1B"/>
</linearGradient>
<linearGradient id="paint2_linear_11478_46821" x1="28.1352" y1="17.2148" x2="28.1352" y2="18.6211" gradientUnits="userSpaceOnUse">
<stop stop-color="#D8E8FF"/>
<stop offset="1" stop-color="#D7E6FB"/>
<stop offset="1" stop-color="#304CEF"/>
</linearGradient>
<linearGradient id="paint3_linear_11478_46821" x1="28.6584" y1="24.3516" x2="28.6584" y2="25.7227" gradientUnits="userSpaceOnUse">
<stop stop-color="#D8E8FF"/>
<stop offset="1" stop-color="#D7E6FB"/>
<stop offset="1" stop-color="#304CEF"/>
</linearGradient>
<linearGradient id="paint4_linear_11478_46821" x1="31.4769" y1="28.2002" x2="31.4769" y2="33.358" gradientUnits="userSpaceOnUse">
<stop stop-color="#D8E8FF"/>
<stop offset="1" stop-color="#D7E6FB"/>
<stop offset="1" stop-color="#304CEF"/>
</linearGradient>
<linearGradient id="paint5_linear_11478_46821" x1="23.0099" y1="10.793" x2="23.0099" y2="12.1992" gradientUnits="userSpaceOnUse">
<stop stop-color="#D8E8FF"/>
<stop offset="1" stop-color="#D7E6FB"/>
<stop offset="1" stop-color="#304CEF"/>
</linearGradient>
</defs>
</svg>
