<svg width="36" height="36" viewBox="0 0 36 36" fill="none" xmlns="http://www.w3.org/2000/svg">
<path d="M0 18C0 8.05888 8.05888 0 18 0C27.9411 0 36 8.05888 36 18C36 27.9411 27.9411 36 18 36C8.05888 36 0 27.9411 0 18Z" fill="url(#paint0_linear_11993_136430)"/>
<path d="M18.0116 10.083C13.4116 10.083 9.67823 13.458 9.67823 17.5913C9.68656 19.0413 10.1282 20.433 10.9699 21.6163C10.8032 23.3247 10.3949 24.5997 9.7949 25.1913C9.73656 25.2497 9.68656 25.3413 9.6699 25.4247C9.66156 25.5163 9.6699 25.608 9.71156 25.6913C9.7449 25.758 9.7949 25.8163 9.86156 25.858C9.92823 25.8997 10.0116 25.9163 10.0949 25.9163C11.6949 25.683 13.2199 25.1997 14.6366 24.4747C15.6949 24.883 16.8032 25.0997 17.9282 25.0997H18.0032C22.6032 25.0997 26.3366 21.7247 26.3366 17.5913C26.3366 13.458 22.6032 10.083 18.0116 10.083ZM14.4782 18.8247C13.7699 18.8247 13.1866 18.2413 13.1866 17.533C13.1866 16.8247 13.7699 16.2413 14.4782 16.2413C15.1866 16.2413 15.7699 16.8247 15.7699 17.533C15.7699 18.2497 15.1866 18.8247 14.4782 18.8247ZM18.3616 18.8247C17.6532 18.8247 17.0782 18.2497 17.0699 17.533C17.0699 16.8163 17.6532 16.2413 18.3616 16.2413C19.0699 16.2413 19.6532 16.8247 19.6532 17.533C19.6532 18.2497 19.0782 18.8247 18.3616 18.8247ZM22.2616 18.8247C21.5532 18.8247 20.9699 18.2413 20.9699 17.533C20.9699 16.8247 21.5532 16.2413 22.2616 16.2413C22.9699 16.2413 23.5532 16.8247 23.5532 17.533C23.5532 18.2497 22.9699 18.8247 22.2616 18.8247Z" fill="white"/>
<defs>
<linearGradient id="paint0_linear_11993_136430" x1="30.5" y1="6" x2="9" y2="31.5" gradientUnits="userSpaceOnUse">
<stop stop-color="#2395FF"/>
<stop offset="1" stop-color="#2395FF" stop-opacity="0.5"/>
</linearGradient>
</defs>
</svg>
