<svg width="37" height="36" viewBox="0 0 37 36" fill="none" xmlns="http://www.w3.org/2000/svg">
<path d="M0.799805 18C0.799805 8.05888 8.85868 0 18.7998 0C28.7409 0 36.7998 8.05888 36.7998 18C36.7998 27.9411 28.7409 36 18.7998 36C8.85868 36 0.799805 27.9411 0.799805 18Z" fill="url(#paint0_linear_11993_136414)"/>
<path d="M24.8418 10H12.7588C12.2401 10.0008 11.7429 10.2102 11.3758 10.5825C11.0087 10.9548 10.8016 11.4596 10.7998 11.9867V20.7648C10.8006 21.2925 11.0072 21.7983 11.3744 22.1715C11.7416 22.5446 12.2395 22.7546 12.7588 22.7554H14.518L14.5551 24.551C14.5578 24.6731 14.5936 24.792 14.6586 24.8948C14.7235 24.9975 14.8151 25.0801 14.9232 25.1334C15.0314 25.1867 15.1519 25.2087 15.2715 25.1969C15.3911 25.1852 15.5052 25.1401 15.6013 25.0667L18.6211 22.7534H24.8408C25.3602 22.7526 25.858 22.5427 26.2252 22.1695C26.5924 21.7964 26.799 21.2905 26.7998 20.7628V11.9867C26.798 11.4598 26.591 10.9551 26.2242 10.5829C25.8573 10.2106 25.3603 10.001 24.8418 10ZM21.0427 18.7445H16.5559C16.3827 18.7445 16.2166 18.6745 16.0941 18.5501C15.9716 18.4256 15.9028 18.2568 15.9028 18.0808C15.9028 17.9047 15.9716 17.7359 16.0941 17.6114C16.2166 17.487 16.3827 17.4171 16.5559 17.4171H21.0456C21.2189 17.4171 21.385 17.487 21.5075 17.6114C21.63 17.7359 21.6988 17.9047 21.6988 18.0808C21.6988 18.2568 21.63 18.4256 21.5075 18.5501C21.385 18.6745 21.2189 18.7445 21.0456 18.7445H21.0427ZM22.2292 15.8402H15.3714C15.1981 15.8402 15.032 15.7703 14.9095 15.6458C14.787 15.5213 14.7182 15.3525 14.7182 15.1765C14.7182 15.0005 14.787 14.8317 14.9095 14.7072C15.032 14.5827 15.1981 14.5128 15.3714 14.5128H22.2292C22.4024 14.5128 22.5686 14.5827 22.6911 14.7072C22.8135 14.8317 22.8824 15.0005 22.8824 15.1765C22.8824 15.3525 22.8135 15.5213 22.6911 15.6458C22.5686 15.7703 22.4024 15.8402 22.2292 15.8402Z" fill="white"/>
<defs>
<linearGradient id="paint0_linear_11993_136414" x1="28" y1="5" x2="13.5" y2="36" gradientUnits="userSpaceOnUse">
<stop stop-color="#28A745"/>
<stop offset="1" stop-color="#28A745" stop-opacity="0.5"/>
</linearGradient>
</defs>
</svg>
