<svg width="45" height="45" viewBox="0 0 45 45" fill="none" xmlns="http://www.w3.org/2000/svg">
<path d="M33.234 43.4881C32.4957 43.6053 31.7457 43.5818 31.0074 43.5818C25.1363 43.5818 19.277 43.5818 13.4059 43.5818C12.6793 43.5818 11.9528 43.617 11.2262 43.4881C9.76135 42.8904 9.1051 41.9295 9.12854 40.324C9.15197 38.9061 9.44494 37.5115 9.59729 36.117C9.7965 34.3123 10.066 32.5076 10.2653 30.6912C10.4293 29.1912 10.9449 27.8787 12.0699 26.824C12.8785 26.0623 13.7926 25.4412 14.6949 24.785C16.6051 23.4022 17.9762 21.6561 18.4567 19.3006C18.6442 19.1834 18.7496 19.3475 18.8668 19.4295C20.0387 20.1795 21.3043 20.6483 22.7223 20.6131C23.8824 20.5779 24.9371 20.1912 25.9332 19.617C26.0504 19.5467 26.1442 19.4529 26.2848 19.4764C26.6715 21.1639 27.4801 22.617 28.7457 23.8006C29.6715 24.6678 30.7379 25.3709 31.7106 26.1678C32.8473 27.0936 33.7613 28.1834 34.0074 29.66C34.2653 31.2186 34.4293 32.8006 34.6285 34.3709C34.8512 36.1404 35.0387 37.9217 35.2965 39.6912C35.566 41.449 34.8395 42.8201 33.234 43.4881ZM22.1481 43.5115C23.2145 43.5115 24.2809 43.4881 25.3473 43.5233C25.7809 43.535 25.8395 43.3709 25.8043 43.0194C25.734 42.4686 25.6754 41.9178 25.5934 41.367C25.0778 37.699 24.5621 34.0311 24.0465 30.3631C23.9879 29.9412 23.9996 29.5545 24.1988 29.1444C24.5621 28.3944 24.7731 27.5858 24.984 26.7889C25.0778 26.4373 25.0074 26.1795 24.7145 25.9451C24.0348 25.3943 23.3317 24.8787 22.5817 24.41C22.3238 24.2459 22.0895 24.2342 21.8082 24.41C21.0699 24.8787 20.3668 25.3943 19.6754 25.9451C19.359 26.1912 19.3004 26.4725 19.4059 26.824C19.6637 27.7381 19.9098 28.6522 20.3434 29.4959C20.4254 29.66 20.402 29.7889 20.3785 29.9529C20.0738 32.1561 19.7692 34.3709 19.4645 36.5858C19.1715 38.7186 18.8903 40.8631 18.5621 42.9959C18.5035 43.4178 18.609 43.4998 18.984 43.4998C20.0504 43.4998 21.0934 43.5115 22.1481 43.5115Z" fill="url(#paint0_linear_11478_46791)"/>
<path d="M33.2344 43.4885C34.8516 42.8205 35.5664 41.4612 35.3086 39.7151C35.0508 37.9455 34.8633 36.1643 34.6406 34.3948C34.4414 32.8244 34.2773 31.2424 34.0195 29.6838C33.7734 28.1955 32.8594 27.1174 31.7227 26.1916C30.7383 25.383 29.6836 24.6916 28.7578 23.8244C27.4922 22.6291 26.6719 21.1877 26.2969 19.5002C26.4258 19.2541 26.6836 19.1604 26.8828 18.9963C29.3555 16.8752 30.7031 14.1799 31.1484 10.9924C32.9883 10.6526 34.7227 10.8987 36.3047 11.9534C38.8594 13.6526 39.8906 16.676 38.9883 19.7815C38.5195 21.3752 37.7227 22.7932 36.5273 23.9534C36.3164 24.1526 36.2813 24.3518 36.3398 24.6096C36.7148 26.4729 37.7813 27.8674 39.293 28.9455C39.7969 29.2971 40.2773 29.6721 40.7695 30.0471C41.9414 30.9377 42.5625 32.0979 42.7266 33.5744C42.9727 35.8596 43.2891 38.1448 43.5703 40.4299C43.6406 40.9573 43.6172 41.4729 43.4414 41.9885C43.125 42.8908 42.3984 43.4768 41.4375 43.4885C38.6953 43.5002 35.9648 43.4885 33.2344 43.4885Z" fill="url(#paint1_linear_11478_46791)"/>
<path d="M31.1482 10.9922C30.7029 14.1797 29.3435 16.875 26.8708 18.9727C26.6716 19.1367 26.4138 19.2305 26.2849 19.4766C26.1443 19.4531 26.0388 19.5469 25.9333 19.6172C24.9372 20.1914 23.8825 20.5781 22.7224 20.6133C21.3044 20.6484 20.0388 20.1914 18.8669 19.4297C18.738 19.3477 18.6443 19.1836 18.4568 19.3008C18.4685 19.125 18.3161 19.0547 18.2107 18.9609C15.738 16.875 14.3786 14.1797 13.945 10.9922C13.9216 9.84376 13.9333 8.69532 14.2732 7.57032C15.2458 4.31251 18.1169 1.91017 21.4802 1.47657C25.699 0.937512 29.8005 3.63282 30.9138 7.91017C31.1833 8.9297 31.1599 9.96095 31.1482 10.9922Z" fill="#4FFDD5"/>
<path d="M13.9332 10.992C14.3785 14.1678 15.7261 16.8631 18.1988 18.9608C18.3043 19.0545 18.4566 19.1248 18.4449 19.3006C17.9644 21.6561 16.5933 23.4022 14.6832 24.785C13.7925 25.4295 12.8668 26.0623 12.0582 26.824C10.9332 27.8787 10.4175 29.1912 10.2535 30.6912C10.0543 32.4959 9.79646 34.3006 9.58552 36.117C9.43317 37.5233 9.14021 38.9178 9.11677 40.324C9.08161 41.9295 9.74958 42.9022 11.2144 43.4881C8.68317 43.4881 6.16364 43.5233 3.63239 43.4881C2.39021 43.4764 1.5113 42.4686 1.49958 41.1209C1.48786 40.2772 1.66364 39.4334 1.76911 38.6014C1.98005 36.8201 2.23786 35.0389 2.43708 33.2576C2.58942 31.8983 3.28083 30.8904 4.3238 30.0819C5.05036 29.5194 5.80036 28.9803 6.51521 28.3944C7.72224 27.4217 8.43708 26.1444 8.76521 24.6326C8.8238 24.3514 8.76521 24.1522 8.55427 23.9412C6.70271 22.0311 5.70661 19.7693 5.80036 17.074C5.91755 13.8983 8.75349 11.0506 11.9293 10.8865C12.609 10.8397 13.2769 10.8631 13.9332 10.992Z" fill="url(#paint2_linear_11478_46791)"/>
<path d="M22.1482 43.5113C21.0936 43.5113 20.0506 43.4996 18.9959 43.5113C18.6209 43.5113 18.5037 43.4293 18.574 43.0074C18.9021 40.8746 19.1834 38.73 19.4764 36.5972C19.7811 34.3824 20.0857 32.1792 20.3904 29.9644C20.4139 29.8003 20.4256 29.6597 20.3553 29.5074C19.9334 28.6519 19.6756 27.7378 19.4178 26.8355C19.3123 26.4839 19.3709 26.2027 19.6873 25.9566C20.367 25.4058 21.0701 24.8902 21.8201 24.4214C22.0896 24.2456 22.324 24.2574 22.5936 24.4214C23.3318 24.8902 24.0467 25.4058 24.7264 25.9566C25.0193 26.191 25.0896 26.4488 24.9959 26.8003C24.785 27.5972 24.574 28.4175 24.2107 29.1558C24.0115 29.566 23.9998 29.9527 24.0584 30.3746C24.574 34.0425 25.0896 37.7105 25.6053 41.3785C25.6873 41.9293 25.7459 42.48 25.8162 43.0308C25.8631 43.3707 25.7928 43.5464 25.3592 43.5347C24.2811 43.4878 23.2146 43.5113 22.1482 43.5113Z" fill="#FDFEFF"/>
<defs>
<linearGradient id="paint0_linear_11478_46791" x1="22.2397" y1="22.2614" x2="22.2397" y2="43.5862" gradientUnits="userSpaceOnUse">
<stop stop-color="#41E7BC"/>
<stop offset="1" stop-color="#47D4DB"/>
</linearGradient>
<linearGradient id="paint1_linear_11478_46791" x1="34.952" y1="14.8776" x2="34.952" y2="43.4937" gradientUnits="userSpaceOnUse">
<stop stop-color="#0AC594"/>
<stop offset="1" stop-color="#47D4DB"/>
</linearGradient>
<linearGradient id="paint2_linear_11478_46791" x1="9.97228" y1="14.8917" x2="9.97228" y2="43.5037" gradientUnits="userSpaceOnUse">
<stop stop-color="#0AC594"/>
<stop offset="1" stop-color="#47D4DB"/>
</linearGradient>
</defs>
</svg>
