<svg width="235" height="218" viewBox="0 0 235 218" fill="none" xmlns="http://www.w3.org/2000/svg">
<circle cx="127.5" cy="107" r="107" fill="#FAFBFE"/>
<g filter="url(#filter0_d_11561_70364)">
<path d="M76.1546 41.3027L19.9883 75.6533C18.9947 76.2577 18.1345 77.0593 17.4569 78.0121C16.7792 78.9649 16.2975 80.0503 16.0392 81.2061C15.781 82.3619 15.7512 83.5655 15.9517 84.7479C16.1522 85.9303 16.579 87.0683 17.2077 88.0969L83.0231 195.695C83.651 196.725 84.4688 197.625 85.4298 198.344C86.3907 199.063 87.4758 199.587 88.6228 199.885C89.7699 200.184 90.9565 200.251 92.1144 200.083C93.2724 199.915 94.379 199.515 95.3709 198.906L167.257 154.941C168.249 154.336 169.107 153.535 169.783 152.582C170.459 151.63 170.939 150.545 171.195 149.39C171.452 148.235 171.479 147.032 171.277 145.852C171.075 144.671 170.647 143.534 170.017 142.508L114.192 51.1824L76.1546 41.3027Z" fill="white"/>
<path d="M76.165 41.2998L86.1325 57.593C86.7603 58.6206 87.5773 59.5189 88.5369 60.2365C89.4964 60.954 90.5796 61.4769 91.7246 61.7752C92.8697 62.0735 94.0541 62.1413 95.2103 61.9748C96.3666 61.8083 97.4719 61.4108 98.4632 60.8049L114.203 51.1795L76.165 41.2998Z" fill="#B8C0CF"/>
<path opacity="0.7" d="M76.165 41.2998L86.1325 57.593C86.7603 58.6206 87.5773 59.5189 88.5369 60.2365C89.4964 60.954 90.5796 61.4769 91.7246 61.7752C92.8697 62.0735 94.0541 62.1413 95.2103 61.9748C96.3666 61.8083 97.4719 61.4108 98.4632 60.8049L114.203 51.1795L76.165 41.2998Z" fill="url(#paint0_linear_11561_70364)" fill-opacity="0.9"/>
<rect width="56.4244" height="2.52469" rx="1.26235" transform="matrix(0.852751 -0.522318 0.522618 0.852567 26.1046 87.7324)" fill="#E8EDF8"/>
<rect width="84.716" height="2.52469" rx="1.26235" transform="matrix(0.852751 -0.522318 0.522618 0.852567 45.4871 118.861)" fill="#E8EDF8"/>
<rect width="57.1724" height="2.52469" rx="1.26235" transform="matrix(0.852751 -0.522318 0.522618 0.852567 32.1884 98.3018)" fill="#E8EDF8"/>
<rect width="84.716" height="2.52469" rx="1.26235" transform="matrix(0.852751 -0.522318 0.522618 0.852567 51.9541 129.23)" fill="#E8EDF8"/>
<rect width="84.716" height="2.5247" rx="1.26235" transform="matrix(0.85272 -0.522367 0.522573 0.852594 38.7059 108.657)" fill="#E8EDF8"/>
<rect width="84.716" height="2.52469" rx="1.26235" transform="matrix(0.85272 -0.522367 0.522573 0.852594 58.3991 139.616)" fill="#E8EDF8"/>
<rect width="55.2036" height="2.5247" rx="1.26235" transform="matrix(0.852751 -0.522318 0.522618 0.852567 70.5001 158.835)" fill="#E8EDF8"/>
<rect width="54.6294" height="2.5247" rx="1.26235" transform="matrix(0.852751 -0.522318 0.522618 0.852567 77.4575 168.909)" fill="#E8EDF8"/>
<rect width="84.716" height="2.52469" rx="1.26235" transform="matrix(0.852721 -0.522367 0.522574 0.852594 63.4192 148.374)" fill="#E8EDF8"/>
<rect width="53.4526" height="2.5247" rx="1.26235" transform="matrix(0.85272 -0.522367 0.522573 0.852594 84.3147 178.965)" fill="#E8EDF8"/>
</g>
<g filter="url(#filter1_d_11561_70364)">
<path d="M188.731 31.335L113.144 31.2468C111.809 31.2422 110.486 31.5009 109.251 32.0082C108.016 32.5155 106.893 33.2613 105.946 34.2031C105 35.1449 104.248 36.2641 103.735 37.4966C103.221 38.7291 102.956 40.0508 102.954 41.386L102.789 181.088C102.785 182.424 103.045 183.748 103.554 184.983C104.063 186.219 104.811 187.342 105.754 188.288C106.698 189.233 107.819 189.984 109.053 190.496C110.287 191.008 111.61 191.271 112.946 191.271L209.689 191.383C211.023 191.386 212.344 191.126 213.577 190.618C214.81 190.11 215.931 189.364 216.875 188.422C217.819 187.48 218.568 186.361 219.079 185.128C219.59 183.896 219.853 182.576 219.853 181.242L220.03 62.6883L188.731 31.335Z" fill="white"/>
</g>
<rect width="58.5502" height="2.79636" rx="1.39818" transform="matrix(0.999999 0.00163513 -0.00053753 1 146.086 95.627)" fill="#E8EDF8"/>
<rect width="58.5502" height="2.79635" rx="1.39818" transform="matrix(0.999999 0.00163512 -0.000537532 1 146.086 126.772)" fill="#E8EDF8"/>
<rect width="88.7587" height="2.79637" rx="1.39818" transform="matrix(0.999999 0.00107863 -0.000814863 1 115.831 152.577)" fill="#E8EDF8"/>
<rect width="58.5502" height="2.79637" rx="1.39818" transform="matrix(0.999999 0.00163513 -0.000537529 1 146.175 101.855)" fill="#E8EDF8"/>
<rect width="58.5502" height="2.79635" rx="1.39818" transform="matrix(0.999999 0.00163512 -0.000537532 1 146.175 133)" fill="#E8EDF8"/>
<rect width="88.7587" height="2.79634" rx="1.39817" transform="matrix(0.999999 0.00107861 -0.000814871 1 115.965 158.805)" fill="#E8EDF8"/>
<rect width="58.5502" height="2.79636" rx="1.39818" transform="matrix(0.999999 0.00154169 -0.000570108 1 146.086 108.307)" fill="#E8EDF8"/>
<rect width="58.5502" height="2.79636" rx="1.39818" transform="matrix(0.999999 0.00154169 -0.000570108 1 146.086 139.453)" fill="#E8EDF8"/>
<rect width="88.7587" height="2.79636" rx="1.39818" transform="matrix(0.999999 0.00101699 -0.00086425 1 115.832 165.26)" fill="#E8EDF8"/>
<path d="M117.596 100.298C116.987 102.422 117.048 104.681 117.771 106.768C118.432 108.711 119.638 110.422 121.246 111.698C123.387 113.393 126.092 114.212 128.814 113.989C131.536 113.766 134.072 112.517 135.908 110.495C137.745 108.474 138.745 105.83 138.706 103.099C138.668 100.368 137.594 97.7537 135.701 95.7847C134.401 94.4308 132.766 93.4446 130.962 92.926C129.294 92.4435 127.534 92.3696 125.831 92.7108C124.128 93.0519 122.533 93.7979 121.179 94.8858C120.932 95.0845 120.697 95.2966 120.474 95.521C119.111 96.8322 118.118 98.4802 117.596 100.298Z" fill="#E8EDF8"/>
<path opacity="0.2" d="M117.596 100.298C116.987 102.422 117.048 104.681 117.771 106.768C118.432 108.711 119.638 110.422 121.246 111.698C123.387 113.393 126.092 114.212 128.814 113.989C131.536 113.766 134.072 112.517 135.908 110.495C137.745 108.474 138.745 105.83 138.706 103.099C138.668 100.368 137.594 97.7537 135.701 95.7847C134.401 94.4308 132.766 93.4446 130.962 92.926C129.294 92.4435 127.534 92.3696 125.831 92.7108C124.128 93.0519 122.533 93.7979 121.179 94.8858C120.932 95.0845 120.697 95.2966 120.474 95.521C119.111 96.8322 118.118 98.4802 117.596 100.298Z" fill="black"/>
<path d="M134.347 95.3604L126.597 102.841L123.627 113.195C125.906 113.85 128.338 113.734 130.544 112.865C132.751 111.997 134.609 110.424 135.831 108.392C137.053 106.359 137.569 103.98 137.301 101.624C137.033 99.2679 135.994 97.0661 134.347 95.3604Z" fill="#E8EDF8"/>
<path opacity="0.9" d="M134.347 95.3604L126.597 102.841L123.627 113.195C125.906 113.85 128.338 113.734 130.544 112.865C132.751 111.997 134.609 110.424 135.831 108.392C137.053 106.359 137.569 103.98 137.301 101.624C137.033 99.2679 135.994 97.0661 134.347 95.3604Z" fill="white"/>
<g opacity="0.7">
<path opacity="0.7" d="M126.596 102.843L134.347 95.3591C133.033 93.9982 131.384 93.0072 129.566 92.4858C127.748 91.9643 125.825 91.9308 123.99 92.3887C122.154 92.8465 120.472 93.7795 119.112 95.0938C117.752 96.4081 116.762 98.0574 116.242 99.8758L126.596 102.843Z" fill="#E8EDF8"/>
<path opacity="0.44" d="M126.596 102.843L134.347 95.3591C133.033 93.9982 131.384 93.0072 129.566 92.4858C127.748 91.9643 125.825 91.9308 123.99 92.3887C122.154 92.8465 120.472 93.7795 119.112 95.0938C117.752 96.4081 116.762 98.0574 116.242 99.8758L126.596 102.843Z" fill="white"/>
</g>
<path d="M126.598 102.843L116.246 99.876C115.46 102.622 115.796 105.567 117.181 108.065C118.566 110.563 120.886 112.409 123.631 113.197L126.598 102.843Z" fill="#E8EDF8"/>
<path opacity="0.2" d="M126.598 102.843L116.246 99.876C115.46 102.622 115.796 105.567 117.181 108.065C118.566 110.563 120.886 112.409 123.631 113.197L126.598 102.843Z" fill="black"/>
<path d="M117.596 131.445C116.987 133.568 117.048 135.828 117.771 137.915C118.432 139.858 119.638 141.569 121.246 142.844C123.387 144.54 126.092 145.359 128.814 145.135C131.536 144.912 134.072 143.663 135.908 141.642C137.745 139.62 138.745 136.976 138.706 134.246C138.668 131.515 137.594 128.9 135.701 126.931C134.401 125.577 132.766 124.591 130.962 124.072C129.294 123.59 127.534 123.516 125.831 123.857C124.128 124.198 122.533 124.944 121.179 126.032C120.932 126.231 120.697 126.443 120.474 126.668C119.111 127.979 118.118 129.627 117.596 131.445Z" fill="#E8EDF8"/>
<path opacity="0.2" d="M117.596 131.445C116.987 133.568 117.048 135.828 117.771 137.915C118.432 139.858 119.638 141.569 121.246 142.844C123.387 144.54 126.092 145.359 128.814 145.135C131.536 144.912 134.072 143.663 135.908 141.642C137.745 139.62 138.745 136.976 138.706 134.246C138.668 131.515 137.594 128.9 135.701 126.931C134.401 125.577 132.766 124.591 130.962 124.072C129.294 123.59 127.534 123.516 125.831 123.857C124.128 124.198 122.533 124.944 121.179 126.032C120.932 126.231 120.697 126.443 120.474 126.668C119.111 127.979 118.118 129.627 117.596 131.445Z" fill="black"/>
<path d="M134.347 126.502L126.597 133.982L123.627 144.337C125.906 144.991 128.338 144.875 130.544 144.007C132.751 143.138 134.609 141.566 135.831 139.533C137.053 137.501 137.569 135.122 137.301 132.766C137.033 130.409 135.994 128.208 134.347 126.502Z" fill="#E8EDF8"/>
<path opacity="0.9" d="M134.347 126.502L126.597 133.982L123.627 144.337C125.906 144.991 128.338 144.875 130.544 144.007C132.751 143.138 134.609 141.566 135.831 139.533C137.053 137.501 137.569 135.122 137.301 132.766C137.033 130.409 135.994 128.208 134.347 126.502Z" fill="white"/>
<g opacity="0.7">
<path opacity="0.7" d="M126.596 133.987L134.347 126.504C133.033 125.143 131.384 124.152 129.566 123.63C127.748 123.109 125.825 123.075 123.99 123.533C122.154 123.991 120.472 124.924 119.112 126.238C117.752 127.553 116.762 129.202 116.242 131.02L126.596 133.987Z" fill="#E8EDF8"/>
<path opacity="0.44" d="M126.596 133.987L134.347 126.504C133.033 125.143 131.384 124.152 129.566 123.63C127.748 123.109 125.825 123.075 123.99 123.533C122.154 123.991 120.472 124.924 119.112 126.238C117.752 127.553 116.762 129.202 116.242 131.02L126.596 133.987Z" fill="white"/>
</g>
<path d="M126.598 133.986L116.246 131.02C115.46 133.765 115.796 136.711 117.181 139.209C118.566 141.707 120.886 143.553 123.631 144.341L126.598 133.986Z" fill="#E8EDF8"/>
<path opacity="0.2" d="M126.598 133.986L116.246 131.02C115.46 133.765 115.796 136.711 117.181 139.209C118.566 141.707 120.886 143.553 123.631 144.341L126.598 133.986Z" fill="black"/>
<path opacity="0.3" d="M125.545 52.9141H117.681C117.149 52.9141 116.719 53.3239 116.719 53.8294V77.8044C116.719 78.31 117.149 78.7198 117.681 78.7198H125.545C126.076 78.7198 126.507 78.31 126.507 77.8044V53.8294C126.507 53.3239 126.076 52.9141 125.545 52.9141Z" fill="#B8C0CF"/>
<path opacity="0.1" d="M137.113 52.9141H129.249C128.717 52.9141 128.287 53.3239 128.287 53.8294V77.8044C128.287 78.31 128.717 78.7198 129.249 78.7198H137.113C137.644 78.7198 138.075 78.31 138.075 77.8044V53.8294C138.075 53.3239 137.644 52.9141 137.113 52.9141Z" fill="#B8C0CF"/>
<path opacity="0.3" d="M148.682 52.9141H140.817C140.286 52.9141 139.855 53.3239 139.855 53.8294V77.8044C139.855 78.31 140.286 78.7198 140.817 78.7198H148.682C149.213 78.7198 149.644 78.31 149.644 77.8044V53.8294C149.644 53.3239 149.213 52.9141 148.682 52.9141Z" fill="#B8C0CF"/>
<path opacity="0.1" d="M160.25 52.9141H152.386C151.854 52.9141 151.423 53.3239 151.423 53.8294V77.8044C151.423 78.31 151.854 78.7198 152.386 78.7198H160.25C160.781 78.7198 161.212 78.31 161.212 77.8044V53.8294C161.212 53.3239 160.781 52.9141 160.25 52.9141Z" fill="#B8C0CF"/>
<path opacity="0.3" d="M171.817 52.9141H163.953C163.421 52.9141 162.991 53.3239 162.991 53.8294V77.8044C162.991 78.31 163.421 78.7198 163.953 78.7198H171.817C172.348 78.7198 172.779 78.31 172.779 77.8044V53.8294C172.779 53.3239 172.348 52.9141 171.817 52.9141Z" fill="#B8C0CF"/>
<path opacity="0.1" d="M183.473 52.9141H176.323C175.84 52.9141 175.449 53.3239 175.449 53.8294V77.8044C175.449 78.31 175.84 78.7198 176.323 78.7198H183.473C183.956 78.7198 184.347 78.31 184.347 77.8044V53.8294C184.347 53.3239 183.956 52.9141 183.473 52.9141Z" fill="#B8C0CF"/>
<path opacity="0.3" d="M195.041 52.9141H187.892C187.408 52.9141 187.017 53.3239 187.017 53.8294V77.8044C187.017 78.31 187.408 78.7198 187.892 78.7198H195.041C195.524 78.7198 195.915 78.31 195.915 77.8044V53.8294C195.915 53.3239 195.524 52.9141 195.041 52.9141Z" fill="#B8C0CF"/>
<path opacity="0.2" d="M115.834 71.1083C115.823 71.036 115.827 70.9624 115.845 70.8915C115.863 70.8207 115.896 70.754 115.941 70.6953C115.986 70.6366 116.043 70.587 116.108 70.5494C116.173 70.5118 116.245 70.4869 116.32 70.4762L127.245 68.8758L138.872 64.2229L150.574 62.7186L162.056 66.5914L173.525 61.7904H185.114L196.044 58.2816C196.116 58.2585 196.192 58.2492 196.267 58.2543C196.343 58.2595 196.417 58.2789 196.485 58.3116C196.553 58.3443 196.613 58.3896 196.663 58.4449C196.713 58.5002 196.751 58.5643 196.775 58.6337C196.799 58.7031 196.808 58.7763 196.803 58.8492C196.798 58.9222 196.777 58.9934 196.743 59.0588C196.709 59.1242 196.662 59.1825 196.605 59.2304C196.548 59.2783 196.481 59.3148 196.409 59.3379L185.334 62.9386H173.799L162.134 67.8076L150.487 63.8788L139.134 65.3391L127.507 69.9921L116.515 71.5924C116.437 71.6054 116.357 71.6031 116.28 71.5856C116.203 71.5681 116.131 71.5358 116.067 71.4905C116.004 71.4453 115.95 71.3881 115.91 71.3224C115.87 71.2567 115.844 71.1839 115.834 71.1083Z" fill="#263238"/>
<path opacity="0.4" d="M127.345 73.3803L116.046 63.9666C115.985 63.917 115.935 63.8556 115.898 63.7861C115.861 63.7165 115.838 63.6402 115.831 63.5614C115.823 63.4827 115.831 63.4032 115.853 63.3276C115.876 63.2519 115.913 63.1816 115.963 63.1208C116.011 63.0582 116.071 63.0061 116.139 62.9678C116.207 62.9295 116.282 62.9056 116.36 62.8977C116.437 62.8898 116.515 62.898 116.59 62.9218C116.664 62.9456 116.733 62.9846 116.792 63.0362L127.689 72.1116L138.922 70.2043L150.415 65.9035L162.021 60.1944L173.677 57.0227L185.166 58.6085L196.038 54.7263C196.182 54.6749 196.341 54.6839 196.478 54.7513C196.616 54.8187 196.721 54.939 196.772 55.0858C196.822 55.2327 196.814 55.3941 196.748 55.5344C196.682 55.6747 196.564 55.7826 196.42 55.8343L185.291 59.8095L173.722 58.2364L162.34 61.332L150.846 66.9988L139.158 71.3715L127.345 73.3803Z" fill="#263238"/>
<path d="M188.744 31.3359L188.72 52.4914C188.718 53.8252 188.978 55.1464 189.487 56.3795C189.995 57.6126 190.741 58.7336 191.683 59.6782C192.625 60.6228 193.743 61.3727 194.975 61.885C196.206 62.3973 197.527 62.662 198.86 62.6639L220.042 62.6893L188.744 31.3359Z" fill="#B8C0CF"/>
<path opacity="0.5" d="M188.744 31.3359L188.72 52.4914C188.718 53.8252 188.978 55.1464 189.487 56.3795C189.995 57.6126 190.741 58.7336 191.683 59.6782C192.625 60.6228 193.743 61.3727 194.975 61.885C196.206 62.3973 197.527 62.662 198.86 62.6639L220.042 62.6893L188.744 31.3359Z" fill="url(#paint1_linear_11561_70364)" fill-opacity="0.9"/>
<path d="M210.882 168.922L214.275 165.282L195.797 148.057L192.404 151.697L210.882 168.922Z" fill="url(#paint2_linear_11561_70364)"/>
<path d="M221.177 180.271C221.767 180.822 222.692 180.79 223.242 180.2L226.386 176.83C226.937 176.24 226.905 175.315 226.315 174.764L213.611 162.92C213.021 162.37 212.096 162.402 211.546 162.992L208.401 166.361C207.851 166.951 207.883 167.877 208.473 168.427L221.177 180.271Z" fill="#28A745"/>
<path d="M156.076 132.451C156.378 129.578 157.247 126.794 158.63 124.258C160.014 121.723 161.887 119.486 164.139 117.678C164.447 117.429 164.759 117.192 165.074 116.967C167.824 114.985 170.995 113.665 174.339 113.11C177.684 112.556 181.111 112.783 184.353 113.772C187.595 114.762 190.565 116.488 193.029 118.815C195.494 121.142 197.388 124.008 198.561 127.188C200.507 132.487 200.353 138.33 198.131 143.52C196.049 148.356 192.301 152.284 187.568 154.591C182.834 156.897 177.431 157.429 172.339 156.089C167.247 154.749 162.805 151.626 159.821 147.288C156.836 142.95 155.508 137.685 156.076 132.451Z" fill="white"/>
<path d="M156.079 132.452C157.675 116.862 174.787 107.951 188.506 115.422C205.754 124.957 203.029 150.343 184.14 156.012C169.118 160.377 154.308 148.023 156.079 132.452ZM156.079 132.452C154.401 147.955 169.174 160.233 184.103 155.825C202.699 150.212 205.399 125.044 188.468 115.59C174.824 108.107 157.762 116.95 156.11 132.427L156.079 132.452Z" fill="#2C333A"/>
<path d="M175.194 160.359C170.139 159.814 165.36 157.783 161.46 154.522C157.56 151.261 154.714 146.916 153.283 142.038C151.852 137.16 151.9 131.967 153.42 127.116C154.94 122.265 157.865 117.973 161.824 114.784C165.783 111.595 170.599 109.652 175.662 109.2C180.726 108.747 185.81 109.807 190.271 112.244C194.733 114.681 198.371 118.387 200.727 122.892C203.083 127.397 204.049 132.499 203.505 137.554C202.769 144.33 199.374 150.537 194.066 154.812C188.759 159.088 181.971 161.083 175.194 160.359ZM175.512 157.434C179.988 157.92 184.508 157.068 188.499 154.985C192.491 152.901 195.775 149.681 197.936 145.731C200.098 141.782 201.039 137.28 200.641 132.795C200.243 128.31 198.524 124.044 195.701 120.536C192.879 117.028 189.079 114.437 184.783 113.089C180.487 111.741 175.888 111.697 171.567 112.964C167.246 114.23 163.398 116.749 160.51 120.203C157.621 123.656 155.821 127.889 155.339 132.366C154.699 138.363 156.463 144.37 160.244 149.069C164.026 153.768 169.516 156.777 175.512 157.434Z" fill="url(#paint3_linear_11561_70364)"/>
<path d="M200.232 127.214C199.339 124.616 197.999 122.194 196.273 120.056C192.593 115.516 187.347 112.52 181.567 111.657C175.788 110.794 169.895 112.127 165.05 115.394C160.205 118.661 156.76 123.623 155.393 129.305C154.025 134.986 154.836 140.973 157.664 146.086C160.492 151.199 165.133 155.067 170.672 156.928C176.211 158.789 182.247 158.508 187.588 156.14C192.93 153.772 197.191 149.489 199.532 144.134C201.872 138.78 202.122 132.744 200.232 127.214ZM199.827 137.192C199.287 142.26 197.006 146.985 193.373 150.56C189.74 154.134 184.979 156.339 179.903 156.796C174.826 157.254 169.748 155.937 165.534 153.069C161.32 150.201 158.231 145.961 156.794 141.071C155.357 136.181 155.66 130.944 157.652 126.252C159.644 121.56 163.201 117.705 167.718 115.342C172.235 112.98 177.431 112.258 182.421 113.298C187.41 114.338 191.885 117.077 195.081 121.047C198.724 125.583 200.423 131.376 199.808 137.161L199.827 137.192ZM200.232 127.214C199.339 124.616 197.999 122.194 196.273 120.056C192.593 115.516 187.347 112.52 181.567 111.657C175.788 110.794 169.895 112.127 165.05 115.394C160.205 118.661 156.76 123.623 155.393 129.305C154.025 134.986 154.836 140.973 157.664 146.086C160.492 151.199 165.133 155.067 170.672 156.928C176.211 158.789 182.247 158.508 187.588 156.14C192.93 153.772 197.191 149.489 199.532 144.134C201.872 138.78 202.122 132.744 200.232 127.214ZM199.827 137.192C199.287 142.26 197.006 146.985 193.373 150.56C189.74 154.134 184.979 156.339 179.903 156.796C174.826 157.254 169.748 155.937 165.534 153.069C161.32 150.201 158.231 145.961 156.794 141.071C155.357 136.181 155.66 130.944 157.652 126.252C159.644 121.56 163.201 117.705 167.718 115.342C172.235 112.98 177.431 112.258 182.421 113.298C187.41 114.338 191.885 117.077 195.081 121.047C198.724 125.583 200.423 131.376 199.808 137.161L199.827 137.192ZM203.02 126.298C201.489 121.808 198.78 117.812 195.175 114.728C191.57 111.645 187.203 109.586 182.531 108.769C177.858 107.952 173.051 108.405 168.614 110.082C164.177 111.759 160.272 114.598 157.308 118.302C154.344 122.005 152.429 126.437 151.766 131.134C151.102 135.831 151.712 140.62 153.534 145C155.355 149.38 158.32 153.19 162.119 156.032C165.918 158.873 170.41 160.641 175.126 161.15C179.55 161.627 184.022 160.981 188.13 159.272C192.238 157.562 195.849 154.846 198.629 151.372C201.409 147.898 203.269 143.78 204.036 139.397C204.804 135.015 204.454 130.509 203.02 126.298ZM202.758 137.522C202.102 143.634 199.213 149.288 194.645 153.4C190.077 157.512 184.152 159.793 178.005 159.805C171.859 159.817 165.924 157.56 161.34 153.465C156.756 149.371 153.845 143.728 153.166 137.619C152.486 131.511 154.086 125.366 157.658 120.364C161.23 115.363 166.524 111.856 172.522 110.517C178.521 109.178 184.803 110.101 190.163 113.109C195.523 116.117 199.584 120.998 201.567 126.815C202.727 130.241 203.122 133.878 202.727 137.473L202.758 137.522ZM196.273 120.106C192.583 115.572 187.328 112.586 181.545 111.736C175.762 110.886 169.87 112.234 165.032 115.513C160.193 118.793 156.76 123.766 155.407 129.453C154.055 135.14 154.883 141.127 157.727 146.233C160.572 151.34 165.226 155.195 170.773 157.039C176.32 158.883 182.356 158.581 187.692 156.194C193.027 153.806 197.274 149.507 199.596 144.142C201.917 138.778 202.144 132.738 200.232 127.214C199.333 124.615 197.986 122.192 196.254 120.056L196.273 120.106ZM199.827 137.211C199.287 142.279 197.006 147.003 193.373 150.578C189.74 154.153 184.979 156.357 179.903 156.815C174.826 157.272 169.748 155.955 165.534 153.088C161.32 150.22 158.231 145.98 156.794 141.09C155.357 136.2 155.66 130.962 157.652 126.271C159.644 121.579 163.201 117.723 167.718 115.361C172.235 112.999 177.431 112.276 182.421 113.317C187.41 114.357 191.885 117.096 195.081 121.066C198.719 125.597 200.418 131.382 199.808 137.161L199.827 137.211Z" fill="url(#paint4_linear_11561_70364)"/>
<path d="M163.191 145.433C161.776 143.55 160.77 141.392 160.235 139.098C159.948 137.935 159.779 136.746 159.73 135.549C159.687 134.337 159.762 133.124 159.955 131.926C160.364 129.515 161.276 127.216 162.63 125.179C163.959 123.173 165.651 121.432 167.619 120.047C166.102 121.815 164.767 123.731 163.634 125.765C163.098 126.766 162.643 127.809 162.275 128.883C161.894 129.94 161.614 131.029 161.439 132.138C161.075 134.355 161.056 136.614 161.383 138.836C161.72 141.099 162.327 143.314 163.191 145.433Z" fill="url(#paint5_linear_11561_70364)"/>
<path d="M194.625 129.605C195.472 131.804 195.853 134.155 195.742 136.509C195.697 137.717 195.532 138.918 195.249 140.094C194.957 141.271 194.554 142.417 194.045 143.518C192.99 145.723 191.486 147.683 189.63 149.274C187.79 150.839 185.676 152.051 183.394 152.847C185.336 151.56 187.143 150.081 188.788 148.432C189.578 147.617 190.301 146.741 190.952 145.813C191.606 144.899 192.172 143.926 192.642 142.907C193.598 140.872 194.229 138.701 194.513 136.471C194.828 134.196 194.865 131.89 194.625 129.605Z" fill="url(#paint6_linear_11561_70364)"/>
<path d="M170.314 130.575C170.363 129.736 170.679 128.901 171.263 128.073C171.847 127.244 172.671 126.575 173.736 126.066C174.798 125.56 176.017 125.345 177.393 125.42C178.673 125.491 179.789 125.789 180.741 126.316C181.636 126.787 182.385 127.497 182.903 128.366C183.38 129.176 183.604 130.109 183.548 131.047C183.525 131.733 183.331 132.402 182.982 132.992C182.667 133.516 182.274 133.989 181.816 134.394C181.375 134.782 180.586 135.43 179.447 136.339C179.182 136.552 178.928 136.78 178.686 137.02C178.52 137.184 178.374 137.368 178.252 137.567C178.157 137.726 178.079 137.895 178.018 138.071C177.96 138.241 177.87 138.538 177.749 138.966C177.531 139.874 176.98 140.303 176.099 140.254C175.886 140.248 175.676 140.199 175.481 140.111C175.287 140.023 175.112 139.897 174.966 139.74C174.671 139.423 174.539 138.969 174.572 138.379C174.598 137.136 175.117 135.955 176.013 135.094C176.53 134.61 177.071 134.153 177.634 133.724C178.225 133.261 178.655 132.912 178.919 132.674C179.183 132.438 179.412 132.167 179.601 131.868C179.79 131.572 179.898 131.23 179.915 130.879C179.938 130.542 179.889 130.204 179.771 129.888C179.652 129.572 179.466 129.286 179.227 129.048C178.727 128.533 178.064 128.252 177.24 128.204C176.269 128.151 175.542 128.356 175.057 128.821C174.572 129.285 174.144 129.987 173.771 130.925C173.417 131.905 172.822 132.373 171.987 132.329C171.753 132.321 171.524 132.264 171.314 132.162C171.103 132.061 170.917 131.916 170.765 131.738C170.617 131.584 170.5 131.402 170.423 131.202C170.346 131.002 170.309 130.789 170.314 130.575ZM175.963 145.425C175.444 145.404 174.952 145.189 174.583 144.824C174.202 144.454 174.028 143.956 174.061 143.33C174.072 143.068 174.136 142.812 174.25 142.577C174.365 142.341 174.526 142.132 174.726 141.963C174.924 141.787 175.155 141.654 175.406 141.57C175.657 141.486 175.922 141.453 176.186 141.474C176.446 141.484 176.701 141.546 176.937 141.657C177.173 141.768 177.383 141.926 177.557 142.12C177.731 142.314 177.864 142.541 177.948 142.787C178.032 143.034 178.066 143.294 178.047 143.554C178.013 144.171 177.788 144.644 177.374 144.974C176.977 145.298 176.473 145.459 175.963 145.425Z" fill="url(#paint7_linear_11561_70364)"/>
<defs>
<filter id="filter0_d_11561_70364" x="0.820618" y="28.2998" width="185.59" height="188.873" filterUnits="userSpaceOnUse" color-interpolation-filters="sRGB">
<feFlood flood-opacity="0" result="BackgroundImageFix"/>
<feColorMatrix in="SourceAlpha" type="matrix" values="0 0 0 0 0 0 0 0 0 0 0 0 0 0 0 0 0 0 127 0" result="hardAlpha"/>
<feOffset dy="2"/>
<feGaussianBlur stdDeviation="7.5"/>
<feComposite in2="hardAlpha" operator="out"/>
<feColorMatrix type="matrix" values="0 0 0 0 0.415686 0 0 0 0 0.415686 0 0 0 0 0.415686 0 0 0 0.1 0"/>
<feBlend mode="normal" in2="BackgroundImageFix" result="effect1_dropShadow_11561_70364"/>
<feBlend mode="normal" in="SourceGraphic" in2="effect1_dropShadow_11561_70364" result="shape"/>
</filter>
<filter id="filter1_d_11561_70364" x="102.789" y="26.2471" width="131.241" height="174.136" filterUnits="userSpaceOnUse" color-interpolation-filters="sRGB">
<feFlood flood-opacity="0" result="BackgroundImageFix"/>
<feColorMatrix in="SourceAlpha" type="matrix" values="0 0 0 0 0 0 0 0 0 0 0 0 0 0 0 0 0 0 127 0" result="hardAlpha"/>
<feOffset dx="7" dy="2"/>
<feGaussianBlur stdDeviation="3.5"/>
<feComposite in2="hardAlpha" operator="out"/>
<feColorMatrix type="matrix" values="0 0 0 0 0 0 0 0 0 0 0 0 0 0 0 0 0 0 0.05 0"/>
<feBlend mode="normal" in2="BackgroundImageFix" result="effect1_dropShadow_11561_70364"/>
<feBlend mode="normal" in="SourceGraphic" in2="effect1_dropShadow_11561_70364" result="shape"/>
</filter>
<linearGradient id="paint0_linear_11561_70364" x1="85.2975" y1="45.5508" x2="128.815" y2="35.9432" gradientUnits="userSpaceOnUse">
<stop stop-color="white"/>
<stop offset="1" stop-color="white" stop-opacity="0"/>
</linearGradient>
<linearGradient id="paint1_linear_11561_70364" x1="195.131" y1="40.6377" x2="243.107" y2="57.8278" gradientUnits="userSpaceOnUse">
<stop stop-color="white"/>
<stop offset="1" stop-color="white" stop-opacity="0"/>
</linearGradient>
<linearGradient id="paint2_linear_11561_70364" x1="210.882" y1="168.922" x2="214.932" y2="161.912" gradientUnits="userSpaceOnUse">
<stop stop-color="#BEC7CF"/>
<stop offset="1" stop-color="#8D9293"/>
</linearGradient>
<linearGradient id="paint3_linear_11561_70364" x1="203.653" y1="109.098" x2="167.407" y2="151.491" gradientUnits="userSpaceOnUse">
<stop stop-color="#9BF763"/>
<stop offset="1" stop-color="#26AB5B"/>
</linearGradient>
<linearGradient id="paint4_linear_11561_70364" x1="204.433" y1="108.373" x2="167.112" y2="152.02" gradientUnits="userSpaceOnUse">
<stop stop-color="#9BF763"/>
<stop offset="1" stop-color="#26AB5B"/>
</linearGradient>
<linearGradient id="paint5_linear_11561_70364" x1="160.69" y1="144.021" x2="171.108" y2="141.121" gradientUnits="userSpaceOnUse">
<stop offset="0.0977" stop-color="#C1C7D0"/>
<stop offset="1" stop-color="#EBECF0" stop-opacity="0.5"/>
</linearGradient>
<linearGradient id="paint6_linear_11561_70364" x1="184.915" y1="151.554" x2="199.241" y2="144.736" gradientUnits="userSpaceOnUse">
<stop offset="0.0977" stop-color="#C1C7D0"/>
<stop offset="1" stop-color="#EBECF0" stop-opacity="0.5"/>
</linearGradient>
<linearGradient id="paint7_linear_11561_70364" x1="176.999" y1="122.225" x2="179.123" y2="140.421" gradientUnits="userSpaceOnUse">
<stop stop-color="#9BF763"/>
<stop offset="1" stop-color="#26AB5B"/>
</linearGradient>
</defs>
</svg>
