<svg width="37" height="36" viewBox="0 0 37 36" fill="none" xmlns="http://www.w3.org/2000/svg">
<path d="M0.599609 18C0.599609 8.05887 8.65848 0 18.5996 0V0C28.5407 0 36.5996 8.05887 36.5996 18V18C36.5996 27.9411 28.5407 36 18.5996 36V36C8.65848 36 0.599609 27.9411 0.599609 18V18Z" fill="url(#paint0_linear_11993_136398)"/>
<path d="M8.59961 15.5716V25.2856C8.59961 25.6076 8.73134 25.9164 8.96581 26.1441C9.20029 26.3718 9.51831 26.4997 9.84991 26.4997H13.5998V14.3574H9.84991C9.51831 14.3574 9.20029 14.4853 8.96581 14.713C8.73134 14.9407 8.59961 15.2495 8.59961 15.5716V15.5716Z" fill="white"/>
<path d="M26.2933 15.5711H22.6002C22.4913 15.5711 22.3842 15.5435 22.2896 15.491C22.1951 15.4385 22.1162 15.363 22.061 15.2718C22.0057 15.1807 21.9759 15.0771 21.9745 14.9713C21.9731 14.8656 22.0001 14.7613 22.053 14.6688L23.3549 12.3929C23.4947 12.1487 23.5747 11.8766 23.5888 11.5976C23.6028 11.3185 23.5506 11.0401 23.4361 10.7838C23.3216 10.5276 23.148 10.3003 22.9285 10.1196C22.7091 9.93899 22.4498 9.8098 22.1707 9.74207L21.2518 9.51949C21.1413 9.49148 21.0249 9.4937 20.9156 9.5259C20.8062 9.5581 20.7082 9.61904 20.6323 9.70196L15.6518 15.0798C15.1357 15.6369 14.8503 16.3598 14.8506 17.1091V23.4604C14.8514 24.2651 15.1809 25.0365 15.7669 25.6055C16.3528 26.1745 17.1472 26.4945 17.9758 26.4953H24.1933C24.8777 26.4941 25.5429 26.2752 26.0872 25.8722C26.6314 25.4692 27.0247 24.9042 27.207 24.2635L28.5409 18.3172C28.6191 17.9885 28.6198 17.647 28.5432 17.3181C28.4665 16.9891 28.3144 16.6812 28.0981 16.4172C27.8819 16.1533 27.6071 15.9401 27.2943 15.7936C26.9814 15.6471 26.6385 15.5711 26.2912 15.5711H26.2933Z" fill="white"/>
<defs>
<linearGradient id="paint0_linear_11993_136398" x1="28.5" y1="4.5" x2="9" y2="36" gradientUnits="userSpaceOnUse">
<stop stop-color="#2684FF"/>
<stop offset="1" stop-color="#2684FF" stop-opacity="0.5"/>
</linearGradient>
</defs>
</svg>
