<svg width="17" height="18" viewBox="0 0 17 18" fill="none" xmlns="http://www.w3.org/2000/svg">
<path d="M14.8574 0.702166H2.29614C1.74105 0.702827 1.20888 0.923631 0.816369 1.31614C0.423858 1.70865 0.203054 2.24082 0.202393 2.79592L0.202393 15.3572C0.202723 15.9125 0.423381 16.445 0.815927 16.8377C1.20847 17.2305 1.74083 17.4515 2.29614 17.4522H8.57739V11.6934H6.48364V9.07716H8.57739V6.98342C8.57723 6.57096 8.65833 6.16251 8.81605 5.78141C8.97378 5.4003 9.20504 5.054 9.49664 4.76229C9.78823 4.47058 10.1344 4.23918 10.5155 4.0813C10.8965 3.92343 11.3049 3.84217 11.7174 3.84217H13.8111V6.45966H12.7649C12.1874 6.45966 11.7186 6.40466 11.7186 6.98342V9.07716H14.3361L13.2899 11.6947H11.7174V17.4522H14.8574C15.4129 17.4518 15.9456 17.231 16.3384 16.8382C16.7312 16.4454 16.9521 15.9127 16.9524 15.3572V2.79592C16.9517 2.24061 16.7308 1.70825 16.338 1.3157C15.9452 0.923154 15.4127 0.702496 14.8574 0.702166V0.702166Z" fill="white"/>
</svg>
