<svg width="88" height="88" viewBox="0 0 88 88" fill="none" xmlns="http://www.w3.org/2000/svg">
<g clip-path="url(#clip0_11545_92413)">
<path d="M27.1327 63.1549C22.4367 63.1549 18.2595 60.148 16.7426 55.6717L16.6401 55.3344C16.2823 54.1489 16.1325 53.152 16.1325 52.1546V32.1543L9.01614 55.9091C8.10088 59.4031 10.1865 63.0254 13.6859 63.9906L59.0453 76.1382C59.6115 76.2848 60.1776 76.3552 60.7351 76.3552C63.6565 76.3552 66.326 74.4162 67.0743 71.5587L69.7169 63.1549H27.1327Z" fill="#858F9B"/>
<path d="M35.1971 32.356C38.4327 32.356 41.0635 29.7247 41.0635 26.4891C41.0635 23.2534 38.4327 20.6221 35.1971 20.6221C31.9614 20.6221 29.3301 23.2534 29.3301 26.4891C29.3301 29.7247 31.9614 32.356 35.1971 32.356Z" fill="#858F9B"/>
<path d="M71.8647 11.8223H27.8636C23.8218 11.8223 20.5303 15.1138 20.5303 19.1561V51.4232C20.5303 55.4656 23.8218 58.7571 27.8636 58.7571H71.8647C75.9071 58.7571 79.1985 55.4656 79.1985 51.4232V19.1561C79.1985 15.1138 75.9071 11.8223 71.8647 11.8223ZM27.8636 17.6893H71.8647C72.6747 17.6893 73.3316 18.3462 73.3316 19.1561V39.9804L64.0651 29.1676C63.0822 28.0149 61.6593 27.3988 60.1312 27.3639C58.6117 27.3725 57.1862 28.0471 56.2124 29.2148L45.3174 42.2916L41.7681 38.7509C39.7619 36.7448 36.4968 36.7448 34.4933 38.7509L26.3973 46.8443V19.1561C26.3973 18.3462 27.0542 17.6893 27.8636 17.6893Z" fill="#858F9B"/>
</g>
<defs>
<clipPath id="clip0_11545_92413">
<rect width="70.4" height="70.4" fill="white" transform="translate(8.7998 8.7998)"/>
</clipPath>
</defs>
</svg>
