<svg width="232" height="231" viewBox="0 0 232 231" fill="none" xmlns="http://www.w3.org/2000/svg">
<path d="M118.836 76.0373L114.86 68.8909C114.211 67.7123 113.258 66.729 112.098 66.0439C110.938 65.3587 109.616 64.9968 108.268 64.9961H48.6549C46.6596 64.9961 44.746 65.7867 43.3351 67.1939C41.9242 68.6011 41.1317 70.5098 41.1317 72.4999V186.128C41.1317 188.204 41.9582 190.194 43.4296 191.662C44.9009 193.129 46.8965 193.954 48.9773 193.954H184.396C186.477 193.954 188.472 193.129 189.944 191.662C191.415 190.194 192.242 188.204 192.242 186.128V86.9C192.242 84.9099 191.449 83.0012 190.038 81.594C188.627 80.1868 186.714 79.3962 184.718 79.3962H124.568C123.398 79.4006 122.249 79.0911 121.241 78.5002C120.232 77.9092 119.402 77.0585 118.836 76.0373Z" fill="white"/>
<path opacity="0.3" d="M116.497 76.0373L112.52 68.8909C111.872 67.7123 110.918 66.729 109.759 66.0439C108.599 65.3587 107.276 64.9968 105.929 64.9961H46.3157C44.3204 64.9961 42.4068 65.7867 40.996 67.1939C39.5851 68.6011 38.7925 70.5098 38.7925 72.4999V186.128C38.7925 188.204 39.6191 190.194 41.0904 191.662C42.5618 193.129 44.5574 193.954 46.6382 193.954H182.057C184.138 193.954 186.133 193.129 187.604 191.662C189.076 190.194 189.902 188.204 189.902 186.128V86.9C189.902 84.9099 189.11 83.0012 187.699 81.594C186.288 80.1868 184.374 79.3962 182.379 79.3962H122.229C121.059 79.4006 119.91 79.0911 118.901 78.5002C117.893 77.9092 117.063 77.0585 116.497 76.0373Z" fill="#B8C0CF"/>
<g filter="url(#filter0_d_11545_71809)">
<path d="M132.445 44.3039L71.6144 49.6418C70.5397 49.7335 69.4943 50.044 68.5381 50.5556C67.5819 51.0671 66.7337 51.7697 66.042 52.6229C65.3502 53.4762 64.8286 54.4635 64.5069 55.5283C64.1852 56.5931 64.0698 57.7145 64.1672 58.8283L74.4014 175.365C74.4976 176.479 74.8051 177.565 75.3063 178.559C75.8074 179.553 76.4924 180.436 77.3218 181.157C78.1513 181.879 79.109 182.424 80.1401 182.763C81.1711 183.101 82.2553 183.226 83.3303 183.13L161.186 176.298C162.259 176.205 163.303 175.894 164.258 175.382C165.212 174.87 166.059 174.167 166.749 173.314C167.439 172.46 167.958 171.473 168.278 170.409C168.598 169.345 168.711 168.224 168.612 167.112L159.956 68.2147L132.445 44.3039Z" fill="white"/>
<path d="M132.455 44.3071L134.005 61.9544C134.103 63.0671 134.41 64.1504 134.911 65.1426C135.411 66.1347 136.095 67.0162 136.923 67.7367C137.751 68.4572 138.707 69.0026 139.736 69.3418C140.765 69.6809 141.847 69.8071 142.92 69.7132L159.966 68.218L132.455 44.3071Z" fill="#B8C0CF"/>
<path opacity="0.7" d="M132.455 44.3071L134.005 61.9544C134.103 63.0671 134.41 64.1504 134.911 65.1426C135.411 66.1347 136.095 67.0162 136.923 67.7367C137.751 68.4572 138.707 69.0026 139.736 69.3418C140.765 69.6809 141.847 69.8071 142.92 69.7132L159.966 68.218L132.455 44.3071Z" fill="url(#paint0_linear_11545_71809)" fill-opacity="0.9"/>
<rect width="52.3331" height="2.34163" rx="1.17081" transform="matrix(0.996113 -0.0880836 0.0884344 0.996082 71.7083 62.2012)" fill="#E8EDF8"/>
<rect width="78.5733" height="2.34163" rx="1.17082" transform="matrix(0.996113 -0.0880837 0.0884344 0.996082 74.9526 96.0581)" fill="#E8EDF8"/>
<rect width="53.0269" height="2.34163" rx="1.17082" transform="matrix(0.996113 -0.0880837 0.0884343 0.996082 72.3956 73.4922)" fill="#E8EDF8"/>
<rect width="78.5733" height="2.34163" rx="1.17081" transform="matrix(0.996113 -0.0880836 0.0884344 0.996082 76.0417 107.34)" fill="#E8EDF8"/>
<rect width="78.5733" height="2.34163" rx="1.17082" transform="matrix(0.996108 -0.0881418 0.0883823 0.996087 73.5342 84.7817)" fill="#E8EDF8"/>
<rect width="78.5733" height="2.34163" rx="1.17082" transform="matrix(0.996108 -0.0881418 0.0883823 0.996087 76.496 118.624)" fill="#E8EDF8"/>
</g>
<path d="M205.05 94.2771H125.83C124.213 94.1992 122.598 94.4601 121.087 95.0432C119.575 95.6263 118.201 96.5189 117.051 97.6644L111.892 103.934C110.952 104.931 109.809 105.711 108.541 106.221C107.273 106.731 105.91 106.959 104.547 106.889H27.1533C21.7788 106.889 18.1957 109.808 19.1273 113.411C26.6875 142.924 30.4855 157.662 38.0457 187.138C38.7252 189.127 40.0057 190.852 41.7081 192.074C43.4104 193.295 45.4496 193.95 47.5406 193.949H181.832C183.923 193.95 185.963 193.295 187.665 192.074C189.367 190.852 190.648 189.127 191.327 187.138L213.47 100.835C214.366 97.2319 210.64 94.2771 205.05 94.2771Z" fill="white"/>
<g opacity="0.6" filter="url(#filter1_d_11545_71809)">
<path opacity="0.1" d="M205.391 94.9621H126.167C124.55 94.8847 122.934 95.1441 121.423 95.7239C119.912 96.3037 118.538 97.1913 117.388 98.3303L112.228 104.565C111.288 105.556 110.145 106.332 108.877 106.839C107.609 107.346 106.246 107.573 104.882 107.503H27.4857C22.1109 107.503 18.5277 110.406 19.4593 113.989C27.0199 143.335 30.818 157.99 38.3785 187.301C39.0581 189.278 40.3387 190.994 42.0411 192.208C43.7436 193.423 45.7829 194.074 47.874 194.073H182.172C184.263 194.074 186.302 193.423 188.005 192.208C189.707 190.994 190.987 189.278 191.667 187.301L213.811 101.483C214.707 97.9003 210.98 94.9621 205.391 94.9621Z" fill="url(#paint1_linear_11545_71809)"/>
</g>
<path d="M139.284 179.089L142.905 175.204L123.183 156.819L119.562 160.704L139.284 179.089Z" fill="url(#paint2_linear_11545_71809)"/>
<path d="M150.271 191.207C150.901 191.794 151.888 191.76 152.475 191.13L155.831 187.534C156.419 186.904 156.385 185.917 155.755 185.329L142.196 172.687C141.566 172.1 140.579 172.135 139.992 172.764L136.636 176.36C136.048 176.99 136.082 177.978 136.713 178.565L150.271 191.207Z" fill="#28A745"/>
<path d="M80.7891 140.167C81.1118 137.101 82.0384 134.129 83.5154 131.423C84.9924 128.717 86.9906 126.33 89.3947 124.4C89.723 124.134 90.0558 123.881 90.393 123.642C93.3277 121.526 96.7119 120.117 100.281 119.525C103.851 118.934 107.508 119.175 110.969 120.232C114.429 121.288 117.598 123.13 120.229 125.614C122.86 128.097 124.88 131.156 126.133 134.55C128.21 140.206 128.045 146.442 125.674 151.981C123.452 157.142 119.451 161.335 114.4 163.797C109.348 166.259 103.581 166.826 98.1462 165.396C92.7117 163.965 87.9709 160.632 84.7857 156.003C81.6005 151.373 80.1823 145.754 80.7891 140.167Z" fill="white"/>
<path d="M80.7927 140.166C82.4965 123.527 100.759 114.016 115.402 121.99C133.811 132.166 130.902 159.261 110.743 165.311C94.7095 169.97 78.9025 156.785 80.7927 140.166ZM80.7927 140.166C79.0024 156.712 94.7694 169.817 110.703 165.111C130.55 159.121 133.432 132.259 115.362 122.169C100.799 114.183 82.5897 123.62 80.826 140.139L80.7927 140.166Z" fill="#28A745"/>
<path d="M101.194 169.952C95.7992 169.371 90.6981 167.203 86.5356 163.722C82.3731 160.242 79.3361 155.605 77.8087 150.399C76.2813 145.192 76.332 139.65 77.9545 134.472C79.577 129.295 82.6983 124.715 86.9238 121.311C91.1493 117.907 96.2892 115.833 101.694 115.35C107.098 114.868 112.524 115.999 117.286 118.6C122.047 121.201 125.931 125.156 128.445 129.964C130.959 134.772 131.991 140.218 131.41 145.613C130.624 152.845 127.001 159.469 121.336 164.032C115.671 168.596 108.427 170.725 101.194 169.952ZM101.533 166.831C106.311 167.349 111.134 166.44 115.395 164.216C119.655 161.993 123.16 158.556 125.466 154.341C127.773 150.125 128.778 145.32 128.353 140.533C127.928 135.747 126.094 131.194 123.081 127.45C120.068 123.706 116.013 120.94 111.428 119.501C106.843 118.063 101.934 118.016 97.3229 119.368C92.7114 120.719 88.6044 123.408 85.5214 127.094C82.4383 130.78 80.5177 135.298 80.0025 140.075C79.3193 146.477 81.2021 152.888 85.2381 157.903C89.2741 162.918 95.134 166.129 101.533 166.831Z" fill="url(#paint3_linear_11545_71809)"/>
<path d="M127.917 134.577C126.963 131.804 125.533 129.218 123.691 126.936C119.764 122.092 114.164 118.894 107.996 117.973C101.828 117.052 95.5388 118.475 90.3678 121.961C85.1968 125.448 81.5193 130.744 80.0601 136.808C78.6008 142.871 79.4658 149.261 82.4844 154.718C85.503 160.176 90.4563 164.304 96.368 166.291C102.28 168.277 108.721 167.976 114.422 165.449C120.124 162.921 124.672 158.35 127.169 152.636C129.667 146.921 129.934 140.478 127.917 134.577ZM127.485 145.226C126.909 150.635 124.474 155.678 120.596 159.493C116.719 163.308 111.638 165.661 106.22 166.149C100.802 166.638 95.3819 165.232 90.8844 162.171C86.3869 159.111 83.0901 154.585 81.5559 149.366C80.0218 144.147 80.3454 138.557 82.4714 133.55C84.5975 128.542 88.3945 124.427 93.2151 121.906C98.0356 119.385 103.581 118.614 108.907 119.724C114.232 120.834 119.008 123.757 122.42 127.995C126.307 132.836 128.121 139.019 127.465 145.193L127.485 145.226ZM127.917 134.577C126.963 131.804 125.533 129.218 123.691 126.936C119.764 122.092 114.164 118.894 107.996 117.973C101.828 117.052 95.5388 118.475 90.3678 121.961C85.1968 125.448 81.5193 130.744 80.0601 136.808C78.6008 142.871 79.4658 149.261 82.4844 154.718C85.503 160.176 90.4563 164.304 96.368 166.291C102.28 168.277 108.721 167.976 114.422 165.449C120.124 162.921 124.672 158.35 127.169 152.636C129.667 146.921 129.934 140.478 127.917 134.577ZM127.485 145.226C126.909 150.635 124.474 155.678 120.596 159.493C116.719 163.308 111.638 165.661 106.22 166.149C100.802 166.638 95.3819 165.232 90.8844 162.171C86.3869 159.111 83.0901 154.585 81.5559 149.366C80.0218 144.147 80.3454 138.557 82.4714 133.55C84.5975 128.542 88.3945 124.427 93.2151 121.906C98.0356 119.385 103.581 118.614 108.907 119.724C114.232 120.834 119.008 123.757 122.42 127.995C126.307 132.836 128.121 139.019 127.465 145.193L127.485 145.226ZM130.892 133.599C129.258 128.807 126.367 124.542 122.52 121.251C118.672 117.959 114.011 115.763 109.024 114.89C104.037 114.018 98.9072 114.502 94.1713 116.292C89.4354 118.082 85.2676 121.112 82.1041 125.064C78.9406 129.017 76.8976 133.748 76.189 138.761C75.4804 143.774 76.1323 148.885 78.0763 153.56C80.0203 158.235 83.185 162.301 87.2393 165.333C91.2935 168.366 96.0883 170.253 101.122 170.797C105.843 171.305 110.616 170.615 115.001 168.791C119.385 166.967 123.239 164.067 126.206 160.36C129.173 156.653 131.158 152.257 131.977 147.58C132.796 142.902 132.423 138.094 130.892 133.599ZM130.613 145.579C129.913 152.101 126.83 158.136 121.954 162.525C117.079 166.914 110.754 169.348 104.194 169.361C97.6344 169.374 91.3006 166.964 86.408 162.594C81.5155 158.224 78.4086 152.202 77.6833 145.682C76.958 139.162 78.6655 132.604 82.4781 127.266C86.2908 121.928 91.9401 118.185 98.3425 116.756C104.745 115.327 111.45 116.312 117.17 119.522C122.891 122.732 127.225 127.942 129.341 134.151C130.579 137.807 131.002 141.689 130.579 145.525L130.613 145.579ZM123.691 126.99C119.753 122.151 114.144 118.964 107.972 118.057C101.8 117.15 95.512 118.588 90.348 122.088C85.184 125.589 81.5191 130.897 80.076 136.966C78.6329 143.036 79.5163 149.425 82.5521 154.875C85.5879 160.326 90.5556 164.44 96.4756 166.408C102.396 168.376 108.838 168.054 114.533 165.506C120.227 162.958 124.76 158.369 127.238 152.644C129.715 146.918 129.958 140.472 127.917 134.577C126.957 131.802 125.52 129.217 123.671 126.936L123.691 126.99ZM127.485 145.246C126.909 150.655 124.474 155.698 120.596 159.513C116.719 163.328 111.638 165.681 106.22 166.169C100.802 166.658 95.3819 165.252 90.8844 162.191C86.3869 159.131 83.0901 154.605 81.5559 149.386C80.0218 144.167 80.3454 138.577 82.4714 133.57C84.5975 128.562 88.3945 124.447 93.2151 121.926C98.0356 119.405 103.581 118.634 108.907 119.744C114.232 120.854 119.008 123.777 122.42 128.015C126.302 132.851 128.115 139.025 127.465 145.193L127.485 145.246Z" fill="url(#paint4_linear_11545_71809)"/>
<path d="M88.3833 154.022C86.8731 152.012 85.7986 149.709 85.2286 147.26C84.9217 146.019 84.7411 144.75 84.6895 143.473C84.6432 142.179 84.7234 140.884 84.9291 139.606C85.3659 137.032 86.3387 134.579 87.7843 132.405C89.2027 130.263 91.0085 128.406 93.1088 126.927C91.4904 128.814 90.0656 130.859 88.8559 133.03C88.2837 134.099 87.7985 135.212 87.405 136.358C86.9989 137.486 86.7003 138.649 86.5131 139.832C86.1244 142.198 86.1042 144.609 86.4532 146.98C86.8126 149.396 87.4606 151.76 88.3833 154.022Z" fill="url(#paint5_linear_11545_71809)"/>
<path d="M121.933 137.129C122.837 139.476 123.243 141.985 123.124 144.497C123.076 145.787 122.9 147.069 122.598 148.324C122.287 149.58 121.857 150.804 121.314 151.978C120.187 154.331 118.582 156.423 116.602 158.121C114.637 159.792 112.381 161.085 109.946 161.935C112.019 160.562 113.947 158.983 115.703 157.223C116.545 156.353 117.317 155.418 118.012 154.427C118.71 153.453 119.314 152.414 119.816 151.326C120.836 149.154 121.51 146.837 121.813 144.457C122.148 142.028 122.189 139.568 121.933 137.129Z" fill="url(#paint6_linear_11545_71809)"/>
<path d="M96.9425 139.763C96.9947 138.867 97.3322 137.977 97.9553 137.092C98.5783 136.208 99.458 135.494 100.594 134.951C101.728 134.411 103.029 134.181 104.498 134.261C105.864 134.337 107.055 134.655 108.071 135.217C109.027 135.721 109.825 136.478 110.379 137.405C110.887 138.27 111.127 139.266 111.066 140.267C111.043 140.999 110.835 141.713 110.463 142.343C110.127 142.902 109.707 143.407 109.219 143.839C108.748 144.253 107.905 144.945 106.69 145.915C106.407 146.143 106.135 146.385 105.878 146.642C105.7 146.817 105.545 147.013 105.414 147.225C105.313 147.396 105.229 147.576 105.164 147.764C105.103 147.945 105.007 148.262 104.878 148.718C104.644 149.687 104.057 150.146 103.117 150.094C102.889 150.087 102.665 150.035 102.457 149.941C102.25 149.846 102.063 149.712 101.908 149.545C101.592 149.207 101.452 148.722 101.486 148.092C101.515 146.765 102.068 145.505 103.025 144.586C103.577 144.07 104.154 143.582 104.755 143.124C105.386 142.63 105.844 142.257 106.126 142.003C106.408 141.752 106.653 141.463 106.854 141.144C107.056 140.827 107.171 140.462 107.189 140.087C107.214 139.728 107.162 139.367 107.035 139.03C106.908 138.693 106.71 138.387 106.455 138.134C105.921 137.584 105.214 137.283 104.335 137.233C103.298 137.176 102.522 137.395 102.004 137.891C101.487 138.387 101.029 139.135 100.632 140.137C100.254 141.182 99.6192 141.682 98.7273 141.635C98.4781 141.626 98.2335 141.566 98.0091 141.457C97.7847 141.349 97.5854 141.194 97.424 141.004C97.2655 140.84 97.1412 140.645 97.0586 140.432C96.9759 140.219 96.9365 139.992 96.9425 139.763ZM102.971 155.613C102.418 155.59 101.892 155.361 101.498 154.971C101.091 154.576 100.906 154.044 100.942 153.376C100.953 153.097 101.021 152.823 101.143 152.572C101.265 152.321 101.438 152.098 101.651 151.917C101.862 151.73 102.109 151.587 102.377 151.497C102.644 151.408 102.928 151.373 103.209 151.395C103.487 151.406 103.759 151.473 104.011 151.591C104.262 151.71 104.487 151.877 104.673 152.085C104.858 152.292 105 152.534 105.09 152.797C105.18 153.06 105.216 153.338 105.196 153.616C105.159 154.274 104.92 154.779 104.477 155.131C104.054 155.477 103.516 155.649 102.971 155.613Z" fill="url(#paint7_linear_11545_71809)"/>
<defs>
<filter id="filter0_d_11545_71809" x="54.1337" y="38.3037" width="124.513" height="158.858" filterUnits="userSpaceOnUse" color-interpolation-filters="sRGB">
<feFlood flood-opacity="0" result="BackgroundImageFix"/>
<feColorMatrix in="SourceAlpha" type="matrix" values="0 0 0 0 0 0 0 0 0 0 0 0 0 0 0 0 0 0 127 0" result="hardAlpha"/>
<feOffset dy="4"/>
<feGaussianBlur stdDeviation="5"/>
<feComposite in2="hardAlpha" operator="out"/>
<feColorMatrix type="matrix" values="0 0 0 0 0 0 0 0 0 0 0 0 0 0 0 0 0 0 0.2 0"/>
<feBlend mode="normal" in2="BackgroundImageFix" result="effect1_dropShadow_11545_71809"/>
<feBlend mode="normal" in="SourceGraphic" in2="effect1_dropShadow_11545_71809" result="shape"/>
</filter>
<filter id="filter1_d_11545_71809" x="4.31203" y="83.9487" width="224.632" height="129.124" filterUnits="userSpaceOnUse" color-interpolation-filters="sRGB">
<feFlood flood-opacity="0" result="BackgroundImageFix"/>
<feColorMatrix in="SourceAlpha" type="matrix" values="0 0 0 0 0 0 0 0 0 0 0 0 0 0 0 0 0 0 127 0" result="hardAlpha"/>
<feOffset dy="4"/>
<feGaussianBlur stdDeviation="7.5"/>
<feComposite in2="hardAlpha" operator="out"/>
<feColorMatrix type="matrix" values="0 0 0 0 0 0 0 0 0 0 0 0 0 0 0 0 0 0 0.2 0"/>
<feBlend mode="normal" in2="BackgroundImageFix" result="effect1_dropShadow_11545_71809"/>
<feBlend mode="normal" in="SourceGraphic" in2="effect1_dropShadow_11545_71809" result="shape"/>
</filter>
<linearGradient id="paint0_linear_11545_71809" x1="138.284" y1="51.6084" x2="178.393" y2="61.5972" gradientUnits="userSpaceOnUse">
<stop stop-color="white"/>
<stop offset="1" stop-color="white" stop-opacity="0"/>
</linearGradient>
<linearGradient id="paint1_linear_11545_71809" x1="43.2385" y1="188.557" x2="110.959" y2="69.6355" gradientUnits="userSpaceOnUse">
<stop offset="0.0977" stop-color="#C1C7D0"/>
<stop offset="1" stop-color="#EBECF0" stop-opacity="0.5"/>
</linearGradient>
<linearGradient id="paint2_linear_11545_71809" x1="139.284" y1="179.089" x2="143.606" y2="171.607" gradientUnits="userSpaceOnUse">
<stop stop-color="#BEC7CF"/>
<stop offset="1" stop-color="#8D9293"/>
</linearGradient>
<linearGradient id="paint3_linear_11545_71809" x1="76.6992" y1="142.675" x2="131.568" y2="142.675" gradientUnits="userSpaceOnUse">
<stop stop-color="#28A745"/>
<stop offset="1" stop-color="#52BF50"/>
</linearGradient>
<linearGradient id="paint4_linear_11545_71809" x1="75.911" y1="142.713" x2="132.4" y2="142.713" gradientUnits="userSpaceOnUse">
<stop stop-color="#28A745"/>
<stop offset="1" stop-color="#52BF50"/>
</linearGradient>
<linearGradient id="paint5_linear_11545_71809" x1="85.7133" y1="152.514" x2="96.8331" y2="149.419" gradientUnits="userSpaceOnUse">
<stop offset="0.0977" stop-color="#C1C7D0"/>
<stop offset="1" stop-color="#EBECF0" stop-opacity="0.5"/>
</linearGradient>
<linearGradient id="paint6_linear_11545_71809" x1="111.568" y1="160.554" x2="126.859" y2="153.278" gradientUnits="userSpaceOnUse">
<stop offset="0.0977" stop-color="#C1C7D0"/>
<stop offset="1" stop-color="#EBECF0" stop-opacity="0.5"/>
</linearGradient>
<linearGradient id="paint7_linear_11545_71809" x1="96.902" y1="150.375" x2="110.251" y2="137.025" gradientUnits="userSpaceOnUse">
<stop stop-color="#28A745"/>
<stop offset="1" stop-color="#52BF50"/>
</linearGradient>
</defs>
</svg>
