<svg width="24" height="24" viewBox="0 0 24 24" fill="none" xmlns="http://www.w3.org/2000/svg">
<rect width="24" height="24" rx="12" fill="white"/>
<g clip-path="url(#clip0_23314_306293)">
<rect x="2" y="2" width="20" height="20" fill="url(#paint0_linear_23314_306293)"/>
<g opacity="0.4">
<path d="M19.1449 11.9978C19.1449 12.2291 19.1217 12.4604 19.0755 12.6917C19.0524 12.8073 19.0292 12.923 18.983 13.0155C18.9367 13.1542 18.8905 13.293 18.8211 13.4318C18.5435 14.0331 18.081 14.5882 17.4103 14.9582L14.4499 16.6697L11.4895 18.4043C10.31 19.0981 8.94548 18.9825 7.92785 18.3349C7.00274 17.7336 6.33203 16.6928 6.33203 15.4208V8.57492C6.33203 7.25664 7.02587 6.19275 8.02036 5.61456C9.03799 5.01323 10.3331 4.92072 11.4895 5.59143L14.4499 7.30289L17.4103 9.01435C18.5667 9.66193 19.1449 10.8415 19.1449 11.9978Z" fill="white"/>
</g>
<g opacity="0.5">
<path d="M18.8905 12.0674C19.0524 12.4606 19.0292 12.9 18.8905 13.2932C18.8673 13.3395 18.8442 13.3857 18.8442 13.432C18.5667 14.0333 18.1041 14.5884 17.4334 14.9584L14.473 16.6699L11.4895 18.4045C10.31 19.0983 8.94548 18.9827 7.92785 18.3351C7.00274 17.7338 6.33203 16.693 6.33203 15.421V9.93967C6.33203 8.62138 7.02587 7.5575 8.02036 6.9793C9.03799 6.37798 10.3331 6.28547 11.4895 6.95618L14.4499 8.66764L17.4103 10.3791C18.1272 10.7954 18.6129 11.3967 18.8905 12.0674Z" fill="white"/>
</g>
<path d="M6.33203 15.3978V11.466C6.33203 10.1478 7.02587 9.08387 8.02036 8.50567C9.03799 7.90435 10.3331 7.81184 11.4895 8.48254L14.4499 10.194L17.4103 11.9055C18.5898 12.5762 18.5898 14.2876 17.4103 14.9815L14.4499 16.6929L11.4895 18.4044C10.31 19.0982 8.94548 18.9826 7.92785 18.335C6.97961 17.7337 6.33203 16.6698 6.33203 15.3978Z" fill="white"/>
</g>
<defs>
<linearGradient id="paint0_linear_23314_306293" x1="3.69792" y1="3.48958" x2="20.4815" y2="21.5327" gradientUnits="userSpaceOnUse">
<stop stop-color="#EF592E"/>
<stop offset="0.166378" stop-color="#EF592E"/>
<stop offset="0.755856" stop-color="#F1672B"/>
<stop offset="1" stop-color="#F99F1D"/>
</linearGradient>
<clipPath id="clip0_23314_306293">
<rect x="2" y="2" width="20" height="20" rx="10" fill="white"/>
</clipPath>
</defs>
</svg>
