<svg width="24" height="24" viewBox="0 0 24 24" fill="none" xmlns="http://www.w3.org/2000/svg">
<rect width="24" height="24" rx="12" fill="white"/>
<g clip-path="url(#clip0_14005_199294)">
<path d="M2 12C2 6.47715 6.47715 2 12 2V2C17.5228 2 22 6.47715 22 12V12C22 17.5228 17.5228 22 12 22V22C6.47715 22 2 17.5228 2 12V12Z" fill="#1877F2"/>
<path d="M20.8962 22.0001C21.5057 22.0001 22 21.5059 22 20.8962V3.10383C22 2.49414 21.5057 2 20.8962 2H3.10383C2.49406 2 2 2.49414 2 3.10383V20.8962C2 21.5059 2.49406 22.0001 3.10383 22.0001H20.8962Z" fill="#1877F2"/>
<path d="M15.7995 22.0001V14.255H18.3993L18.7885 11.2366H15.7995V9.30944C15.7995 8.43553 16.0423 7.83999 17.2955 7.83999L18.8938 7.83928V5.13968C18.6173 5.10288 17.6685 5.02069 16.5648 5.02069C14.2602 5.02069 12.6826 6.42733 12.6826 9.01061V11.2366H10.0762V14.255H12.6826V22.0001H15.7995Z" fill="white"/>
</g>
<defs>
<clipPath id="clip0_14005_199294">
<path d="M2 12C2 6.47715 6.47715 2 12 2V2C17.5228 2 22 6.47715 22 12V12C22 17.5228 17.5228 22 12 22V22C6.47715 22 2 17.5228 2 12V12Z" fill="white"/>
</clipPath>
</defs>
</svg>
