<svg width="40" height="42" viewBox="0 0 40 42" fill="none" xmlns="http://www.w3.org/2000/svg">
<g clip-path="url(#clip0_25009_367489)">
<path d="M33.7812 2H6.21875C3.8888 2 2 3.8888 2 6.21875V33.7812C2 36.1112 3.8888 38 6.21875 38H33.7812C36.1112 38 38 36.1112 38 33.7812V6.21875C38 3.8888 36.1112 2 33.7812 2Z" fill="black"/>
<path d="M13.5455 23.2428C13.6791 22.1365 14.1328 21.5172 14.9878 20.8822C16.2112 20.0222 17.7394 20.5087 17.7394 20.5087V17.6229C18.1109 17.6134 18.4826 17.6355 18.8501 17.6887V21.4024C18.8501 21.4024 17.3223 20.916 16.0989 21.7764C15.2444 22.4109 14.7897 23.0307 14.6566 24.137C14.6524 24.7377 14.7652 25.523 15.2843 26.202C15.1559 26.1362 15.0251 26.0612 14.8918 25.977C13.7482 25.2091 13.5399 24.057 13.5455 23.2428ZM25.16 12.2872C24.3184 11.365 24.0001 10.4339 23.8851 9.77979H24.9438C24.9438 9.77979 24.7327 11.4948 26.2711 13.1813L26.2924 13.204C25.8778 12.9432 25.4976 12.6354 25.16 12.2872ZM30.26 14.9017V18.5407C30.26 18.5407 28.909 18.4878 27.9092 18.2334C26.5133 17.8777 25.616 17.3321 25.616 17.3321C25.616 17.3321 24.9962 16.9431 24.9461 16.9159V24.4305C24.9461 24.8489 24.8315 25.8938 24.4822 26.7653C24.0261 27.9054 23.3223 28.6538 23.1929 28.8067C23.1929 28.8067 22.337 29.8183 20.8269 30.4995C19.4657 31.114 18.2706 31.0984 17.9134 31.114C17.9134 31.114 15.8475 31.1958 13.9885 29.9877C13.5865 29.7214 13.2113 29.4198 12.8677 29.0868L12.877 29.0935C14.7364 30.3016 16.8018 30.2198 16.8018 30.2198C17.1595 30.2042 18.3546 30.2198 19.7153 29.6053C21.224 28.9241 22.0813 27.9125 22.0813 27.9125C22.2094 27.7596 22.9164 27.0112 23.3706 25.8707C23.719 24.9996 23.8345 23.9543 23.8345 23.5359V16.0222C23.8846 16.0498 24.504 16.4388 24.504 16.4388C24.504 16.4388 25.4017 16.9849 26.7976 17.3401C27.7979 17.5945 29.1484 17.6474 29.1484 17.6474V14.7959C29.6104 14.8995 30.0043 14.9275 30.26 14.9017Z" fill="#EE1D52"/>
<path d="M29.1489 14.7959V17.6465C29.1489 17.6465 27.7984 17.5936 26.7982 17.3392C25.4022 16.9835 24.5045 16.4379 24.5045 16.4379C24.5045 16.4379 23.8852 16.0489 23.8351 16.0213V23.5367C23.8351 23.9552 23.7205 25.0005 23.3711 25.8716C22.9151 27.0121 22.2113 27.7605 22.0819 27.9134C22.0819 27.9134 21.2255 28.925 19.7158 29.6062C18.3551 30.2207 17.16 30.2051 16.8023 30.2207C16.8023 30.2207 14.7369 30.3025 12.8775 29.0944L12.8682 29.0877C12.6719 28.8976 12.4871 28.6969 12.3147 28.4866C11.7214 27.7631 11.3577 26.9076 11.2663 26.6635C11.2661 26.6625 11.2661 26.6614 11.2663 26.6604C11.1192 26.2362 10.8102 25.2175 10.8524 24.2308C10.9271 22.49 11.5395 21.4216 11.7014 21.1539C12.1302 20.4239 12.688 19.7708 13.3498 19.2237C13.9338 18.7515 14.5957 18.3758 15.3085 18.112C16.079 17.8023 16.9041 17.6363 17.7395 17.6229V20.5087C17.7395 20.5087 16.2113 20.024 14.9884 20.8822C14.1334 21.5172 13.6796 22.1366 13.546 23.2428C13.5404 24.057 13.7488 25.2091 14.8914 25.9774C15.0247 26.0619 15.1555 26.1369 15.2839 26.2024C15.4835 26.4619 15.7265 26.688 16.003 26.8716C17.1192 27.5782 18.0545 27.6275 19.2505 27.1686C20.048 26.8618 20.6483 26.1704 20.9267 25.4043C21.1016 24.9258 21.0993 24.4443 21.0993 23.9463V9.77979H23.8828C23.9979 10.4339 24.3162 11.365 25.1577 12.2872C25.4953 12.6354 25.8756 12.9432 26.2902 13.204C26.4127 13.3307 27.039 13.9573 27.843 14.3419C28.2587 14.5407 28.6969 14.693 29.1489 14.7959Z" fill="white"/>
<path d="M10.1583 25.7771V25.7793L10.2274 25.9665C10.2195 25.9447 10.1938 25.8785 10.1583 25.7771Z" fill="#69C9D0"/>
<path d="M15.3084 18.112C14.5957 18.3758 13.9337 18.7514 13.3497 19.2236C12.6877 19.772 12.1301 20.4265 11.7019 21.1578C11.5399 21.4246 10.9276 22.494 10.8529 24.2348C10.8106 25.2214 11.1196 26.2401 11.2667 26.6643C11.2665 26.6654 11.2665 26.6664 11.2667 26.6674C11.3595 26.9093 11.7218 27.7648 12.3152 28.4905C12.4875 28.7008 12.6723 28.9016 12.8686 29.0917C12.2396 28.6747 11.6787 28.1706 11.2041 27.5959C10.6158 26.8786 10.253 26.032 10.1584 25.7821C10.1582 25.7804 10.1582 25.7786 10.1584 25.7768V25.7737C10.0108 25.3499 9.70093 24.3308 9.74407 23.3428C9.81876 21.602 10.4312 20.5335 10.5931 20.2658C11.0212 19.5344 11.5788 18.8799 12.2409 18.3316C12.8248 17.8593 13.4868 17.4836 14.1997 17.22C14.6443 17.0432 15.1075 16.9128 15.5812 16.8309C16.2952 16.7115 17.0244 16.7011 17.7418 16.8003V17.6229C16.9056 17.636 16.0797 17.802 15.3084 18.112Z" fill="#69C9D0"/>
<path d="M23.8851 9.77964H21.1015V23.9466C21.1015 24.4446 21.1015 24.9248 20.9289 25.4046C20.6478 26.1703 20.0498 26.8617 19.2528 27.1685C18.0563 27.6291 17.121 27.578 16.0052 26.8715C15.7283 26.6887 15.4847 26.4633 15.2843 26.2045C16.2349 26.6905 17.0857 26.682 18.1398 26.2765C18.9364 25.9697 19.5353 25.2783 19.8155 24.5122C19.9909 24.0337 19.9886 23.5522 19.9886 23.0546V8.88501H23.8322C23.8322 8.88501 23.7891 9.23717 23.8851 9.77964ZM29.1489 14.0074V14.7957C28.6976 14.6927 28.2602 14.5404 27.8452 14.3417C27.0412 13.9571 26.4149 13.3306 26.2924 13.2039C26.4346 13.2933 26.582 13.3747 26.7341 13.4475C27.7116 13.9153 28.6743 14.0549 29.1489 14.0074Z" fill="#69C9D0"/>
</g>
<rect x="1.57812" y="1.57812" width="36.8438" height="36.8438" rx="18.4219" stroke="white" stroke-width="0.84375"/>
<circle cx="20" cy="20" r="19.4063" stroke="#EF4379" stroke-width="0.5625"/>
<rect x="10.4375" y="33.5" width="19.125" height="7.9412" rx="1.125" fill="white"/>
<path d="M11.5625 34.5498H28.4375V40.3912H11.5625V34.5498Z" fill="#FB4A59"/>
<path d="M19.1393 38.548V39.0833H16.8997V35.8577H17.4819V38.548H19.1393Z" fill="#F2F2F2"/>
<path d="M19.6227 35.8577H20.2055V39.0833H19.6227V35.8577Z" fill="#F2F2F2"/>
<path d="M23.9892 35.8577L22.6413 39.0833H21.989L20.6414 35.8577H21.2894L22.313 38.304L23.3367 35.8577H23.9892Z" fill="#F2F2F2"/>
<path d="M25.0038 36.393V37.1724H26.6706V37.7076H25.0038V38.5481H26.8444V39.0834H24.4169V35.8577H26.8444V36.393H25.0038Z" fill="#F2F2F2"/>
<path d="M14.1589 38.3505C14.6451 38.3505 15.0393 37.9563 15.0393 37.47C15.0393 36.9838 14.6451 36.5896 14.1589 36.5896C13.6726 36.5896 13.2784 36.9838 13.2784 37.47C13.2784 37.9563 13.6726 38.3505 14.1589 38.3505Z" fill="#F2F2F2"/>
<defs>
<clipPath id="clip0_25009_367489">
<rect x="2" y="2" width="36" height="36" rx="18" fill="white"/>
</clipPath>
</defs>
</svg>
