<svg width="38" height="38" viewBox="0 0 38 38" fill="none" xmlns="http://www.w3.org/2000/svg">
<g clip-path="url(#clip0_25009_367491)">
<path d="M32.7812 1H5.21875C2.8888 1 1 2.8888 1 5.21875V32.7812C1 35.1112 2.8888 37 5.21875 37H32.7812C35.1112 37 37 35.1112 37 32.7812V5.21875C37 2.8888 35.1112 1 32.7812 1Z" fill="black"/>
<path d="M12.5455 22.2428C12.6791 21.1365 13.1328 20.5172 13.9878 19.8822C15.2112 19.0222 16.7394 19.5087 16.7394 19.5087V16.6229C17.1109 16.6134 17.4826 16.6355 17.8501 16.6887V20.4024C17.8501 20.4024 16.3223 19.916 15.0989 20.7764C14.2444 21.4109 13.7897 22.0307 13.6566 23.137C13.6524 23.7377 13.7652 24.523 14.2843 25.202C14.1559 25.1362 14.0251 25.0612 13.8918 24.977C12.7482 24.2091 12.5399 23.057 12.5455 22.2428ZM24.16 11.2872C23.3184 10.365 23.0001 9.43386 22.8851 8.77979H23.9438C23.9438 8.77979 23.7327 10.4948 25.2711 12.1813L25.2924 12.204C24.8778 11.9432 24.4976 11.6354 24.16 11.2872ZM29.26 13.9017V17.5407C29.26 17.5407 27.909 17.4878 26.9092 17.2334C25.5133 16.8777 24.616 16.3321 24.616 16.3321C24.616 16.3321 23.9962 15.9431 23.9461 15.9159V23.4305C23.9461 23.8489 23.8315 24.8938 23.4822 25.7653C23.0261 26.9054 22.3223 27.6538 22.1929 27.8067C22.1929 27.8067 21.337 28.8183 19.8269 29.4995C18.4657 30.114 17.2706 30.0984 16.9134 30.114C16.9134 30.114 14.8475 30.1958 12.9885 28.9877C12.5865 28.7214 12.2113 28.4198 11.8677 28.0868L11.877 28.0935C13.7364 29.3016 15.8018 29.2198 15.8018 29.2198C16.1595 29.2042 17.3546 29.2198 18.7153 28.6053C20.224 27.9241 21.0813 26.9125 21.0813 26.9125C21.2094 26.7596 21.9164 26.0112 22.3706 24.8707C22.719 23.9996 22.8345 22.9543 22.8345 22.5359V15.0222C22.8846 15.0498 23.504 15.4388 23.504 15.4388C23.504 15.4388 24.4017 15.9849 25.7976 16.3401C26.7979 16.5945 28.1484 16.6474 28.1484 16.6474V13.7959C28.6104 13.8995 29.0043 13.9275 29.26 13.9017Z" fill="#EE1D52"/>
<path d="M28.1489 13.7959V16.6465C28.1489 16.6465 26.7984 16.5936 25.7982 16.3392C24.4022 15.9835 23.5045 15.4379 23.5045 15.4379C23.5045 15.4379 22.8852 15.0489 22.8351 15.0213V22.5367C22.8351 22.9552 22.7205 24.0005 22.3711 24.8716C21.9151 26.0121 21.2113 26.7605 21.0819 26.9134C21.0819 26.9134 20.2255 27.925 18.7158 28.6062C17.3551 29.2207 16.16 29.2051 15.8023 29.2207C15.8023 29.2207 13.7369 29.3025 11.8775 28.0944L11.8682 28.0877C11.6719 27.8976 11.4871 27.6969 11.3147 27.4866C10.7214 26.7631 10.3577 25.9076 10.2663 25.6635C10.2661 25.6625 10.2661 25.6614 10.2663 25.6604C10.1192 25.2362 9.81022 24.2175 9.85244 23.2308C9.92713 21.49 10.5395 20.4216 10.7014 20.1539C11.1302 19.4239 11.688 18.7708 12.3498 18.2237C12.9338 17.7515 13.5957 17.3758 14.3085 17.112C15.079 16.8023 15.9041 16.6363 16.7395 16.6229V19.5087C16.7395 19.5087 15.2113 19.024 13.9884 19.8822C13.1334 20.5172 12.6796 21.1366 12.546 22.2428C12.5404 23.057 12.7488 24.2091 13.8914 24.9774C14.0247 25.0619 14.1555 25.1369 14.2839 25.2024C14.4835 25.4619 14.7265 25.688 15.003 25.8716C16.1192 26.5782 17.0545 26.6275 18.2505 26.1686C19.048 25.8618 19.6483 25.1704 19.9267 24.4043C20.1016 23.9258 20.0993 23.4443 20.0993 22.9463V8.77979H22.8828C22.9979 9.43386 23.3162 10.365 24.1577 11.2872C24.4953 11.6354 24.8756 11.9432 25.2902 12.204C25.4127 12.3307 26.039 12.9573 26.843 13.3419C27.2587 13.5407 27.6969 13.693 28.1489 13.7959Z" fill="white"/>
<path d="M9.15833 24.7771V24.7793L9.22739 24.9665C9.21946 24.9447 9.19379 24.8785 9.15833 24.7771Z" fill="#69C9D0"/>
<path d="M14.3084 17.112C13.5957 17.3758 12.9337 17.7514 12.3497 18.2236C11.6877 18.772 11.1301 19.4265 10.7019 20.1578C10.5399 20.4246 9.92756 21.494 9.85286 23.2348C9.81065 24.2214 10.1196 25.2401 10.2667 25.6643C10.2665 25.6654 10.2665 25.6664 10.2667 25.6674C10.3595 25.9093 10.7218 26.7648 11.3152 27.4905C11.4875 27.7008 11.6723 27.9016 11.8686 28.0917C11.2396 27.6747 10.6787 27.1706 10.2041 26.5959C9.6158 25.8786 9.253 25.032 9.15836 24.7821C9.15825 24.7804 9.15825 24.7786 9.15836 24.7768V24.7737C9.01083 24.3499 8.70093 23.3308 8.74407 22.3428C8.81876 20.602 9.43115 19.5335 9.59306 19.2658C10.0212 18.5344 10.5788 17.8799 11.2409 17.3316C11.8248 16.8593 12.4868 16.4836 13.1997 16.22C13.6443 16.0432 14.1075 15.9128 14.5812 15.8309C15.2952 15.7115 16.0244 15.7011 16.7418 15.8003V16.6229C15.9056 16.636 15.0797 16.802 14.3084 17.112Z" fill="#69C9D0"/>
<path d="M22.8851 8.77964H20.1015V22.9466C20.1015 23.4446 20.1015 23.9248 19.9289 24.4046C19.6478 25.1703 19.0498 25.8617 18.2528 26.1685C17.0563 26.6291 16.121 26.578 15.0052 25.8715C14.7283 25.6887 14.4847 25.4633 14.2843 25.2045C15.2349 25.6905 16.0857 25.682 17.1398 25.2765C17.9364 24.9697 18.5353 24.2783 18.8155 23.5122C18.9909 23.0337 18.9886 22.5522 18.9886 22.0546V7.88501H22.8322C22.8322 7.88501 22.7891 8.23717 22.8851 8.77964ZM28.1489 13.0074V13.7957C27.6976 13.6927 27.2602 13.5404 26.8452 13.3417C26.0412 12.9571 25.4149 12.3306 25.2924 12.2039C25.4346 12.2933 25.582 12.3747 25.7341 12.4475C26.7116 12.9153 27.6743 13.0549 28.1489 13.0074Z" fill="#69C9D0"/>
</g>
<rect x="0.578125" y="0.578125" width="36.8438" height="36.8438" rx="18.4219" stroke="white" stroke-width="0.84375"/>
<defs>
<clipPath id="clip0_25009_367491">
<rect x="1" y="1" width="36" height="36" rx="18" fill="white"/>
</clipPath>
</defs>
</svg>
