<svg width="41" height="42" viewBox="0 0 41 42" fill="none" xmlns="http://www.w3.org/2000/svg">
<path d="M38.4375 12.4077H2.5625C1.14736 12.4077 0 13.5551 0 14.9702V31.6265C0 33.0416 1.14736 34.189 2.5625 34.189H38.4375C39.8526 34.189 41 33.0416 41 31.6265V14.9702C41 13.5551 39.8526 12.4077 38.4375 12.4077Z" fill="#576D7E"/>
<path d="M2.5625 12.4077H37.7969C37.7969 13.1156 37.2235 13.689 36.5156 13.689H3.84375C3.13586 13.689 2.5625 13.1156 2.5625 12.4077Z" fill="#748B9E"/>
<path d="M5.76562 17.5327C6.11943 17.5327 6.40625 17.2459 6.40625 16.8921C6.40625 16.5383 6.11943 16.2515 5.76562 16.2515C5.41182 16.2515 5.125 16.5383 5.125 16.8921C5.125 17.2459 5.41182 17.5327 5.76562 17.5327Z" fill="#84BD5A"/>
<path d="M3.20312 17.5327C3.55693 17.5327 3.84375 17.2459 3.84375 16.8921C3.84375 16.5383 3.55693 16.2515 3.20312 16.2515C2.84932 16.2515 2.5625 16.5383 2.5625 16.8921C2.5625 17.2459 2.84932 17.5327 3.20312 17.5327Z" fill="#84BD5A"/>
<path d="M6.40625 23.2983H34.5938C34.9474 23.2983 35.2344 23.5853 35.2344 23.939V25.8608C35.2344 26.2145 34.9474 26.5015 34.5938 26.5015H6.40625C6.05263 26.5015 5.76562 26.2145 5.76562 25.8608V23.939C5.76562 23.5853 6.05263 23.2983 6.40625 23.2983Z" fill="#123247"/>
<path d="M35.2344 12.4075H5.76562L6.84188 7.03263C6.96295 6.42404 7.50236 5.98905 8.12313 6.00123H32.9025C33.5233 5.98905 34.0627 6.42404 34.1838 7.03263L35.2344 12.4075Z" fill="#35495C"/>
<path d="M32.6719 3.43896C32.6719 2.73107 32.0985 2.15771 31.3906 2.15771H9.60938C8.90148 2.15771 8.32812 2.73107 8.32812 3.43896V12.4077H32.6719V3.43896Z" fill="#E2E7F0"/>
<path d="M8.32812 39.314C8.32812 40.0219 8.90148 40.5952 9.60938 40.5952H31.3906C32.0985 40.5952 32.6719 40.0219 32.6719 39.314V26.5015H8.32812V39.314Z" fill="#E2E7F0"/>
<path d="M11.5312 29.7046H29.4688C29.8224 29.7046 30.1094 29.9916 30.1094 30.3452C30.1094 30.6988 29.8224 30.9858 29.4688 30.9858H11.5312C11.1776 30.9858 10.8906 30.6988 10.8906 30.3452C10.8906 29.9916 11.1776 29.7046 11.5312 29.7046Z" fill="#9DACBA"/>
<path d="M11.5312 36.1108H21.7812C22.1349 36.1108 22.4219 36.3978 22.4219 36.7515C22.4219 37.1051 22.1349 37.3921 21.7812 37.3921H11.5312C11.1776 37.3921 10.8906 37.1051 10.8906 36.7515C10.8906 36.3978 11.1776 36.1108 11.5312 36.1108Z" fill="#9DACBA"/>
<path d="M11.5312 32.9077H29.4688C29.8224 32.9077 30.1094 33.1947 30.1094 33.5483C30.1094 33.902 29.8224 34.189 29.4688 34.189H11.5312C11.1776 34.189 10.8906 33.902 10.8906 33.5483C10.8906 33.1947 11.1776 32.9077 11.5312 32.9077Z" fill="#9DACBA"/>
<path d="M8.32812 16.2515H12.1719C12.5255 16.2515 12.8125 16.5385 12.8125 16.8921C12.8125 17.2457 12.5255 17.5327 12.1719 17.5327H8.32812C7.9745 17.5327 7.6875 17.2457 7.6875 16.8921C7.6875 16.5385 7.9745 16.2515 8.32812 16.2515Z" fill="#35495C"/>
</svg>
