<svg width="90" height="79" viewBox="0 0 90 79" fill="none" xmlns="http://www.w3.org/2000/svg">
<path d="M44.9998 78.6567C69.6335 78.6567 89.6031 74.9253 89.6031 70.3225C89.6031 65.7196 69.6335 61.9883 44.9998 61.9883C20.3661 61.9883 0.396484 65.7196 0.396484 70.3225C0.396484 74.9253 20.3661 78.6567 44.9998 78.6567Z" fill="#F8F9FB"/>
<path fill-rule="evenodd" clip-rule="evenodd" d="M80.6828 45.8385L64.9427 26.4667C64.1874 25.5549 63.0835 25.0029 61.921 25.0029H28.0789C26.917 25.0029 25.8131 25.5549 25.0578 26.4667L9.31836 45.8385V55.9588H80.6835V45.8385H80.6828Z" fill="#A1ACB8"/>
<path fill-rule="evenodd" clip-rule="evenodd" d="M22.6531 0H67.3458C68.0438 0 68.7131 0.277255 69.2066 0.770772C69.7002 1.26429 69.9774 1.93364 69.9774 2.63158V64.0421C69.9774 64.74 69.7002 65.4094 69.2066 65.9029C68.7131 66.3964 68.0438 66.6737 67.3458 66.6737H22.6531C21.9551 66.6737 21.2858 66.3964 20.7923 65.9029C20.2987 65.4094 20.0215 64.74 20.0215 64.0421V2.63158C20.0215 1.93364 20.2987 1.26429 20.7923 0.770772C21.2858 0.277255 21.9551 0 22.6531 0V0Z" fill="#F8F9FB"/>
<path d="M61.5243 6.54785H28.4736C28.1247 6.54785 27.79 6.68648 27.5432 6.93324C27.2965 7.18 27.1579 7.51467 27.1579 7.86364V24.2827C27.1579 24.6317 27.2965 24.9664 27.5432 25.2131C27.79 25.4599 28.1247 25.5985 28.4736 25.5985H61.5243C61.8733 25.5985 62.208 25.4599 62.4547 25.2131C62.7015 24.9664 62.8401 24.6317 62.8401 24.2827V7.86364C62.8401 7.51467 62.7015 7.18 62.4547 6.93324C62.208 6.68648 61.8733 6.54785 61.5243 6.54785Z" fill="#D2D8E0"/>
<path d="M61.3519 32.7413H28.646C28.2513 32.7413 27.8728 32.8981 27.5937 33.1771C27.3146 33.4562 27.1579 33.8347 27.1579 34.2294C27.1579 34.6241 27.3146 35.0026 27.5937 35.2817C27.8728 35.5608 28.2513 35.7176 28.646 35.7176H61.3519C61.7466 35.7176 62.1251 35.5608 62.4042 35.2817C62.6833 35.0026 62.8401 34.6241 62.8401 34.2294C62.8401 33.8347 62.6833 33.4562 62.4042 33.1771C62.1251 32.8981 61.7466 32.7413 61.3519 32.7413Z" fill="#D2D8E0"/>
<path d="M61.3519 40.4801H28.646C28.2512 40.4801 27.8726 40.6369 27.5935 40.9161C27.3143 41.1952 27.1575 41.5738 27.1575 41.9686C27.1575 42.3633 27.3143 42.7419 27.5935 43.0211C27.8726 43.3002 28.2512 43.4571 28.646 43.4571H61.3519C61.7467 43.4571 62.1253 43.3002 62.4045 43.0211C62.6836 42.7419 62.8404 42.3633 62.8404 41.9686C62.8404 41.5738 62.6836 41.1952 62.4045 40.9161C62.1253 40.6369 61.7467 40.4801 61.3519 40.4801Z" fill="#D2D8E0"/>
<path d="M76.1052 72.6261C78.2355 72.6261 80.0263 71.1202 80.5362 69.0998C80.6309 68.7229 80.6815 68.3288 80.6815 67.9228V45.838H63.3671C61.4546 45.838 59.9131 47.4525 59.9131 49.4077V49.4156C59.9131 51.3709 58.3539 52.9636 56.4414 52.9636H33.5565C31.644 52.9636 30.0848 51.3853 30.0848 49.4307V49.4044C30.0848 47.4492 28.5434 45.8386 26.6309 45.8386H9.31641V67.9222C9.31628 68.3193 9.36534 68.7148 9.46246 69.0998C9.97167 71.1196 11.7625 72.6261 13.8927 72.6261H76.1052Z" fill="#D2D8E0"/>
</svg>
