<svg width="72" height="74" viewBox="0 0 72 74" fill="none" xmlns="http://www.w3.org/2000/svg">
<path opacity="0.7" d="M35.9359 0.360352L53.7792 9.54058L71.6968 18.6484L53.7785 27.8364L35.9353 37.0166L18.092 27.8364L0.175049 18.651L18.0927 9.54058L35.9359 0.360352Z" fill="#E7EDF4"/>
<path opacity="0.7" d="M19.6602 8.72168L55.4204 27.0123L52.2099 28.6551L16.4497 10.3644L19.6602 8.72168Z" fill="white"/>
<path opacity="0.7" d="M71.6965 55.3826V18.6514L53.7789 27.8316L35.9357 37.0118V73.6681L71.6965 55.3826Z" fill="#D3DBE3"/>
<path opacity="0.7" d="M50.4189 34.4041L58.7807 30.2982C59.0577 30.1442 59.3634 30.049 59.6788 30.0185C59.9942 29.988 60.3125 30.0229 60.6138 30.121C60.9152 30.2191 61.193 30.3784 61.43 30.5887C61.667 30.7991 61.858 31.056 61.9912 31.3436C62.1776 31.9901 62.13 32.6816 61.8569 33.2965C61.5837 33.9114 61.1025 34.4103 60.4978 34.7054L52.211 38.8112C51.9341 38.9652 51.6283 39.0605 51.3129 39.0909C50.9975 39.1214 50.6792 39.0865 50.3779 38.9884C50.0766 38.8903 49.7988 38.7311 49.5618 38.5207C49.3248 38.3104 49.1337 38.0534 49.0005 37.7659C48.7749 37.1296 48.7953 36.4319 49.0578 35.8099C49.3202 35.1879 49.8057 34.6865 50.4189 34.4041Z" fill="#A3ADBC"/>
<path opacity="0.7" d="M35.9359 73.6733V37.017L18.0927 27.8368L0.175049 18.6514V55.3826L35.9359 73.6733Z" fill="#BBC3CE"/>
</svg>
