<svg width="37" height="36" viewBox="0 0 37 36" fill="none" xmlns="http://www.w3.org/2000/svg">
<path d="M0.199219 18C0.199219 8.05888 8.25809 0 18.1992 0C28.1403 0 36.1992 8.05888 36.1992 18C36.1992 27.9411 28.1403 36 18.1992 36C8.25809 36 0.199219 27.9411 0.199219 18Z" fill="url(#paint0_linear_11993_136445)"/>
<path d="M23.9216 9.667H12.876C12.5199 9.66732 12.1785 9.80883 11.9266 10.0605C11.6747 10.3122 11.5329 10.6535 11.5322 11.0096V24.9899C11.5322 25.1663 11.567 25.3411 11.6345 25.5041C11.702 25.6671 11.801 25.8153 11.9258 25.9401C12.0506 26.0648 12.1987 26.1638 12.3618 26.2314C12.5248 26.2989 12.6996 26.3336 12.876 26.3336H23.9216C24.0989 26.3344 24.2746 26.3001 24.4386 26.2327C24.6025 26.1653 24.7516 26.0662 24.877 25.9409C25.0025 25.8157 25.1019 25.6668 25.1696 25.503C25.2373 25.3391 25.2719 25.1635 25.2715 24.9862V11.0096C25.2711 10.8328 25.236 10.6577 25.1679 10.4945C25.0999 10.3313 25.0003 10.1831 24.875 10.0584C24.7496 9.93368 24.6009 9.83492 24.4373 9.76777C24.2737 9.70061 24.0985 9.66637 23.9216 9.667ZM15.4009 15.9412H21.3714C21.4557 15.9266 21.5422 15.9301 21.625 15.9515C21.7078 15.9729 21.7852 16.0116 21.8519 16.0652C21.9186 16.1188 21.9731 16.186 22.0118 16.2622C22.0505 16.3385 22.0725 16.4222 22.0764 16.5076C22.0803 16.5931 22.0659 16.6784 22.0343 16.7579C22.0027 16.8374 21.9544 16.9092 21.8929 16.9686C21.8313 17.028 21.7578 17.0736 21.6773 17.1024C21.5967 17.1312 21.5109 17.1425 21.4257 17.1356H15.3997C15.3154 17.1502 15.229 17.1467 15.1461 17.1254C15.0633 17.104 14.986 17.0652 14.9193 17.0116C14.8526 16.9581 14.7981 16.8909 14.7593 16.8146C14.7206 16.7383 14.6986 16.6547 14.6947 16.5692C14.6908 16.4837 14.7052 16.3984 14.7368 16.319C14.7685 16.2395 14.8167 16.1676 14.8783 16.1082C14.9398 16.0488 15.0133 16.0032 15.0939 15.9744C15.1744 15.9456 15.2602 15.9343 15.3455 15.9412C15.3639 15.9399 15.3824 15.9399 15.4009 15.9412ZM14.7983 19.5243C14.7983 19.3645 14.8618 19.2112 14.9748 19.0982C15.0878 18.9852 15.2411 18.9217 15.4009 18.9217H21.3714C21.516 18.9412 21.6485 19.0125 21.7445 19.1223C21.8405 19.2321 21.8934 19.373 21.8934 19.5189C21.8934 19.6647 21.8405 19.8056 21.7445 19.9154C21.6485 20.0252 21.516 20.0965 21.3714 20.116H15.4009C15.2438 20.1148 15.0934 20.0523 14.9817 19.9417C14.87 19.8312 14.806 19.6814 14.8031 19.5243H14.7983ZM14.8574 22.4421C14.8574 22.2823 14.9208 22.129 15.0339 22.016C15.1469 21.903 15.3001 21.8395 15.46 21.8395H21.4257C21.5702 21.859 21.7028 21.9303 21.7987 22.0401C21.8947 22.1499 21.9476 22.2908 21.9476 22.4366C21.9476 22.5825 21.8947 22.7234 21.7987 22.8332C21.7028 22.943 21.5702 23.0143 21.4257 23.0338H15.4539C15.297 23.0323 15.1469 22.9696 15.0355 22.8591C14.9241 22.7486 14.8602 22.599 14.8574 22.4421Z" fill="white"/>
<defs>
<linearGradient id="paint0_linear_11993_136445" x1="26.5" y1="5" x2="11.5" y2="36" gradientUnits="userSpaceOnUse">
<stop stop-color="#FD3D3D"/>
<stop offset="1" stop-color="#FD3D3D" stop-opacity="0.5"/>
</linearGradient>
</defs>
</svg>
