<svg width="46" height="45" viewBox="0 0 46 45" fill="none" xmlns="http://www.w3.org/2000/svg">
<path d="M22.2103 42.8604H21.8925L13.9659 39.0363C10.5022 37.3644 7.03813 35.6929 3.57376 34.0216C3.43442 33.978 3.30958 33.8973 3.21264 33.7881C3.11569 33.6789 3.05029 33.5454 3.02344 33.4019C3.02812 33.2697 3.03751 33.1376 3.03751 33.0054C3.03751 26.0016 3.03751 18.9982 3.03751 11.995C3.03751 11.8629 3.02812 11.7307 3.02344 11.5985L3.11719 11.3604C3.24929 11.3686 3.37765 11.4075 3.49219 11.4738C5.78281 12.5794 8.07345 13.685 10.3641 14.7907C14.3122 16.6982 18.26 18.6066 22.2075 20.516C22.2088 27.9641 22.2097 35.4122 22.2103 42.8604ZM11.7206 29.8291C11.7206 29.5254 11.5941 29.3416 11.2416 29.1682C10.7306 28.9169 10.2169 28.6722 9.70501 28.4257C8.48876 27.84 7.2728 27.2541 6.05718 26.6679C5.93876 26.5931 5.80044 26.556 5.6605 26.5615C5.52056 26.5671 5.38559 26.6149 5.27343 26.6988C5.1721 26.7754 5.09572 26.8803 5.05385 27.0002C5.01198 27.1202 5.00651 27.2498 5.03814 27.3729C5.06781 27.4888 5.12635 27.5954 5.20831 27.6826C5.29028 27.7698 5.393 27.8348 5.50689 27.8716C6.90127 28.5441 8.29501 29.2179 9.68813 29.8929C10.0575 30.071 10.4203 30.2679 10.8 30.4197C10.8986 30.4687 11.0082 30.4912 11.1181 30.4852C11.2281 30.4792 11.3345 30.4449 11.4272 30.3855C11.5199 30.3261 11.5957 30.2438 11.6471 30.1464C11.6985 30.0491 11.7239 29.9401 11.7206 29.8301V29.8291ZM9.15281 31.4632C9.12987 31.331 9.07273 31.207 8.98704 31.1037C8.90135 31.0004 8.79009 30.9214 8.66437 30.8744C7.78312 30.4479 6.90376 30.0176 6.0197 29.5957C5.94663 29.5493 5.86503 29.518 5.77969 29.5037C5.69435 29.4893 5.60698 29.4922 5.52277 29.5121C5.43856 29.532 5.35918 29.5686 5.28931 29.6197C5.21944 29.6707 5.16049 29.7352 5.11593 29.8094C5.06662 29.8853 5.03414 29.9709 5.02066 30.0604C5.00718 30.1499 5.01304 30.2412 5.03783 30.3283C5.06261 30.4153 5.10575 30.496 5.16434 30.565C5.22293 30.634 5.29562 30.6896 5.37752 30.7282C6.33189 31.2147 7.29657 31.6816 8.27439 32.1204C8.37666 32.1594 8.48712 32.1719 8.59554 32.1568C8.70395 32.1417 8.80679 32.0995 8.89451 32.034C8.98224 31.9686 9.05198 31.882 9.0973 31.7824C9.14263 31.6827 9.16204 31.5732 9.15375 31.4641L9.15281 31.4632Z" fill="url(#paint0_linear_11478_46860)"/>
<path d="M22.2109 42.8613C22.2109 35.4132 22.2109 27.9647 22.2109 20.516L24.0016 19.6572C25.2907 19.0385 26.5853 18.43 27.8678 17.7972C28.4985 17.522 29.1093 17.2034 29.6959 16.8438L29.8291 16.8616C29.8291 19.1779 29.8319 21.4941 29.8375 23.8104C29.8375 24.4057 29.9866 24.4938 30.5313 24.2332C31.75 23.6491 32.9566 23.0482 34.1875 22.4876C34.4036 22.406 34.5865 22.2548 34.7073 22.058C34.8281 21.8611 34.8801 21.6297 34.855 21.4001C34.8381 19.2438 34.8485 17.0875 34.8466 14.9313C34.8733 14.7727 34.8531 14.6098 34.7885 14.4625C34.7904 14.4382 34.7904 14.4138 34.7885 14.3894C34.9471 14.3779 35.1004 14.3274 35.2347 14.2422L40.8888 11.4869C41.0137 11.412 41.1549 11.3685 41.3003 11.3604C41.3772 11.4204 41.3716 11.5132 41.3941 11.5947C41.3894 11.7269 41.3791 11.8591 41.3791 11.9913C41.3791 18.995 41.3791 25.9991 41.3791 33.0035C41.3791 33.1357 41.3885 33.2679 41.3941 33.4C41.3463 33.791 41.0378 33.9288 40.7378 34.0741C35.8778 36.4197 31.0181 38.766 26.1587 41.1128C24.9709 41.6866 23.7906 42.2763 22.6066 42.8585L22.2109 42.8613Z" fill="url(#paint1_linear_11478_46860)"/>
<path d="M41.3039 11.3628C41.1582 11.3708 41.0166 11.4142 40.8914 11.4893L35.2271 14.2418C35.0927 14.3269 34.9394 14.3775 34.7808 14.389C33.5395 13.7934 32.2986 13.1975 31.058 12.6012C26.6961 10.4925 22.3352 8.38183 17.9752 6.26933C17.2112 5.93678 16.4649 5.56505 15.7393 5.1556C15.8771 5.07872 16.0111 4.99434 16.1527 4.92497C18.0658 3.99497 19.9796 3.06652 21.8939 2.13965H22.5305C22.5483 2.15895 22.5685 2.17594 22.5905 2.19026L40.8586 10.9915C41.0472 11.0572 41.2054 11.1891 41.3039 11.3628Z" fill="url(#paint2_linear_11478_46860)"/>
<path d="M3.02386 33.4021H2.99294L2.96387 33.3946V11.6043C2.9829 11.5967 3.00374 11.5947 3.02386 11.5987C3.02855 11.7309 3.03794 11.8631 3.03794 11.9953C3.03794 18.999 3.03794 26.0024 3.03794 33.0056C3.03794 33.1377 3.02855 33.2699 3.02386 33.4021Z" fill="#FEF4D5"/>
<path d="M41.4578 33.3958L41.4278 33.4023H41.3968C41.3921 33.2701 41.3818 33.1379 41.3818 33.0058C41.3818 26.002 41.3818 18.998 41.3818 11.9936C41.3818 11.8614 41.3912 11.7292 41.3968 11.597C41.4174 11.594 41.4383 11.5962 41.4578 11.6036V33.3958Z" fill="#FEF4D5"/>
<path d="M3.11621 11.3599C3.19955 11.2079 3.33407 11.0903 3.4959 11.0281C5.8209 9.90306 8.1459 8.78119 10.4709 7.66244C10.5319 7.63763 10.5946 7.61698 10.6584 7.60059C10.8093 7.68215 10.9575 7.77026 11.1121 7.84526C14.199 9.33651 17.2862 10.8271 20.3737 12.3171C22.3649 13.2771 24.359 14.2315 26.3475 15.1953C27.4659 15.7371 28.5778 16.294 29.6934 16.8443C29.1067 17.2039 28.4959 17.5225 27.8653 17.7978C26.5828 18.4296 25.2881 19.039 23.999 19.6578L22.2084 20.5165L10.365 14.7912C8.07495 13.6849 5.78434 12.5793 3.49309 11.4743C3.37809 11.4074 3.24903 11.3682 3.11621 11.3599Z" fill="url(#paint3_linear_11478_46860)"/>
<path d="M11.7212 29.8296C11.7246 29.9399 11.6995 30.0492 11.6481 30.1468C11.5967 30.2444 11.5208 30.3269 11.428 30.3865C11.3351 30.446 11.2284 30.4804 11.1183 30.4863C11.0081 30.4922 10.8983 30.4695 10.7996 30.4203C10.4246 30.2656 10.0571 30.0715 9.68775 29.8934C8.294 29.2196 6.90022 28.5459 5.50647 27.8721C5.39258 27.8353 5.28989 27.7703 5.20793 27.6831C5.12596 27.5959 5.06739 27.4893 5.03772 27.3734C5.00622 27.2504 5.01177 27.1207 5.05363 27.0008C5.09549 26.8809 5.17181 26.776 5.27304 26.6993C5.3852 26.6155 5.52017 26.5676 5.66011 26.5621C5.80005 26.5565 5.93837 26.5936 6.05679 26.6684C7.27117 27.2565 8.4871 27.8424 9.7046 28.4262C10.2174 28.6728 10.7312 28.9174 11.2412 29.1687C11.5927 29.3421 11.723 29.5259 11.7212 29.8296Z" fill="#FEF4D5"/>
<path d="M9.15388 31.4645C9.16211 31.5736 9.14266 31.6829 9.09738 31.7824C9.0521 31.882 8.98244 31.9684 8.89485 32.0339C8.80725 32.0993 8.70458 32.1416 8.5963 32.1568C8.48802 32.172 8.37766 32.1596 8.27544 32.1208C7.29856 31.683 6.33294 31.2152 5.37856 30.7286C5.29667 30.6901 5.22398 30.6345 5.16539 30.5655C5.1068 30.4965 5.06366 30.4157 5.03888 30.3287C5.01409 30.2416 5.00823 30.1503 5.02171 30.0608C5.03519 29.9713 5.0677 29.8858 5.11701 29.8099C5.16157 29.7357 5.22049 29.6711 5.29036 29.6201C5.36023 29.569 5.4396 29.5325 5.52382 29.5126C5.60803 29.4926 5.6954 29.4897 5.78074 29.5041C5.86608 29.5184 5.94768 29.5497 6.02075 29.5961C6.90481 30.018 7.78417 30.4483 8.66542 30.8749C8.79126 30.9219 8.90259 31.0011 8.98829 31.1045C9.07399 31.208 9.1311 31.3321 9.15388 31.4645Z" fill="#FEE07D"/>
<path d="M29.6932 16.843C28.5785 16.2927 27.4667 15.7358 26.3473 15.194C24.3579 14.2302 22.3639 13.2768 20.3735 12.3159C17.286 10.8265 14.1988 9.33585 11.112 7.84397C10.9573 7.76897 10.8091 7.6818 10.6582 7.5993C12.341 6.76211 14.0229 5.92398 15.7376 5.1543C16.4632 5.56388 17.2095 5.93562 17.9736 6.26804C22.3323 8.38241 26.6932 10.493 31.0563 12.5999C32.2957 13.1993 33.5366 13.7952 34.7791 14.3877C34.781 14.4121 34.781 14.4365 34.7791 14.4609C34.5035 14.5874 34.2251 14.7093 33.9523 14.8415C32.5732 15.5081 31.226 16.2402 29.8273 16.8599L29.6932 16.843Z" fill="#FB4E59"/>
<path d="M29.8271 16.8629C31.2334 16.2432 32.5759 15.5101 33.9522 14.8445C34.225 14.7123 34.5034 14.5904 34.7791 14.4639C34.8437 14.6111 34.8639 14.774 34.8372 14.9326C34.8372 17.0889 34.8287 19.2451 34.8456 21.4014C34.8709 21.631 34.819 21.8625 34.6981 22.0594C34.5772 22.2563 34.3943 22.4074 34.1781 22.4889C32.9509 23.0514 31.7406 23.6504 30.5219 24.2345C29.9781 24.496 29.83 24.407 29.829 23.8117C29.829 21.4917 29.8284 19.1754 29.8271 16.8629Z" fill="#FB4E59"/>
<defs>
<linearGradient id="paint0_linear_11478_46860" x1="5.68963" y1="15.8036" x2="15.2996" y2="35.6061" gradientUnits="userSpaceOnUse">
<stop stop-color="#F9C02B"/>
<stop offset="1" stop-color="#FC9B24"/>
</linearGradient>
<linearGradient id="paint1_linear_11478_46860" x1="40.6671" y1="21.6852" x2="18.2283" y2="28.4092" gradientUnits="userSpaceOnUse">
<stop stop-color="#F9AD1F"/>
<stop offset="1" stop-color="#F9CC2E"/>
</linearGradient>
<linearGradient id="paint2_linear_11478_46860" x1="28.5216" y1="2.13965" x2="28.5216" y2="14.389" gradientUnits="userSpaceOnUse">
<stop stop-color="#F9CC2E"/>
<stop offset="1" stop-color="#FDC536"/>
</linearGradient>
<linearGradient id="paint3_linear_11478_46860" x1="16.4048" y1="7.60059" x2="16.4048" y2="20.5165" gradientUnits="userSpaceOnUse">
<stop stop-color="#F9CC2E"/>
<stop offset="1" stop-color="#FDC536"/>
</linearGradient>
</defs>
</svg>
