<svg width="32" height="32" viewBox="0 0 32 32" fill="none" xmlns="http://www.w3.org/2000/svg">
<path d="M6.25001 24.1334C5.77501 24.1334 5.29167 24.1417 4.81667 24.1417C3.77501 24.1334 2.97501 23.4334 2.82501 22.4C2.49167 20.125 2.15834 17.85 1.83334 15.575C1.54167 13.575 1.25 11.575 0.958337 9.58336C0.850003 8.8167 1.41667 8.17503 2.23334 8.13337C2.40834 8.12503 2.58334 8.12503 2.76667 8.1167C2.78334 8.1167 2.80834 8.1167 2.82501 8.1167C2.91667 8.2167 3.04167 8.17503 3.15001 8.17503C11.725 8.17503 20.2917 8.17503 28.8667 8.17503C28.975 8.17503 29.1 8.2167 29.1917 8.1167C29.2084 8.1167 29.2334 8.1167 29.25 8.1167C29.5167 8.15003 29.7917 8.10837 30.0584 8.17503C30.7 8.3167 31.1417 8.90003 31.05 9.55836C30.825 11.1917 30.575 12.8167 30.3334 14.45C30.0917 16.1 29.8584 17.75 29.6167 19.4C29.4667 20.4334 29.3334 21.475 29.1667 22.5084C29.0084 23.475 28.1917 24.1417 27.2167 24.15C26.725 24.1584 26.2417 24.1417 25.75 24.1417C25.75 24.0084 25.7667 23.875 25.7834 23.7417C25.8584 23.275 25.925 22.8084 25.9334 22.325C25.9417 21.6584 25.9167 21 25.8084 20.35C25.5917 19.0667 25.1417 17.875 24.4584 16.775C23.6334 15.4417 22.55 14.3667 21.2084 13.5417C19.6834 12.6 18.0167 12.125 16.2333 12.0667C15.0667 12.0334 13.9333 12.2334 12.8167 12.6C11.4333 13.0584 10.2333 13.8 9.16668 14.7834C8.21668 15.6667 7.47501 16.7167 6.94168 17.9C6.21667 19.5084 5.92501 21.1834 6.10834 22.95C6.15834 23.3334 6.27501 23.725 6.25001 24.1334Z" fill="#FED450"/>
<path d="M2.76666 7.17501C2.76666 5.53335 2.75833 3.89168 2.75833 2.25002C2.75833 1.65002 3.275 1.13335 3.88333 1.13335C5.50833 1.11668 7.13333 1.11668 8.75833 1.13335C9.40833 1.14168 9.875 1.65002 9.89166 2.30002C9.89166 2.48335 9.89166 2.67502 9.89166 2.85835C9.89166 3.46668 10.0417 3.61668 10.6417 3.61668C16.4083 3.61668 22.175 3.61668 27.9417 3.61668C28.35 3.61668 28.7 3.72501 28.975 4.03335C29.1583 4.23335 29.2583 4.46668 29.2583 4.74168C29.2583 5.55001 29.2583 6.35835 29.25 7.17501C20.4167 7.17501 11.5917 7.17501 2.76666 7.17501Z" fill="#FED450"/>
<path d="M24.7333 24.125C24.9083 23.2333 24.9833 22.3416 24.9417 21.4333C24.8417 19.5416 24.1833 17.8583 23 16.375C21.95 15.0666 20.625 14.1166 19.0417 13.55C17.7583 13.0916 16.4417 12.9333 15.0917 13.075C12.8417 13.3083 10.95 14.2583 9.425 15.9C8.14166 17.275 7.37499 18.9 7.13333 20.775C6.99166 21.9 7.06666 23.0083 7.27499 24.1166C6.93333 24.1166 6.59999 24.125 6.25833 24.125C6.27499 23.7166 6.15833 23.325 6.11666 22.925C5.93333 21.1666 6.23333 19.4833 6.94999 17.875C7.48333 16.6916 8.225 15.6416 9.175 14.7583C10.2333 13.775 11.4417 13.0333 12.825 12.575C13.9333 12.2083 15.075 12 16.2417 12.0416C18.025 12.1 19.6917 12.575 21.2167 13.5166C22.5583 14.3416 23.6333 15.425 24.4667 16.75C25.15 17.85 25.6 19.0416 25.8167 20.325C25.925 20.9833 25.9583 21.6416 25.9417 22.3C25.9333 22.775 25.8667 23.2416 25.7917 23.7166C25.7667 23.85 25.7583 23.9833 25.7583 24.1166C25.4083 24.1333 25.075 24.125 24.7333 24.125Z" fill="#FCD768"/>
<path d="M2.76667 7.17505C11.5917 7.17505 20.4167 7.17505 29.2417 7.17505C29.2417 7.48338 29.2417 7.80005 29.25 8.10838C29.2333 8.10838 29.2083 8.10838 29.1917 8.10838C20.4 8.10838 11.6167 8.10838 2.82501 8.10838C2.80834 8.10838 2.78334 8.10838 2.76667 8.10838C2.75834 7.80005 2.75834 7.49172 2.76667 7.17505Z" fill="#FEAE57"/>
<path d="M2.81667 8.1167C11.6083 8.1167 20.3917 8.1167 29.1833 8.1167C29.0917 8.21669 28.9667 8.17503 28.8583 8.17503C20.2833 8.17503 11.7167 8.17503 3.14167 8.17503C3.03333 8.17503 2.90833 8.21669 2.81667 8.1167Z" fill="#FED872"/>
<path fill-rule="evenodd" clip-rule="evenodd" d="M23.2669 27.225C23.9752 26.3 24.4086 25.2334 24.7336 24.125C24.9086 23.2334 24.9836 22.3417 24.9336 21.4417C24.8336 19.5417 24.1752 17.8584 22.9919 16.3834C21.9419 15.0667 20.6169 14.125 19.0336 13.5584C17.7586 13.1 16.4419 12.9417 15.0836 13.0834C12.8419 13.3167 10.9502 14.2667 9.41689 15.9084C8.13356 17.2834 7.36689 18.9084 7.12522 20.7834C6.97522 21.9084 7.05856 23.0167 7.26689 24.125C7.28356 24.175 7.30022 24.223 7.31689 24.2709C7.33356 24.3188 7.35022 24.3667 7.36689 24.4167C8.48356 27.9167 10.8336 30.125 14.4419 30.7667C18.0502 31.4084 21.0252 30.1334 23.2669 27.225ZM15.9333 18.3718C15.9396 18.4918 15.9564 18.6152 15.9836 18.7417C15.9906 18.7713 15.9948 18.7985 15.9962 18.8237C15.9951 18.7965 15.9908 18.7666 15.9833 18.7334C15.9565 18.61 15.9398 18.4894 15.9333 18.3718ZM10.4636 21.889C10.3931 22.612 10.6942 23.2098 11.3086 23.6167C11.9836 24.0667 12.6919 24.0834 13.3919 23.65C13.5419 23.5584 13.6419 23.5334 13.8002 23.6417C14.4669 24.0834 15.1419 24.5167 15.8169 24.9417C15.9193 25.0057 15.9823 25.0648 15.9873 25.1717C15.9853 25.0595 15.9216 24.999 15.8166 24.9334C15.1416 24.5084 14.4666 24.0751 13.8 23.6334C13.6416 23.5251 13.5416 23.5501 13.3916 23.6417C12.6916 24.0751 11.9833 24.0584 11.3083 23.6084C10.6963 23.2031 10.4027 22.6082 10.4636 21.889ZM15.9488 25.4466C15.8289 26.5611 16.692 27.5425 17.8416 27.5584C18.65 27.5667 19.4166 27.0251 19.675 26.2584C19.88 25.6497 19.7599 24.9967 19.3866 24.4963C19.7643 24.9957 19.8809 25.656 19.6752 26.2667C19.4169 27.0334 18.6586 27.575 17.8419 27.5667C16.6897 27.5508 15.8179 26.5575 15.9488 25.4466ZM14.2202 22.5897C14.2237 22.577 14.2282 22.5639 14.2336 22.55C14.3251 22.2753 14.3468 21.9865 14.273 21.7094C14.3393 21.984 14.324 22.2697 14.2333 22.5418C14.2277 22.5586 14.2233 22.5746 14.2202 22.5897ZM14.229 21.5396C14.2179 21.4251 14.2766 21.3569 14.3836 21.2834C15.0419 20.8417 15.6919 20.3917 16.3336 19.9334C16.5086 19.8084 16.6252 19.8 16.8169 19.925C17.4419 20.3334 18.1169 20.3667 18.7669 20.0084C18.9065 19.9296 19.0315 19.8413 19.1419 19.7433C19.0314 19.8392 18.9063 19.9249 18.7666 20.0001C18.1083 20.3584 17.4416 20.3251 16.8166 19.9168C16.625 19.7918 16.5083 19.8001 16.3333 19.9251C15.6916 20.3834 15.0416 20.8334 14.3833 21.2751C14.2669 21.3504 14.2124 21.4201 14.229 21.5396Z" fill="#F85353"/>
<path fill-rule="evenodd" clip-rule="evenodd" d="M14.7525 20.1869C14.5159 20.4713 14.2812 20.7535 13.9836 20.9767C13.9347 21.0582 13.9416 21.1477 13.9498 21.2529L13.9503 21.26V23.9933C13.9503 24.0621 13.9644 24.1308 13.9784 24.1996C13.9831 24.2225 13.9878 24.2454 13.992 24.2683C14.0099 24.2786 14.0293 24.288 14.0491 24.2976C14.094 24.3194 14.1406 24.342 14.1753 24.3767C14.6336 24.7767 15.1586 24.9183 15.7586 24.91C16.5524 24.8975 17.3462 24.8991 18.1399 24.9006C18.4045 24.9011 18.6691 24.9017 18.9337 24.9017C19.367 24.9017 19.592 24.6517 19.567 24.21L19.567 24.21C19.5587 24.0433 19.5503 23.8767 19.5503 23.71C19.5503 23.5849 19.5501 23.4599 19.55 23.3351C19.549 22.587 19.5479 21.8432 19.5837 21.0933C19.6087 20.535 19.3837 20.335 18.842 20.335H17.2503C16.6753 20.335 16.667 20.335 16.9086 19.81C17.242 19.085 17.2503 18.3683 16.917 17.6433C16.817 17.435 16.6836 17.2933 16.4336 17.3433C16.1753 17.3933 16.117 17.585 16.117 17.81C16.1086 18.185 15.992 18.5183 15.8336 18.8517C15.6659 19.1872 15.4074 19.4599 15.1541 19.7272C15.1305 19.7521 15.107 19.7769 15.0836 19.8017C14.9688 19.927 14.8605 20.0572 14.7525 20.1869ZM13.9414 21.2142C13.9405 21.1286 13.9396 21.0495 13.9833 20.9767C13.9833 20.951 13.9823 20.9254 13.9814 20.9004C13.9796 20.8523 13.9778 20.8067 13.9833 20.7683C14.025 20.485 13.9166 20.385 13.625 20.4017C13.1583 20.4267 12.6917 20.4183 12.225 20.41C12.075 20.41 12 20.4433 12 20.6183V24.5683C12 24.71 12.05 24.7683 12.2 24.7683C12.5447 24.7628 12.8932 24.7646 13.2404 24.7665C13.4136 24.7674 13.5864 24.7683 13.7583 24.7683C13.9166 24.7683 13.9833 24.7017 13.9833 24.5433C13.9777 24.4763 13.9796 24.4131 13.9815 24.3511C13.9824 24.3205 13.9833 24.2903 13.9833 24.26C13.9791 24.2371 13.9745 24.2142 13.9698 24.1913C13.9557 24.1225 13.9416 24.0538 13.9416 23.985V21.2517C13.9416 21.239 13.9415 21.2265 13.9414 21.2142Z" fill="white"/>
</svg>
