<svg width="46" height="49" viewBox="0 0 46 49" fill="none" xmlns="http://www.w3.org/2000/svg">
<path d="M23.1576 48.3092H22.7815L13.4017 43.784C9.30298 41.8057 5.20384 39.8276 1.10433 37.85C0.939459 37.7984 0.791731 37.7028 0.677011 37.5737C0.562291 37.4445 0.484901 37.2865 0.453125 37.1167C0.458672 36.9603 0.469782 36.8039 0.469782 36.6474C0.469782 28.3597 0.469782 20.0723 0.469782 11.7852C0.469782 11.6288 0.458672 11.4724 0.453125 11.316L0.564069 11.0342C0.720382 11.044 0.872279 11.0899 1.00781 11.1684C3.71839 12.4767 6.42898 13.7851 9.13955 15.0934C13.8115 17.3506 18.4831 19.6089 23.1543 21.8684C23.1558 30.682 23.1569 39.4956 23.1576 48.3092ZM10.7448 32.8889C10.7448 32.5294 10.595 32.312 10.1779 32.1068C9.57329 31.8094 8.96537 31.5199 8.35966 31.2281C6.92043 30.5352 5.48154 29.8418 4.04305 29.1481C3.90293 29.0596 3.73925 29.0157 3.57365 29.0223C3.40805 29.0288 3.24834 29.0854 3.11562 29.1847C2.99571 29.2754 2.90532 29.3995 2.85578 29.5414C2.80623 29.6833 2.79977 29.8367 2.83719 29.9823C2.8723 30.1195 2.94157 30.2456 3.03856 30.3488C3.13556 30.452 3.25711 30.529 3.39188 30.5725C5.04189 31.3683 6.69115 32.1656 8.33968 32.9643C8.77678 33.1751 9.20611 33.4081 9.65541 33.5878C9.77209 33.6457 9.90177 33.6724 10.0318 33.6653C10.1619 33.6582 10.2879 33.6175 10.3976 33.5473C10.5073 33.477 10.597 33.3796 10.6578 33.2644C10.7186 33.1492 10.7486 33.0202 10.7448 32.89V32.8889ZM7.70621 34.8225C7.67907 34.6661 7.61145 34.5194 7.51005 34.3972C7.40865 34.275 7.277 34.1814 7.12823 34.1258C6.08542 33.6211 5.04484 33.1119 3.9987 32.6127C3.91224 32.5578 3.81568 32.5208 3.71469 32.5038C3.6137 32.4868 3.51032 32.4902 3.41067 32.5138C3.31101 32.5373 3.21709 32.5806 3.13441 32.641C3.05173 32.7015 2.98197 32.7778 2.92924 32.8656C2.87089 32.9554 2.83245 33.0566 2.81651 33.1625C2.80056 33.2684 2.80749 33.3766 2.83682 33.4796C2.86614 33.5826 2.91719 33.6781 2.98653 33.7597C3.05586 33.8413 3.14188 33.9072 3.23878 33.9528C4.36813 34.5285 5.50967 35.081 6.66675 35.6002C6.78777 35.6464 6.91849 35.6612 7.04678 35.6433C7.17506 35.6255 7.29676 35.5755 7.40057 35.498C7.50437 35.4206 7.5869 35.3181 7.64053 35.2002C7.69417 35.0823 7.71714 34.9528 7.70733 34.8236L7.70621 34.8225Z" fill="url(#paint0_linear_15868_204459)"/>
<path d="M23.1582 48.3103C23.1582 39.4967 23.1582 30.6827 23.1582 21.8683L25.2771 20.8522C26.8025 20.12 28.3345 19.4 29.8522 18.6511C30.5984 18.3254 31.3213 17.9484 32.0155 17.5229L32.173 17.544C32.173 20.2849 32.1763 23.0258 32.183 25.7667C32.183 26.4711 32.3594 26.5754 33.0039 26.267C34.4461 25.5759 35.8739 24.8648 37.3305 24.2014C37.5862 24.1048 37.8026 23.926 37.9456 23.693C38.0886 23.4601 38.15 23.1862 38.1203 22.9145C38.1004 20.3629 38.1126 17.8113 38.1104 15.2598C38.142 15.0721 38.1181 14.8793 38.0416 14.7051C38.0438 14.6763 38.0438 14.6474 38.0416 14.6186C38.2293 14.605 38.4107 14.5451 38.5697 14.4444L45.2603 11.184C45.4081 11.0953 45.5752 11.0439 45.7473 11.0342C45.8383 11.1052 45.8317 11.215 45.8583 11.3115C45.8527 11.4679 45.8405 11.6244 45.8405 11.7808C45.8405 20.0686 45.8405 28.3567 45.8405 36.6452C45.8405 36.8016 45.8516 36.9581 45.8583 37.1145C45.8017 37.5771 45.4367 37.7402 45.0817 37.9121C39.3307 40.6878 33.58 43.4642 27.8298 46.2413C26.4242 46.9202 25.0275 47.618 23.6264 48.307L23.1582 48.3103Z" fill="url(#paint1_linear_15868_204459)"/>
<path d="M45.7515 11.0361C45.5791 11.0456 45.4115 11.097 45.2634 11.1859L38.5606 14.443C38.4016 14.5437 38.2202 14.6035 38.0325 14.6172C36.5637 13.9123 35.0952 13.2071 33.6272 12.5016C28.4656 10.0062 23.3052 7.50866 18.1459 5.00886C17.2418 4.61534 16.3587 4.17546 15.5 3.69094C15.6631 3.59997 15.8217 3.50013 15.9892 3.41803C18.2531 2.31753 20.5177 1.21887 22.7831 0.12207H23.5363C23.5574 0.144905 23.5812 0.165012 23.6073 0.181961L45.2246 10.5968C45.4477 10.6745 45.635 10.8306 45.7515 11.0361Z" fill="url(#paint2_linear_15868_204459)"/>
<path d="M0.453808 37.1166H0.41721L0.382812 37.1077V11.3225C0.405336 11.3134 0.429996 11.3112 0.453808 11.3159C0.459355 11.4723 0.470465 11.6287 0.470465 11.7851C0.470465 20.0729 0.470465 28.3603 0.470465 36.6473C0.470465 36.8037 0.459355 36.9602 0.453808 37.1166Z" fill="#FEF4D5"/>
<path d="M45.9336 37.1083L45.8981 37.116H45.8615C45.8559 36.9596 45.8438 36.8032 45.8438 36.6468C45.8438 28.359 45.8438 20.0709 45.8438 11.7823C45.8438 11.6259 45.8548 11.4695 45.8615 11.3131C45.8858 11.3095 45.9106 11.3122 45.9336 11.3209V37.1083Z" fill="#FEF4D5"/>
<path d="M0.5625 11.0335C0.661115 10.8536 0.820303 10.7145 1.0118 10.6408C3.76304 9.30956 6.5143 7.98201 9.26555 6.65816C9.33778 6.6288 9.41188 6.60436 9.4874 6.58496C9.66601 6.68148 9.8413 6.78574 10.0243 6.87449C13.6771 8.63914 17.3303 10.403 20.9839 12.1662C23.3402 13.3022 25.6998 14.4316 28.0528 15.572C29.3763 16.2132 30.692 16.8722 32.0122 17.5234C31.318 17.9489 30.5951 18.3259 29.8489 18.6516C28.3312 19.3993 26.7992 20.1204 25.2738 20.8526L23.1549 21.8688L9.14018 15.0938C6.43035 13.7848 3.71979 12.4765 1.00848 11.1689C0.872396 11.0896 0.71967 11.0433 0.5625 11.0335Z" fill="url(#paint3_linear_15868_204459)"/>
<path d="M10.7451 32.8878C10.7492 33.0182 10.7194 33.1475 10.6586 33.263C10.5978 33.3785 10.508 33.4763 10.3981 33.5467C10.2882 33.6171 10.162 33.6578 10.0316 33.6648C9.90131 33.6719 9.77137 33.6449 9.65456 33.5867C9.2108 33.4036 8.77596 33.174 8.33886 32.9632C6.68959 32.1659 5.0403 31.3687 3.39103 30.5714C3.25626 30.5279 3.13474 30.4509 3.03774 30.3477C2.94075 30.2445 2.87144 30.1184 2.83634 29.9812C2.79906 29.8356 2.80563 29.6823 2.85516 29.5404C2.9047 29.3985 2.99501 29.2744 3.1148 29.1836C3.24752 29.0843 3.40723 29.0277 3.57283 29.0211C3.73843 29.0146 3.90211 29.0585 4.04224 29.147C5.47925 29.8429 6.9181 30.5363 8.35881 31.227C8.96563 31.5188 9.57358 31.8083 10.1771 32.1057C10.5931 32.3109 10.7473 32.5283 10.7451 32.8878Z" fill="#FEF4D5"/>
<path d="M7.70669 34.8236C7.71642 34.9526 7.6934 35.0821 7.63983 35.1998C7.58625 35.3176 7.50382 35.4199 7.40016 35.4973C7.29651 35.5748 7.17501 35.6248 7.04688 35.6428C6.91875 35.6608 6.78815 35.6461 6.66719 35.6002C5.51122 35.0821 4.36857 34.5286 3.23923 33.9528C3.14232 33.9072 3.05631 33.8414 2.98697 33.7597C2.91764 33.6781 2.86659 33.5826 2.83726 33.4796C2.80794 33.3766 2.801 33.2684 2.81695 33.1625C2.8329 33.0566 2.87137 32.9554 2.92972 32.8656C2.98245 32.7778 3.05217 32.7014 3.13485 32.641C3.21753 32.5806 3.31146 32.5374 3.41111 32.5138C3.51077 32.4902 3.61415 32.4868 3.71513 32.5038C3.81612 32.5208 3.91268 32.5578 3.99915 32.6127C5.04529 33.1119 6.08586 33.6211 7.12868 34.1259C7.27759 34.1815 7.40932 34.2752 7.51073 34.3977C7.61215 34.5201 7.67972 34.6669 7.70669 34.8236Z" fill="#FEE07D"/>
<path d="M32.013 17.5201C30.694 16.8689 29.3783 16.21 28.0537 15.5688C25.6996 14.4283 23.34 13.3001 20.9848 12.163C17.3312 10.4006 13.678 8.63665 10.0252 6.87126C9.84218 6.78251 9.66689 6.67935 9.48828 6.58173C11.4796 5.59106 13.4699 4.59927 15.4989 3.68848C16.3575 4.17315 17.2407 4.61304 18.1448 5.0064C23.3026 7.50841 28.463 10.006 33.6261 12.4991C35.0926 13.2084 36.5611 13.9136 38.0314 14.6147C38.0336 14.6435 38.0336 14.6724 38.0314 14.7012C37.7052 14.851 37.3758 14.9952 37.053 15.1517C35.4211 15.9404 33.8269 16.8068 32.1717 17.5401L32.013 17.5201Z" fill="#FB4E59"/>
<path d="M32.1719 17.5449C33.8359 16.8116 35.4246 15.9441 37.0532 15.1564C37.376 15 37.7055 14.8558 38.0316 14.7061C38.1081 14.8803 38.1321 15.0731 38.1004 15.2607C38.1004 17.8123 38.0904 20.3639 38.1104 22.9154C38.1403 23.1872 38.0788 23.4611 37.9358 23.6941C37.7928 23.9271 37.5764 24.1059 37.3205 24.2023C35.8684 24.8679 34.4361 25.5768 32.994 26.268C32.3505 26.5775 32.1752 26.4721 32.1741 25.7676C32.1741 23.0223 32.1734 20.2814 32.1719 17.5449Z" fill="#FB4E59"/>
<defs>
<linearGradient id="paint0_linear_15868_204459" x1="3.60812" y1="16.2921" x2="14.9799" y2="39.7249" gradientUnits="userSpaceOnUse">
<stop stop-color="#F9C02B"/>
<stop offset="1" stop-color="#FC9B24"/>
</linearGradient>
<linearGradient id="paint1_linear_15868_204459" x1="44.998" y1="23.2519" x2="18.4454" y2="31.2087" gradientUnits="userSpaceOnUse">
<stop stop-color="#F9AD1F"/>
<stop offset="1" stop-color="#F9CC2E"/>
</linearGradient>
<linearGradient id="paint2_linear_15868_204459" x1="30.6258" y1="0.12207" x2="30.6258" y2="14.6172" gradientUnits="userSpaceOnUse">
<stop stop-color="#F9CC2E"/>
<stop offset="1" stop-color="#FDC536"/>
</linearGradient>
<linearGradient id="paint3_linear_15868_204459" x1="16.2873" y1="6.58496" x2="16.2873" y2="21.8688" gradientUnits="userSpaceOnUse">
<stop stop-color="#F9CC2E"/>
<stop offset="1" stop-color="#FDC536"/>
</linearGradient>
</defs>
</svg>
