<svg width="60" height="60" viewBox="0 0 60 60" fill="none" xmlns="http://www.w3.org/2000/svg">
<rect width="60" height="60" rx="16" fill="#DCEAFF"/>
<path d="M30.498 8C17.826 8 8 17.2861 8 29.8231C8 36.3812 10.6885 42.0507 15.0644 45.9654C15.43 46.2916 15.6549 46.7528 15.6662 47.2478L15.7899 51.2524C15.8293 52.5292 17.1454 53.3616 18.3153 52.8442L22.7812 50.8756C23.158 50.7068 23.5855 50.6787 23.9848 50.7856C26.0378 51.348 28.2201 51.6518 30.498 51.6518C43.17 51.6518 52.996 42.3657 52.996 29.8287C52.996 17.2917 43.17 8 30.498 8Z" fill="url(#paint0_linear_11952_143438)"/>
<path fill-rule="evenodd" clip-rule="evenodd" d="M37 17.1839V21.2868L34.6419 21.2932C32.7936 21.2932 32.4374 22.2 32.4374 23.5254V26.4615H36.8403L36.2692 31.0527H32.4374V43H27.8447V31.0527H24V26.4615H27.8447V23.0751C27.8447 19.1434 30.1653 17 33.5673 17C35.1891 17 36.5886 17.1268 37 17.1839Z" fill="white"/>
<defs>
<linearGradient id="paint0_linear_11952_143438" x1="19.3478" y1="11.7327" x2="42.084" y2="48.9634" gradientUnits="userSpaceOnUse">
<stop stop-color="#005BE6"/>
<stop offset="1" stop-color="#63A0FF"/>
</linearGradient>
</defs>
</svg>
