<svg width="80" height="82" viewBox="0 0 80 82" fill="none" xmlns="http://www.w3.org/2000/svg">
<rect width="80" height="81.1111" rx="15.5556" fill="#F2FCF5"/>
<path d="M68.8889 25.9365C68.8889 22.0442 65.9974 18.8889 62.4306 18.8889H48.9598C47.247 18.8889 45.6043 19.6314 44.3931 20.9531L36.336 29.7453C35.1249 31.067 34.4444 32.8596 34.4444 34.7288V52.9524C34.4444 56.8447 37.3359 60 40.9028 60H62.4306C65.9974 60 68.8889 56.8447 68.8889 52.9524V25.9365Z" fill="url(#paint0_linear_15717_199315)"/>
<path d="M61.1111 22.6666C61.1111 17.5119 57.5667 13.3333 53.1944 13.3333H36.682C34.5823 13.3333 32.5687 14.3166 31.084 16.0669L21.2076 27.7107C19.723 29.461 18.8889 31.835 18.8889 34.3104V58.4444C18.8889 63.599 22.4333 67.7777 26.8056 67.7777H53.1944C57.5667 67.7777 61.1111 63.599 61.1111 58.4444V22.6666Z" fill="url(#paint1_linear_15717_199315)"/>
<path d="M16.9786 32.1523L31.2179 30.9818C32.303 30.8926 33.3102 30.4008 34.0181 29.6144C34.7259 28.8281 35.0763 27.8117 34.9922 26.7888L33.8862 13.3333L16.9786 32.1523Z" fill="url(#paint2_linear_15717_199315)"/>
<rect opacity="0.5" x="36.6667" y="33.3333" width="20" height="2.22222" rx="1.11111" fill="white"/>
<rect opacity="0.5" x="42.2222" y="37.7778" width="14.4444" height="2.22222" rx="1.11111" fill="white"/>
<rect opacity="0.5" x="42.2222" y="42.2222" width="14.4444" height="2.22222" rx="1.11111" fill="white"/>
<rect opacity="0.5" x="33.3333" y="46.6667" width="23.3333" height="2.22222" rx="1.11111" fill="white"/>
<rect opacity="0.5" x="47.7778" y="60" width="8.88889" height="3.33333" rx="1.66667" fill="white"/>
<defs>
<linearGradient id="paint0_linear_15717_199315" x1="64.0667" y1="23" x2="36.582" y2="55.3827" gradientUnits="userSpaceOnUse">
<stop stop-color="#FF8D56"/>
<stop offset="1" stop-color="#FA3C53"/>
</linearGradient>
<linearGradient id="paint1_linear_15717_199315" x1="61.1111" y1="13.3333" x2="18.5581" y2="61.0047" gradientUnits="userSpaceOnUse">
<stop stop-color="#AFF5D8"/>
<stop offset="1" stop-color="#4EDAA1"/>
</linearGradient>
<linearGradient id="paint2_linear_15717_199315" x1="34.0912" y1="29.003" x2="19.178" y2="22.5979" gradientUnits="userSpaceOnUse">
<stop stop-color="white"/>
<stop offset="1" stop-color="white" stop-opacity="0.15"/>
<stop offset="1" stop-color="white" stop-opacity="0.12"/>
</linearGradient>
</defs>
</svg>
