<svg width="80" height="82" viewBox="0 0 80 82" fill="none" xmlns="http://www.w3.org/2000/svg">
<rect width="80" height="81.1111" rx="15.5556" fill="#FFFAEA"/>
<path d="M56.2393 24.8772H38.5815C32.445 24.8772 27.4704 29.8518 27.4704 35.9883V51.3002C27.4704 57.4367 32.445 62.4113 38.5815 62.4113H56.2393C62.3758 62.4113 67.3504 57.4367 67.3504 51.3002V35.9883C67.3504 29.8518 62.3758 24.8772 56.2393 24.8772Z" fill="url(#paint0_linear_15717_195639)"/>
<path d="M46.8558 16.6667H23.3333C17.1968 16.6667 12.2222 21.6414 12.2222 27.7779V51.3003C12.2222 57.4368 17.1969 62.4114 23.3334 62.4114H46.8558C52.9923 62.4114 57.9669 57.4368 57.9669 51.3003V27.7779C57.9669 21.6414 52.9923 16.6667 46.8558 16.6667Z" fill="url(#paint1_linear_15717_195639)"/>
<path fill-rule="evenodd" clip-rule="evenodd" d="M34.8017 32.7048L34.8017 32.7285V32.7871C33.9049 33.4604 33.008 34.1288 32.1112 34.7972C31.2144 35.4656 30.3175 36.134 29.4207 36.8073C29.4008 36.8229 29.3798 36.8385 29.3584 36.8545C29.2992 36.8985 29.2363 36.9452 29.1815 37.0025C28.8078 37.3343 28.6434 37.2562 28.6434 36.6122C28.6583 34.2703 28.6583 31.9283 28.6434 29.6059V16.6668H34.8017V16.6667H40.934V36.4269C40.934 36.4891 40.9403 36.5571 40.9467 36.6264C40.9663 36.8395 40.9871 37.0645 40.8298 37.1675C40.6948 37.249 40.5743 37.1314 40.4531 37.0131C40.4006 36.9619 40.348 36.9105 40.294 36.8751C38.4634 35.4722 36.6328 34.0887 34.8022 32.7052L34.8017 32.7048Z" fill="url(#paint2_linear_15717_195639)"/>
<rect x="18.0869" y="49.509" width="11.7294" height="2.34588" rx="1.17294" fill="white" fill-opacity="0.5"/>
<rect x="18.0869" y="54.2009" width="7.03764" height="2.34588" rx="1.17294" fill="white" fill-opacity="0.5"/>
<defs>
<linearGradient id="paint0_linear_15717_195639" x1="63.1525" y1="28.3649" x2="43.1118" y2="64.1927" gradientUnits="userSpaceOnUse">
<stop offset="0.305694" stop-color="#FF7A00"/>
<stop offset="1" stop-color="#FF7340"/>
</linearGradient>
<linearGradient id="paint1_linear_15717_195639" x1="19.2599" y1="20.1856" x2="44.4781" y2="58.8926" gradientUnits="userSpaceOnUse">
<stop stop-color="#FFE751"/>
<stop offset="1" stop-color="#FCA81C"/>
</linearGradient>
<linearGradient id="paint2_linear_15717_195639" x1="30.4028" y1="19.0126" x2="38.6134" y2="33.0879" gradientUnits="userSpaceOnUse">
<stop stop-color="#F59115"/>
<stop offset="1" stop-color="#FB6C40"/>
</linearGradient>
</defs>
</svg>
