<svg width="60" height="60" viewBox="0 0 60 60" fill="none" xmlns="http://www.w3.org/2000/svg">
<rect width="60" height="60" rx="16" fill="#DCEAFF"/>
<path d="M22.1322 42.0314C22.1322 41.0353 22.1322 40.0392 22.1322 39.0431C22.5658 38.879 23.0111 38.7384 23.4329 38.5626C25.6595 37.59 27.1947 35.9259 28.1556 33.711C28.3197 33.711 28.472 33.7228 28.6361 33.7228C33.7923 33.7228 38.9486 33.7228 44.1048 33.7228C44.8665 33.7228 45.1947 33.5118 45.1829 33.0196C45.1712 32.5392 44.8548 32.3517 44.1165 32.3517C38.9486 32.3517 33.7806 32.3517 28.6009 32.3517C28.6244 32.1407 28.6829 31.9181 28.6712 31.7071C28.6712 31.2618 28.847 30.8282 28.7064 30.3712C28.7181 29.9845 28.7064 29.586 28.6478 29.1993C28.5306 28.297 28.2142 27.465 27.8978 26.6212C33.2884 26.6212 38.679 26.6212 44.0697 26.6095C44.2337 26.6095 44.3861 26.6095 44.5501 26.5978C44.8431 26.5743 45.0306 26.4103 45.1244 26.129C45.3001 25.59 44.9369 25.2032 44.2103 25.2032C38.5033 25.2032 32.7845 25.2032 27.0775 25.2032C26.597 24.6876 26.1517 24.1251 25.6009 23.6681C24.5697 22.8009 23.3978 22.2267 22.1204 21.84C22.1204 18.922 22.1087 16.004 22.1204 13.086C22.1204 11.4923 22.8236 10.3321 24.3001 9.66417C24.6751 9.50011 25.0736 9.40636 25.4837 9.40636C29.7611 9.40636 34.0384 9.40636 38.304 9.40636C38.4329 9.40636 38.5736 9.3712 38.679 9.46495C38.679 12.3829 38.7025 15.3126 38.6556 18.2306C38.6322 20.0821 40.2728 21.7696 42.1361 21.6876C42.4759 21.6759 42.804 21.6993 43.1439 21.711C43.1322 21.7814 43.1439 21.8634 43.1087 21.922C42.6517 22.9415 43.2962 23.9962 44.4798 23.961C46.2611 23.9259 48.0306 23.9493 49.8119 23.9493C49.8119 32.0353 49.8119 40.1212 49.8119 48.2071C49.8119 49.6251 48.64 51.0079 47.14 51.3829C46.8704 51.4532 46.6009 51.4884 46.3197 51.4767C45.3119 51.465 44.304 51.465 43.2962 51.465C42.7337 51.2423 42.1244 51.1251 41.5736 50.8556C40.097 50.1407 38.8783 49.1681 38.2572 47.5743C37.9056 46.6603 37.6595 45.7345 37.7181 44.7501C37.7415 44.3517 37.6009 44.2462 37.2259 44.2696C36.804 44.3048 36.3822 44.2696 35.9603 44.2696C35.972 44.2228 35.972 44.1759 35.9837 44.1407C36.6048 42.9923 35.7376 41.9728 34.5423 41.9845C30.4173 42.0548 26.2806 42.0314 22.1322 42.0314ZM31.0033 20.1993C32.1283 20.1993 33.2533 20.1993 34.3665 20.1993C34.929 20.1993 35.2337 19.9532 35.2454 19.5079C35.2572 19.0626 34.9525 18.7931 34.39 18.7931C32.1283 18.7931 29.8665 18.7931 27.6165 18.7931C27.0423 18.7931 26.7611 19.0392 26.7728 19.5079C26.7845 19.965 27.0658 20.1993 27.64 20.1993C28.7533 20.1993 29.8783 20.1993 31.0033 20.1993Z" fill="url(#paint0_linear_11952_143367)"/>
<path d="M27.9107 26.6209C28.2271 27.4647 28.5435 28.2967 28.6607 29.199C28.7076 29.5858 28.7193 29.9842 28.7193 30.3709C27.5006 30.0428 26.7974 30.4061 26.4693 31.6365C26.0123 33.324 25.1451 34.7069 23.7623 35.8084C21.5123 37.6131 18.6646 37.6834 16.2857 35.9725C15.9459 35.7264 15.5592 35.6326 15.1256 35.7733C14.5045 35.9725 14.2232 36.4529 14.0474 37.0272C12.3013 35.5154 11.3053 33.5819 11.0943 31.2967C10.731 27.3709 12.7701 23.9256 16.3443 22.3201C18.2076 21.4881 20.1412 21.3826 22.1217 21.8397C23.399 22.2264 24.5709 22.8006 25.6021 23.6678C26.1529 24.1248 26.5865 24.6873 27.0787 25.2029C27.3599 25.6834 27.6295 26.1522 27.9107 26.6209ZM20.9381 32.3162C20.9264 33.0662 20.4107 33.5467 19.6959 33.4295C19.2154 33.3475 18.9459 33.0428 18.7935 32.5858C18.6412 32.1522 18.3014 31.9998 17.8912 32.1287C17.5162 32.2459 17.3404 32.6092 17.481 33.0545C17.7037 33.7928 18.1959 34.3201 18.899 34.6248C19.0982 34.7069 19.2037 34.8123 19.2271 35.0233C19.274 35.41 19.5435 35.5623 19.9068 35.5623C20.2584 35.5623 20.5162 35.3983 20.5631 35.0467C20.5982 34.7772 20.7388 34.66 20.9615 34.5428C21.899 34.0389 22.3795 33.0545 22.2623 32.0701C22.0865 30.6873 20.9967 29.8084 19.8717 29.8319C19.2389 29.8436 18.8756 29.4217 18.8404 28.8123C18.8053 28.1912 19.1451 27.7108 19.6959 27.6053C20.2701 27.4998 20.7389 27.7928 20.9967 28.449C21.1724 28.9061 21.5123 29.0819 21.9224 28.9412C22.3209 28.8006 22.4732 28.4373 22.3209 27.9803C22.1099 27.324 21.6998 26.8201 21.067 26.5272C20.7623 26.3865 20.5748 26.2342 20.5631 25.8709C20.5513 25.5194 20.2818 25.3201 19.942 25.3084C19.5904 25.2967 19.274 25.4842 19.2506 25.8475C19.2154 26.2459 19.0279 26.3983 18.6998 26.5623C17.7271 27.0428 17.2701 28.1678 17.5162 29.2811C17.774 30.4178 18.6529 31.1678 19.8013 31.2381C20.5631 31.2733 20.9381 31.6483 20.9381 32.3162Z" fill="url(#paint1_linear_11952_143367)"/>
<path d="M35.9834 44.3046C36.4053 44.3046 36.8272 44.3398 37.2491 44.3046C37.6241 44.2812 37.7647 44.3749 37.7413 44.7851C37.6827 45.7695 37.9288 46.707 38.2803 47.6093C38.9014 49.2031 40.1202 50.164 41.5967 50.8906C42.1475 51.1601 42.7452 51.2773 43.3194 51.4999C42.9795 51.4999 42.6514 51.5116 42.3116 51.5116C35.1163 51.5116 27.9092 51.4999 20.7139 51.5351C17.96 51.5351 15.2647 49.6132 14.5616 46.8241C14.3858 46.1093 14.3272 45.3945 14.3506 44.6679C14.3623 44.3398 14.4795 44.2929 14.7725 44.3046C15.4873 44.328 16.2022 44.3163 16.917 44.3163C18.6514 44.3163 20.3975 44.3046 22.1319 44.3046C26.7373 44.3046 31.3663 44.3046 35.9834 44.3046Z" fill="#3A55F8"/>
<path d="M43.1682 21.7227C42.8284 21.7109 42.5002 21.6875 42.1604 21.6992C40.2971 21.7812 38.6565 20.082 38.6799 18.2422C38.7268 15.3242 38.6917 12.3945 38.7034 9.47656C39.6643 10.4961 40.637 11.5039 41.5862 12.5352C43.262 14.3633 44.926 16.2031 46.5901 18.043C47.6096 19.168 48.6174 20.3047 49.6252 21.4414C49.6956 21.5117 49.7307 21.6055 49.7893 21.6992C48.4182 21.6992 47.0471 21.6875 45.676 21.6992C44.8206 21.6992 44.0002 21.7109 43.1682 21.7227Z" fill="#3A55F8"/>
<path d="M14.0469 37.0393C14.2109 36.4651 14.5039 35.9846 15.125 35.7854C15.5586 35.6447 15.9453 35.7385 16.2852 35.9846C18.6523 37.6955 21.5117 37.6135 23.7617 35.8205C25.1328 34.719 26.0117 33.3361 26.4688 31.6486C26.8086 30.4182 27.5 30.0432 28.7188 30.383C28.8594 30.8283 28.6719 31.2736 28.6836 31.719C28.6836 31.9299 28.6367 32.1526 28.6133 32.3635C28.4609 32.8205 28.3203 33.2658 28.168 33.7229C27.207 35.9377 25.6719 37.5901 23.4453 38.5744C23.0234 38.7619 22.5781 38.9026 22.1445 39.0549C21.3242 39.1838 20.5156 39.3596 19.6836 39.3127C17.6563 39.219 15.8516 38.5627 14.2813 37.2736C14.1758 37.2033 14.1172 37.1213 14.0469 37.0393Z" fill="#FB8E1B"/>
<path d="M35.9844 44.3048C31.3672 44.3048 26.7383 44.3048 22.1211 44.3048C22.1211 43.5548 22.1328 42.7931 22.1328 42.0431C26.2812 42.0431 30.418 42.0665 34.5664 42.0314C35.7617 42.0196 36.6289 43.0392 36.0078 44.1876C35.9844 44.211 35.9961 44.2579 35.9844 44.3048Z" fill="#60A0FB"/>
<path d="M43.1672 21.7227C43.9992 21.7109 44.8313 21.6992 45.6633 21.6875C47.0344 21.6875 48.4055 21.6875 49.7766 21.6875C49.9172 22.4375 49.8118 23.1992 49.8352 23.9609C48.0539 23.9609 46.2844 23.9375 44.5032 23.9727C43.3196 23.9961 42.675 22.9531 43.1321 21.9336C43.1555 21.875 43.1555 21.793 43.1672 21.7227Z" fill="#60A0FB"/>
<g filter="url(#filter0_bi_11952_143367)">
<path d="M27.9102 26.6211C27.6406 26.1523 27.3594 25.6836 27.0898 25.2148C32.7969 25.2148 38.5156 25.2148 44.2227 25.2148C44.9492 25.2148 45.3125 25.5898 45.1367 26.1406C45.043 26.4219 44.8672 26.5859 44.5625 26.6094C44.3984 26.6211 44.2461 26.6211 44.082 26.6211C38.6914 26.6211 33.3008 26.6211 27.9102 26.6211Z" fill="url(#paint2_linear_11952_143367)"/>
</g>
<g filter="url(#filter1_bi_11952_143367)">
<path d="M28.1445 33.7109C28.2969 33.2539 28.4375 32.8086 28.5898 32.3516C33.7578 32.3516 38.9258 32.3516 44.1055 32.3516C44.8437 32.3516 45.1602 32.5508 45.1719 33.0195C45.1836 33.5117 44.8555 33.7227 44.0937 33.7227C38.9375 33.7227 33.7812 33.7227 28.625 33.7227C28.4727 33.7227 28.3086 33.7227 28.1445 33.7109Z" fill="url(#paint3_linear_11952_143367)"/>
</g>
<g filter="url(#filter2_bi_11952_143367)">
<path d="M31.0042 20.1992C29.8792 20.1992 28.7542 20.1992 27.641 20.1992C27.0667 20.1992 26.7855 19.9648 26.7738 19.5078C26.7621 19.0391 27.055 18.8047 27.6175 18.793C29.8792 18.793 32.141 18.793 34.391 18.793C34.9417 18.793 35.2464 19.0508 35.2464 19.5078C35.2347 19.9531 34.93 20.1992 34.3675 20.1992C33.2425 20.1992 32.1292 20.1992 31.0042 20.1992Z" fill="url(#paint4_linear_11952_143367)"/>
</g>
<path d="M20.938 32.3164C20.938 31.6367 20.563 31.2734 19.8013 31.2266C18.6528 31.1562 17.7739 30.4062 17.5161 29.2695C17.2583 28.1445 17.727 27.0312 18.6997 26.5508C19.0278 26.3867 19.227 26.2344 19.2505 25.8359C19.2739 25.4727 19.5903 25.2969 19.9419 25.2969C20.2817 25.3086 20.5513 25.4961 20.563 25.8594C20.5747 26.2227 20.7622 26.375 21.0669 26.5156C21.688 26.8086 22.0981 27.3125 22.3208 27.9687C22.4731 28.4375 22.3208 28.7891 21.9224 28.9297C21.5122 29.0703 21.1724 28.8945 20.9966 28.4375C20.7388 27.7812 20.2817 27.4766 19.6958 27.5937C19.1567 27.6992 18.8052 28.1797 18.8403 28.8008C18.8755 29.4102 19.2388 29.832 19.8716 29.8203C20.9966 29.7969 22.0747 30.6758 22.2622 32.0586C22.3911 33.043 21.8989 34.0273 20.9614 34.5312C20.7388 34.6484 20.5981 34.7656 20.563 35.0352C20.5161 35.3867 20.2583 35.5508 19.9067 35.5508C19.5435 35.5508 19.2739 35.3984 19.227 35.0117C19.1919 34.7891 19.0864 34.6953 18.8989 34.6133C18.1841 34.3086 17.7036 33.793 17.481 33.043C17.352 32.6094 17.5161 32.2461 17.8911 32.1172C18.3013 31.9883 18.6411 32.1406 18.7935 32.5742C18.9458 33.0312 19.2153 33.3359 19.6958 33.418C20.4106 33.5469 20.9263 33.0781 20.938 32.3164Z" fill="white"/>
<defs>
<filter id="filter0_bi_11952_143367" x="-12.9102" y="-14.7852" width="98.0898" height="81.4062" filterUnits="userSpaceOnUse" color-interpolation-filters="sRGB">
<feFlood flood-opacity="0" result="BackgroundImageFix"/>
<feGaussianBlur in="BackgroundImage" stdDeviation="20"/>
<feComposite in2="SourceAlpha" operator="in" result="effect1_backgroundBlur_11952_143367"/>
<feBlend mode="normal" in="SourceGraphic" in2="effect1_backgroundBlur_11952_143367" result="shape"/>
<feColorMatrix in="SourceAlpha" type="matrix" values="0 0 0 0 0 0 0 0 0 0 0 0 0 0 0 0 0 0 127 0" result="hardAlpha"/>
<feOffset dx="1" dy="1"/>
<feGaussianBlur stdDeviation="1"/>
<feComposite in2="hardAlpha" operator="arithmetic" k2="-1" k3="1"/>
<feColorMatrix type="matrix" values="0 0 0 0 1 0 0 0 0 1 0 0 0 0 1 0 0 0 0.3 0"/>
<feBlend mode="normal" in2="shape" result="effect2_innerShadow_11952_143367"/>
</filter>
<filter id="filter1_bi_11952_143367" x="-11.8555" y="-7.64844" width="97.0273" height="81.3711" filterUnits="userSpaceOnUse" color-interpolation-filters="sRGB">
<feFlood flood-opacity="0" result="BackgroundImageFix"/>
<feGaussianBlur in="BackgroundImage" stdDeviation="20"/>
<feComposite in2="SourceAlpha" operator="in" result="effect1_backgroundBlur_11952_143367"/>
<feBlend mode="normal" in="SourceGraphic" in2="effect1_backgroundBlur_11952_143367" result="shape"/>
<feColorMatrix in="SourceAlpha" type="matrix" values="0 0 0 0 0 0 0 0 0 0 0 0 0 0 0 0 0 0 127 0" result="hardAlpha"/>
<feOffset dx="1" dy="1"/>
<feGaussianBlur stdDeviation="1"/>
<feComposite in2="hardAlpha" operator="arithmetic" k2="-1" k3="1"/>
<feColorMatrix type="matrix" values="0 0 0 0 1 0 0 0 0 1 0 0 0 0 1 0 0 0 0.3 0"/>
<feBlend mode="normal" in2="shape" result="effect2_innerShadow_11952_143367"/>
</filter>
<filter id="filter2_bi_11952_143367" x="-13.2266" y="-21.207" width="88.4727" height="81.4062" filterUnits="userSpaceOnUse" color-interpolation-filters="sRGB">
<feFlood flood-opacity="0" result="BackgroundImageFix"/>
<feGaussianBlur in="BackgroundImage" stdDeviation="20"/>
<feComposite in2="SourceAlpha" operator="in" result="effect1_backgroundBlur_11952_143367"/>
<feBlend mode="normal" in="SourceGraphic" in2="effect1_backgroundBlur_11952_143367" result="shape"/>
<feColorMatrix in="SourceAlpha" type="matrix" values="0 0 0 0 0 0 0 0 0 0 0 0 0 0 0 0 0 0 127 0" result="hardAlpha"/>
<feOffset dx="1" dy="1"/>
<feGaussianBlur stdDeviation="1"/>
<feComposite in2="hardAlpha" operator="arithmetic" k2="-1" k3="1"/>
<feColorMatrix type="matrix" values="0 0 0 0 1 0 0 0 0 1 0 0 0 0 1 0 0 0 0.3 0"/>
<feBlend mode="normal" in2="shape" result="effect2_innerShadow_11952_143367"/>
</filter>
<linearGradient id="paint0_linear_11952_143367" x1="35.9635" y1="9.3999" x2="35.9635" y2="51.4789" gradientUnits="userSpaceOnUse">
<stop stop-color="#60A0FB"/>
<stop offset="0.0001" stop-color="#74ADFF"/>
<stop offset="0.843325" stop-color="#3A55F8"/>
</linearGradient>
<linearGradient id="paint1_linear_11952_143367" x1="19.886" y1="21.5713" x2="19.886" y2="37.2103" gradientUnits="userSpaceOnUse">
<stop stop-color="#FFBB3E"/>
<stop offset="1" stop-color="#FB8E1B"/>
</linearGradient>
<linearGradient id="paint2_linear_11952_143367" x1="36.1352" y1="25.2148" x2="36.1352" y2="26.6211" gradientUnits="userSpaceOnUse">
<stop stop-color="#D8E8FF"/>
<stop offset="1" stop-color="#D7E6FB"/>
<stop offset="1" stop-color="#304CEF"/>
</linearGradient>
<linearGradient id="paint3_linear_11952_143367" x1="36.6584" y1="32.3516" x2="36.6584" y2="33.7227" gradientUnits="userSpaceOnUse">
<stop stop-color="#D8E8FF"/>
<stop offset="1" stop-color="#D7E6FB"/>
<stop offset="1" stop-color="#304CEF"/>
</linearGradient>
<linearGradient id="paint4_linear_11952_143367" x1="31.0099" y1="18.793" x2="31.0099" y2="20.1992" gradientUnits="userSpaceOnUse">
<stop stop-color="#D8E8FF"/>
<stop offset="1" stop-color="#D7E6FB"/>
<stop offset="1" stop-color="#304CEF"/>
</linearGradient>
</defs>
</svg>
