<svg width="212" height="219" viewBox="0 0 212 219" fill="none" xmlns="http://www.w3.org/2000/svg">
<path d="M66.4506 150.042C61.9682 122.709 71.7105 88.0599 80.6715 63.8064C90.3766 37.5404 101.281 17.4695 101.391 17.27L101.807 17.4973C101.698 17.6968 90.8062 37.7426 81.1131 63.978C72.1725 88.1768 62.4526 122.738 66.9173 149.967L66.4506 150.042Z" fill="#FCFDFE"/>
<path d="M187.306 204.271L74.7371 196.497C74.6017 196.484 74.4653 196.484 74.3298 196.496L7.29019 199.533C5.6869 199.679 5.75927 203.878 7.57968 204.107L112.916 218.212C113.347 218.265 113.783 218.264 114.214 218.209L187.099 207.967C188.071 207.797 188.426 204.352 187.306 204.271Z" fill="url(#paint0_linear_14795_191231)"/>
<path d="M187.084 204.146L74.7377 193.545C74.6023 193.532 74.4659 193.532 74.3304 193.544L7.61648 199.401C6.39174 199.509 6.36019 201.288 7.58029 201.439L112.916 214.437C113.348 214.49 113.784 214.489 114.214 214.434L187.099 205.014C187.616 204.947 187.603 204.195 187.084 204.146Z" fill="url(#paint1_linear_14795_191231)"/>
<path d="M111.803 213.167C111.959 213.167 112.116 213.157 112.27 213.137L177.595 204.695C177.834 204.664 177.827 204.317 177.589 204.295L77.2744 194.848C77.2521 194.846 77.2299 194.845 77.2076 194.845C77.1872 194.845 77.1668 194.846 77.1454 194.848L13.3755 200.447C13.0795 200.473 13.0721 200.902 13.3672 200.939L111.356 213.14C111.503 213.158 111.653 213.167 111.803 213.167Z" fill="#F4F5F7"/>
<path d="M148.966 209.107C148.99 209.302 149.604 209.387 150.338 209.298C151.072 209.209 151.648 208.979 151.625 208.784C151.601 208.589 150.987 208.504 150.253 208.593C149.518 208.682 148.942 208.912 148.966 209.107Z" fill="#D4DBE3"/>
<path d="M95.8432 215.12L105.955 216.449C106.693 216.546 107.298 216.185 107.298 215.642C107.298 215.098 106.693 214.587 105.955 214.501L95.8432 213.319C95.2188 213.246 94.7168 213.588 94.7168 214.08C94.7168 214.573 95.2188 215.039 95.8432 215.12Z" fill="#ECECEC"/>
<path d="M84.7981 213.669L93.1254 214.763C93.7294 214.842 94.223 214.509 94.223 214.018C94.223 213.527 93.7294 213.072 93.1254 213.001L84.7981 212.029C84.2794 211.969 83.8628 212.284 83.8628 212.733C83.8628 213.182 84.2803 213.602 84.7981 213.669Z" fill="#ECECEC"/>
<path d="M70.8424 211.836L77.1776 212.668C77.6322 212.728 78.0043 212.432 78.0043 212.006C78.0043 211.58 77.6332 211.191 77.1776 211.138L70.8424 210.398C70.4443 210.352 70.1233 210.634 70.1233 211.028C70.1233 211.422 70.4443 211.784 70.8424 211.836Z" fill="#ECECEC"/>
<path opacity="0.6" d="M59.119 200.086C68.9085 201.828 75.4099 205.377 89.4591 205.662C101.629 205.908 101.719 203.104 115.862 202.218C134.392 201.057 139.222 205.558 158.174 205.17C163.116 205.069 169.585 204.623 177.239 203.218L187.086 204.148C187.604 204.197 187.617 204.948 187.1 205.015L114.216 214.434C113.785 214.49 113.349 214.491 112.917 214.438L23.7593 203.436C39.0574 198.334 50.7713 198.6 59.119 200.086Z" fill="white"/>
<path d="M82.3223 205.237C77.106 205.237 69.3447 204.334 69.3447 201.848C69.3447 199.361 77.106 198.458 82.3223 198.458C87.5386 198.458 95.2999 199.361 95.2999 201.848C95.2999 204.334 87.5395 205.237 82.3223 205.237ZM82.3223 199.447C74.4515 199.447 70.3347 201.01 70.3347 201.847C70.3347 202.684 74.4515 204.246 82.3223 204.246C90.1922 204.246 94.3099 202.684 94.3099 201.847C94.3099 201.01 90.1931 199.447 82.3223 199.447Z" fill="white"/>
<path opacity="0.6" d="M82.3221 203.163C85.4556 203.163 87.9958 202.574 87.9958 201.847C87.9958 201.12 85.4556 200.531 82.3221 200.531C79.1886 200.531 76.6484 201.12 76.6484 201.847C76.6484 202.574 79.1886 203.163 82.3221 203.163Z" fill="white"/>
<mask id="mask0_14795_191231" style="mask-type:alpha" maskUnits="userSpaceOnUse" x="11" y="63" width="152" height="141">
<path d="M162.427 85.7183L95.2936 195.485L94.6803 196.486L93.8657 197.818L92.4377 200.153L91.4013 201.846C91.4013 202.975 87.5852 203.892 82.7901 203.949C82.6352 203.952 82.4811 203.952 82.3234 203.952C77.3085 203.952 73.2455 203.01 73.2455 201.846L72.2954 200.123L70.3933 196.673L69.7448 195.496L68.9302 194.02L64.9349 186.77L58.0522 174.289L50.2983 160.223L49.5245 158.818L40.9569 143.273L35.5106 133.394L11.4045 89.6616C16.9845 85.3871 30.0057 76.1329 48.9864 69.7661C51.8061 68.8188 54.7557 67.9364 57.8361 67.144C58.5468 66.9594 59.2658 66.7803 59.9933 66.6068C60.5388 66.4769 61.0872 66.3489 61.6383 66.2273C62.0725 66.1271 62.5123 66.0316 62.9521 65.9369C62.9549 65.9369 62.9549 65.9369 62.9577 65.9369C69.523 64.5313 76.6061 63.557 84.1642 63.2369C85.0735 63.1961 85.9911 63.1664 86.9162 63.1469C101.349 62.8426 114.205 65.0035 125.134 68.1674C125.503 68.2704 125.869 68.379 126.23 68.4875C126.336 68.52 126.442 68.5497 126.545 68.5822C127.709 68.932 128.851 69.2957 129.969 69.6677C133.028 70.6828 135.913 71.7656 138.616 72.878C150.019 77.571 158.186 82.804 162.427 85.7183Z" fill="url(#paint2_linear_14795_191231)"/>
</mask>
<g mask="url(#mask0_14795_191231)">
</g>
<path d="M204.123 63.1955L197.523 61.9679C197.886 57.5246 197.624 53.1433 196.803 48.9208L202.988 46.7329C204.679 46.1354 205.575 44.2389 204.993 42.4927L203.439 37.8369C202.854 36.0805 201 35.1285 199.295 35.7131L193.198 37.8053C191.309 33.7303 188.857 29.9169 185.914 26.4793L190.105 21.6304C191.307 20.2396 191.154 18.0824 189.759 16.8076L186.033 13.3987C184.625 12.1099 182.491 12.1934 181.27 13.5908L177.082 18.3821C173.358 15.7155 169.206 13.5156 164.693 11.9077L165.893 5.51861C166.246 3.63419 164.996 1.74419 163.094 1.29605L158.003 0.0972883C156.077 -0.356422 154.22 0.820071 153.862 2.72491L152.65 9.18448C147.781 8.68345 142.956 8.89407 138.298 9.74582L135.966 3.26305C135.282 1.35821 133.169 0.272647 131.245 0.843264L126.097 2.36955C124.151 2.94666 123.138 4.97583 123.841 6.89645L126.271 13.5379C121.867 15.5559 117.775 18.1937 114.132 21.3716L108.39 16.5311C106.763 15.1588 104.325 15.2544 102.949 16.751L99.2753 20.7434C97.8891 22.2502 98.1063 24.5828 99.7569 25.9486L105.714 30.8744C103.074 34.7732 100.974 39.0895 99.5398 43.7453L91.5641 42.2617C89.4171 41.8627 87.3666 43.1617 86.9908 45.164L85.9906 50.4897C85.6148 52.492 87.0595 54.4219 89.2102 54.7977L97.4141 56.2321C97.2332 61.0076 97.7676 65.6876 98.9357 70.1579L90.9415 72.9015C88.9031 73.6011 87.8528 75.7054 88.6006 77.5973L90.5834 82.6104C91.3266 84.4892 93.5691 85.4291 95.589 84.7147L103.692 81.8486C105.963 85.8494 108.789 89.5218 112.083 92.7544L106.529 99.11C105.175 100.66 105.384 102.909 106.993 104.128L111.249 107.351C112.84 108.556 115.208 108.279 116.54 106.738L122.066 100.345C125.918 102.575 130.111 104.318 134.57 105.485L133.068 113.486C132.71 115.392 134.018 117.139 135.983 117.386L141.175 118.043C143.115 118.288 144.97 116.96 145.324 115.074L146.809 107.16C151.336 107.233 155.754 106.704 159.973 105.648L162.626 112.897C163.26 114.628 165.223 115.451 167.007 114.738L171.727 112.854C173.492 112.149 174.419 110.187 173.801 108.467L171.241 101.35C175.11 99.3169 178.688 96.796 181.878 93.8641L187.503 98.5153C188.884 99.6574 190.962 99.4144 192.147 97.9771L195.288 94.1684C196.467 92.7404 196.318 90.6556 194.955 89.507L189.53 84.9337C191.898 81.3866 193.819 77.4971 195.202 73.3311L201.994 74.5187C203.745 74.8249 205.433 73.6141 205.771 71.816L206.669 67.033C207.009 65.2413 205.87 63.5202 204.123 63.1955ZM143.314 92.541C123.654 89.5997 110.161 71.3799 113.81 51.9409C117.459 32.5018 136.682 20.2071 156.116 24.348C174.891 28.3479 186.869 46.2941 183.441 64.5538C180.013 82.8126 162.306 95.382 143.314 92.541Z" fill="#C1CCDC"/>
<path d="M137.733 1.80475L133.064 0.76001L130.653 4.6699L137.733 1.80475Z" fill="#C1CCDC"/>
<path d="M183.967 12.4978L189.375 13.5685L188.624 17.5656L183.967 12.4978Z" fill="#C1CCDC"/>
<path d="M200.998 35.655L206.358 36.8881L204.44 39.6586L200.998 35.655Z" fill="#C1CCDC"/>
<path d="M204.579 63.3401L209.954 64.7959L207.674 67.108L204.579 63.3401Z" fill="#C1CCDC"/>
<path d="M188.477 99.0693L193.629 100.819L195.088 96.6199L188.477 99.0693Z" fill="#C1CCDC"/>
<path d="M164.561 114.766L169.151 116.522L170.189 113.083L164.561 114.766Z" fill="#C1CCDC"/>
<path d="M139.211 118.731L135.086 117.173L139.783 112.408L139.211 118.731Z" fill="#C1CCDC"/>
<path d="M116.955 109.798L112.178 107.84L116.885 103.914L116.955 109.798Z" fill="#C1CCDC"/>
<path d="M105.74 15.5381L110.896 16.6738L108.132 20.0687L105.74 15.5381Z" fill="#C1CCDC"/>
<path d="M87.7869 54.2754L92.4084 55.8694L92.761 51.9094L87.7869 54.2754Z" fill="#C1CCDC"/>
<path d="M92.6514 84.6583L97.1551 86.2866L98.1107 83.2786L92.6514 84.6583Z" fill="#C1CCDC"/>
<path d="M209.373 64.6253L202.718 63.3876C203.084 58.908 202.82 54.4916 201.991 50.2337L208.228 48.0283C209.932 47.4252 210.836 45.5139 210.249 43.7538L208.683 39.0599C208.092 37.2895 206.223 36.3292 204.504 36.9193L198.357 39.0283C196.452 34.9208 193.979 31.0749 191.011 27.6095L195.236 22.7216C196.449 21.3188 196.294 19.1448 194.889 17.8598L191.132 14.4231C189.711 13.1241 187.56 13.2086 186.329 14.617L182.108 19.4473C178.353 16.7585 174.166 14.5409 169.615 12.9191L170.824 6.47808C171.181 4.57788 169.921 2.67304 168.003 2.22118L162.87 1.01314C160.927 0.555721 159.056 1.74149 158.695 3.6621L157.472 10.1736C152.562 9.66889 147.697 9.88044 143.001 10.7396L140.65 4.20396C139.959 2.28335 137.83 1.18943 135.889 1.76468L130.698 3.30396C128.735 3.88571 127.715 5.93158 128.423 7.86704L130.874 14.5623C126.434 16.597 122.308 19.2562 118.634 22.4591L112.845 17.5787C111.204 16.1953 108.746 16.2908 107.358 17.7995L103.654 21.8244C102.256 23.3433 102.475 25.6953 104.14 27.0722L110.146 32.0389C107.484 35.9692 105.368 40.3208 103.921 45.0147L95.8795 43.519C93.7149 43.1163 91.6477 44.4255 91.2682 46.4445L90.2605 51.8138C89.882 53.8328 91.3387 55.7775 93.507 56.157L101.78 57.6035C101.597 62.418 102.136 67.1361 103.314 71.6425L95.2541 74.4084C93.199 75.1136 92.1403 77.2355 92.8947 79.1422L94.8932 84.1961C95.642 86.0898 97.904 87.0381 99.9406 86.3181L108.11 83.4288C110.4 87.463 113.25 91.1641 116.571 94.4236L110.971 100.83C109.606 102.392 109.816 104.659 111.439 105.889L115.73 109.138C117.335 110.354 119.723 110.074 121.066 108.52L126.636 102.075C130.521 104.324 134.748 106.081 139.245 107.257L137.73 115.323C137.369 117.244 138.689 119.006 140.67 119.256L145.905 119.919C147.861 120.166 149.732 118.826 150.088 116.925L151.586 108.947C156.151 109.021 160.605 108.488 164.858 107.423L167.532 114.731C168.172 116.477 170.151 117.307 171.95 116.589L176.709 114.688C178.488 113.978 179.422 112 178.799 110.266L176.218 103.091C180.118 101.042 183.726 98.5005 186.943 95.5444L192.614 100.234C194.006 101.385 196.102 101.14 197.297 99.6919L200.465 95.8515C201.652 94.4125 201.503 92.31 200.129 91.1521L194.659 86.5417C197.047 82.9658 198.983 79.0448 200.378 74.8445L207.226 76.0423C208.991 76.3513 210.694 75.1303 211.034 73.3173L211.939 68.4953C212.283 66.687 211.135 64.9529 209.373 64.6253ZM148.062 94.2074C128.239 91.2421 114.633 72.8728 118.312 53.2752C121.991 33.6775 141.372 21.2835 160.968 25.4578C179.898 29.4902 191.976 47.5829 188.52 65.992C185.065 84.4012 167.21 97.0726 148.062 94.2074Z" fill="#D8DEE8"/>
<path d="M148.993 114.279C157.978 114.279 165.261 104.043 165.261 91.4162C165.261 78.7895 157.978 68.5535 148.993 68.5535C140.008 68.5535 132.724 78.7895 132.724 91.4162C132.724 104.043 140.008 114.279 148.993 114.279Z" fill="#D8DEE8"/>
<path d="M99.2706 36.0173H68.6503C37.2543 36.0173 11.802 61.4696 11.802 92.8656V92.8666C11.802 109.62 25.3836 123.201 42.1366 123.201H125.783C142.537 123.201 156.118 109.62 156.118 92.8666C156.12 61.4687 130.668 36.0173 99.2706 36.0173Z" fill="white"/>
<path d="M93.8939 185.363H74.0291C53.6603 185.363 37.1477 168.85 37.1477 148.481C37.1477 137.612 45.9584 128.801 56.828 128.801H111.096C121.966 128.801 130.776 137.613 130.776 148.481C130.775 168.851 114.263 185.363 93.8939 185.363Z" fill="white"/>
<path d="M127.065 110.939H68.8611C60.9736 110.939 54.502 104.893 54.502 97.4346V85.9982C54.502 78.5403 60.9736 72.7005 68.8611 72.9519L127.065 74.8085C134.109 75.033 139.756 80.832 139.756 87.762V98.3894C139.756 105.32 134.109 110.939 127.065 110.939Z" fill="url(#paint3_linear_14795_191231)"/>
<path d="M87.5084 91.1091C87.5084 96.0898 83.2682 100.074 77.9954 100.007C72.6752 99.9403 68.3264 95.7808 68.3264 90.7185C68.3264 85.6563 72.6742 81.674 77.9954 81.8234C83.2682 81.9719 87.5084 86.1285 87.5084 91.1091Z" fill="white"/>
<path d="M126.844 91.9088C126.844 96.7224 122.884 100.575 117.962 100.513C112.996 100.45 108.938 96.4348 108.938 91.5451C108.938 86.6554 112.996 82.8049 117.962 82.9441C122.884 83.0814 126.844 87.0952 126.844 91.9088Z" fill="white"/>
<path d="M19.9837 114.119C28.9686 114.119 36.2523 103.884 36.2523 91.2568C36.2523 78.63 28.9686 68.394 19.9837 68.394C10.9988 68.394 3.71509 78.63 3.71509 91.2568C3.71509 103.884 10.9988 114.119 19.9837 114.119Z" fill="#D8DEE8"/>
<path d="M7.1137 101.255C11.0425 101.255 14.2274 96.7786 14.2274 91.2572C14.2274 85.7358 11.0425 81.2598 7.1137 81.2598C3.18491 81.2598 0 85.7358 0 91.2572C0 96.7786 3.18491 101.255 7.1137 101.255Z" fill="white"/>
<path opacity="0.4" d="M98.7866 165.059C96.0616 152.259 65.9144 152.568 65.0942 144.202C64.4624 137.753 81.7711 131.367 83.9459 130.565C85.8062 129.878 87.6526 129.297 89.4804 128.801H56.8272C45.9586 128.801 37.147 137.612 37.147 148.481C37.147 168.85 53.6596 185.363 74.0283 185.363H93.8941C95.8027 185.363 97.6778 185.218 99.5085 184.938C97.7799 182.795 96.6526 180.452 96.3798 177.894C95.7749 172.224 99.8425 170.019 98.7866 165.059Z" fill="#D8DEE8"/>
<path d="M84.4506 133.695C101.778 133.695 115.824 131.994 115.824 129.896C115.824 127.799 101.778 126.098 84.4506 126.098C67.1234 126.098 53.0769 127.799 53.0769 129.896C53.0769 131.994 67.1234 133.695 84.4506 133.695Z" fill="#D4DBE3"/>
<path d="M46.6936 140.156C44.362 142.068 44.0206 145.507 45.9319 147.839L61.68 167.054L70.1242 160.134L54.3761 140.918C52.4648 138.586 49.0253 138.246 46.6936 140.156Z" fill="white"/>
<path d="M96.0567 158.333C95.7162 155.337 93.0115 153.185 90.0156 153.526L65.3306 156.334L66.5646 167.182L91.2496 164.374C94.2446 164.034 96.3972 161.329 96.0567 158.333Z" fill="white"/>
<path d="M65.3308 170.676C69.7054 170.676 73.2517 167.129 73.2517 162.755C73.2517 158.38 69.7054 154.834 65.3308 154.834C60.9562 154.834 57.4099 158.38 57.4099 162.755C57.4099 167.129 60.9562 170.676 65.3308 170.676Z" fill="#D8DEE8"/>
<path d="M91.0189 154.537L95.0958 164.544C95.7017 166.031 97.9999 166.474 99.7535 165.418C102.323 163.871 105.131 161.232 103.997 157.414C102.563 152.583 98.2959 151.193 94.785 150.911C92.4023 150.718 90.2952 152.761 91.0189 154.537Z" fill="#D4DBE3"/>
<defs>
<linearGradient id="paint0_linear_14795_191231" x1="97.3291" y1="187.129" x2="97.1585" y2="198.219" gradientUnits="userSpaceOnUse">
<stop stop-color="#D8DEE8"/>
<stop offset="0.9964" stop-color="#CDD4DE"/>
</linearGradient>
<linearGradient id="paint1_linear_14795_191231" x1="99.2552" y1="209.137" x2="81.5434" y2="155.51" gradientUnits="userSpaceOnUse">
<stop stop-color="#CDD4DE"/>
<stop offset="0.9964" stop-color="#D8DEE8"/>
</linearGradient>
<linearGradient id="paint2_linear_14795_191231" x1="91.4713" y1="195.506" x2="86.7439" y2="83.6231" gradientUnits="userSpaceOnUse">
<stop stop-color="white"/>
<stop offset="1"/>
</linearGradient>
<linearGradient id="paint3_linear_14795_191231" x1="54.5014" y1="91.9415" x2="139.756" y2="91.9415" gradientUnits="userSpaceOnUse">
<stop stop-color="#D8DEE8"/>
<stop offset="0.9964" stop-color="#D0D7DE"/>
</linearGradient>
</defs>
</svg>
