<svg width="42" height="42" viewBox="0 0 42 42" fill="none" xmlns="http://www.w3.org/2000/svg">
<rect width="42" height="42" rx="21" fill="white"/>
<g clip-path="url(#clip0_18489_212507)">
<path fill-rule="evenodd" clip-rule="evenodd" d="M17.8118 13.2911C17.9219 13.2904 18.0331 13.2897 18.146 13.2897C18.1519 13.2469 18.1523 13.2033 18.1472 13.1604L18.069 12.9055L18.069 12.9055C17.941 12.4873 17.8129 12.0686 17.6673 11.6551C17.6325 11.5795 17.618 11.4955 17.6254 11.4121C17.6328 11.3286 17.6617 11.2489 17.7092 11.1811C17.87 10.9221 17.9446 10.6156 17.9216 10.3085C17.8986 10.0014 17.7794 9.71056 17.582 9.48035C17.3992 9.26542 17.158 9.11284 16.89 9.04252C16.6221 8.9722 16.3399 8.9874 16.0804 9.08626C15.821 9.18512 15.5965 9.36303 15.4362 9.59653C15.2759 9.83002 15.1874 10.1082 15.1823 10.3947C15.1727 10.687 15.2522 10.9751 15.4094 11.2178C15.5666 11.4606 15.7937 11.6458 16.0583 11.7471C16.1311 11.7685 16.197 11.8101 16.2486 11.8675C16.3002 11.925 16.3356 11.9961 16.351 12.073C16.445 12.4153 16.5555 12.7524 16.6821 13.0832C16.7145 13.1678 16.8178 13.2811 16.8922 13.2811C17.198 13.2949 17.5005 13.293 17.8118 13.2911ZM21.9423 12.8277L21.9422 12.8279L21.942 12.8285L21.9418 12.829C21.8931 12.9793 21.8435 13.1323 21.7932 13.2894C21.9158 13.2894 22.0341 13.2888 22.1494 13.2881H22.1494H22.1494H22.1495H22.1495C22.4518 13.2864 22.7332 13.2849 23.0147 13.2957C23.0504 13.3013 23.0868 13.2995 23.1219 13.2905C23.1569 13.2815 23.1899 13.2653 23.2189 13.243C23.2479 13.2207 23.2723 13.1927 23.2908 13.1605C23.3093 13.1283 23.3215 13.0926 23.3266 13.0556C23.4226 12.7259 23.5234 12.3949 23.6434 12.0739C23.6875 11.9612 23.7699 11.8692 23.875 11.8151C24.1484 11.7199 24.3862 11.5382 24.5548 11.2956C24.7235 11.053 24.8146 10.7617 24.8153 10.4626C24.8161 10.1635 24.7264 9.87176 24.5589 9.62827C24.3914 9.38478 24.1546 9.20178 23.8816 9.10509C23.6087 9.0084 23.3133 9.00297 23.0372 9.0893C22.761 9.17563 22.5179 9.34949 22.3419 9.58651C22.166 9.82352 22.0662 10.1118 22.0565 10.4107C22.0467 10.7096 22.1275 11.0041 22.2875 11.2529C22.3418 11.3691 22.353 11.5019 22.3187 11.6261C22.2028 12.0241 22.0759 12.4156 21.9423 12.8277ZM10.3444 24.3081C9.93439 24.0532 9.59504 23.6925 9.35943 23.2611C9.12382 22.8298 9 22.3426 9 21.8468C9 21.3511 9.12382 20.8637 9.35943 20.4323C9.59504 20.001 9.93439 19.6403 10.3444 19.3854V24.3081ZM30.1031 19.736C29.9692 19.609 29.8231 19.4955 29.6666 19.3976V19.5337C29.8147 19.5959 29.9604 19.6634 30.1031 19.736ZM28.2336 19.1109C28.2329 18.3958 28.2319 17.6807 28.2307 16.9656C28.2503 16.6633 28.2069 16.3602 28.1037 16.0767C28.0004 15.7933 27.8397 15.5363 27.6323 15.3229C27.4249 15.1095 27.1757 14.9448 26.9015 14.84C26.6274 14.7351 26.3347 14.6925 26.0434 14.7151H13.9248C13.6285 14.694 13.3314 14.739 13.0534 14.8472C12.7753 14.9555 12.523 15.1244 12.3133 15.3425C12.1037 15.5606 11.9416 15.8228 11.8382 16.1114C11.7347 16.4 11.6921 16.7083 11.7134 17.0154C11.7122 18.0858 11.7133 19.1564 11.7144 20.227V20.227V20.2271V20.2272V20.2273V20.2273V20.2273V20.2273C11.7165 22.3669 11.7187 24.5066 11.7027 26.6458C11.6873 26.959 11.7355 27.2719 11.8442 27.5645C11.9529 27.8571 12.1197 28.1228 12.3336 28.3443C12.5476 28.5658 12.8041 28.7384 13.0865 28.8506C13.3689 28.9629 13.6708 29.0124 13.9728 28.9959C15.3779 28.9644 16.7841 28.9711 18.1903 28.9779H18.1904H18.1904H18.1904L18.1917 28.9779C18.7808 28.9807 19.3699 28.9835 19.9589 28.9835L19.9553 28.9884H20.6676C20.4406 28.4924 20.2732 27.9713 20.1711 27.4349C20.0064 26.7214 19.9665 26.0312 20.0262 25.3596C19.5072 25.3684 18.9908 25.2749 18.5045 25.0838C17.968 24.873 17.4801 24.5481 17.0722 24.1298C16.9994 24.0572 16.9331 23.9777 16.8666 23.898L16.8666 23.898C16.8476 23.8753 16.8286 23.8525 16.8095 23.8298C16.7554 23.7772 16.7162 23.7102 16.6963 23.6361C16.6764 23.5619 16.6766 23.4836 16.6967 23.4095C16.7322 23.3369 16.7893 23.278 16.8595 23.2415C16.9297 23.205 17.0093 23.1927 17.0867 23.2066H19.6832L19.9579 23.219H20.5527C21.0776 22.1056 21.8294 21.087 22.8884 20.3339C22.79 20.3278 22.693 20.306 22.6008 20.2691C22.4815 20.2213 22.3726 20.1492 22.2805 20.0572C22.1883 19.9652 22.1149 19.855 22.0644 19.7331C22.014 19.6113 21.9875 19.4802 21.9866 19.3476C21.9844 19.2154 22.0073 19.084 22.0541 18.9611C22.1008 18.8381 22.1705 18.7258 22.2591 18.6307C22.3476 18.5357 22.4534 18.4596 22.5703 18.4069C22.6872 18.3542 22.813 18.326 22.9405 18.3237C23.068 18.3214 23.1947 18.3452 23.3133 18.3937C23.4319 18.4422 23.5401 18.5143 23.6318 18.6061C23.7235 18.698 23.7968 18.8076 23.8477 18.9289C23.8985 19.0501 23.9258 19.1806 23.928 19.3128C23.9315 19.4451 23.9095 19.5769 23.8633 19.7003C23.8555 19.7211 23.8471 19.7416 23.838 19.7618C24.795 19.2738 25.8332 19 26.9816 19C27.4066 19 27.8255 19.0376 28.2336 19.1109ZM17.8694 18.9635C17.9167 19.086 17.9402 19.217 17.9383 19.3489C17.9405 19.4809 17.9167 19.6118 17.8685 19.7339C17.8202 19.856 17.7485 19.9666 17.6577 20.0591C17.5669 20.1515 17.4588 20.2238 17.3402 20.2715C17.2215 20.3192 17.0947 20.3414 16.9676 20.3367C16.7171 20.3338 16.4777 20.2295 16.3004 20.0461C16.1231 19.8628 16.022 19.6148 16.0185 19.3552C16.0163 19.0885 16.116 18.8318 16.2959 18.6412C16.4758 18.4507 16.7213 18.342 16.9784 18.3387C17.1057 18.3387 17.2317 18.3649 17.3491 18.4159C17.4665 18.4668 17.5729 18.5415 17.6623 18.6355C17.7516 18.7295 17.822 18.841 17.8694 18.9635Z" fill="#858F9B"/>
<path d="M32.5252 23.6867C32.0932 22.6024 31.3013 21.6627 30.2933 21.012C29.3574 20.3614 28.2054 20 26.9815 20C25.7576 20 24.6776 20.3614 23.6697 21.012C22.6617 21.6627 21.9418 22.6024 21.4378 23.6867C21.0058 24.8434 20.8618 26 21.1498 27.2289C21.3658 28.3855 21.9418 29.4699 22.8057 30.3373C23.3097 30.8434 23.9577 31.2771 24.6776 31.5663C25.3976 31.8554 26.1896 32 26.9815 32C27.7735 32 28.5654 31.8554 29.2854 31.5663C30.0054 31.2771 30.6533 30.8434 31.2293 30.2651C32.0932 29.3976 32.6692 28.3133 32.8852 27.1566C33.1012 26 33.0292 24.8434 32.5252 23.6867ZM30.0054 26.7952H24.0297C23.5977 26.7952 23.2377 26.4337 23.2377 26C23.2377 25.5663 23.5977 25.2048 24.0297 25.2048H30.0054C30.4373 25.2048 30.7973 25.5663 30.7973 26C30.7973 26.4337 30.4373 26.7952 30.0054 26.7952Z" fill="#EB3B5B"/>
</g>
<defs>
<clipPath id="clip0_18489_212507">
<rect width="24" height="24" fill="white" transform="translate(9 9)"/>
</clipPath>
</defs>
</svg>
