<svg width="42" height="42" viewBox="0 0 42 42" fill="none" xmlns="http://www.w3.org/2000/svg">
<g clip-path="url(#clip0_18489_212806)">
<path fill-rule="evenodd" clip-rule="evenodd" d="M18.146 13.2897C18.0331 13.2897 17.9219 13.2904 17.8118 13.2911C17.5005 13.293 17.198 13.2949 16.8922 13.2811C16.8178 13.2811 16.7145 13.1678 16.6821 13.0832C16.5555 12.7524 16.445 12.4153 16.351 12.073C16.3356 11.9961 16.3002 11.925 16.2486 11.8675C16.197 11.8101 16.1311 11.7685 16.0583 11.7471C15.7937 11.6458 15.5666 11.4606 15.4094 11.2178C15.2522 10.9751 15.1727 10.687 15.1823 10.3947C15.1874 10.1082 15.2759 9.83002 15.4362 9.59653C15.5965 9.36303 15.821 9.18512 16.0804 9.08626C16.3399 8.9874 16.6221 8.9722 16.89 9.04252C17.158 9.11284 17.3992 9.26542 17.582 9.48035C17.7794 9.71056 17.8986 10.0014 17.9216 10.3085C17.9446 10.6156 17.87 10.9221 17.7092 11.1811C17.6617 11.2489 17.6328 11.3286 17.6254 11.4121C17.618 11.4955 17.6325 11.5795 17.6673 11.6551C17.8129 12.0687 17.941 12.4874 18.069 12.9055L18.1472 13.1604C18.1523 13.2033 18.1519 13.2469 18.146 13.2897ZM21.9422 12.8279L21.9423 12.8277C22.0759 12.4156 22.2028 12.0241 22.3187 11.6261C22.353 11.5019 22.3418 11.3691 22.2875 11.2529C22.1275 11.0041 22.0467 10.7096 22.0565 10.4107C22.0662 10.1118 22.166 9.82352 22.3419 9.58651C22.5179 9.34949 22.761 9.17563 23.0372 9.0893C23.3133 9.00297 23.6087 9.0084 23.8816 9.10509C24.1546 9.20178 24.3914 9.38478 24.5589 9.62827C24.7264 9.87176 24.8161 10.1635 24.8153 10.4626C24.8146 10.7617 24.7235 11.053 24.5548 11.2956C24.3862 11.5382 24.1484 11.7199 23.875 11.8151C23.7699 11.8692 23.6875 11.9612 23.6434 12.0739C23.5234 12.3949 23.4226 12.7259 23.3266 13.0556C23.3215 13.0926 23.3093 13.1283 23.2908 13.1605C23.2723 13.1927 23.2479 13.2207 23.2189 13.243C23.1899 13.2653 23.1569 13.2815 23.1219 13.2905C23.0868 13.2995 23.0504 13.3013 23.0147 13.2957C22.7332 13.2849 22.4518 13.2864 22.1495 13.2881H22.1495H22.1494H22.1494C22.0341 13.2888 21.9158 13.2894 21.7932 13.2894C21.8435 13.1323 21.8931 12.9793 21.9418 12.829L21.942 12.8285L21.9422 12.8279ZM9.35943 23.2611C9.59504 23.6925 9.93439 24.0532 10.3444 24.3081V19.3854C9.93439 19.6403 9.59504 20.001 9.35943 20.4323C9.12382 20.8637 9 21.3511 9 21.8468C9 22.3426 9.12382 22.8298 9.35943 23.2611ZM29.6666 19.3976C30.0734 19.6523 30.41 20.0117 30.6436 20.4409C30.8773 20.87 31 21.3544 31 21.8472C31 22.34 30.8773 22.8244 30.6436 23.2536C30.41 23.6827 30.0734 24.0421 29.6666 24.2967V19.3976ZM18.1904 28.9779H18.1903C16.7841 28.9711 15.3779 28.9644 13.9728 28.9959C13.6708 29.0124 13.3689 28.9629 13.0865 28.8506C12.8041 28.7384 12.5476 28.5658 12.3336 28.3443C12.1197 28.1228 11.9529 27.8571 11.8442 27.5645C11.7355 27.2719 11.6873 26.959 11.7027 26.6458C11.7187 24.5066 11.7165 22.3669 11.7144 20.2273V20.2273V20.2273V20.2272V20.2271V20.227V20.227C11.7133 19.1564 11.7122 18.0858 11.7134 17.0154C11.6921 16.7083 11.7347 16.4 11.8382 16.1114C11.9416 15.8228 12.1037 15.5606 12.3133 15.3425C12.523 15.1244 12.7753 14.9555 13.0534 14.8472C13.3314 14.739 13.6285 14.694 13.9248 14.7151H26.0434C26.3347 14.6925 26.6274 14.7351 26.9015 14.84C27.1757 14.9448 27.4249 15.1095 27.6323 15.3229C27.8397 15.5363 28.0004 15.7933 28.1037 16.0767C28.2069 16.3602 28.2503 16.6633 28.2307 16.9656C28.2363 20.2268 28.2363 23.4879 28.2307 26.7491C28.2484 27.049 28.2042 27.3494 28.1012 27.6302C27.9981 27.9111 27.8386 28.166 27.6331 28.3779C27.4276 28.5897 27.1809 28.7537 26.9095 28.859C26.6381 28.9643 26.3481 29.0084 26.059 28.9884H19.9553L19.9589 28.9835C19.3695 28.9835 18.78 28.9807 18.1904 28.9779H18.1904H18.1904ZM19.9579 23.219H22.8471C22.9674 23.2195 23.0836 23.2635 23.1759 23.3434C23.3079 23.4753 23.2623 23.6408 23.1519 23.7802C22.7912 24.2427 22.3409 24.6216 21.8302 24.8926C21.3195 25.1636 20.7597 25.3207 20.1869 25.3537C19.614 25.3866 19.0409 25.2946 18.5045 25.0838C17.968 24.873 17.4801 24.5481 17.0722 24.1298C16.9994 24.0572 16.9331 23.9777 16.8666 23.898C16.8476 23.8753 16.8286 23.8525 16.8095 23.8298C16.7554 23.7772 16.7162 23.7102 16.6963 23.6361C16.6764 23.5619 16.6766 23.4836 16.6967 23.4095C16.7322 23.3369 16.7893 23.278 16.8595 23.2415C16.9297 23.205 17.0093 23.1927 17.0867 23.2066H19.6832L19.9579 23.219ZM23.3466 20.2549C23.2292 20.3071 23.103 20.3343 22.9753 20.3353C22.8474 20.3393 22.7201 20.3168 22.6008 20.2691C22.4815 20.2213 22.3726 20.1492 22.2805 20.0572C22.1883 19.9652 22.1149 19.855 22.0644 19.7331C22.014 19.6113 21.9875 19.4802 21.9866 19.3476C21.9844 19.2154 22.0073 19.084 22.0541 18.9611C22.1008 18.8381 22.1705 18.7258 22.2591 18.6307C22.3476 18.5357 22.4534 18.4596 22.5703 18.4069C22.6872 18.3542 22.813 18.326 22.9405 18.3237C23.068 18.3214 23.1947 18.3452 23.3133 18.3937C23.4319 18.4422 23.5401 18.5143 23.6318 18.6061C23.7235 18.698 23.7968 18.8076 23.8477 18.9289C23.8985 19.0501 23.9258 19.1806 23.928 19.3128C23.9315 19.4451 23.9095 19.5769 23.8633 19.7003C23.8171 19.8238 23.7476 19.9363 23.6589 20.0316C23.5701 20.1268 23.464 20.2028 23.3466 20.2549ZM17.9383 19.3489C17.9402 19.217 17.9167 19.086 17.8694 18.9635C17.822 18.841 17.7516 18.7295 17.6623 18.6355C17.5729 18.5415 17.4665 18.4668 17.3491 18.4159C17.2317 18.3649 17.1057 18.3387 16.9784 18.3387C16.7213 18.342 16.4758 18.4507 16.2959 18.6412C16.116 18.8318 16.0163 19.0885 16.0185 19.3552C16.022 19.6148 16.1231 19.8628 16.3004 20.0461C16.4777 20.2295 16.7171 20.3338 16.9676 20.3367C17.0947 20.3414 17.2215 20.3192 17.3402 20.2715C17.4588 20.2238 17.5669 20.1515 17.6577 20.0591C17.7485 19.9666 17.8202 19.856 17.8685 19.7339C17.9167 19.6118 17.9405 19.4809 17.9383 19.3489Z" fill="#858F9B"/>
<path d="M27.5 19.5192V19.5H27C25.7144 19.5 24.4577 19.8812 23.3888 20.5954C22.3199 21.3097 21.4868 22.3248 20.9948 23.5126C20.5028 24.7003 20.3741 26.0072 20.6249 27.2681C20.8757 28.529 21.4948 29.6872 22.4038 30.5962C23.3128 31.5052 24.471 32.1243 25.7319 32.3751C26.9928 32.6259 28.2997 32.4972 29.4874 32.0052C30.6752 31.5132 31.6903 30.6801 32.4046 29.6112C33.1188 28.5423 33.5 27.2856 33.5 26C33.5 24.2761 32.8152 22.6228 31.5962 21.4038C30.4956 20.3032 29.041 19.6381 27.5 19.5192ZM26.6683 27.5433L29.7587 24.4264L29.8095 24.4777L26.3127 28.0041L24.8716 26.5508L24.9227 26.4992L25.9583 27.5434L26.3133 27.9014L26.6683 27.5433ZM30.0147 24.2708L30.0142 24.2712L30.0147 24.2708ZM24.7139 26.2887L24.7141 26.2888L24.7139 26.2887Z" fill="#28A745" stroke="white"/>
</g>
<defs>
<clipPath id="clip0_18489_212806">
<rect width="24" height="24" fill="white" transform="translate(9 9)"/>
</clipPath>
</defs>
</svg>
