<svg width="26" height="27" viewBox="0 0 26 27" fill="none" xmlns="http://www.w3.org/2000/svg">
<path d="M1.6665 13.0134C1.6665 16.3847 3.04389 19.327 5.30367 21.3712L5.36031 23.2042C5.36031 23.2043 5.36031 23.2043 5.36031 23.2043C5.4008 24.5157 6.75463 25.3756 7.96053 24.8431C7.96056 24.8431 7.96059 24.8431 7.96062 24.8431C7.96097 24.8429 7.96132 24.8428 7.96168 24.8426L10.0314 23.9303C11.076 24.2117 12.1824 24.3627 13.3332 24.3627C19.857 24.3627 24.9998 19.5481 24.9998 13.0161C24.9998 6.48437 19.8573 1.66675 13.3332 1.66675C6.80934 1.66675 1.6665 6.48137 1.6665 13.0134Z" fill="url(#paint0_radial_11633_99813)" stroke="white" stroke-width="2"/>
<path d="M6.92785 16.04L10.0612 11.0694C10.5598 10.2774 11.6265 10.0827 12.3758 10.6427L14.8692 12.512C15.0985 12.6827 15.4132 12.6827 15.6398 12.5094L19.0051 9.9547C19.4531 9.61336 20.0398 10.152 19.7411 10.6294L16.6052 15.5974C16.1065 16.3894 15.0398 16.584 14.2905 16.024L11.7972 14.1547C11.5678 13.984 11.2532 13.984 11.0265 14.1574L7.66118 16.712C7.21318 17.0534 6.62651 16.5174 6.92785 16.04Z" fill="white"/>
<defs>
<radialGradient id="paint0_radial_11633_99813" cx="0" cy="0" r="1" gradientUnits="userSpaceOnUse" gradientTransform="translate(6.77317 23.8839) scale(23.2448)">
<stop stop-color="#0099FF"/>
<stop offset="0.317708" stop-color="#5364FF"/>
<stop offset="0.6098" stop-color="#A033FF"/>
<stop offset="0.9348" stop-color="#FF91AE"/>
<stop offset="1" stop-color="#FFA399"/>
</radialGradient>
</defs>
</svg>
