<svg width="34" height="33" viewBox="0 0 34 33" fill="none" xmlns="http://www.w3.org/2000/svg">
<path d="M33.2984 2.5799C33.2989 1.91832 33.0427 1.28214 32.583 0.802651C32.1234 0.322946 31.4953 0.0368297 30.8287 0.00341779C30.1621 -0.0301891 29.508 0.191479 29.0016 0.622628C28.4955 1.05376 28.1756 1.66099 28.1087 2.31909C28.0416 2.97719 28.2323 3.63577 28.6416 4.15851C29.0506 4.68103 29.6468 5.02793 30.3067 5.12716V8.4142C29.7453 7.64354 29.1149 6.92469 28.4232 6.26658C25.2467 3.28291 21.0256 1.63777 16.6493 1.67761C12.2728 1.63778 8.05173 3.28291 4.87529 6.26658C4.18358 6.92469 3.55323 7.64354 2.99179 8.4142V5.12716C3.86469 4.99572 4.61093 4.43476 4.97352 3.63694C5.33612 2.83913 5.26572 1.91355 4.78632 1.17879C4.30714 0.443783 3.48441 0 2.60158 0C1.71876 0 0.89599 0.443795 0.416849 1.17879C-0.0625587 1.91355 -0.132937 2.83913 0.229641 3.63694C0.592219 4.43476 1.33848 4.99575 2.21137 5.12716V9.59227C0.753199 12.0359 -0.0109997 14.8251 0.000119631 17.6642V23.5525C0.00128097 24.8957 0.540149 26.1835 1.49849 27.1336C2.45707 28.0833 3.75666 28.6174 5.11196 28.6185H12.3597C12.395 28.6178 12.4264 28.6413 12.4352 28.6751C12.5035 29.379 12.3537 30.0868 12.006 30.7042C11.8682 30.9662 11.8146 31.2636 11.8522 31.5566C11.8898 31.8499 12.0171 32.1245 12.2166 32.3438C12.4127 32.5701 12.6726 32.7328 12.9629 32.8109C13.2533 32.8891 13.5606 32.879 13.8451 32.7821C15.8143 32.1067 18.4992 30.846 20.1171 28.6546H20.1173C20.1322 28.6332 20.1561 28.6199 20.1824 28.6185H28.1871C29.5424 28.6173 30.8419 28.0833 31.8006 27.1336C32.7589 26.1836 33.2978 24.8957 33.2989 23.5526V17.6642C33.3101 14.825 32.5459 12.0359 31.0877 9.59228V5.12717C31.7023 5.03372 32.2627 4.72573 32.6683 4.25846C33.0738 3.79142 33.2975 3.19618 33.2989 2.57997L33.2984 2.5799ZM29.1361 17.5328V22.56C29.1361 23.0728 28.9306 23.5645 28.5647 23.9273C28.1987 24.2898 27.7025 24.4935 27.185 24.4935H6.11309C5.59559 24.4935 5.09945 24.2898 4.7334 23.9273C4.36758 23.5645 4.16201 23.0728 4.16201 22.56V17.5277C3.92788 10.9997 10.1765 5.68915 16.6489 5.67383C23.1498 5.65841 29.3778 10.9847 29.1358 17.533L29.1361 17.5328Z" fill="#95BADD"/>
<path d="M12.487 13.9238C12.487 15.2052 11.4387 16.2441 10.1457 16.2441C8.85263 16.2441 7.80438 15.2052 7.80438 13.9238C7.80438 12.6423 8.85263 11.6035 10.1457 11.6035C11.4387 11.6035 12.487 12.6423 12.487 13.9238Z" fill="#95BADD"/>
<path d="M25.4941 13.9238C25.4941 15.2052 24.4459 16.2441 23.1528 16.2441C21.8598 16.2441 20.8115 15.2052 20.8115 13.9238C20.8115 12.6423 21.8598 11.6035 23.1528 11.6035C24.4459 11.6035 25.4941 12.6423 25.4941 13.9238Z" fill="#95BADD"/>
<path d="M20.2395 17.2747H13.0595C12.7077 17.2765 12.375 17.4342 12.153 17.7049C11.9307 17.9753 11.8424 18.33 11.9124 18.6719C12.2262 20.1138 13.1913 21.3326 14.5296 21.9778C15.868 22.623 17.4312 22.623 18.7695 21.9778C20.1079 21.3326 21.0729 20.1138 21.3868 18.6719C21.4562 18.3303 21.3677 17.9756 21.1457 17.7053C20.9236 17.4349 20.5912 17.277 20.2396 17.2747L20.2395 17.2747ZM20.6218 18.5096C20.4964 19.086 20.243 19.6276 19.8804 20.0951C18.9827 19.3265 17.8359 18.9037 16.6495 18.9037C15.4631 18.9037 14.3164 19.3265 13.4186 20.0951C13.0549 19.6281 12.8017 19.0862 12.6772 18.5096C12.6512 18.3957 12.6797 18.2764 12.7545 18.1862C12.8293 18.096 12.9417 18.0451 13.0595 18.0481H20.2395C20.3572 18.0451 20.4697 18.096 20.5445 18.1862C20.6192 18.2764 20.6478 18.3957 20.6218 18.5096H20.6218Z" fill="#95BADD"/>
</svg>
