<svg width="20" height="20" viewBox="0 0 20 20" fill="none" xmlns="http://www.w3.org/2000/svg">
<path d="M2.5 3.96399C2.57046 3.86613 2.57046 3.7487 2.61352 3.64301C2.86795 2.96973 3.51383 2.50391 4.23408 2.50391C5.92119 2.5 7.61221 2.50391 9.29932 2.5C9.38544 2.5 9.41675 2.51174 9.41675 2.6096C9.40892 2.92667 9.40892 3.24374 9.41675 3.5608C9.42067 3.68606 9.35804 3.67432 9.27584 3.67432C7.92537 3.67432 6.57098 3.67432 5.22051 3.67432C4.90736 3.67432 4.59421 3.67432 4.28497 3.67432C3.92484 3.67824 3.67432 3.92093 3.67432 4.28105C3.67432 8.09369 3.67432 11.9063 3.67432 15.7189C3.67432 16.0791 3.92484 16.3296 4.28105 16.3296C8.09369 16.3296 11.9063 16.3296 15.7189 16.3296C16.083 16.3296 16.3257 16.0791 16.3257 15.7072C16.3257 14.0514 16.3296 12.3956 16.3218 10.7437C16.3218 10.6106 16.357 10.5832 16.4823 10.5872C16.7797 10.595 17.0772 10.5911 17.3747 10.5872C17.4609 10.5872 17.5 10.595 17.5 10.7007C17.4961 12.3878 17.5 14.0788 17.4961 15.7659C17.4922 16.6232 16.8659 17.3317 16.0047 17.4726C15.993 17.4726 15.9851 17.4883 15.9773 17.5C11.9729 17.5 7.97234 17.5 3.9679 17.5C3.9405 17.4491 3.8857 17.4609 3.84264 17.4491C3.21634 17.2769 2.80141 16.8854 2.58612 16.2748C2.55872 16.1965 2.56654 16.1026 2.50391 16.036C2.5 12.012 2.5 7.988 2.5 3.96399Z" fill="#929DAA"/>
<path d="M16.3073 4.4902C16.261 4.5443 16.2185 4.60227 16.1684 4.6525C13.1616 7.66292 10.1548 10.6695 7.15571 13.6838C7.06308 13.7765 7.02062 13.7688 6.9357 13.6799C6.72727 13.4596 6.51112 13.2471 6.29497 13.0345C6.24094 12.9843 6.22936 12.9456 6.29497 12.8993C6.31427 12.8838 6.32971 12.8645 6.34515 12.849C9.34808 9.84248 12.3472 6.83593 15.3501 3.83324C15.4003 3.783 15.4582 3.74049 15.5122 3.69412C15.5045 3.68253 15.5006 3.67093 15.4929 3.65934C15.4466 3.65934 15.4003 3.65934 15.3578 3.65934C14.1921 3.65934 13.0265 3.65547 11.8647 3.6632C11.745 3.6632 11.7141 3.63615 11.718 3.51635C11.7257 3.21492 11.7257 2.90963 11.718 2.60434C11.718 2.52319 11.7412 2.5 11.8222 2.5C13.6788 2.50386 15.5392 2.50386 17.3958 2.5C17.4768 2.5 17.5 2.52319 17.5 2.60434C17.4961 4.46315 17.4961 6.32582 17.5 8.18462C17.5 8.26578 17.4807 8.28896 17.3958 8.28896C17.087 8.2851 16.7782 8.28123 16.4733 8.28896C16.3652 8.29283 16.3382 8.26191 16.3421 8.15757C16.3459 6.99437 16.3459 5.83503 16.3459 4.67183C16.3459 4.61772 16.3459 4.56749 16.3459 4.51338C16.3305 4.50952 16.3189 4.49793 16.3073 4.4902Z" fill="#929DAA"/>
</svg>
