<svg width="106" height="105" viewBox="0 0 106 105" fill="none" xmlns="http://www.w3.org/2000/svg">
<path d="M60.705 68.8516C60.636 69.0926 60.561 69.3346 60.469 69.5706C60.3834 69.816 60.2833 70.0561 60.169 70.2896C59.5178 71.8193 58.3777 73.09 56.9272 73.9026C55.4767 74.7153 53.7977 75.024 52.153 74.7806C50.8235 74.6409 49.554 74.154 48.4721 73.3687C47.3902 72.5834 46.5339 71.5274 45.989 70.3066C45.863 70.0646 45.753 69.8236 45.65 69.5876C45.547 69.3516 45.45 69.1046 45.363 68.8686L60.705 68.8516Z" fill="#D8DFE5"/>
<path d="M57.513 16.2382H57.507L56.794 16.2272C56.7945 16.1937 56.7925 16.1603 56.788 16.1272C55.6265 15.9516 54.4553 15.8477 53.281 15.8162C52.999 15.8102 52.718 15.8052 52.441 15.8052C51.889 15.8052 51.3427 15.8225 50.802 15.8572L48.473 16.0932H48.463C48.474 15.9152 48.497 15.6562 48.538 15.3512C48.567 15.1332 48.607 14.8802 48.659 14.6152C49.05 12.5742 50.171 9.53817 53.34 9.72717C56.284 9.90517 57.175 12.6882 57.422 14.7762C57.457 15.0352 57.474 15.2822 57.491 15.5122C57.508 15.7782 57.513 16.0262 57.513 16.2382Z" fill="#FDFDFD"/>
<path d="M85.448 60.3815C82.498 55.9075 77.013 57.2705 77.823 44.2185C78.1211 39.4682 77.3569 34.7113 75.586 30.2935C75.563 30.2305 75.534 30.1675 75.505 30.1035C74.6958 28.144 73.6522 26.2899 72.397 24.5815C71.954 23.9815 71.483 23.4085 70.988 22.8505C68.9817 20.5909 66.5363 18.7635 63.801 17.4795C63.444 17.3075 63.077 17.1465 62.701 16.9965C61.253 16.4026 59.751 15.9501 58.216 15.6455C57.974 15.5935 57.733 15.5455 57.486 15.5075C57.239 15.4695 57.003 15.4275 56.756 15.3925C54.2764 15.0315 51.7612 14.9851 49.27 15.2545C49.023 15.2835 48.775 15.3115 48.534 15.3465C48.293 15.3815 48.04 15.4215 47.798 15.4615C33.56 17.8825 27.344 31.3935 27.557 41.4755C27.793 52.3025 27.793 55.9365 22.514 59.0125C17.592 61.8765 20.597 69.2535 25.366 69.4715C27.24 69.5575 35.791 69.5865 45.652 69.5865C50.488 69.5865 55.64 69.5805 60.47 69.5695C70.785 69.5405 79.641 69.5005 80.859 69.4695C83.809 69.4025 88.397 64.8545 85.448 60.3815Z" fill="#FDFDFD"/>
<path d="M86.046 59.9881C85.1947 58.7844 84.133 57.7444 82.912 56.9181C80.382 54.9981 77.99 53.1811 78.536 44.2681C78.8407 39.4439 78.0687 34.6122 76.276 30.1231C76.241 30.0421 76.207 29.9621 76.176 29.8871C75.448 28.1287 74.5434 26.4488 73.476 24.8731C72.831 23.9245 72.1203 23.0223 71.349 22.1731C71.136 21.9371 70.918 21.7131 70.693 21.4891C68.7716 19.5482 66.5211 17.9636 64.046 16.8091C63.684 16.6421 63.316 16.4811 62.946 16.3261C61.4015 15.6992 59.7992 15.2256 58.162 14.9121C58.0691 13.3252 57.5074 11.8015 56.548 10.5341C56.1546 10.0757 55.6706 9.7037 55.1264 9.44142C54.5822 9.17915 53.9897 9.0323 53.386 9.01011C52.781 8.95645 52.1715 9.03057 51.5969 9.22765C51.0224 9.42473 50.4957 9.74037 50.051 10.1541C48.873 11.4142 48.1224 13.0138 47.906 14.7251C42.9781 15.4742 38.4156 17.7696 34.877 21.2801C29.6355 26.6913 26.7459 33.9552 26.838 41.4881C27.08 52.5801 26.938 55.5881 22.152 58.3881C21.0376 59.0187 20.1676 60.0057 19.6817 61.1903C19.1959 62.375 19.1224 63.6886 19.473 64.9201C20.088 67.4361 22.301 70.0471 25.328 70.1881C27.156 70.2741 35.298 70.3031 44.815 70.3031H45.206C45.7752 71.7098 46.7155 72.9357 47.9266 73.8501C49.1377 74.7644 50.5742 75.333 52.083 75.4951C52.439 75.5301 52.783 75.5471 53.129 75.5471C54.2658 75.5765 55.3959 75.3652 56.4453 74.9271C57.4947 74.489 58.4396 73.834 59.218 73.0051C59.9543 72.2081 60.544 71.2873 60.96 70.2851C71.149 70.2561 79.797 70.2161 80.872 70.1851C82.872 70.1391 85.23 68.4601 86.372 66.2851C86.9095 65.3093 87.1638 64.2027 87.1062 63.0902C87.0486 61.9776 86.6814 60.9032 86.046 59.9881ZM51.023 11.2071C51.6517 10.6671 52.4658 10.3929 53.2931 10.4423C54.1204 10.4918 54.8961 10.8611 55.456 11.4721C56.1557 12.3984 56.5821 13.502 56.687 14.6581C55.5718 14.5018 54.4487 14.4077 53.323 14.3761C52.0159 14.3366 50.7077 14.3847 49.407 14.5201C49.6101 13.2815 50.1719 12.1296 51.023 11.2071ZM58.17 72.0251C57.4118 72.8113 56.4778 73.4063 55.4448 73.7611C54.4118 74.116 53.3093 74.2205 52.228 74.0661C51.0781 73.9577 49.9755 73.5548 49.0266 72.8962C48.0778 72.2376 47.3147 71.3455 46.811 70.3061H48.576C51.767 70.3001 55.039 70.3001 58.213 70.2951C58.541 70.2891 58.863 70.2891 59.185 70.2891H59.375C59.057 70.9216 58.6514 71.506 58.17 72.0251ZM85.103 65.6191C84.6913 66.4413 84.0904 67.1541 83.3497 67.6989C82.609 68.2437 81.7495 68.605 80.842 68.7531C79.761 68.7821 70.987 68.8221 60.706 68.8531C55.715 68.8591 50.362 68.8701 45.365 68.8701C35.642 68.8701 27.258 68.8411 25.401 68.7551C23.072 68.6441 21.358 66.5741 20.87 64.5881C20.5909 63.6577 20.6376 62.6598 21.0026 61.7595C21.3675 60.8593 22.0288 60.1105 22.877 59.6371C28.598 56.3021 28.506 52.2601 28.277 41.4611C28.1903 34.321 30.9264 27.4354 35.89 22.3021C39.1194 19.1041 43.2544 16.9769 47.734 16.2091L48.464 16.0881H48.476L50.805 15.8521C51.3457 15.8174 51.892 15.8001 52.444 15.8001C52.72 15.8001 53.002 15.8061 53.284 15.8111C54.4583 15.8427 55.6295 15.9465 56.791 16.1221C57.0278 16.1768 57.268 16.2152 57.51 16.2371H57.516C57.7633 16.2771 58.005 16.3231 58.241 16.3751C59.702 16.6734 61.1321 17.1065 62.513 17.6691C62.887 17.8301 63.255 17.9971 63.623 18.1691C66.1436 19.3831 68.4063 21.0719 70.287 23.1431C72.185 25.2508 73.7089 27.6672 74.793 30.2881C74.8145 30.3351 74.8335 30.3832 74.85 30.4321C76.6304 34.7839 77.401 39.4826 77.104 44.1751C76.504 53.8521 79.324 55.9911 82.043 58.0561C83.1328 58.7885 84.083 59.7097 84.849 60.7761C85.3434 61.4774 85.6295 62.3041 85.6745 63.161C85.7194 64.0178 85.5213 64.8699 85.103 65.6191Z" fill="#72818D"/>
<path d="M66.739 43.1957C66.718 43.0707 66.199 40.0857 64.077 40.2907C61.839 40.5067 61.477 43.1458 61.477 43.1727L60.051 42.9918C60.218 41.6768 61.245 39.1208 63.94 38.8598C66.714 38.5898 67.914 41.4308 68.159 42.9688L66.739 43.1957Z" fill="#72818D"/>
<path d="M44.314 43.197C44.293 43.072 43.778 40.097 41.652 40.292C39.415 40.508 39.052 43.147 39.052 43.174L37.626 42.993C37.793 41.678 38.82 39.122 41.515 38.861C44.287 38.589 45.488 41.431 45.734 42.97L44.314 43.197Z" fill="#72818D"/>
<path d="M53.1289 54.2626C51.7224 54.1881 50.3469 53.8202 49.0909 53.1826L49.4389 52.3936C52.7909 53.8756 53.9759 53.5936 56.5069 52.3936L56.8739 53.1736C55.7256 53.8188 54.4442 54.1914 53.1289 54.2626Z" fill="#72818D"/>
<path d="M53 96.6639C72.0538 96.6639 87.5 94.6044 87.5 92.0639C87.5 89.5234 72.0538 87.4639 53 87.4639C33.9462 87.4639 18.5 89.5234 18.5 92.0639C18.5 94.6044 33.9462 96.6639 53 96.6639Z" fill="#F8F9FB"/>
<path opacity="0.6" d="M72.55 30.5398C78.2661 30.5398 82.9 25.906 82.9 20.1898C82.9 14.4737 78.2661 9.83984 72.55 9.83984C66.8338 9.83984 62.2 14.4737 62.2 20.1898C62.2 25.906 66.8338 30.5398 72.55 30.5398Z" fill="#28A745"/>
<path d="M73.413 30.541C78.9706 30.541 83.476 26.0357 83.476 20.478C83.476 14.9204 78.9706 10.415 73.413 10.415C67.8553 10.415 63.35 14.9204 63.35 20.478C63.35 26.0357 67.8553 30.541 73.413 30.541Z" fill="#28A745"/>
<path d="M76.5119 18.7396C76.3829 18.2629 76.1666 17.8143 75.8739 17.4166C75.6146 17.0835 75.2793 16.8174 74.8959 16.6406C74.5162 16.47 74.1047 16.3818 73.6884 16.3818C73.2722 16.3818 72.8607 16.47 72.4809 16.6406C72.104 16.8195 71.775 17.0855 71.5209 17.4166C71.2283 17.8143 71.0119 18.2629 70.8829 18.7396C70.7184 19.3564 70.641 19.9933 70.6529 20.6316C70.6512 20.9177 70.6646 21.2038 70.6929 21.4886C70.7221 21.839 70.7858 22.1857 70.8829 22.5236C70.9179 22.6386 70.9519 22.7476 70.9919 22.8516C71.1128 23.2099 71.2915 23.546 71.5209 23.8466C71.7545 24.1557 72.0554 24.4074 72.4009 24.5826C72.4259 24.6013 72.4531 24.6167 72.4819 24.6286C72.7958 24.7699 73.1332 24.8516 73.4769 24.8696C73.5475 24.8791 73.6188 24.8828 73.6899 24.8806C74.1057 24.8828 74.5171 24.7965 74.8969 24.6276C75.2818 24.4505 75.6175 24.182 75.8749 23.8456C76.1697 23.4495 76.3862 23.0008 76.5129 22.5236C76.6825 21.9076 76.762 21.2703 76.7489 20.6316C76.7617 19.9928 76.6819 19.3555 76.5119 18.7396ZM75.1529 22.1256C75.0899 22.4574 74.9712 22.7762 74.8019 23.0686C74.6805 23.2776 74.5032 23.4487 74.2899 23.5626C74.1031 23.6538 73.8979 23.701 73.6899 23.7006C73.4863 23.7001 73.2855 23.6529 73.1029 23.5626C72.8892 23.4514 72.7132 23.2795 72.5969 23.0686C72.4277 22.7762 72.309 22.4574 72.2459 22.1256C72.1543 21.6327 72.1117 21.1319 72.1189 20.6306C72.112 20.1276 72.1545 19.6252 72.2459 19.1306C72.3111 18.7993 72.4296 18.4808 72.5969 18.1876C72.7149 17.9792 72.8906 17.8093 73.1029 17.6986C73.2841 17.6037 73.4855 17.5543 73.6899 17.5546C73.8986 17.5534 74.1045 17.6028 74.2899 17.6986C74.5018 17.8122 74.6787 17.9812 74.8019 18.1876C74.9692 18.4808 75.0878 18.7993 75.1529 19.1306C75.2492 19.6246 75.2935 20.1273 75.2849 20.6306C75.2937 21.1322 75.2495 21.6333 75.1529 22.1256Z" fill="white"/>
<path d="M26.647 23.2393C26.5291 23.2392 26.413 23.21 26.309 23.1543L21.981 20.8433C21.8185 20.7505 21.6986 20.598 21.6468 20.4182C21.595 20.2384 21.6153 20.0454 21.7034 19.8804C21.7915 19.7153 21.9406 19.5911 22.1188 19.5341C22.2971 19.4772 22.4905 19.4919 22.658 19.5753L26.987 21.8863C27.1283 21.9619 27.2403 22.0825 27.3053 22.2291C27.3702 22.3756 27.3843 22.5396 27.3453 22.6951C27.3064 22.8505 27.2166 22.9885 27.0903 23.0871C26.9639 23.1857 26.8083 23.2393 26.648 23.2393H26.647Z" fill="#72818D"/>
<path d="M20.43 26.944C20.2495 26.9429 20.0761 26.874 19.9441 26.7509C19.812 26.6278 19.7311 26.4596 19.7174 26.2797C19.7037 26.0997 19.7581 25.9212 19.87 25.7795C19.9818 25.6378 20.1428 25.5434 20.321 25.515L25.321 24.744C25.4161 24.7253 25.514 24.726 25.6088 24.7461C25.7036 24.7662 25.7933 24.8052 25.8727 24.8609C25.952 24.9166 26.0192 24.9877 26.0704 25.07C26.1215 25.1523 26.1555 25.2441 26.1703 25.3399C26.185 25.4356 26.1803 25.5334 26.1563 25.6273C26.1324 25.7212 26.0897 25.8093 26.0308 25.8863C25.9719 25.9632 25.8981 26.0275 25.8138 26.0752C25.7294 26.123 25.6363 26.1531 25.54 26.164L20.54 26.935C20.5036 26.9408 20.4669 26.9438 20.43 26.944Z" fill="#72818D"/>
<path d="M28.858 21.0767C28.6954 21.0767 28.5376 21.0215 28.4104 20.9201C28.2832 20.8188 28.1942 20.6772 28.158 20.5187L27.089 15.8877C27.0678 15.7958 27.0649 15.7006 27.0805 15.6075C27.0961 15.5145 27.1298 15.4254 27.1798 15.3454C27.2298 15.2654 27.2951 15.1961 27.3719 15.1413C27.4487 15.0865 27.5356 15.0474 27.6275 15.0262C27.7194 15.005 27.8146 15.0021 27.9077 15.0177C28.0007 15.0333 28.0898 15.067 28.1698 15.117C28.2498 15.167 28.3191 15.2323 28.3739 15.3091C28.4287 15.3859 28.4678 15.4728 28.489 15.5647L29.558 20.1957C29.582 20.301 29.582 20.4104 29.558 20.5157C29.534 20.6211 29.4867 20.7197 29.4195 20.8042C29.3523 20.8888 29.2669 20.9572 29.1698 21.0044C29.0726 21.0515 28.966 21.0762 28.858 21.0767Z" fill="#72818D"/>
</svg>
