<svg width="110" height="82" viewBox="0 0 110 82" fill="none" xmlns="http://www.w3.org/2000/svg">
<path d="M55 82C85.3757 82 110 77.0751 110 71C110 64.9249 85.3757 60 55 60C24.6243 60 0 64.9249 0 71C0 77.0751 24.6243 82 55 82Z" fill="#F0F1F3"/>
<g clip-path="url(#clip0_5662_92636)">
<path d="M40.658 73.0581C36.629 73.0581 33.3521 69.7806 33.3521 65.7522C33.3521 61.7232 36.629 58.4463 40.658 58.4463C44.6863 58.4463 47.9633 61.7232 47.9633 65.7522C47.9633 69.7806 44.6863 73.0581 40.658 73.0581Z" fill="#A1ACB8"/>
<path d="M40.6587 68.1868C39.315 68.1868 38.2231 67.0955 38.2231 65.7519C38.2231 64.4083 39.315 63.3164 40.6587 63.3164C42.0023 63.3164 43.0935 64.4083 43.0935 65.7519C43.0935 67.0955 42.0023 68.1868 40.6587 68.1868Z" fill="#CDD3DB"/>
<path d="M75.0764 73.0581C71.0481 73.0581 67.7705 69.7806 67.7705 65.7522C67.7705 61.7232 71.0481 58.4463 75.0764 58.4463C79.1048 58.4463 82.3824 61.7232 82.3824 65.7522C82.3824 69.7806 79.1048 73.0581 75.0764 73.0581Z" fill="#A1ACB8"/>
<path d="M75.0757 68.1868C73.732 68.1868 72.6401 67.0955 72.6401 65.7519C72.6401 64.4083 73.732 63.3164 75.0757 63.3164C76.4193 63.3164 77.5105 64.4083 77.5105 65.7519C77.5105 67.0955 76.4193 68.1868 75.0757 68.1868Z" fill="#CDD3DB"/>
<path d="M82.7723 56.0103C82.7723 57.3742 81.7007 58.4458 80.3374 58.4458H33.7429C29.7 58.4458 26.437 55.1822 26.437 51.1399C26.437 47.4388 29.1642 44.3698 32.7683 43.9316C33.0607 43.834 33.4018 43.834 33.7429 43.834C34.3269 43.834 34.9116 44.0781 35.3015 44.4674L33.84 48.705C33.7918 48.705 33.7918 48.705 33.7429 48.705C32.379 48.705 31.3074 49.776 31.3074 51.1399C31.3074 52.5038 32.379 53.5754 33.7429 53.5754H80.3374C81.7007 53.5754 82.7723 54.6464 82.7723 56.0103Z" fill="#A1ACB8"/>
<path d="M25.1616 9.74652C25.3163 9.94118 27.9389 11.1257 30.5792 12.2854C30.5887 12.0755 30.6153 11.8675 30.5678 11.6532L28.4252 1.91177C28.1798 0.793874 27.1906 0 26.0467 0H11.4355C10.0894 0 9 1.08936 9 2.43552C9 3.78105 10.0894 4.87041 11.4355 4.87041H24.0893L25.1616 9.74652Z" fill="#A1ACB8"/>
<path d="M82.7718 56.0111C82.7718 57.375 81.7002 58.4466 80.3369 58.4466H57.4287V53.5762H80.3369C81.7002 53.5762 82.7718 54.6471 82.7718 56.0111Z" fill="#CDD3DB"/>
<path d="M91.6366 10.7158C91.1496 10.0823 90.4673 9.74121 89.688 9.74121H25.1699L32.7682 43.9323L33.8398 48.7057H79.9472C81.0188 48.7057 81.9928 47.9746 82.2851 46.9519L92.0259 12.8584C92.2212 12.1279 92.0747 11.2998 91.6366 10.7158Z" fill="#CDD3DB"/>
<path d="M92.0256 12.8584L82.2848 46.9519C81.9925 47.9746 81.0186 48.7057 79.947 48.7057H57.4287V9.74121H89.6878C90.4671 9.74121 91.1493 10.0823 91.6363 10.7158C92.0745 11.2998 92.2209 12.1279 92.0256 12.8584Z" fill="#CDD3DB"/>
</g>
<defs>
<clipPath id="clip0_5662_92636">
<rect width="83.1109" height="73.058" fill="white" transform="translate(9)"/>
</clipPath>
</defs>
</svg>
