<svg width="85" height="84" viewBox="0 0 85 84" fill="none" xmlns="http://www.w3.org/2000/svg">
    <rect x="0.5" width="84" height="84" rx="42" fill="#FFEEB9"/>
    <path d="M42.094 71.2045H41.6491L30.5519 65.8508C25.7027 63.5102 20.853 61.17 16.0029 58.8302C15.8078 58.7692 15.633 58.6562 15.4973 58.5033C15.3616 58.3505 15.27 58.1636 15.2324 57.9627C15.239 57.7776 15.2521 57.5926 15.2521 57.4075C15.2521 47.6023 15.2521 37.7974 15.2521 27.9931C15.2521 27.808 15.239 27.6229 15.2324 27.4379L15.3637 27.1045C15.5486 27.1161 15.7283 27.1704 15.8887 27.2633C19.0955 28.8112 22.3024 30.3591 25.5093 31.9069C31.0367 34.5774 36.5636 37.2493 42.0901 39.9224C42.0919 50.3498 42.0932 60.7771 42.094 71.2045ZM27.4085 52.9608C27.4085 52.5355 27.2313 52.2782 26.7378 52.0354C26.0225 51.6837 25.3033 51.3411 24.5866 50.9959C22.8839 50.1761 21.1815 49.3558 19.4797 48.535C19.3139 48.4303 19.1202 48.3784 18.9243 48.3862C18.7284 48.3939 18.5394 48.4609 18.3824 48.5783C18.2406 48.6856 18.1336 48.8324 18.075 49.0004C18.0164 49.1683 18.0087 49.3498 18.053 49.522C18.0945 49.6844 18.1765 49.8335 18.2912 49.9556C18.406 50.0777 18.5498 50.1687 18.7093 50.2202C20.6614 51.1617 22.6126 52.105 24.563 53.05C25.0801 53.2994 25.5881 53.575 26.1196 53.7876C26.2577 53.8562 26.4111 53.8877 26.565 53.8793C26.7189 53.8709 26.868 53.8228 26.9977 53.7397C27.1275 53.6566 27.2336 53.5413 27.3056 53.405C27.3775 53.2687 27.413 53.1161 27.4085 52.9621V52.9608ZM23.8135 55.2485C23.7814 55.0633 23.7014 54.8898 23.5815 54.7452C23.4615 54.6006 23.3057 54.4899 23.1297 54.4242C21.896 53.827 20.6649 53.2246 19.4272 52.634C19.3249 52.569 19.2106 52.5252 19.0912 52.5051C18.9717 52.4851 18.8494 52.4891 18.7315 52.517C18.6136 52.5448 18.5025 52.596 18.4046 52.6675C18.3068 52.739 18.2243 52.8293 18.1619 52.9332C18.0929 53.0395 18.0474 53.1592 18.0285 53.2845C18.0097 53.4098 18.0179 53.5377 18.0526 53.6596C18.0873 53.7815 18.1477 53.8945 18.2297 53.991C18.3117 54.0876 18.4135 54.1655 18.5281 54.2194C19.8643 54.9006 21.2148 55.5543 22.5838 56.1685C22.7269 56.2231 22.8816 56.2407 23.0334 56.2195C23.1851 56.1984 23.3291 56.1393 23.4519 56.0476C23.5747 55.956 23.6724 55.8348 23.7358 55.6953C23.7993 55.5558 23.8265 55.4025 23.8149 55.2498L23.8135 55.2485Z" fill="url(#paint0_linear_19187_211870)"/>
    <path d="M42.0947 71.2058C42.0947 60.7785 42.0947 50.3506 42.0947 39.9224L44.6016 38.7201C46.4063 37.8539 48.2188 37.0021 50.0143 36.1161C50.8972 35.7308 51.7524 35.2848 52.5737 34.7813L52.7602 34.8063C52.7602 38.049 52.7641 41.2917 52.7719 44.5345C52.7719 45.3679 52.9806 45.4913 53.7432 45.1265C55.4494 44.3088 57.1386 43.4675 58.8619 42.6826C59.1645 42.5684 59.4205 42.3568 59.5897 42.0812C59.7588 41.8056 59.8315 41.4815 59.7964 41.1601C59.7728 38.1413 59.7873 35.1225 59.7846 32.1038C59.8221 31.8818 59.7938 31.6537 59.7033 31.4475C59.7059 31.4135 59.7059 31.3793 59.7033 31.3452C59.9253 31.3291 60.14 31.2583 60.328 31.1391L68.2437 27.2817C68.4186 27.1768 68.6163 27.116 68.8199 27.1045C68.9275 27.1885 68.9197 27.3184 68.9512 27.4326C68.9446 27.6177 68.9301 27.8027 68.9301 27.9878C68.9301 37.7931 68.9301 47.5987 68.9301 57.4049C68.9301 57.5899 68.9433 57.775 68.9512 57.9601C68.8842 58.5074 68.4524 58.7003 68.0324 58.9037C61.2284 62.1876 54.4248 65.4724 47.6217 68.758C45.9587 69.5612 44.3063 70.3868 42.6486 71.2019L42.0947 71.2058Z" fill="url(#paint1_linear_19187_211870)"/>
    <path d="M68.8252 27.1077C68.6212 27.119 68.4229 27.1798 68.2477 27.2849L60.3176 31.1384C60.1295 31.2575 59.9149 31.3283 59.6928 31.3444C57.9551 30.5106 56.2177 29.6762 54.4809 28.8415C48.3742 25.8892 42.269 22.9344 36.165 19.9769C35.0954 19.5113 34.0506 18.9909 33.0347 18.4176C33.2276 18.31 33.4153 18.1919 33.6135 18.0948C36.2918 16.7928 38.9711 15.4929 41.6512 14.1953H42.5424C42.5674 14.2223 42.5956 14.2461 42.6264 14.2662L68.2018 26.5879C68.4658 26.6798 68.6873 26.8646 68.8252 27.1077Z" fill="url(#paint2_linear_19187_211870)"/>
    <path d="M15.2329 57.9632H15.1896L15.1489 57.9527V27.4462C15.1756 27.4355 15.2047 27.4328 15.2329 27.4384C15.2395 27.6234 15.2526 27.8085 15.2526 27.9936C15.2526 37.7988 15.2526 47.6036 15.2526 57.408C15.2526 57.593 15.2395 57.7781 15.2329 57.9632Z" fill="#FEF4D5"/>
    <path d="M69.0399 57.9537L68.9979 57.9629H68.9546C68.948 57.7778 68.9336 57.5927 68.9336 57.4077C68.9336 47.6024 68.9336 37.7967 68.9336 27.9906C68.9336 27.8056 68.9467 27.6205 68.9546 27.4354C68.9833 27.4312 69.0127 27.4344 69.0399 27.4446V57.9537Z" fill="#FEF4D5"/>
    <path d="M15.3628 27.1039C15.4795 26.8911 15.6678 26.7264 15.8944 26.6393C19.1494 25.0643 22.4044 23.4937 25.6594 21.9274C25.7448 21.8927 25.8325 21.8638 25.9218 21.8408C26.1331 21.955 26.3405 22.0784 26.5571 22.1834C30.8787 24.2711 35.2008 26.358 39.5233 28.444C42.311 29.788 45.1027 31.1241 47.8865 32.4734C49.4523 33.232 51.009 34.0116 52.5708 34.782C51.7495 35.2855 50.8944 35.7315 50.0115 36.1169C48.216 37.0015 46.4034 37.8546 44.5987 38.7209L42.0918 39.9231L25.511 31.9077C22.305 30.3589 19.0982 28.8111 15.8904 27.2641C15.7294 27.1703 15.5487 27.1155 15.3628 27.1039Z" fill="url(#paint3_linear_19187_211870)"/>
    <path d="M27.4094 52.9611C27.4143 53.1154 27.379 53.2684 27.3071 53.4051C27.2351 53.5417 27.129 53.6573 26.999 53.7406C26.8689 53.824 26.7196 53.8721 26.5654 53.8804C26.4112 53.8887 26.2574 53.8569 26.1192 53.788C25.5942 53.5714 25.0798 53.2997 24.5626 53.0503C22.6114 52.1071 20.6601 51.1638 18.7089 50.2206C18.5494 50.1691 18.4057 50.0781 18.2909 49.956C18.1761 49.8339 18.0942 49.6847 18.0526 49.5224C18.0085 49.3501 18.0163 49.1686 18.0749 49.0008C18.1335 48.8329 18.2403 48.6861 18.3821 48.5787C18.5391 48.4613 18.728 48.3942 18.924 48.3865C19.1199 48.3788 19.3135 48.4307 19.4793 48.5353C21.1794 49.3587 22.8817 50.179 24.5862 50.9963C25.3042 51.3415 26.0234 51.684 26.7374 52.0358C27.2296 52.2786 27.4121 52.5359 27.4094 52.9611Z" fill="#FEF4D5"/>
    <path d="M23.8149 55.2503C23.8265 55.403 23.7992 55.5561 23.7358 55.6954C23.6725 55.8347 23.5749 55.9558 23.4523 56.0474C23.3297 56.139 23.1859 56.1982 23.0343 56.2195C22.8827 56.2408 22.7282 56.2234 22.5851 56.1691C21.2175 55.5562 19.8656 54.9012 18.5295 54.2201C18.4149 54.1661 18.3131 54.0882 18.2311 53.9917C18.149 53.8951 18.0886 53.782 18.0539 53.6602C18.0192 53.5383 18.011 53.4104 18.0299 53.2851C18.0488 53.1598 18.0943 53.0401 18.1633 52.9338C18.2257 52.83 18.3082 52.7396 18.406 52.6681C18.5038 52.5966 18.615 52.5455 18.7329 52.5176C18.8508 52.4897 18.9731 52.4856 19.0925 52.5057C19.212 52.5258 19.3263 52.5696 19.4286 52.6345C20.6662 53.2252 21.8973 53.8276 23.1311 54.4248C23.3073 54.4907 23.4631 54.6015 23.5831 54.7464C23.7031 54.8912 23.783 55.065 23.8149 55.2503Z" fill="#FEE07D"/>
    <path d="M52.5704 34.7802C51.0098 34.0098 49.4533 33.2302 47.8861 32.4716C45.101 31.1223 42.3093 29.7875 39.5229 28.4422C35.2004 26.3571 30.8783 24.2702 26.5566 22.1816C26.3401 22.0766 26.1327 21.9545 25.9214 21.839C28.2773 20.667 30.632 19.4936 33.0325 18.416C34.0484 18.9894 35.0932 19.5099 36.1629 19.9753C42.2651 22.9354 48.3704 25.8902 54.4787 28.8399C56.2139 29.679 57.9512 30.5133 59.6907 31.3428C59.6934 31.3769 59.6934 31.4111 59.6907 31.4452C59.3048 31.6224 58.9151 31.793 58.5331 31.9781C56.6024 32.9113 54.7163 33.9363 52.7581 34.8039L52.5704 34.7802Z" fill="#FB4E59"/>
    <path d="M52.7573 34.8079C54.7261 33.9403 56.6056 32.9139 58.5324 31.9821C58.9143 31.797 59.3041 31.6264 59.69 31.4492C59.7805 31.6554 59.8088 31.8835 59.7714 32.1055C59.7714 35.1242 59.7596 38.143 59.7832 41.1617C59.8185 41.4832 59.7459 41.8073 59.5767 42.083C59.4075 42.3587 59.1514 42.5702 58.8487 42.6842C57.1306 43.4717 55.4362 44.3104 53.7299 45.1281C52.9687 45.4943 52.7613 45.3696 52.76 44.5361C52.76 41.2881 52.7591 38.0454 52.7573 34.8079Z" fill="#FB4E59"/>
    <defs>
    <linearGradient id="paint0_linear_19187_211870" x1="18.9651" y1="33.3251" x2="32.419" y2="61.0485" gradientUnits="userSpaceOnUse">
    <stop stop-color="#F9C02B"/>
    <stop offset="1" stop-color="#FC9B24"/>
    </linearGradient>
    <linearGradient id="paint1_linear_19187_211870" x1="67.9333" y1="41.5593" x2="36.519" y2="50.9729" gradientUnits="userSpaceOnUse">
    <stop stop-color="#F9AD1F"/>
    <stop offset="1" stop-color="#F9CC2E"/>
    </linearGradient>
    <linearGradient id="paint2_linear_19187_211870" x1="50.9299" y1="14.1953" x2="50.9299" y2="31.3444" gradientUnits="userSpaceOnUse">
    <stop stop-color="#F9CC2E"/>
    <stop offset="1" stop-color="#FDC536"/>
    </linearGradient>
    <linearGradient id="paint3_linear_19187_211870" x1="33.9668" y1="21.8408" x2="33.9668" y2="39.9231" gradientUnits="userSpaceOnUse">
    <stop stop-color="#F9CC2E"/>
    <stop offset="1" stop-color="#FDC536"/>
    </linearGradient>
    </defs>
</svg>