<svg width="90" height="69" viewBox="0 0 90 69" fill="none" xmlns="http://www.w3.org/2000/svg">
<path d="M44.9998 68.7695C69.6335 68.7695 89.6031 65.0381 89.6031 60.4353C89.6031 55.8324 69.6335 52.1011 44.9998 52.1011C20.3661 52.1011 0.396484 55.8324 0.396484 60.4353C0.396484 65.0381 20.3661 68.7695 44.9998 68.7695Z" fill="white"/>
<circle cx="44.8998" cy="30.8998" r="30.3998" fill="url(#paint0_linear_20754_248147)" stroke="white"/>
<path d="M52.8222 21.6318H49.3172L48.7778 26.7937H52.2828L52.8222 21.6318Z" fill="white"/>
<path d="M58.6663 21.5625H54.7144L54.06 27.8281C54.01 28.3056 53.6075 28.6687 53.1275 28.6687H47.7375C47.1795 28.6687 46.747 28.1832 46.8056 27.6337L47.44 21.5625H43.1838C41.9981 21.5625 41.0013 22.4513 40.8656 23.63L39.2275 37.8356C39.0683 39.2165 40.1479 40.4375 41.5456 40.4375H57.0288C58.2144 40.4375 59.2106 39.5494 59.3469 38.3706L60.9844 24.165C61.1442 22.7791 60.06 21.5625 58.6663 21.5625Z" fill="white"/>
<path d="M36.4989 34.0693H29.9375C29.4197 34.0693 29 34.4891 29 35.0068C29 35.5246 29.4197 35.9443 29.9375 35.9443H36.4989C37.0167 35.9443 37.4364 35.5246 37.4364 35.0068C37.4364 34.4891 37.0168 34.0693 36.4989 34.0693Z" fill="white"/>
<path d="M36.4988 30.0693H30.9985C30.4808 30.0693 30.061 30.4891 30.061 31.0068C30.061 31.5246 30.4808 31.9443 30.9985 31.9443H36.4988C37.0165 31.9443 37.4363 31.5246 37.4363 31.0068C37.4363 30.4891 37.0166 30.0693 36.4988 30.0693Z" fill="white"/>
<path d="M36.4987 26.0693H31.9985C31.4808 26.0693 31.061 26.4891 31.061 27.0068C31.061 27.5246 31.4808 27.9443 31.9985 27.9443H36.4987C37.0165 27.9443 37.4362 27.5246 37.4362 27.0068C37.4362 26.4891 37.0165 26.0693 36.4987 26.0693Z" fill="white"/>
<defs>
<linearGradient id="paint0_linear_20754_248147" x1="71.3048" y1="30.8711" x2="12.3921" y2="30.8711" gradientUnits="userSpaceOnUse">
<stop stop-color="#C1C7CF"/>
<stop offset="0.401698" stop-color="#A1ACB8"/>
</linearGradient>
</defs>
</svg>
