<svg width="59" height="20" viewBox="0 0 59 20" fill="none" xmlns="http://www.w3.org/2000/svg">
<path d="M0 10C0 4.47715 4.47715 0 10 0H49C54.5228 0 59 4.47715 59 10V10C59 15.5228 54.5228 20 49 20H10C4.47715 20 0 15.5228 0 10V10Z" fill="#28A745"/>
<path d="M15.4277 7.78125H13.0137V15H11.6191V7.78125H9.21094V6.59766H15.4277V7.78125ZM19.6641 12.2227H16.4648V11.2207H19.6641V12.2227ZM22.875 11.9531V15H21.4863V6.59766H24.0352C25 6.59766 25.748 6.82227 26.2793 7.27148C26.8105 7.7207 27.0762 8.35352 27.0762 9.16992C27.0762 9.98633 26.7988 10.6543 26.2441 11.1738C25.6895 11.6934 24.9395 11.9531 23.9941 11.9531H22.875ZM22.875 7.74609V10.8164H23.7773C24.375 10.8164 24.8301 10.6777 25.1426 10.4004C25.4551 10.123 25.6113 9.73242 25.6113 9.22852C25.6113 8.24023 25.0371 7.74609 23.8887 7.74609H22.875ZM34.5762 15H33.0469L32.291 12.8613H28.9863L28.2598 15H26.7363L29.8828 6.59766H31.4531L34.5762 15ZM31.9219 11.7246L30.7559 8.37305C30.7207 8.26367 30.6836 8.08789 30.6445 7.8457H30.6211C30.5859 8.06836 30.5469 8.24414 30.5039 8.37305L29.3496 11.7246H31.9219ZM42.1523 14.4258C41.2773 14.9023 40.3027 15.1406 39.2285 15.1406C37.9863 15.1406 36.9805 14.7539 36.2109 13.9805C35.4414 13.207 35.0566 12.1836 35.0566 10.9102C35.0566 9.60938 35.4766 8.54297 36.3164 7.71094C37.1602 6.875 38.2305 6.45703 39.5273 6.45703C40.4609 6.45703 41.2461 6.59375 41.8828 6.86719V8.30273C41.2383 7.87305 40.4707 7.6582 39.5801 7.6582C38.6855 7.6582 37.9512 7.95312 37.377 8.54297C36.8066 9.13281 36.5215 9.89648 36.5215 10.834C36.5215 11.7988 36.7676 12.5586 37.2598 13.1133C37.752 13.6641 38.4199 13.9395 39.2637 13.9395C39.8418 13.9395 40.3418 13.8281 40.7637 13.6055V11.6074H38.9941V10.4355H42.1523V14.4258ZM48.6797 15H43.9629V6.59766H48.4922V7.78125H45.3574V10.1602H48.2461V11.3379H45.3574V13.8223H48.6797V15Z" fill="white"/>
<path d="M10 1H49V-1H10V1ZM49 19H10V21H49V19ZM10 19C5.02944 19 1 14.9706 1 10H-1C-1 16.0751 3.92487 21 10 21V19ZM58 10C58 14.9706 53.9706 19 49 19V21C55.0751 21 60 16.0751 60 10H58ZM49 1C53.9706 1 58 5.02944 58 10H60C60 3.92487 55.0751 -1 49 -1V1ZM10 -1C3.92487 -1 -1 3.92487 -1 10H1C1 5.02944 5.02944 1 10 1V-1Z" fill="#28A745"/>
</svg>
