<svg width="150" height="151" viewBox="0 0 150 151" fill="none" xmlns="http://www.w3.org/2000/svg">
<path d="M76.8417 49.8747L74.2595 45.2342C73.8386 44.4688 73.2192 43.8304 72.4662 43.3854C71.7132 42.9405 70.8542 42.7056 69.9791 42.7051H31.2694C29.9738 42.7051 28.7312 43.2185 27.815 44.1322C26.8989 45.046 26.3842 46.2854 26.3842 47.5777V121.362C26.3842 122.71 26.921 124.003 27.8764 124.956C28.8318 125.908 30.1276 126.444 31.4788 126.444H119.413C120.764 126.444 122.06 125.908 123.015 124.956C123.971 124.003 124.508 122.71 124.508 121.362V56.9284C124.508 55.6361 123.993 54.3967 123.077 53.4829C122.161 52.5692 120.918 52.0558 119.622 52.0558H80.5637C79.8042 52.0587 79.0579 51.8577 78.4031 51.4739C77.7482 51.0902 77.2089 50.5378 76.8417 49.8747Z" fill="white"/>
<path opacity="0.3" d="M75.3227 49.8747L72.7405 45.2342C72.3196 44.4688 71.7002 43.8304 70.9472 43.3854C70.1943 42.9405 69.3353 42.7056 68.4601 42.7051H29.7504C28.4548 42.7051 27.2122 43.2185 26.2961 44.1322C25.3799 45.046 24.8652 46.2854 24.8652 47.5777V121.362C24.8652 122.71 25.402 124.003 26.3574 124.956C27.3128 125.908 28.6087 126.444 29.9598 126.444H117.894C119.245 126.444 120.541 125.908 121.496 124.956C122.452 124.003 122.989 122.71 122.989 121.362V56.9284C122.989 55.6361 122.474 54.3967 121.558 53.4829C120.642 52.5692 119.399 52.0558 118.103 52.0558H79.0448C78.2852 52.0587 77.5389 51.8577 76.8841 51.4739C76.2292 51.0902 75.6899 50.5378 75.3227 49.8747Z" fill="#B8C0CF"/>
<g filter="url(#filter0_d_11561_85887)">
<path d="M85.6783 29.2688L46.1782 32.7349C45.4803 32.7945 44.8015 32.9961 44.1806 33.3283C43.5597 33.6605 43.0089 34.1167 42.5597 34.6707C42.1105 35.2248 41.7718 35.8659 41.5629 36.5574C41.354 37.2488 41.2791 37.977 41.3423 38.7002L47.9879 114.373C48.0504 115.097 48.2501 115.802 48.5755 116.447C48.9009 117.093 49.3457 117.666 49.8843 118.135C50.4229 118.603 51.0448 118.957 51.7143 119.177C52.3838 119.397 53.0878 119.478 53.7859 119.416L104.341 114.979C105.038 114.919 105.716 114.717 106.336 114.384C106.956 114.052 107.506 113.595 107.954 113.041C108.402 112.487 108.739 111.846 108.947 111.155C109.154 110.464 109.228 109.737 109.163 109.014L103.543 44.7953L85.6783 29.2688Z" fill="white"/>
<path d="M85.6849 29.2705L86.6919 40.7298C86.7549 41.4523 86.9547 42.1558 87.2798 42.8C87.6048 43.4443 88.0488 44.0167 88.5864 44.4845C89.1239 44.9524 89.7445 45.3065 90.4127 45.5268C91.0809 45.747 91.7835 45.8289 92.4806 45.768L103.55 44.797L85.6849 29.2705Z" fill="#B8C0CF"/>
<path opacity="0.7" d="M85.6849 29.2705L86.6919 40.7298C86.7549 41.4523 86.9547 42.1558 87.2798 42.8C87.6048 43.4443 88.0488 44.0167 88.5864 44.4845C89.1239 44.9524 89.7445 45.3065 90.4127 45.5268C91.0809 45.747 91.7835 45.8289 92.4806 45.768L103.55 44.797L85.6849 29.2705Z" fill="url(#paint0_linear_11561_85887)" fill-opacity="0.9"/>
<rect width="33.9825" height="1.52054" rx="0.760269" transform="matrix(0.996113 -0.0880836 0.0884344 0.996082 46.2391 40.8906)" fill="#E8EDF8"/>
<rect width="51.0216" height="1.52054" rx="0.76027" transform="matrix(0.996113 -0.0880837 0.0884344 0.996082 48.3459 62.875)" fill="#E8EDF8"/>
<rect width="34.433" height="1.52054" rx="0.76027" transform="matrix(0.996113 -0.0880837 0.0884343 0.996082 46.6855 48.2227)" fill="#E8EDF8"/>
<rect width="51.0216" height="1.52054" rx="0.76027" transform="matrix(0.996113 -0.0880837 0.0884344 0.996082 49.053 70.2012)" fill="#E8EDF8"/>
<rect width="51.0216" height="1.52054" rx="0.760269" transform="matrix(0.996108 -0.0881417 0.0883824 0.996087 47.4248 55.5537)" fill="#E8EDF8"/>
<rect width="51.0216" height="1.52054" rx="0.760269" transform="matrix(0.996108 -0.0881417 0.0883824 0.996087 49.348 77.5283)" fill="#E8EDF8"/>
</g>
<path d="M132.825 61.7187H81.3829C80.3331 61.6681 79.2843 61.8375 78.303 62.2162C77.3217 62.5948 76.4294 63.1744 75.6827 63.9182L72.3323 67.9896C71.7221 68.6367 70.9798 69.1434 70.1565 69.4746C69.3332 69.8058 68.4483 69.9538 67.5627 69.9084H17.3073C13.8174 69.9084 11.4907 71.8037 12.0957 74.1436C17.0049 93.3074 19.4711 102.878 24.3803 122.018C24.8216 123.309 25.653 124.43 26.7585 125.223C27.8639 126.016 29.1881 126.441 30.5459 126.441H117.748C119.106 126.441 120.43 126.016 121.536 125.223C122.641 124.43 123.473 123.309 123.914 122.018L138.292 65.9773C138.874 63.6374 136.454 61.7187 132.825 61.7187Z" fill="white"/>
<g opacity="0.6" filter="url(#filter1_d_11561_85887)">
<path opacity="0.1" d="M133.046 62.164H81.6016C80.5517 62.1137 79.5029 62.2821 78.5216 62.6586C77.5402 63.0351 76.6479 63.6115 75.9011 64.3511L72.5506 68.3996C71.9404 69.0431 71.1981 69.5468 70.3747 69.8762C69.5513 70.2055 68.6664 70.3527 67.7808 70.3076H17.5232C14.033 70.3076 11.7063 72.1922 12.3112 74.519C17.2207 93.575 19.687 103.091 24.5964 122.124C25.0377 123.408 25.8692 124.522 26.9747 125.311C28.0802 126.099 29.4044 126.523 30.7623 126.522H117.969C119.326 126.523 120.651 126.099 121.756 125.311C122.862 124.522 123.693 123.408 124.134 122.124L138.514 66.3986C139.095 64.0719 136.676 62.164 133.046 62.164Z" fill="url(#paint1_linear_11561_85887)"/>
</g>
<path d="M90.1193 116.79L92.4709 114.268L79.6646 102.33L77.313 104.852L90.1193 116.79Z" fill="url(#paint2_linear_11561_85887)"/>
<path d="M97.2541 124.66C97.6631 125.041 98.3038 125.019 98.6853 124.61L100.864 122.275C101.246 121.866 101.224 121.225 100.815 120.843L92.0103 112.634C91.6013 112.253 90.9607 112.275 90.5792 112.684L88.4 115.019C88.0183 115.428 88.0406 116.07 88.4498 116.451L97.2541 124.66Z" fill="#28A745"/>
<path d="M52.1357 91.5172C52.3453 89.5262 52.947 87.5965 53.9061 85.8393C54.8652 84.0821 56.1627 82.5321 57.7238 81.2789C57.937 81.106 58.1531 80.9418 58.3721 80.7862C60.2777 79.4122 62.4753 78.4974 64.793 78.1133C67.1107 77.7291 69.4859 77.8861 71.7329 78.572C73.9799 79.2578 76.0379 80.4538 77.7461 82.0667C79.4544 83.6796 80.7665 85.6656 81.5801 87.8696C82.9284 91.5424 82.8217 95.5917 81.2819 99.1884C79.839 102.54 77.2412 105.263 73.9609 106.861C70.6806 108.46 66.9355 108.828 63.4066 107.899C59.8777 106.97 56.7993 104.806 54.731 101.8C52.6626 98.7936 51.7418 95.1449 52.1357 91.5172Z" fill="white"/>
<path d="M52.1381 91.5163C53.2445 80.7118 65.1035 74.5359 74.6115 79.7134C86.5655 86.3215 84.6769 103.915 71.5862 107.844C61.175 110.869 50.9108 102.308 52.1381 91.5163ZM52.1381 91.5163C50.9756 102.26 61.2139 110.77 71.5603 107.714C84.4479 103.825 86.3192 86.382 74.5855 79.8301C65.1294 74.644 53.305 80.7723 52.1598 91.499L52.1381 91.5163Z" fill="#28A745"/>
<path d="M65.3856 110.858C61.8826 110.481 58.5702 109.073 55.8673 106.813C53.1644 104.553 51.1923 101.542 50.2005 98.1614C49.2086 94.7806 49.2416 91.1816 50.2951 87.8195C51.3487 84.4574 53.3755 81.4833 56.1194 79.2731C58.8632 77.0629 62.2008 75.716 65.7101 75.4026C69.2194 75.0893 72.7429 75.8236 75.8349 77.5127C78.9269 79.2018 81.4486 81.7698 83.0811 84.8921C84.7137 88.0143 85.3837 91.5505 85.0065 95.0535C84.4963 99.7495 82.1437 104.051 78.4651 107.014C74.7865 109.977 70.0825 111.36 65.3856 110.858ZM65.606 108.831C68.7082 109.168 71.8405 108.577 74.6069 107.134C77.3732 105.69 79.6493 103.458 81.1471 100.721C82.6449 97.9835 83.2972 94.8634 83.0215 91.7552C82.7457 88.647 81.5544 85.6904 79.5981 83.2594C77.6418 80.8284 75.0085 79.0322 72.0312 78.098C69.0539 77.1638 65.8664 77.1336 62.872 78.0112C59.8776 78.8889 57.2107 80.6349 55.2087 83.0284C53.2067 85.4219 51.9595 88.3554 51.625 91.4578C51.1814 95.6145 52.4039 99.7775 55.0247 103.034C57.6455 106.291 61.4506 108.376 65.606 108.831Z" fill="url(#paint3_linear_11561_85887)"/>
<path d="M82.7384 87.8871C82.119 86.0863 81.1903 84.4074 79.9941 82.9257C77.444 79.7797 73.808 77.7031 69.8027 77.1051C65.7975 76.5071 61.7135 77.4311 58.3557 79.695C54.9979 81.9588 52.6099 85.3983 51.6624 89.3356C50.7148 93.2728 51.2765 97.4222 53.2366 100.966C55.1968 104.51 58.4132 107.19 62.252 108.48C66.0908 109.77 70.2734 109.575 73.9756 107.934C77.6778 106.293 80.6309 103.324 82.2529 99.6134C83.8749 95.9027 84.0481 91.7191 82.7384 87.8871ZM82.4575 94.8019C82.0835 98.3146 80.5027 101.589 77.9847 104.066C75.4667 106.544 72.1674 108.071 68.6492 108.389C65.1309 108.706 61.6116 107.793 58.6912 105.805C55.7707 103.818 53.6299 100.879 52.6337 97.4903C51.6376 94.1012 51.8477 90.4715 53.2282 87.2199C54.6088 83.9684 57.0743 81.2963 60.2046 79.6592C63.3348 78.0221 66.936 77.5214 70.3941 78.2423C73.8523 78.9633 76.9533 80.8613 79.1686 83.6128C81.6929 86.7564 82.8706 90.7712 82.4445 94.7803L82.4575 94.8019ZM82.7384 87.8871C82.119 86.0863 81.1903 84.4074 79.9941 82.9257C77.444 79.7797 73.808 77.7031 69.8027 77.1051C65.7975 76.5071 61.7135 77.4311 58.3557 79.695C54.9979 81.9588 52.6099 85.3983 51.6624 89.3356C50.7148 93.2728 51.2765 97.4222 53.2366 100.966C55.1968 104.51 58.4132 107.19 62.252 108.48C66.0908 109.77 70.2734 109.575 73.9756 107.934C77.6778 106.293 80.6309 103.324 82.2529 99.6134C83.8749 95.9027 84.0481 91.7191 82.7384 87.8871ZM82.4575 94.8019C82.0835 98.3146 80.5027 101.589 77.9847 104.066C75.4667 106.544 72.1674 108.071 68.6492 108.389C65.1309 108.706 61.6116 107.793 58.6912 105.805C55.7707 103.818 53.6299 100.879 52.6337 97.4903C51.6376 94.1012 51.8477 90.4715 53.2282 87.2199C54.6088 83.9684 57.0743 81.2963 60.2046 79.6592C63.3348 78.0221 66.936 77.5214 70.3941 78.2423C73.8523 78.9633 76.9533 80.8613 79.1686 83.6128C81.6929 86.7564 82.8706 90.7712 82.4445 94.7803L82.4575 94.8019ZM84.6703 87.2518C83.6093 84.1401 81.7316 81.3708 79.2335 79.2336C76.7353 77.0964 73.7087 75.6699 70.4703 75.1034C67.2319 74.537 63.9008 74.8513 60.8255 76.0136C57.7503 77.1758 55.0439 79.1433 52.9897 81.71C50.9355 84.2768 49.6089 87.3485 49.1487 90.6037C48.6886 93.8589 49.1119 97.178 50.3742 100.214C51.6365 103.249 53.6916 105.89 56.3242 107.859C58.9569 109.828 62.0704 111.053 65.3389 111.406C68.4047 111.736 71.5042 111.289 74.3511 110.104C77.198 108.92 79.7005 107.037 81.6272 104.629C83.5539 102.222 84.8428 99.3676 85.3746 96.3303C85.9065 93.293 85.6643 90.1707 84.6703 87.2518ZM84.4887 95.031C84.0343 99.2664 82.0322 103.185 78.8663 106.035C75.7004 108.885 71.5937 110.466 67.334 110.474C63.0743 110.482 58.9615 108.918 55.7845 106.08C52.6075 103.242 50.59 99.3318 50.119 95.0981C49.6481 90.8645 50.7568 86.6061 53.2326 83.1397C55.7083 79.6732 59.3767 77.2429 63.5341 76.3149C67.6915 75.3869 72.0452 76.0266 75.76 78.1111C79.4748 80.1957 82.2892 83.5785 83.6633 87.6105C84.467 89.9843 84.7414 92.5053 84.4671 94.9964L84.4887 95.031ZM79.9941 82.9602C77.4368 79.8184 73.7951 77.7489 69.7872 77.1597C65.7793 76.5706 61.6961 77.5046 58.3429 79.7776C54.9896 82.0505 52.6098 85.4975 51.6727 89.4386C50.7356 93.3797 51.3093 97.5289 53.2806 101.068C55.2519 104.607 58.4777 107.279 62.3218 108.557C66.166 109.835 70.3494 109.626 74.0471 107.971C77.7449 106.317 80.6884 103.337 82.2973 99.6187C83.9061 95.9009 84.0635 91.7152 82.7384 87.8871C82.1151 86.0854 81.1819 84.4064 79.9811 82.9257L79.9941 82.9602ZM82.4575 94.8149C82.0835 98.3275 80.5027 101.602 77.9847 104.079C75.4667 106.557 72.1674 108.084 68.6492 108.402C65.1309 108.719 61.6116 107.806 58.6912 105.818C55.7707 103.831 53.6299 100.892 52.6337 97.5033C51.6376 94.1142 51.8477 90.4844 53.2282 87.2329C54.6088 83.9813 57.0743 81.3093 60.2046 79.6722C63.3348 78.0351 66.936 77.5343 70.3941 78.2553C73.8523 78.9762 76.9533 80.8743 79.1686 83.6258C81.6896 86.7661 82.8671 90.7756 82.4445 94.7803L82.4575 94.8149Z" fill="url(#paint4_linear_11561_85887)"/>
<path d="M57.0671 100.514C56.0865 99.2086 55.3888 97.7131 55.0186 96.123C54.8193 95.3172 54.702 94.4933 54.6685 93.6639C54.6385 92.8238 54.6906 91.9829 54.8241 91.1529C55.1078 89.4815 55.7394 87.8884 56.6782 86.4768C57.5992 85.0863 58.7718 83.88 60.1356 82.9199C59.0847 84.1452 58.1595 85.4728 57.374 86.883C57.0025 87.5769 56.6874 88.2995 56.4318 89.0439C56.1682 89.776 55.9743 90.5313 55.8527 91.2999C55.6003 92.8358 55.5872 94.4015 55.8138 95.9415C56.0472 97.5103 56.468 99.0454 57.0671 100.514Z" fill="url(#paint5_linear_11561_85887)"/>
<path d="M78.8524 89.5439C79.4395 91.0677 79.703 92.697 79.626 94.3282C79.5951 95.1658 79.4807 95.9983 79.2846 96.8132C79.0825 97.6288 78.8032 98.4233 78.4505 99.1859C77.7191 100.714 76.6769 102.072 75.3906 103.175C74.1152 104.26 72.6499 105.1 71.0688 105.651C72.4147 104.76 73.6671 103.734 74.8072 102.591C75.3541 102.027 75.8556 101.42 76.3069 100.776C76.7599 100.143 77.152 99.4691 77.4781 98.7623C78.1402 97.3524 78.5777 95.8475 78.7746 94.3022C78.9926 92.7251 79.0187 91.1274 78.8524 89.5439Z" fill="url(#paint6_linear_11561_85887)"/>
<path d="M62.625 91.2554C62.6589 90.6737 62.8781 90.0956 63.2827 89.5213C63.6872 88.947 64.2584 88.4835 64.9963 88.1308C65.7325 87.7799 66.5774 87.6306 67.5312 87.6829C68.4182 87.7318 69.1915 87.9387 69.8511 88.3036C70.4718 88.6304 70.9904 89.1221 71.3498 89.7245C71.6801 90.2857 71.8356 90.9326 71.7963 91.5826C71.781 92.0578 71.6463 92.5215 71.4045 92.9309C71.1862 93.294 70.9137 93.6216 70.5965 93.9025C70.2909 94.1712 69.7436 94.6204 68.9547 95.2501C68.7706 95.3981 68.5944 95.5557 68.427 95.7224C68.3119 95.836 68.2109 95.9631 68.1262 96.101C68.0605 96.2117 68.0061 96.3289 67.964 96.4506C67.9237 96.5686 67.8617 96.7744 67.7779 97.0706C67.6262 97.6999 67.245 97.9976 66.6342 97.9637C66.4863 97.9592 66.3408 97.9254 66.206 97.8642C66.0713 97.8031 65.95 97.7158 65.8492 97.6075C65.6443 97.3877 65.5531 97.073 65.5755 96.6636C65.5939 95.8024 65.9533 94.9837 66.5748 94.3873C66.933 94.0522 67.308 93.7354 67.6981 93.4381C68.1077 93.1169 68.4052 92.8748 68.5886 92.7099C68.7714 92.5469 68.9303 92.359 69.0609 92.1519C69.192 91.9461 69.2671 91.7096 69.2786 91.4658C69.295 91.2326 69.261 90.9985 69.1786 90.7795C69.0963 90.5606 68.9678 90.3621 68.8017 90.1974C68.4551 89.8403 67.9963 89.6453 67.425 89.6123C66.7522 89.5754 66.2478 89.7179 65.9119 90.0398C65.5759 90.3617 65.2789 90.8478 65.0207 91.4982C64.7754 92.1771 64.3631 92.5014 63.784 92.4711C63.6222 92.4655 63.4633 92.4261 63.3176 92.3556C63.1719 92.2851 63.0425 92.1849 62.9377 92.0615C62.8347 91.9546 62.7541 91.8282 62.7004 91.6899C62.6467 91.5515 62.6211 91.4038 62.625 91.2554ZM66.5398 101.547C66.1802 101.533 65.8391 101.384 65.5834 101.131C65.3191 100.874 65.1986 100.529 65.2219 100.095C65.229 99.9138 65.2736 99.7361 65.3528 99.5731C65.4321 99.41 65.5443 99.2652 65.6823 99.1477C65.8196 99.0262 65.9799 98.9335 66.1538 98.8752C66.3276 98.817 66.5114 98.7943 66.6942 98.8087C66.8745 98.8159 67.0516 98.8592 67.2149 98.9361C67.3781 99.013 67.5243 99.122 67.6446 99.2565C67.765 99.391 67.8571 99.5483 67.9154 99.719C67.9738 99.8898 67.9973 100.071 67.9844 100.251C67.9607 100.678 67.805 101.006 67.5174 101.235C67.2429 101.459 66.8935 101.571 66.5398 101.547Z" fill="url(#paint7_linear_11561_85887)"/>
<defs>
<filter id="filter0_d_11561_85887" x="31.3206" y="23.2686" width="87.8655" height="110.168" filterUnits="userSpaceOnUse" color-interpolation-filters="sRGB">
<feFlood flood-opacity="0" result="BackgroundImageFix"/>
<feColorMatrix in="SourceAlpha" type="matrix" values="0 0 0 0 0 0 0 0 0 0 0 0 0 0 0 0 0 0 127 0" result="hardAlpha"/>
<feOffset dy="4"/>
<feGaussianBlur stdDeviation="5"/>
<feComposite in2="hardAlpha" operator="out"/>
<feColorMatrix type="matrix" values="0 0 0 0 0 0 0 0 0 0 0 0 0 0 0 0 0 0 0.2 0"/>
<feBlend mode="normal" in2="BackgroundImageFix" result="effect1_dropShadow_11561_85887"/>
<feBlend mode="normal" in="SourceGraphic" in2="effect1_dropShadow_11561_85887" result="shape"/>
</filter>
<filter id="filter1_d_11561_85887" x="5.21558" y="57.1553" width="140.384" height="78.3662" filterUnits="userSpaceOnUse" color-interpolation-filters="sRGB">
<feFlood flood-opacity="0" result="BackgroundImageFix"/>
<feColorMatrix in="SourceAlpha" type="matrix" values="0 0 0 0 0 0 0 0 0 0 0 0 0 0 0 0 0 0 127 0" result="hardAlpha"/>
<feOffset dy="2"/>
<feGaussianBlur stdDeviation="3.5"/>
<feComposite in2="hardAlpha" operator="out"/>
<feColorMatrix type="matrix" values="0 0 0 0 0 0 0 0 0 0 0 0 0 0 0 0 0 0 0.2 0"/>
<feBlend mode="normal" in2="BackgroundImageFix" result="effect1_dropShadow_11561_85887"/>
<feBlend mode="normal" in="SourceGraphic" in2="effect1_dropShadow_11561_85887" result="shape"/>
</filter>
<linearGradient id="paint0_linear_11561_85887" x1="89.4702" y1="34.0116" x2="115.515" y2="40.4978" gradientUnits="userSpaceOnUse">
<stop stop-color="white"/>
<stop offset="1" stop-color="white" stop-opacity="0"/>
</linearGradient>
<linearGradient id="paint1_linear_11561_85887" x1="27.7523" y1="122.94" x2="71.7264" y2="45.7181" gradientUnits="userSpaceOnUse">
<stop offset="0.0977" stop-color="#C1C7D0"/>
<stop offset="1" stop-color="#EBECF0" stop-opacity="0.5"/>
</linearGradient>
<linearGradient id="paint2_linear_11561_85887" x1="90.1193" y1="116.79" x2="92.9262" y2="111.932" gradientUnits="userSpaceOnUse">
<stop stop-color="#BEC7CF"/>
<stop offset="1" stop-color="#8D9293"/>
</linearGradient>
<linearGradient id="paint3_linear_11561_85887" x1="85.1089" y1="75.332" x2="59.9887" y2="104.713" gradientUnits="userSpaceOnUse">
<stop stop-color="#9BF763"/>
<stop offset="1" stop-color="#26AB5B"/>
</linearGradient>
<linearGradient id="paint4_linear_11561_85887" x1="85.6496" y1="74.8291" x2="59.7848" y2="105.078" gradientUnits="userSpaceOnUse">
<stop stop-color="#9BF763"/>
<stop offset="1" stop-color="#26AB5B"/>
</linearGradient>
<linearGradient id="paint5_linear_11561_85887" x1="55.3334" y1="99.5349" x2="62.554" y2="97.5252" gradientUnits="userSpaceOnUse">
<stop offset="0.0977" stop-color="#C1C7D0"/>
<stop offset="1" stop-color="#EBECF0" stop-opacity="0.5"/>
</linearGradient>
<linearGradient id="paint6_linear_11561_85887" x1="72.1224" y1="104.755" x2="82.0516" y2="100.03" gradientUnits="userSpaceOnUse">
<stop offset="0.0977" stop-color="#C1C7D0"/>
<stop offset="1" stop-color="#EBECF0" stop-opacity="0.5"/>
</linearGradient>
<linearGradient id="paint7_linear_11561_85887" x1="67.2579" y1="85.4682" x2="68.73" y2="98.0794" gradientUnits="userSpaceOnUse">
<stop stop-color="#9BF763"/>
<stop offset="1" stop-color="#26AB5B"/>
</linearGradient>
</defs>
</svg>
